<svg xmlns="http://www.w3.org/2000/svg" xmlns:xlink="http://www.w3.org/1999/xlink" xmlns:lucid="lucid" width="2420" height="2360"><g transform="translate(706 952)" lucid:page-tab-id="0_0"><path d="M-1806.87-1258.84h3677.74v3840.5h-3677.74z" fill="#fff"/><path d="M-485.75 1028.5a.25.25 0 0 1 .25-.25h699a.25.25 0 0 1 .25.25.25.25 0 0 1-.25.25h-699a.25.25 0 0 1-.25-.25z" fill="none"/><path d="M-475.58 1028.25h9.9m4.97 0h9.9m4.96 0h9.9m4.97 0h9.92m4.95 0h9.92m4.96 0h9.9m4.97 0h9.9m4.97 0h9.92m4.95 0h9.9m4.97 0h9.9m4.97 0h9.9m4.97 0h9.93m4.95 0h9.92m4.95 0h9.92m4.96 0h9.9m4.97 0h9.9m4.97 0h9.92m4.94 0h9.92m4.96 0h9.9m4.97 0h9.9m4.96 0h9.92m4.95 0h9.92m4.96 0h9.92m4.96 0h9.9m4.97 0h9.92m4.95 0h9.92m4.96 0h9.9m4.97 0h9.9m4.97 0h9.9m4.97 0h9.93m4.95 0h9.92m4.96 0h9.9m4.97 0h9.9m4.97 0h9.92m4.95 0H40m4.95 0h9.9m4.97 0h9.9m4.97 0h9.9m4.96 0h9.92m4.96 0h9.9m4.97 0h9.92m4.96 0h9.92m4.95 0h9.92m4.96 0h9.9m4.97 0h9.9m4.97 0h9.92m4.94 0h5.04l.03.03.05.02.03.02.02.03.02.04.02.02v.16l-.02.03-.02.05-.02.03-.03.02-.04.02-.02.02h-5.04m-4.95 0h-9.93m-4.96 0h-9.9m-4.96 0h-9.9m-4.97 0h-9.92m-4.95 0h-9.92m-4.96 0h-9.9m-4.97 0h-9.9m-4.97 0h-9.92m-4.95 0h-9.9m-4.97 0h-9.9m-4.97 0h-9.9m-4.97 0h-9.93m-4.95 0H15.2m-4.96 0H.34m-4.97 0h-9.9m-4.97 0h-9.9m-4.97 0h-9.92m-4.95 0h-9.9m-4.97 0h-9.9m-4.97 0h-9.9m-4.96 0h-9.92m-4.95 0h-9.92m-4.96 0h-9.92m-4.96 0h-9.9m-4.97 0h-9.92m-4.95 0h-9.92m-4.96 0h-9.9m-4.97 0h-9.9m-4.97 0h-9.9m-4.97 0h-9.93m-4.96 0h-9.9m-4.96 0h-9.9m-4.97 0h-9.92m-4.95 0h-9.92m-4.95 0H-312m-4.95 0h-9.9m-4.97 0h-9.9m-4.97 0h-9.9m-4.96 0h-9.92m-4.96 0h-9.9m-4.97 0h-9.92m-4.96 0h-9.92m-4.95 0h-9.92m-4.96 0h-9.9m-4.97 0h-9.9m-4.97 0h-9.9m-4.97 0h-5.04l-.03-.02-.05-.02-.03-.02-.02-.03-.02-.04-.02-.02v-.16l.02-.03.02-.05.02-.03.03-.02.04-.02.02-.02h5.04" stroke="#3a414a" stroke-width=".5" fill="none"/><path d="M-686-926a6 6 0 0 1 6-6h153a6 6 0 0 1 6 6v8a14.48 14.48 0 0 1-4.24 10.24l-1.52 1.52A14.48 14.48 0 0 1-537-902h-143a6 6 0 0 1-6-6z" fill="#fff"/><path d="M-521-932v20l-10 10h-155" stroke="#3a414a" fill="none"/><path d="M-686-926a6 6 0 0 1 6-6h2368a6 6 0 0 1 6 6v2308a6 6 0 0 1-6 6H-680a6 6 0 0 1-6-6z" stroke="#3a414a" fill="none"/><use xlink:href="#a" transform="matrix(1,0,0,1,-678,-932) translate(0 18.6)"/><use xlink:href="#b" transform="matrix(1,0,0,1,-678,-932) translate(25.950000000000003 18.6)"/><use xlink:href="#c" transform="matrix(1,0,0,1,-678,-932) translate(84.85000000000001 18.6)"/><g fill="none"><path d="M-525.5-731.75a.25.25 0 0 1 .25.25v2109a.25.25 0 0 1-.25.25.25.25 0 0 1-.25-.25v-2109a.25.25 0 0 1 .25-.25z"/><path d="M-525.25-721.53v9.97m0 5v9.96m0 5v9.96m0 4.98v9.98m0 4.98v9.97m0 5v9.96m0 5v9.96m0 4.97v9.98m0 4.98v9.97m0 5v9.96m0 5v9.96m0 4.98v9.98m0 4.98v9.97m0 5v9.96m0 4.98v9.97m0 4.98v9.98m0 5v9.96m0 5v9.96m0 5v9.96m0 4.98v9.98m0 4.98v9.97m0 4.98v9.97m0 5v9.96m0 5v9.97m0 4.98v9.97m0 5v9.96m0 5v9.96m0 4.98v9.97m0 4.98v9.97m0 5v9.96m0 5v9.97m0 4.98v9.97m0 5v9.96m0 5v9.96m0 5v9.96m0 4.98v9.97m0 5v9.96m0 5v9.97m0 5v9.96m0 4.98v9.98m0 5v9.96m0 5v9.96m0 4.98v9.98m0 4.98v9.97m0 5v9.97m0 5v9.96m0 4.98v10m0 4.97v9.97m0 5V6.4m0 5v9.96m0 4.98v9.98m0 4.98v9.97m0 5v9.96m0 5v9.96m0 4.97v9.98m0 4.98v9.97m0 5v9.96m0 5V141m0 4.98v9.98m0 4.98v9.97m0 5v9.96m0 4.98v9.97m0 4.98v9.98m0 5v9.96m0 5v9.96m0 5v9.96m0 4.98v9.98m0 4.98v9.97m0 4.98v9.97m0 5v9.96m0 5v9.97m0 4.98v9.97m0 5v9.96m0 5v9.96m0 4.98v9.97m0 4.98v9.97m0 5v9.96m0 5v9.97m0 4.98v9.97m0 5v9.96m0 5v9.96m0 5V500m0 4.98v9.97m0 5v9.96m0 5v9.97m0 5v9.96m0 4.98v9.98m0 5v9.96m0 5v9.96m0 4.98v9.98m0 4.98v9.97m0 5v9.97m0 5v9.96m0 4.98v10m0 4.97v9.97m0 5v9.96m0 5v9.96m0 4.98v9.98m0 4.98v9.97m0 5v9.96m0 5v9.96m0 4.97v9.97m0 5v9.96m0 5v9.96m0 5V844m0 4.98v9.97m0 5v9.96m0 5v9.96m0 4.98v9.97m0 4.98v9.97m0 5v9.96m0 5v9.96m0 5v9.96m0 4.98v9.97m0 5v9.96m0 4.98v9.97m0 4.98v9.98m0 5v9.96m0 5v9.96m0 5v9.96m0 4.98v9.98m0 4.98v9.97m0 4.98v9.97m0 5v9.96m0 5v9.97m0 4.98v9.97m0 5v9.96m0 5v9.96m0 4.98v9.98m0 4.98v9.97m0 5v9.96m0 5v9.97m0 4.98v9.98m0 4.98v9.98m0 5v9.96m0 5v9.96m0 4.98v9.98m0 4.98v9.97m0 5v9.97m0 5v9.96m0 4.98v5.08l-.03.03-.02.05-.02.03-.03.02-.04.02-.02.02h-.16l-.03-.02-.05-.02-.03-.02-.02-.03-.02-.04-.02-.02v-5.08m0-4.97v-9.97m0-5v-9.96m0-5v-9.96m0-4.98v-9.98m0-4.98v-9.97m0-5v-9.96m0-5v-9.96m0-4.97v-9.98m0-4.98v-9.97m0-5v-9.96m0-5V1208m0-4.98v-9.98m0-4.98v-9.97m0-5v-9.96m0-4.98v-9.97m0-4.98v-9.98m0-5v-9.96m0-5v-9.96m0-5v-9.96m0-4.98v-9.98m0-4.98v-9.97m0-4.98v-9.97m0-5v-9.96m0-5v-9.97m0-4.98v-9.97m0-5v-9.96m0-5v-9.96m0-4.98v-9.97m0-4.98v-9.97m0-5v-9.96m0-5v-9.97m0-4.98v-9.97m0-5v-9.96m0-5v-9.96m0-5V849m0-4.98v-9.97m0-5v-9.96m0-5v-9.97m0-5v-9.96m0-4.98v-9.98m0-5v-9.96m0-5v-9.96m0-4.98v-9.98m0-4.98v-9.97m0-5v-9.97m0-5v-9.96m0-4.98v-10m0-4.97v-9.97m0-5v-9.96m0-5v-9.96m0-4.98v-9.98m0-4.98v-9.97m0-5v-9.96m0-5v-9.96m0-4.97v-9.98m0-4.98v-9.97m0-5v-9.96m0-5V505m0-4.98v-9.98m0-4.98v-9.97m0-5v-9.96m0-4.98v-9.97m0-4.98v-9.98m0-5v-9.96m0-5v-9.96m0-5v-9.96m0-4.98v-9.98m0-4.98v-9.97m0-4.98v-9.97m0-5v-9.96m0-5v-9.97m0-4.98v-9.97m0-5v-9.96m0-5v-9.96m0-4.98v-9.97m0-4.98v-9.97m0-5v-9.96m0-5v-9.97m0-4.98v-9.97m0-5v-9.96m0-5v-9.96m0-5V146m0-4.98v-9.97m0-5v-9.96m0-5v-9.97m0-5v-9.96m0-4.98V71.2m0-5v-9.96m0-5V41.3m0-4.98v-9.98m0-4.98V11.4m0-5v-9.97m0-5v-9.96m0-4.98v-10m0-4.97v-9.97m0-5v-9.96m0-5v-9.96m0-4.98v-9.98m0-4.98v-9.97m0-5v-9.96m0-5v-9.96m0-4.97v-9.98m0-4.98v-9.97m0-5v-9.96m0-5V-198m0-4.98v-9.98m0-4.98v-9.97m0-5v-9.96m0-4.98v-9.97m0-4.98v-9.98m0-5v-9.96m0-5v-9.96m0-5v-9.96m0-4.98v-9.98m0-4.98v-9.97m0-4.98v-9.97m0-5v-9.96m0-5v-9.97m0-4.98v-9.97m0-5v-9.96m0-5v-9.96m0-4.98v-9.97m0-4.98v-9.97m0-5v-9.96m0-5v-9.97m0-4.98v-9.97m0-5v-9.96m0-5v-9.96m0-5V-557m0-4.98v-9.97m0-5v-9.96m0-5v-9.97m0-5v-9.96m0-4.98v-9.98m0-5v-9.96m0-5v-9.96m0-4.98v-9.98m0-4.98v-9.97m0-5v-9.97m0-5v-9.96m0-4.98v-5.08l.02-.03.02-.05.02-.03.03-.02.04-.02.02-.02h.16l.03.02.05.02.03.02.02.03.02.04.02.02v5.08" stroke="#3a414a" stroke-width=".5"/></g><path d="M-506.25-812.25c0 10.9-8.84 19.75-19.75 19.75-10.9 0-19.75-8.84-19.75-19.75 0-10.9 8.84-19.75 19.75-19.75 10.9 0 19.75 8.84 19.75 19.75z" stroke="#3a414a" fill="#fff"/><path d="M-526-792.5v49.3a20.7 20.7 0 0 0 3.2 11.07L-486-674m-40-63.2l-40 63.2m0-98.75h80" stroke="#3a414a" fill="none"/><path d="M-566-826a6 6 0 0 1 6-6h68a6 6 0 0 1 6 6v168a6 6 0 0 1-6 6h-68a6 6 0 0 1-6-6z" fill="none"/><use xlink:href="#d" transform="matrix(1,0,0,1,-646,-674) translate(54.72222222222223 17.77777777777778)"/><path d="M-545.5-606a6 6 0 0 1 6-6h27.5a6 6 0 0 1 6 6v1948a6 6 0 0 1-6 6h-27.5a6 6 0 0 1-6-6z" stroke="#3a414a" fill="#fff"/><path d="M-486 774a6 6 0 0 1 6-6h88a6 6 0 0 1 6 6v8a14.48 14.48 0 0 1-4.24 10.24l-1.52 1.52A14.48 14.48 0 0 1-402 798h-78a6 6 0 0 1-6-6z" fill="#fff"/><path d="M-386 768v20l-10 10h-90" stroke="#3a414a" fill="none"/><path d="M-486 774a6 6 0 0 1 6-6h688a6 6 0 0 1 6 6v488a6 6 0 0 1-6 6h-688a6 6 0 0 1-6-6z" stroke="#3a414a" fill="none"/><use xlink:href="#e" transform="matrix(1,0,0,1,-478,768) translate(0 19.444444444444443)"/><use xlink:href="#f" transform="matrix(1,0,0,1,-474,806) translate(0 19.444444444444443)"/><use xlink:href="#g" transform="matrix(1,0,0,1,-474,806) translate(80.12345679012346 19.444444444444443)"/><use xlink:href="#h" transform="matrix(1,0,0,1,-474,806) translate(105.4320987654321 19.444444444444443)"/><path d="M-306-806a6 6 0 0 1 6-6h273.13a6 6 0 0 1 6 6v108a6 6 0 0 1-6 6H-300a6 6 0 0 1-6-6z" stroke="#3a414a" fill="#fff"/><use xlink:href="#i" transform="matrix(1,0,0,1,-301,-807) translate(21.487654320987687 59.02777777777778)"/><g fill="none"><path d="M-166-681.75a.25.25 0 0 1 .25.25v2069a.25.25 0 0 1-.25.25.25.25 0 0 1-.25-.25v-2069a.25.25 0 0 1 .25-.25z"/><path d="M-165.75-671.5v10m0 5v9.98m0 5v10m0 5v10m0 5v9.98m0 5v10m0 5v10m0 4.98v10m0 5v10m0 5v10m0 4.98v10m0 5v10m0 5v9.98m0 5v10m0 5v10m0 5v9.98m0 5v10m0 5v10m0 5v9.98m0 5v10m0 5v10m0 4.98v10m0 5v10m0 5v9.98m0 5v10m0 5v10m0 5v9.98m0 5v10m0 5v10m0 5v9.98m0 5v10m0 5v10m0 4.98v10m0 5v10m0 5v9.98m0 5v10m0 5v10m0 5v9.98m0 5v10m0 5v10m0 5v9.98m0 5v10m0 5v10m0 4.98v10m0 5v10m0 5v9.98m0 5v10m0 5v10m0 5v9.98m0 5v10m0 5v10m0 5v9.98m0 5v10m0 5v10m0 4.98v10m0 5v10m0 5v10m0 4.98v10m0 5v10m0 5v9.98m0 5v10m0 5v10m0 5v9.98m0 5v10m0 5v10m0 4.98v10m0 5v10m0 5v10m0 4.98v10m0 5v10m0 5v9.98m0 5v10m0 5v10m0 5v9.98m0 5v10m0 5v10m0 4.98v10m0 5v10m0 5v10m0 4.98v10m0 5v10m0 5v9.98m0 5v10m0 5v10m0 5v9.98m0 5v10m0 5v10m0 5v9.98m0 5v10m0 5v9.98m0 5v10m0 5v10m0 5v9.98m0 5v10m0 5v10m0 5v9.98m0 5v10m0 5v10m0 4.98v10m0 5v10m0 5v10m0 4.98v10m0 5v10m0 5v9.98m0 5v10m0 5v10m0 5v9.98m0 5v10m0 5v10m0 4.98v10m0 5v10m0 5v10m0 4.98v10m0 5v10m0 5v9.98m0 5v10m0 5v10m0 5v9.98m0 5v10m0 5v10m0 5v9.98m0 5v10m0 5v10m0 4.98v10m0 5v10m0 5v9.98m0 5v10m0 5v10m0 5v9.98m0 5v10m0 5v10m0 5v9.98m0 5v10m0 5v10m0 4.98v10m0 5v10m0 5v9.98m0 5v5.08l-.03.03-.02.05-.02.03-.03.02-.04.02-.02.02h-.16l-.03-.02-.05-.02-.03-.02-.02-.03-.02-.04-.02-.02v-5.08m0-5v-10m0-5v-9.98m0-5v-10m0-5v-10m0-5v-9.98m0-5v-10m0-5v-10m0-4.98v-10m0-5v-10m0-5v-10m0-4.98v-10m0-5v-10m0-5v-9.98m0-5v-10m0-5v-10m0-5v-9.98m0-5v-10m0-5v-10m0-5v-9.98m0-5v-10m0-5v-10m0-4.98v-10m0-5v-10m0-5v-9.98m0-5v-10m0-5v-10m0-5v-9.98m0-5v-10m0-5v-10m0-5v-9.98m0-5v-10m0-5v-10m0-4.98v-10m0-5v-10m0-5v-9.98m0-5v-10m0-5v-10m0-5v-9.98m0-5v-10m0-5v-10m0-5v-9.98m0-5v-10m0-5v-10m0-4.98v-10m0-5v-10m0-5v-9.98m0-5v-10m0-5v-10m0-5v-9.98m0-5v-10m0-5v-10m0-5v-9.98m0-5v-10m0-5v-10m0-4.98v-10m0-5v-10m0-5v-10m0-4.98v-10m0-5v-10m0-5v-9.98m0-5v-10m0-5v-10m0-5v-9.98m0-5v-10m0-5v-10m0-4.98v-10m0-5v-10m0-5v-10m0-4.98v-10m0-5v-10m0-5v-9.98m0-5v-10m0-5v-10m0-5v-9.98m0-5v-10m0-5v-10m0-4.98v-10m0-5v-10m0-5v-10m0-4.98v-10m0-5v-10m0-5v-9.98m0-5v-10m0-5v-10m0-5v-9.98m0-5v-10m0-5v-10m0-5v-9.98m0-5v-10m0-5v-10m0-4.98v-10m0-5v-10m0-5v-9.98m0-5v-10m0-5v-10m0-5v-9.98m0-5v-10m0-5v-10m0-5v-9.98m0-5v-10m0-5v-10m0-4.98v-10m0-5v-10m0-5v-9.98m0-5v-10m0-5v-10m0-5v-9.98m0-5v-10m0-5v-10m0-5v-9.98m0-5v-10m0-5v-10m0-4.98v-10m0-5v-10m0-5v-9.98m0-5v-10m0-5v-10m0-5v-9.98m0-5v-10m0-5v-10m0-5v-9.98m0-5v-10m0-5v-10m0-4.98v-10m0-5v-10m0-5v-10m0-4.98v-10m0-5v-10m0-5v-9.98m0-5v-10m0-5v-10m0-5v-9.98m0-5v-10m0-5v-10m0-4.98v-10m0-5v-10m0-5v-10m0-4.98v-5.08l.02-.03.02-.05.02-.03.03-.02.04-.02.02-.02h.16l.03.02.05.02.03.02.02.03.02.04.02.02v5.08" stroke="#3a414a" stroke-width=".5"/></g><path d="M-186.5-606a6 6 0 0 1 6-6h28.5a6 6 0 0 1 6 6v1928a6 6 0 0 1-6 6h-28.5a6 6 0 0 1-6-6z" stroke="#3a414a" fill="#fff"/><path d="M-466-606a6 6 0 0 1 6-6h228a6 6 0 0 1 6 6v29a6 6 0 0 1-6 6h-228a6 6 0 0 1-6-6z" stroke="#000" stroke-opacity="0" fill="#fff" fill-opacity="0"/><use xlink:href="#j" transform="matrix(1,0,0,1,-461,-607) translate(15.925925925925952 19.71527777777778)"/><path d="M-505-556.52h301.62" stroke="#3a414a" fill="none"/><path d="M-505-556.02h-.5v-1h.5z" stroke="#3a414a" stroke-width=".05" fill="#3a414a"/><path d="M-188.62-556.52l-14.26 4.63v-9.26z" stroke="#3a414a" fill="#3a414a"/><path d="M94-565a6 6 0 0 1 6-6h268a6 6 0 0 1 6 6v108a6 6 0 0 1-6 6H100a6 6 0 0 1-6-6z" stroke="#3a414a" fill="#fff"/><use xlink:href="#k" transform="matrix(1,0,0,1,99,-566) translate(14.13580246913584 59.02777777777778)"/><path d="M-145-499.74h4.96m4.96 0h9.9m4.97 0h9.9m4.97 0h9.9m4.97 0h9.92m4.96 0h9.9m4.97 0h9.9m4.97 0h9.9m4.97 0h9.9m4.94 0h9.9m4.93 0h9.9m4.93 0h9.88m4.95 0h9.9m4.93 0h9.88m4.94 0h9.88m4.95 0h9.88m4.95 0h4.94" stroke="#3a414a" fill="none"/><path d="M-145-499.24h-.5v-1h.5z" stroke="#3a414a" stroke-width=".05" fill="#3a414a"/><path d="M75.3-489.56l17.22-10.18-17.22-10.18" stroke="#3a414a" fill="none"/><g fill="none"><path d="M234.5-451.75a.25.25 0 0 1 .25.25v1829a.25.25 0 0 1-.25.25.25.25 0 0 1-.25-.25v-1829a.25.25 0 0 1 .25-.25z"/><path d="M234.75-441.5v10m0 5v9.98m0 5v10m0 5v9.98m0 5v10m0 5v10m0 5v9.98m0 5v10m0 5v9.98m0 5v10m0 5v10m0 4.98v10m0 5v10m0 5v9.98m0 5v10m0 5v10m0 4.98v10m0 5v10m0 5v9.98m0 5v10m0 5v10m0 4.98v10m0 5v10m0 5v9.98m0 5v10m0 5v9.98m0 5v10m0 5v10m0 5v9.98m0 5v10m0 5v9.98m0 5v10m0 5v10m0 4.98v10m0 5v10m0 5v9.98m0 5v10m0 5v10m0 4.98v10m0 5v10m0 5v9.98m0 5v10m0 5v10m0 4.98v10m0 5v10m0 5v9.98m0 5v10m0 5v9.98m0 5v10m0 5v10m0 5v9.98m0 5v10m0 5v9.98m0 5v10m0 5v10m0 4.98v10m0 5v10m0 5V423m0 5v10m0 5v10m0 4.98v10m0 5v10m0 5v9.98m0 5v10m0 5v9.98m0 5v10m0 5v10m0 5v9.98m0 5v10m0 5v9.98m0 5v10m0 5v10m0 4.98v10m0 5v10m0 5v9.98m0 5v10m0 5v10m0 4.98v10m0 5v10m0 5v9.98m0 5v10m0 5v10m0 4.98v10m0 5v10m0 5v9.98m0 5v10m0 5v9.98m0 5v10m0 5v10m0 5v9.98m0 5v10m0 5v9.98m0 5v10m0 5v10m0 4.98v10m0 5v10m0 5v9.98m0 5v10m0 5v10m0 4.98v10m0 5v10m0 5v9.98m0 5v10m0 5v9.98m0 5v10m0 5v10m0 5v9.98m0 5v10m0 5v9.98m0 5v10m0 5v10m0 4.98v10m0 5v10m0 5v9.98m0 5v10m0 5v10m0 4.98v10m0 5v10m0 5v9.98m0 5v10m0 5v9.98m0 5v5.08l-.03.03-.02.05-.02.03-.03.02-.04.02-.02.02h-.16l-.03-.02-.05-.02-.03-.02-.02-.03-.02-.04-.02-.02v-5.08m0-5v-10m0-5v-9.98m0-5v-10m0-5v-9.98m0-5v-10m0-5v-10m0-5v-9.98m0-5v-10m0-5v-9.98m0-5v-10m0-5v-10m0-4.98v-10m0-5v-10m0-5v-9.98m0-5v-10m0-5v-10m0-4.98v-10m0-5v-10m0-5v-9.98m0-5v-10m0-5v-10m0-4.98v-10m0-5v-10m0-5v-9.98m0-5v-10m0-5v-9.98m0-5v-10m0-5v-10m0-4.98v-10m0-5v-10m0-5v-9.98m0-5v-10m0-5v-10m0-4.98v-10m0-5v-10m0-5v-9.98m0-5v-10m0-5v-10m0-4.98v-10m0-5v-10m0-5v-9.98m0-5v-10m0-5v-9.98m0-5v-10m0-5v-10m0-5v-9.98m0-5v-10m0-5v-9.98m0-5v-10m0-5v-10m0-4.98v-10m0-5v-10m0-5v-9.98m0-5v-10m0-5v-10m0-4.98v-10m0-5v-10m0-5V503m0-5v-10m0-5V473m0-5v-10m0-5v-10m0-5v-9.98m0-5v-10m0-5v-9.98m0-5v-10m0-5v-10m0-4.98v-10m0-5v-10m0-5v-9.98m0-5v-10m0-5v-10m0-4.98v-10m0-5v-10m0-5v-9.98m0-5v-10m0-5v-10m0-4.98v-10m0-5v-10m0-5v-9.98m0-5v-10m0-5v-9.98m0-5v-10m0-5v-10m0-5V98.2m0-5v-10m0-5v-9.98m0-5v-10m0-5v-10m0-4.98v-10m0-5v-10m0-5v-9.98m0-5v-10m0-5v-10m0-4.98v-10m0-5v-10m0-5v-9.98m0-5v-10m0-5v-10m0-4.98v-10m0-5v-10m0-5v-9.98m0-5v-10m0-5v-9.98m0-5v-10m0-5v-10m0-5v-9.98m0-5v-10m0-5v-9.98m0-5v-10m0-5v-10m0-4.98v-10m0-5v-10m0-5v-9.98m0-5v-10m0-5v-10m0-4.98v-10m0-5v-10m0-5v-9.98m0-5v-10m0-5v-9.98m0-5v-5.08l.02-.03.02-.05.02-.03.03-.02.04-.02.02-.02h.16l.03.02.05.02.03.02.02.03.02.04.02.02v5.08" stroke="#3a414a" stroke-width=".5"/></g><path d="M214.5-381a6 6 0 0 1 6-6H248a6 6 0 0 1 6 6V722a6 6 0 0 1-6 6h-27.5a6 6 0 0 1-6-6z" stroke="#3a414a" fill="#fff"/><g fill="none"><path d="M654.5-791.75a.25.25 0 0 1 .25.25v2179a.25.25 0 0 1-.25.25.25.25 0 0 1-.25-.25v-2179a.25.25 0 0 1 .25-.25z"/><path d="M654.75-781.48v10.02m0 5v10.02m0 5v10.03m0 5v10.02m0 5v10.03m0 5v10.03m0 5v10.02m0 5v10.03m0 5v10.03m0 5v10.03m0 5v10m0 5.02v10.02m0 5v10.03m0 5v10.03m0 5v10.02m0 5v10.03m0 5V-531m0 5v10.03m0 5.02v10m0 5.02v10.02m0 5v10.03m0 5v10.02m0 5v10.02m0 5v10.03m0 5v10.03m0 5v10.03m0 5v10.02m0 5v10.03m0 5v10.03m0 5.02v10.02m0 5v10.02m0 5v10.03m0 5v10.02m0 5v10.03m0 5v10.03m0 5v10.02m0 5v10.03m0 5v10.03m0 5v10.03m0 5v10m0 5.02v10.02m0 5v10.03m0 5v10.03m0 5v10.02m0 5v10.03m0 5v10.03m0 5v10.03m0 5.02v10m0 5.02v10.02m0 5v10.03m0 5v10.02m0 5v10.02m0 5V9.98m0 5V25m0 5v10.03m0 5v10.02m0 5V70.1m0 5v10.03m0 5.02v10.02m0 5v10.02m0 5v10.03m0 5v10.02m0 5v10.03m0 5v10.03m0 5v10.02m0 5v10.03m0 5v10.03m0 5v10.03m0 5v10m0 5.02v10.02m0 5v10.03m0 5v10.03m0 5v10.02m0 5v10.03m0 5v10.03m0 5v10.03m0 5.02v10m0 5.02v10.02m0 5v10.03m0 5v10.02m0 5v10.02m0 5v10.03m0 5v10.03m0 5v10.03m0 5v10.02m0 5v10.03m0 5v10.03m0 5.02v10.02m0 5v10.02m0 5V566m0 5v10.02m0 5v10.03m0 5v10.03m0 5v10.02m0 5v10.03m0 5v10.03m0 5v10.03m0 5v10m0 5.02v10.02m0 5v10.03m0 5v10.03m0 5v10.02m0 5v10.03m0 5v10.03m0 5v10.03m0 5.02v10m0 5.02v10.02m0 5v10.03m0 5v10.02m0 5v10.02m0 5v10.03m0 5v10.03m0 5v10.03m0 5v10.02m0 5v10.03m0 5v10.03m0 5.02v10.02m0 5v10.02m0 5v10.03m0 5v10.02m0 5v10.03m0 5v10.03m0 5v10.02m0 5v10.03m0 5v10.03m0 5V1107m0 5v10m0 5.02v10.02m0 5v10.03m0 5v10.03m0 5v10.02m0 5v10.03m0 5v10.03m0 5v10.03m0 5.02v10m0 5.02v10.02m0 5v10.03m0 5v10.02m0 5v10.02m0 5v10.03m0 5v10.03m0 5v10.03m0 5v10.02m0 5v10.03m0 5v5.1l-.03.03-.02.05-.02.03-.03.02-.04.02-.02.02h-.16l-.03-.02-.05-.02-.03-.02-.02-.03-.02-.04-.02-.02v-5.08m0-5.02v-10.02m0-5v-10.02m0-5v-10.03m0-5v-10.02m0-5v-10.03m0-5v-10.02m0-5v-10.03m0-5v-10.03m0-5v-10.03m0-5v-10.02m0-5v-10.03m0-5.02v-10.02m0-5v-10.03m0-5v-10.02m0-5v-10.02m0-5v-10.03m0-5V1127m0-5v-10.03m0-5v-10.03m0-5v-10.03m0-5v-10.03m0-5v-10.02m0-5v-10.02m0-5v-10.03m0-5v-10.03m0-5v-10.03m0-5v-10.02m0-5V961.7m0-5v-10.03m0-5.02v-10.02m0-5v-10.02m0-5V901.6m0-5v-10.02m0-5v-10.03m0-5v-10.02m0-5V841.5m0-5v-10.03m0-5v-10.03m0-5V796.4m0-5v-10.03m0-5.02v-10.02m0-5v-10.03m0-5V736.3m0-5v-10.02m0-5v-10.03m0-5V691.2m0-5v-10.03m0-5v-10.03m0-5v-10.03m0-5V631.1m0-5v-10.02m0-5v-10.02m0-5v-10.03m0-5V571m0-5v-10.03m0-5v-10.02m0-5V525.9m0-5v-10.03m0-5.02v-10.02m0-5v-10.02m0-5V465.8m0-5v-10.02m0-5v-10.03m0-5v-10.02m0-5V405.7m0-5v-10.03m0-5v-10.03m0-5V360.6m0-5v-10.03m0-5.02v-10.02m0-5v-10.03m0-5V300.5m0-5v-10.02m0-5v-10.03m0-5V255.4m0-5v-10.03m0-5v-10.03m0-5v-10.03m0-5V195.3m0-5v-10.02m0-5v-10.02m0-5v-10.03m0-5V135.2m0-5v-10.03m0-5v-10.02m0-5V90.1m0-5V75.08m0-5.02V60.06m0-5V45.03m0-5V30m0-5V14.98m0-5V-.06m0-5v-10.02m0-5V-30.1m0-5v-10.03m0-5v-10.03m0-5V-75.2m0-5v-10.03m0-5.02v-10.02m0-5v-10.03m0-5v-10.02m0-5v-10.02m0-5v-10.03m0-5v-10.03m0-5v-10.03m0-5v-10.03m0-5v-10.03m0-5v-10.03m0-5v-10.02m0-5v-10.02m0-5v-10.03m0-5v-10.03m0-5v-10.03m0-5v-10.02m0-5v-10.03m0-5v-10.03m0-5.02v-10.02m0-5v-10.02m0-5v-10.03m0-5v-10.02m0-5v-10.03m0-5v-10.02m0-5v-10.03m0-5v-10.03m0-5v-10.03m0-5V-511m0-5v-10.03m0-5.02v-10.02m0-5v-10.03m0-5v-10.02m0-5v-10.02m0-5v-10.03m0-5v-10.03m0-5v-10.03m0-5v-10.03m0-5v-10.03m0-5v-10.03m0-5v-10.02m0-5v-10.02m0-5v-10.03m0-5v-10.03m0-5v-10.03m0-5v-10.02m0-5v-10.03m0-5v-5.1l.02-.03.02-.05.02-.03.03-.02.04-.02.02-.02h.16l.03.02.05.02.03.02.02.03.02.04.02.02v5.08" stroke="#3a414a" stroke-width=".5"/></g><path d="M634-696a6 6 0 0 1 6-6h28a6 6 0 0 1 6 6V702a6 6 0 0 1-6 6h-28a6 6 0 0 1-6-6zM474.5-866a6 6 0 0 1 6-6h348a6 6 0 0 1 6 6v108a6 6 0 0 1-6 6h-348a6 6 0 0 1-6-6z" stroke="#3a414a" fill="#fff"/><path d="M510.5-872v120m288-120v120" stroke="#3a414a" fill="none"/><use xlink:href="#l" transform="matrix(1,0,0,1,524.5,-867) translate(43.79629629629632 59.44444444444444)"/><g fill="none"><path d="M1454-751.75a.25.25 0 0 1 .25.25v2139a.25.25 0 0 1-.25.25.25.25 0 0 1-.25-.25v-2139a.25.25 0 0 1 .25-.25z"/><path d="M1454.25-741.53v9.97m0 5v9.96m0 5v9.96m0 5v9.96m0 4.98v9.98m0 4.98v9.97m0 5v9.96m0 4.98v9.97m0 5v9.96m0 5v9.97m0 4.98v9.97m0 5v9.96m0 5v9.96m0 5v9.96m0 5v9.96m0 4.98v9.98m0 4.98v9.97m0 5v9.96m0 5v9.96m0 4.97v9.98m0 4.98v9.98m0 5v9.96m0 5v9.96m0 5v9.96m0 5v9.96m0 4.98v9.97m0 4.98v9.97m0 5v9.96m0 5v9.97m0 5v9.96m0 4.98v9.98m0 5v9.96m0 5v9.96m0 5v9.96m0 4.98v9.98m0 4.98v9.98m0 4.98v9.97m0 5v9.96m0 4.98v9.97m0 5v9.96m0 5v9.97m0 4.98v9.97m0 5v9.96m0 5v9.96m0 5v9.96m0 4.98v9.98m0 4.98v9.97m0 5v9.97m0 5v9.96m0 5v9.96m0 4.97v9.98m0 4.98v9.97m0 5v9.96m0 5v9.96m0 5v9.96m0 4.98v9.98m0 4.98v9.97m0 4.98v9.97m0 5V136m0 5v9.97m0 4.98v9.98m0 4.98v9.98m0 5v9.96m0 5v9.96m0 5v9.96m0 4.98v9.98m0 4.98v9.97m0 5v9.96m0 5v9.96m0 4.98v9.97m0 5v9.96m0 5v9.96m0 5v9.96m0 5v9.96m0 5v9.96m0 5v9.96m0 4.98v9.98m0 4.98v9.97m0 5v9.97m0 5v9.96m0 5v9.96m0 4.97v9.98m0 4.98V495m0 5v9.96m0 5v9.96m0 5v9.96m0 4.98v9.98m0 4.98v9.97m0 4.98v9.97m0 5v9.96m0 5v9.97m0 4.98v9.98m0 4.98v9.98m0 5v9.96m0 5v9.96m0 5v9.96m0 4.98v9.98m0 4.98v9.97m0 5v9.96m0 5v9.96m0 4.98v9.97m0 4.98v9.98m0 5v9.96m0 5v9.96m0 5v9.96m0 5v9.96m0 4.98V854m0 4.98v9.97m0 5v9.96m0 5v9.97m0 5v9.96m0 5v9.96m0 4.97v9.97m0 5v9.96m0 5v9.96m0 5v9.96m0 5v9.96m0 4.98v9.97m0 5v9.96m0 4.98v9.97m0 5v9.96m0 5v9.97m0 4.98v9.97m0 5v9.96m0 5v9.96m0 5v9.96m0 4.98v9.98m0 4.98v9.97m0 5v9.97m0 5v9.96m0 5v9.96m0 4.98v9.97m0 4.98v9.98m0 5v9.96m0 5v9.96m0 5v9.96m0 5v9.96m0 4.98v9.98m0 4.98v9.97m0 5v9.96m0 5v9.97m0 5v9.96m0 4.98v5.08l-.03.03-.02.05-.02.03-.03.02-.04.02-.02.02h-.16l-.03-.02-.05-.02-.03-.02-.02-.03-.02-.04-.02-.02v-5.08m0-4.97v-9.97m0-5v-9.96m0-5v-9.96m0-5v-9.96m0-4.98v-9.98m0-4.98v-9.97m0-5v-9.96m0-4.98v-9.97m0-5v-9.96m0-5v-9.97m0-4.98v-9.97m0-5v-9.96m0-5v-9.96m0-5v-9.96m0-5v-9.96m0-4.98v-9.98m0-4.98v-9.97m0-5v-9.96m0-5v-9.96m0-4.98v-9.97m0-4.98v-9.97m0-5v-9.96m0-5v-9.96m0-5v-9.96m0-5v-9.96m0-4.98v-9.98m0-4.98v-9.97m0-5v-9.96m0-5v-9.97m0-5v-9.96m0-4.98v-9.98m0-5v-9.96m0-5v-9.96m0-5v-9.96m0-5V859m0-4.98v-9.98m0-4.98v-9.97m0-5v-9.96m0-4.98v-9.97m0-5v-9.96m0-5v-9.97m0-4.98v-9.97m0-5v-9.96m0-5v-9.96m0-5v-9.96m0-4.98v-9.98m0-4.98v-9.97m0-5v-9.97m0-5v-9.96m0-5v-9.96m0-4.97v-9.98m0-4.98v-9.97m0-5v-9.96m0-5v-9.96m0-5v-9.96m0-4.98v-9.98m0-4.98v-9.97m0-4.98v-9.97m0-5V500m0-5v-9.97m0-4.98v-9.98m0-4.98v-10m0-4.97v-9.97m0-5v-9.96m0-5v-9.96m0-4.98v-9.98m0-4.98v-9.97m0-5v-9.96m0-5v-9.96m0-4.98v-9.97m0-5v-9.96m0-5v-9.96m0-5v-9.96m0-5v-9.96m0-5v-9.96m0-5v-9.96m0-4.98v-9.98m0-4.98v-9.97m0-5v-9.97m0-5v-9.96m0-5v-9.96m0-4.97v-9.98m0-4.98V141m0-5v-9.96m0-5v-9.96m0-5v-9.96m0-4.98v-9.98m0-4.98V66.2m0-4.98v-9.97m0-5V36.3m0-5v-9.97m0-4.98V6.37m0-4.98V-8.6m0-5v-9.96m0-5v-9.96m0-5v-9.96m0-4.98v-9.98m0-4.98v-9.97m0-5v-9.96m0-5v-9.96m0-4.98v-9.97m0-4.98v-9.98m0-5v-9.96m0-5v-9.96m0-5v-9.96m0-5v-9.96m0-4.98V-218m0-4.98v-9.98m0-4.98v-9.97m0-5v-9.97m0-5v-9.96m0-5v-9.96m0-4.97v-9.98m0-4.98v-9.97m0-5v-9.96m0-5v-9.96m0-5v-9.96m0-4.98v-9.97m0-5v-9.96m0-4.98v-9.97m0-5v-9.96m0-5v-9.97m0-4.98v-9.98m0-4.98v-9.98m0-5v-9.96m0-5v-9.96m0-4.98v-9.98m0-4.98v-9.98m0-4.98v-9.97m0-5v-9.96m0-5v-9.96m0-4.98v-9.97m0-4.98v-9.98m0-5v-9.96m0-5v-9.96m0-5v-9.96m0-5v-9.96m0-4.98v-9.98m0-4.98v-9.97m0-5v-9.96m0-5v-9.97m0-5v-9.96m0-4.98v-5.08l.02-.03.02-.05.02-.03.03-.02.04-.02.02-.02h.16l.03.02.05.02.03.02.02.03.02.04.02.02v5.08" stroke="#3a414a" stroke-width=".5"/></g><path d="M1432.98 234a6 6 0 0 1 6-6h28.52a6 6 0 0 1 6 6v268a6 6 0 0 1-6 6h-28.52a6 6 0 0 1-6-6zM1274-866a6 6 0 0 1 6-6h348a6 6 0 0 1 6 6v108a6 6 0 0 1-6 6h-348a6 6 0 0 1-6-6z" stroke="#3a414a" fill="#fff"/><path d="M1310-872v120m288-120v120" stroke="#3a414a" fill="none"/><use xlink:href="#m" transform="matrix(1,0,0,1,1324,-867) translate(58.48765432098766 59.44444444444444)"/><path d="M-86-266a6 6 0 0 1 6-6h228a6 6 0 0 1 6 6v29a6 6 0 0 1-6 6H-80a6 6 0 0 1-6-6z" stroke="#000" stroke-opacity="0" fill="#fff" fill-opacity="0"/><use xlink:href="#n" transform="matrix(1,0,0,1,-81,-267) translate(-39.62962962962959 19.944444444444443)"/><path d="M-145-221.6h342.62" stroke="#3a414a" fill="none"/><path d="M-145-221.1h-.5v-1h.5z" stroke="#3a414a" stroke-width=".05" fill="#3a414a"/><path d="M212.38-221.6l-14.26 4.65v-9.27z" stroke="#3a414a" fill="#3a414a"/><path d="M255-91.12h362.12" stroke="#3a414a" fill="none"/><path d="M255-90.62h-.5v-1h.5z" stroke="#3a414a" stroke-width=".05" fill="#3a414a"/><path d="M631.88-91.12l-14.26 4.63v-9.26z" stroke="#3a414a" fill="#3a414a"/><path d="M853-86a6 6 0 0 1 6-6h268a6 6 0 0 1 6 6V22a6 6 0 0 1-6 6H859a6 6 0 0 1-6-6z" stroke="#3a414a" fill="#fff"/><use xlink:href="#o" transform="matrix(1,0,0,1,858,-87) translate(56.728395061728406 59.02777777777778)"/><use xlink:href="#p" transform="matrix(1,0,0,1,858,-87) translate(130.679012345679 59.02777777777778)"/><use xlink:href="#q" transform="matrix(1,0,0,1,858,-87) translate(143.0246913580247 59.02777777777778)"/><g fill="none"><path d="M993.5 28.25a.25.25 0 0 1 .25.25v1359a.25.25 0 0 1-.25.25.25.25 0 0 1-.25-.25V28.5a.25.25 0 0 1 .25-.25z"/><path d="M993.75 38.46v9.95m0 5v9.95m0 4.97v9.96m0 4.98v9.95m0 5v9.95m0 4.98v9.95m0 4.98v9.96m0 4.97v9.95m0 4.98v9.95m0 4.98v9.96m0 4.98v9.95m0 4.98v9.96m0 4.97v9.95m0 4.98v9.95m0 4.98v9.96m0 4.97v9.95m0 4.98v9.96m0 4.98v9.95m0 4.97v9.96m0 4.97v9.96m0 4.98v9.95m0 4.97v9.96m0 4.98v9.96m0 4.98v9.96m0 4.97v9.96m0 4.98v9.96m0 4.98v9.96m0 4.98v9.95m0 4.98v9.97m0 4.97v9.96m0 4.98v9.95m0 4.98v9.97m0 4.98v9.95m0 4.98v9.96m0 4.97v9.97m0 4.98v9.95m0 4.98v9.96m0 4.98v9.95m0 4.98v9.96m0 5v9.94m0 4.98v9.95m0 4.98v9.96m0 5v9.94m0 4.98v9.96m0 4.97v9.96m0 5v9.95m0 4.97v9.96m0 4.98v9.95m0 5v9.95m0 4.97v9.96m0 4.98v9.96m0 4.97v9.95m0 4.98v9.95m0 4.98v9.96m0 4.98v9.95m0 4.98v9.96m0 4.96v9.96m0 4.98v9.95m0 4.98v9.96m0 4.97v9.95m0 4.98v9.96m0 4.97v9.96m0 4.97v9.95m0 4.98v9.96m0 4.98v9.95m0 4.97v9.96m0 4.97v9.96m0 4.98v9.95m0 4.97v9.96m0 4.98v9.96m0 4.98v9.96m0 4.98v9.95m0 4.98v9.96m0 4.98v9.96m0 4.98v9.95m0 4.98v9.97m0 4.97v9.96m0 4.98v9.95m0 4.98v9.97m0 4.98v9.95m0 4.98v9.96m0 4.97v9.97m0 4.98v9.96m0 4.98v9.96m0 4.98v9.95m0 4.98v9.96m0 5v9.94m0 4.98v9.96m0 4.97v9.96m0 5v9.94m0 4.98V1387.58l-.03.03-.02.05-.02.03-.03.02-.04.02-.02.02h-.16l-.03-.02-.05-.02-.03-.02-.02-.03-.02-.04-.02-.02V1382.52m0-4.98v-9.95m0-5v-9.95m0-4.97v-9.96m0-4.98v-9.95m0-5v-9.95m0-4.98v-9.95m0-4.98v-9.96m0-4.97v-9.95m0-4.98v-9.95m0-4.98v-9.96m0-4.98v-9.95m0-4.98v-9.96m0-4.96v-9.96m0-4.98v-9.96m0-4.97v-9.96m0-4.97v-9.95m0-4.98v-9.96m0-4.98v-9.95m0-4.97v-9.95m0-4.98v-9.96m0-4.98v-9.95m0-4.97v-9.96m0-4.98v-9.96m0-4.98v-9.96m0-4.97v-9.96m0-4.98v-9.96m0-4.98v-9.96m0-4.98v-9.95m0-4.98v-9.97m0-4.97v-9.96m0-4.98v-9.95m0-4.98v-9.97m0-4.98v-9.95m0-4.98v-9.96m0-4.97v-9.97m0-4.98v-9.95m0-4.98v-9.96m0-4.98v-9.95m0-4.98v-9.96m0-5v-9.94m0-4.98v-9.96m0-4.97v-9.96m0-5v-9.94m0-4.98v-9.96m0-4.97v-9.96m0-5v-9.95m0-4.97v-9.96m0-4.98v-9.95m0-5v-9.95m0-4.98v-9.95m0-4.98v-9.96m0-4.97v-9.95m0-4.98v-9.95m0-4.98v-9.96m0-4.98v-9.95m0-4.98v-9.96m0-4.96v-9.96m0-4.98v-9.95m0-4.98v-9.96m0-4.97v-9.95m0-4.98v-9.96m0-4.97v-9.96m0-4.97v-9.95m0-4.98v-9.96m0-4.98v-9.95m0-4.97v-9.96m0-4.97v-9.96m0-4.98V367m0-4.97v-9.96m0-4.98v-9.96m0-4.98v-9.96m0-4.97v-9.96m0-4.98v-9.96m0-4.98v-9.96m0-4.98v-9.95m0-4.98v-9.97m0-4.98v-9.95m0-4.98v-9.95m0-4.98v-9.97m0-4.98v-9.95m0-4.98v-9.96m0-4.98v-9.95m0-4.98V143m0-4.98v-9.96m0-4.98v-9.95m0-4.98V98.2m0-5v-9.94m0-4.98v-9.96m0-4.97V53.4m0-5v-9.94m0-4.98V28.42l.02-.03.02-.05.02-.03.03-.02.04-.02.02-.02h.16l.03.02.05.02.03.02.02.03.02.04.02.02V33.48" stroke="#3a414a" stroke-width=".5"/></g><path d="M675-32h4.9m4.9 0h9.82m4.9 0h9.82m4.9 0h9.8m4.92 0h9.8m4.9 0h9.83m4.9 0h9.8m4.9 0h9.82m4.9 0h9.8m4.92 0h9.8m4.9 0h9.82m4.9 0h9.82m4.9 0h4.9" stroke="#3a414a" fill="none"/><path d="M675-31.5h-.5v-1h.5z" stroke="#3a414a" stroke-width=".05" fill="#3a414a"/><path d="M834.3-21.82L851.52-32 834.3-42.18M675 274.83h741.1" stroke="#3a414a" fill="none"/><path d="M675 275.33h-.5v-1h.5z" stroke="#3a414a" stroke-width=".05" fill="#3a414a"/><path d="M1430.86 274.83l-14.27 4.64v-9.27z" stroke="#3a414a" fill="#3a414a"/><path d="M824 337.33a6 6 0 0 1 6-6h327a6 6 0 0 1 6 6v51.34a6 6 0 0 1-6 6H830a6 6 0 0 1-6-6z" stroke="#000" stroke-opacity="0" fill="#fff" fill-opacity="0"/><use xlink:href="#r" transform="matrix(1,0,0,1,829.0116082977911,336.3333333333335) translate(116.72222222222223 21.15277777777778)"/><use xlink:href="#s" transform="matrix(1,0,0,1,829.0116082977911,336.3333333333335) translate(199.31481481481484 21.15277777777778)"/><use xlink:href="#t" transform="matrix(1,0,0,1,829.0116082977911,336.3333333333335) translate(9.87037037037041 47.81944444444444)"/><path d="M1431.98 409.74h-5.05m-5.05 0h-10.1m-5.04 0h-10.1m-5.04 0h-10.1m-5.04 0h-10.1m-5.03 0h-10.1m-5.04 0h-10.1m-5.05 0h-10.1m-5.04 0h-10.1m-5.03 0h-10.1m-5.04 0h-10.1m-5.04 0h-10.1m-5.05 0h-10.1m-5.04 0h-10.08m-5.05 0h-10.1m-5.04 0h-10.1m-5.04 0h-10.1m-5.05 0h-10.1m-5.04 0h-10.08m-5.05 0h-10.1m-5.04 0h-10.1m-5.04 0H1109m-5.05 0h-10.1m-5.04 0h-10.08m-5.05 0h-10.1m-5.03 0h-10.1m-5.03 0h-10.08m-5.03 0h-10.06m-5.04 0h-10.07m-5.04 0H988m-5.04 0H972.9m-5.03 0H957.8m-5.03 0h-10.08m-5.04 0h-10.08m-5.03 0h-10.07m-5.04 0h-10.07m-5.04 0h-10.07m-5.04 0h-10.07m-5.04 0h-10.06m-5.03 0h-10.07m-5.03 0h-10.07m-5.04 0H806.7m-5.04 0H791.6m-5.03 0H776.5m-5.04 0H761.4m-5.04 0h-10.08m-5.03 0h-10.08m-5.03 0h-10.07m-5.04 0h-10.07m-5.04 0h-5.03" stroke="#3a414a" fill="none"/><path d="M1432.48 410.24h-.52v-1h.52z" stroke="#3a414a" stroke-width=".05" fill="#3a414a"/><path d="M676.12 409.74l14.26-4.63v9.28z" stroke="#3a414a" fill="#3a414a"/><path d="M633 631.2h-4.85m-4.84 0h-9.68m-4.85 0h-9.7m-4.84 0h-9.7m-4.84 0H570m-4.85 0h-9.7m-4.84 0h-9.68m-4.84 0h-9.7m-4.84 0h-9.7m-4.84 0h-9.7m-4.84 0h-9.7m-4.84 0h-9.7m-4.84 0h-9.7m-4.83 0H439.2m-4.82 0h-9.62m-4.8 0h-9.62m-4.8 0h-9.63m-4.8 0h-9.6m-4.82 0h-9.62m-4.8 0h-9.63m-4.8 0h-9.62m-4.8 0h-9.62m-4.8 0h-9.63m-4.8 0h-9.62m-4.8 0h-9.63m-4.8 0h-4.8" stroke="#3a414a" fill="none"/><path d="M633.5 631.7h-.5v-1h.5z" stroke="#3a414a" stroke-width=".05" fill="#3a414a"/><path d="M256.12 631.2l14.26-4.62v9.27z" stroke="#3a414a" fill="#3a414a"/><path d="M213.5 714.7h-4.98m-4.98 0h-9.96m-4.98 0h-9.95m-4.98 0h-9.96m-4.97 0h-9.96m-4.98 0h-9.97m-4.98 0h-9.95m-4.98 0h-9.96m-4.98 0h-9.96m-4.98 0h-9.96m-4.98 0h-9.95m-4.98 0H44.2m-4.97 0H29.3m-4.95 0h-9.9m-4.95 0H-.4m-4.95 0h-9.9m-4.95 0h-9.9m-4.96 0h-9.9m-4.95 0h-9.9m-4.96 0h-9.9m-4.95 0h-9.9m-4.96 0h-9.9m-4.95 0h-9.9m-4.97 0h-4.95" stroke="#3a414a" fill="none"/><path d="M214 715.2h-.5v-1h.5z" stroke="#3a414a" stroke-width=".05" fill="#3a414a"/><path d="M-143.88 714.7l14.26-4.65v9.28z" stroke="#3a414a" fill="#3a414a"/><path d="M-175.75 834a6 6 0 0 1 6-6H-132a6 6 0 0 1 6 6v88a6 6 0 0 1-6 6h-37.75a6 6 0 0 1-6-6z" stroke="#3a414a" fill="#fff"/><path d="M-145 796.46h53.5a6 6 0 0 1 6 6V872a6 6 0 0 1-6 6h-17.62" stroke="#3a414a" fill="none"/><path d="M-145 796.96h-.5v-1h.5z" stroke="#3a414a" stroke-width=".05" fill="#3a414a"/><path d="M-123.88 878l14.26-4.63v9.26z" stroke="#3a414a" fill="#3a414a"/><path d="M-125 905.12h5.58m5.6 0h11.15m5.6 0h5.57l.94.07.9.2.88.37.8.5.72.6.6.72.5.8.37.86.23.92.07.94v4.76m0 4.76v9.52m0 4.77v9.52m0 4.76v9.54m0 4.76v4.76l-.07.94-.22.92-.35.87-.5.8-.6.7-.72.62-.8.5-.88.35-.9.22-.95.06h-4.18m-4.18 0h-8.36m-4.18 0h-8.36m-4.18 0h-4.18" stroke="#3a414a" fill="none"/><path d="M-125 905.62h-.5v-1h.5z" stroke="#3a414a" stroke-width=".05" fill="#3a414a"/><path d="M-143.88 974.26l14.26-4.63v9.27z" stroke="#3a414a" fill="#3a414a"/><path d="M-466 1048h200.56v36.67H-466z" fill="#fff" fill-opacity="0"/><use xlink:href="#u" transform="matrix(1,0,0,1,-461,1053) translate(0 17.77777777777778)"/><path d="M-86 814a6 6 0 0 1 6-6h276.48a6 6 0 0 1 6 6v51.33a6 6 0 0 1-6 6H-80a6 6 0 0 1-6-6z" stroke="#000" stroke-opacity="0" fill="#fff" fill-opacity="0"/><use xlink:href="#v" transform="matrix(1,0,0,1,-80.99999999999955,812.9999999999998) translate(15.703703703703752 31.27777777777778)"/><path d="M-166.5 1074a6 6 0 0 1 6-6h37.75a6 6 0 0 1 6 6v88a6 6 0 0 1-6 6h-37.75a6 6 0 0 1-6-6z" stroke="#3a414a" fill="#fff"/><path d="M-145 1041.43h62.75a6 6 0 0 1 6 6V1112a6 6 0 0 1-6 6h-17.62" stroke="#3a414a" fill="none"/><path d="M-145 1041.93h-.5v-1h.5z" stroke="#3a414a" stroke-width=".05" fill="#3a414a"/><path d="M-114.63 1118l14.26-4.63v9.27z" stroke="#3a414a" fill="#3a414a"/><path d="M-115.75 1146.14h5.58m5.6 0h11.15m5.6 0h5.57l.94.08.9.22.87.36.8.5.72.6.6.72.5.8.36.87.22.9.07.94v4.87m0 4.87v9.73m0 4.86v9.73m0 4.85v9.73m0 4.86v9.73m0 4.86v4.86l-.07.93-.22.92-.36.87-.5.8-.6.72-.72.6-.8.5-.88.36-.9.22-.95.07h-5.2m-5.22 0h-10.4m-5.22 0h-10.4m-5.2 0h-5.22" stroke="#3a414a" fill="none"/><path d="M-115.74 1146.64h-.5v-1h.5z" stroke="#3a414a" stroke-width=".05" fill="#3a414a"/><path d="M-143.88 1231.1l14.26-4.64v9.27z" stroke="#3a414a" fill="#3a414a"/><path d="M-106 1054a6 6 0 0 1 6-6h276.48a6 6 0 0 1 6 6v51.33a6 6 0 0 1-6 6H-100a6 6 0 0 1-6-6z" stroke="#000" stroke-opacity="0" fill="#fff" fill-opacity="0"/><use xlink:href="#w" transform="matrix(1,0,0,1,-100.99999999999955,1053) translate(40.919753086419774 31.27777777777778)"/><path d="M324-127a6 6 0 0 1 6-6h228a6 6 0 0 1 6 6v29a6 6 0 0 1-6 6H330a6 6 0 0 1-6-6z" stroke="#000" stroke-opacity="0" fill="#fff" fill-opacity="0"/><g><use xlink:href="#n" transform="matrix(1,0,0,1,329,-128) translate(-39.62962962962959 19.944444444444443)"/></g><path d="M873 233.34a6 6 0 0 1 6-6h228a6 6 0 0 1 6 6v29a6 6 0 0 1-6 6H879a6 6 0 0 1-6-6z" stroke="#000" stroke-opacity="0" fill="#fff" fill-opacity="0"/><g><use xlink:href="#n" transform="matrix(1,0,0,1,878,232.33584123588935) translate(-39.62962962962959 19.944444444444443)"/></g><path d="M284.83 555.07a6 6 0 0 1 6-6H617.8a6 6 0 0 1 6 6v51.33a6 6 0 0 1-6 6H290.83a6 6 0 0 1-6-6z" stroke="#000" stroke-opacity="0" fill="#fff" fill-opacity="0"/><g><use xlink:href="#r" transform="matrix(1,0,0,1,289.8270899579916,554.0660905418506) translate(116.72222222222223 21.15277777777778)"/><use xlink:href="#s" transform="matrix(1,0,0,1,289.8270899579916,554.0660905418506) translate(199.31481481481484 21.15277777777778)"/><use xlink:href="#t" transform="matrix(1,0,0,1,289.8270899579916,554.0660905418506) translate(9.87037037037041 47.81944444444444)"/></g><path d="M-136.5 654a6 6 0 0 1 6-6h326.98a6 6 0 0 1 6 6v51.33a6 6 0 0 1-6 6H-130.5a6 6 0 0 1-6-6z" stroke="#000" stroke-opacity="0" fill="#fff" fill-opacity="0"/><g><use xlink:href="#r" transform="matrix(1,0,0,1,-131.4999697851049,653) translate(116.72222222222223 21.15277777777778)"/><use xlink:href="#s" transform="matrix(1,0,0,1,-131.4999697851049,653) translate(199.31481481481484 21.15277777777778)"/><use xlink:href="#t" transform="matrix(1,0,0,1,-131.4999697851049,653) translate(9.87037037037041 47.81944444444444)"/></g><defs><path d="M137-138c1-29-70-34-71-4 15 46 118 7 119 86 1 83-164 76-172 9l43-7c4 19 20 25 44 25 33 8 57-30 24-41C81-84 22-81 20-136c-2-80 154-74 161-7" id="x"/><path d="M88-194c31-1 46 15 58 34l-1-101h50l1 261h-48c-2-10 0-23-3-31C134-8 116 4 84 4 32 4 16-41 15-95c0-56 19-97 73-99zm17 164c33 0 40-30 41-66 1-37-9-64-41-64s-38 30-39 65c0 43 13 65 39 65" id="y"/><g id="a"><use transform="matrix(0.05,0,0,0.05,0,0)" xlink:href="#x"/><use transform="matrix(0.05,0,0,0.05,10,0)" xlink:href="#y"/></g><path d="M212-179c-10-28-35-45-73-45-59 0-87 40-87 99 0 60 29 101 89 101 43 0 62-24 78-52l27 14C228-24 195 4 139 4 59 4 22-46 18-125c-6-104 99-153 187-111 19 9 31 26 39 46" id="z"/><path d="M114-163C36-179 61-72 57 0H25l-1-190h30c1 12-1 29 2 39 6-27 23-49 58-41v29" id="A"/><path d="M100-194c63 0 86 42 84 106H49c0 40 14 67 53 68 26 1 43-12 49-29l28 8c-11 28-37 45-77 45C44 4 14-33 15-96c1-61 26-98 85-98zm52 81c6-60-76-77-97-28-3 7-6 17-6 28h103" id="B"/><path d="M141-36C126-15 110 5 73 4 37 3 15-17 15-53c-1-64 63-63 125-63 3-35-9-54-41-54-24 1-41 7-42 31l-33-3c5-37 33-52 76-52 45 0 72 20 72 64v82c-1 20 7 32 28 27v20c-31 9-61-2-59-35zM48-53c0 20 12 33 32 33 41-3 63-29 60-74-43 2-92-5-92 41" id="C"/><path d="M59-47c-2 24 18 29 38 22v24C64 9 27 4 27-40v-127H5v-23h24l9-43h21v43h35v23H59v120" id="D"/><g id="b"><use transform="matrix(0.05,0,0,0.05,0,0)" xlink:href="#z"/><use transform="matrix(0.05,0,0,0.05,12.950000000000001,0)" xlink:href="#A"/><use transform="matrix(0.05,0,0,0.05,18.900000000000002,0)" xlink:href="#B"/><use transform="matrix(0.05,0,0,0.05,28.900000000000002,0)" xlink:href="#C"/><use transform="matrix(0.05,0,0,0.05,38.900000000000006,0)" xlink:href="#D"/><use transform="matrix(0.05,0,0,0.05,43.900000000000006,0)" xlink:href="#B"/></g><path d="M205 0l-28-72H64L36 0H1l101-248h38L239 0h-34zm-38-99l-47-123c-12 45-31 82-46 123h93" id="E"/><path d="M96-169c-40 0-48 33-48 73s9 75 48 75c24 0 41-14 43-38l32 2c-6 37-31 61-74 61-59 0-76-41-82-99-10-93 101-131 147-64 4 7 5 14 7 22l-32 3c-4-21-16-35-41-35" id="F"/><path d="M24-231v-30h32v30H24zM24 0v-190h32V0H24" id="G"/><path d="M108 0H70L1-190h34L89-25l56-165h34" id="H"/><path d="M179-190L93 31C79 59 56 82 12 73V49c39 6 53-20 64-50L1-190h34L92-34l54-156h33" id="I"/><g id="c"><use transform="matrix(0.05,0,0,0.05,0,0)" xlink:href="#E"/><use transform="matrix(0.05,0,0,0.05,12,0)" xlink:href="#F"/><use transform="matrix(0.05,0,0,0.05,21,0)" xlink:href="#D"/><use transform="matrix(0.05,0,0,0.05,26,0)" xlink:href="#G"/><use transform="matrix(0.05,0,0,0.05,29.950000000000003,0)" xlink:href="#H"/><use transform="matrix(0.05,0,0,0.05,38.95,0)" xlink:href="#G"/><use transform="matrix(0.05,0,0,0.05,42.900000000000006,0)" xlink:href="#D"/><use transform="matrix(0.05,0,0,0.05,47.900000000000006,0)" xlink:href="#I"/></g><path fill="#3a414a" d="M205 0l-28-72H64L36 0H1l101-248h38L239 0h-34zm-38-99l-47-123c-12 45-31 82-46 123h93" id="J"/><path fill="#3a414a" d="M85-194c31 0 48 13 60 33l-1-100h32l1 261h-30c-2-10 0-23-3-31C134-8 116 4 85 4 32 4 16-35 15-94c0-66 23-100 70-100zm9 24c-40 0-46 34-46 75 0 40 6 74 45 74 42 0 51-32 51-76 0-42-9-74-50-73" id="K"/><path fill="#3a414a" d="M210-169c-67 3-38 105-44 169h-31v-121c0-29-5-50-35-48C34-165 62-65 56 0H25l-1-190h30c1 10-1 24 2 32 10-44 99-50 107 0 11-21 27-35 58-36 85-2 47 119 55 194h-31v-121c0-29-5-49-35-48" id="L"/><path fill="#3a414a" d="M24-231v-30h32v30H24zM24 0v-190h32V0H24" id="M"/><path fill="#3a414a" d="M117-194c89-4 53 116 60 194h-32v-121c0-31-8-49-39-48C34-167 62-67 57 0H25l-1-190h30c1 10-1 24 2 32 11-22 29-35 61-36" id="N"/><path fill="#3a414a" d="M135-143c-3-34-86-38-87 0 15 53 115 12 119 90S17 21 10-45l28-5c4 36 97 45 98 0-10-56-113-15-118-90-4-57 82-63 122-42 12 7 21 19 24 35" id="O"/><path fill="#3a414a" d="M59-47c-2 24 18 29 38 22v24C64 9 27 4 27-40v-127H5v-23h24l9-43h21v43h35v23H59v120" id="P"/><path fill="#3a414a" d="M114-163C36-179 61-72 57 0H25l-1-190h30c1 12-1 29 2 39 6-27 23-49 58-41v29" id="Q"/><path fill="#3a414a" d="M141-36C126-15 110 5 73 4 37 3 15-17 15-53c-1-64 63-63 125-63 3-35-9-54-41-54-24 1-41 7-42 31l-33-3c5-37 33-52 76-52 45 0 72 20 72 64v82c-1 20 7 32 28 27v20c-31 9-61-2-59-35zM48-53c0 20 12 33 32 33 41-3 63-29 60-74-43 2-92-5-92 41" id="R"/><path fill="#3a414a" d="M100-194c62-1 85 37 85 99 1 63-27 99-86 99S16-35 15-95c0-66 28-99 85-99zM99-20c44 1 53-31 53-75 0-43-8-75-51-75s-53 32-53 75 10 74 51 75" id="S"/><g id="d"><use transform="matrix(0.06172839506172839,0,0,0.06172839506172839,0,0)" xlink:href="#J"/><use transform="matrix(0.06172839506172839,0,0,0.06172839506172839,14.814814814814813,0)" xlink:href="#K"/><use transform="matrix(0.06172839506172839,0,0,0.06172839506172839,27.160493827160494,0)" xlink:href="#L"/><use transform="matrix(0.06172839506172839,0,0,0.06172839506172839,45.61728395061728,0)" xlink:href="#M"/><use transform="matrix(0.06172839506172839,0,0,0.06172839506172839,50.49382716049382,0)" xlink:href="#N"/><use transform="matrix(0.06172839506172839,0,0,0.06172839506172839,62.8395061728395,0)" xlink:href="#M"/><use transform="matrix(0.06172839506172839,0,0,0.06172839506172839,67.71604938271604,0)" xlink:href="#O"/><use transform="matrix(0.06172839506172839,0,0,0.06172839506172839,78.82716049382715,0)" xlink:href="#P"/><use transform="matrix(0.06172839506172839,0,0,0.06172839506172839,84.99999999999999,0)" xlink:href="#Q"/><use transform="matrix(0.06172839506172839,0,0,0.06172839506172839,92.34567901234567,0)" xlink:href="#R"/><use transform="matrix(0.06172839506172839,0,0,0.06172839506172839,104.69135802469135,0)" xlink:href="#P"/><use transform="matrix(0.06172839506172839,0,0,0.06172839506172839,110.86419753086419,0)" xlink:href="#S"/><use transform="matrix(0.06172839506172839,0,0,0.06172839506172839,123.20987654320987,0)" xlink:href="#Q"/></g><path fill="#3a414a" d="M24 0v-261h32V0H24" id="T"/><g id="e"><use transform="matrix(0.06172839506172839,0,0,0.06172839506172839,0,0)" xlink:href="#J"/><use transform="matrix(0.06172839506172839,0,0,0.06172839506172839,14.814814814814813,0)" xlink:href="#T"/><use transform="matrix(0.06172839506172839,0,0,0.06172839506172839,19.691358024691354,0)" xlink:href="#P"/></g><path fill="#3a414a" d="M26 75v-336h71v23H56V52h41v23H26" id="U"/><path fill="#3a414a" d="M96-169c-40 0-48 33-48 73s9 75 48 75c24 0 41-14 43-38l32 2c-6 37-31 61-74 61-59 0-76-41-82-99-10-93 101-131 147-64 4 7 5 14 7 22l-32 3c-4-21-16-35-41-35" id="V"/><path fill="#3a414a" d="M108 0H70L1-190h34L89-25l56-165h34" id="W"/><path fill="#3a414a" d="M179-190L93 31C79 59 56 82 12 73V49c39 6 53-20 64-50L1-190h34L92-34l54-156h33" id="X"/><g id="f"><use transform="matrix(0.06172839506172839,0,0,0.06172839506172839,0,0)" xlink:href="#U"/><use transform="matrix(0.06172839506172839,0,0,0.06172839506172839,6.172839506172839,0)" xlink:href="#R"/><use transform="matrix(0.06172839506172839,0,0,0.06172839506172839,18.51851851851852,0)" xlink:href="#V"/><use transform="matrix(0.06172839506172839,0,0,0.06172839506172839,29.62962962962963,0)" xlink:href="#P"/><use transform="matrix(0.06172839506172839,0,0,0.06172839506172839,35.80246913580247,0)" xlink:href="#M"/><use transform="matrix(0.06172839506172839,0,0,0.06172839506172839,40.67901234567901,0)" xlink:href="#W"/><use transform="matrix(0.06172839506172839,0,0,0.06172839506172839,51.79012345679013,0)" xlink:href="#M"/><use transform="matrix(0.06172839506172839,0,0,0.06172839506172839,56.66666666666667,0)" xlink:href="#P"/><use transform="matrix(0.06172839506172839,0,0,0.06172839506172839,62.83950617283951,0)" xlink:href="#X"/></g><path fill="#3a414a" d="M63-70H37l-4-178h34zM33 0v-35h34V0H33" id="Y"/><path fill="#3a414a" d="M18-150v-26h174v26H18zm0 90v-26h174v26H18" id="Z"/><g id="g"><use transform="matrix(0.06172839506172839,0,0,0.06172839506172839,0,0)" xlink:href="#Y"/><use transform="matrix(0.06172839506172839,0,0,0.06172839506172839,6.172839506172839,0)" xlink:href="#Z"/></g><path fill="#3a414a" d="M84 4C-5 8 30-112 23-190h32v120c0 31 7 50 39 49 72-2 45-101 50-169h31l1 190h-30c-1-10 1-25-2-33-11 22-28 36-60 37" id="aa"/><path fill="#3a414a" d="M3 75V52h41v-290H3v-23h71V75H3" id="ab"/><g id="h"><use transform="matrix(0.06172839506172839,0,0,0.06172839506172839,0,0)" xlink:href="#N"/><use transform="matrix(0.06172839506172839,0,0,0.06172839506172839,12.345679012345679,0)" xlink:href="#aa"/><use transform="matrix(0.06172839506172839,0,0,0.06172839506172839,24.691358024691358,0)" xlink:href="#T"/><use transform="matrix(0.06172839506172839,0,0,0.06172839506172839,29.5679012345679,0)" xlink:href="#T"/><use transform="matrix(0.06172839506172839,0,0,0.06172839506172839,34.44444444444444,0)" xlink:href="#ab"/></g><path fill="#3a414a" d="M33-154v-36h34v36H33zM33 0v-36h34V0H33" id="ac"/><path fill="#3a414a" d="M185-189c-5-48-123-54-124 2 14 75 158 14 163 119 3 78-121 87-175 55-17-10-28-26-33-46l33-7c5 56 141 63 141-1 0-78-155-14-162-118-5-82 145-84 179-34 5 7 8 16 11 25" id="ad"/><path fill="#3a414a" d="M100-194c63 0 86 42 84 106H49c0 40 14 67 53 68 26 1 43-12 49-29l28 8c-11 28-37 45-77 45C44 4 14-33 15-96c1-61 26-98 85-98zm52 81c6-60-76-77-97-28-3 7-6 17-6 28h103" id="ae"/><path fill="#3a414a" d="M212-179c-10-28-35-45-73-45-59 0-87 40-87 99 0 60 29 101 89 101 43 0 62-24 78-52l27 14C228-24 195 4 139 4 59 4 22-46 18-125c-6-104 99-153 187-111 19 9 31 26 39 46" id="af"/><path fill="#3a414a" d="M30-248c87 1 191-15 191 75 0 78-77 80-158 76V0H30v-248zm33 125c57 0 124 11 124-50 0-59-68-47-124-48v98" id="ag"/><path fill="#3a414a" d="M177-190C167-65 218 103 67 71c-23-6-38-20-44-43l32-5c15 47 100 32 89-28v-30C133-14 115 1 83 1 29 1 15-40 15-95c0-56 16-97 71-98 29-1 48 16 59 35 1-10 0-23 2-32h30zM94-22c36 0 50-32 50-73 0-42-14-75-50-75-39 0-46 34-46 75s6 73 46 73" id="ah"/><g id="i"><use transform="matrix(0.06172839506172839,0,0,0.06172839506172839,0,0)" xlink:href="#ac"/><use transform="matrix(0.06172839506172839,0,0,0.06172839506172839,6.172839506172839,0)" xlink:href="#ad"/><use transform="matrix(0.06172839506172839,0,0,0.06172839506172839,20.98765432098765,0)" xlink:href="#M"/><use transform="matrix(0.06172839506172839,0,0,0.06172839506172839,25.864197530864196,0)" xlink:href="#P"/><use transform="matrix(0.06172839506172839,0,0,0.06172839506172839,32.03703703703704,0)" xlink:href="#ae"/><use transform="matrix(0.06172839506172839,0,0,0.06172839506172839,44.382716049382715,0)" xlink:href="#af"/><use transform="matrix(0.06172839506172839,0,0,0.06172839506172839,60.37037037037037,0)" xlink:href="#Q"/><use transform="matrix(0.06172839506172839,0,0,0.06172839506172839,67.71604938271605,0)" xlink:href="#ae"/><use transform="matrix(0.06172839506172839,0,0,0.06172839506172839,80.06172839506173,0)" xlink:href="#R"/><use transform="matrix(0.06172839506172839,0,0,0.06172839506172839,92.40740740740742,0)" xlink:href="#P"/><use transform="matrix(0.06172839506172839,0,0,0.06172839506172839,98.58024691358025,0)" xlink:href="#ae"/><use transform="matrix(0.06172839506172839,0,0,0.06172839506172839,110.92592592592594,0)" xlink:href="#J"/><use transform="matrix(0.06172839506172839,0,0,0.06172839506172839,125.74074074074075,0)" xlink:href="#V"/><use transform="matrix(0.06172839506172839,0,0,0.06172839506172839,136.85185185185185,0)" xlink:href="#P"/><use transform="matrix(0.06172839506172839,0,0,0.06172839506172839,143.02469135802468,0)" xlink:href="#M"/><use transform="matrix(0.06172839506172839,0,0,0.06172839506172839,147.9012345679012,0)" xlink:href="#W"/><use transform="matrix(0.06172839506172839,0,0,0.06172839506172839,159.01234567901233,0)" xlink:href="#M"/><use transform="matrix(0.06172839506172839,0,0,0.06172839506172839,163.88888888888886,0)" xlink:href="#P"/><use transform="matrix(0.06172839506172839,0,0,0.06172839506172839,170.0617283950617,0)" xlink:href="#X"/><use transform="matrix(0.06172839506172839,0,0,0.06172839506172839,181.1728395061728,0)" xlink:href="#ag"/><use transform="matrix(0.06172839506172839,0,0,0.06172839506172839,195.98765432098762,0)" xlink:href="#R"/><use transform="matrix(0.06172839506172839,0,0,0.06172839506172839,208.3333333333333,0)" xlink:href="#ah"/><use transform="matrix(0.06172839506172839,0,0,0.06172839506172839,220.67901234567896,0)" xlink:href="#ae"/></g><path fill="#3a414a" d="M135-194c52 0 70 43 70 98 0 56-19 99-73 100-30 1-46-15-58-35L72 0H24l1-261h50v104c11-23 29-37 60-37zM114-30c31 0 40-27 40-66 0-37-7-63-39-63s-41 28-41 65c0 36 8 64 40 64" id="ai"/><path fill="#3a414a" d="M115-3C79 11 28 4 28-45v-112H4v-33h27l15-45h31v45h36v33H77v99c-1 23 16 31 38 25v30" id="aj"/><path fill="#3a414a" d="M135-194c87-1 58 113 63 194h-50c-7-57 23-157-34-157-59 0-34 97-39 157H25l-1-190h47c2 12-1 28 3 38 12-26 28-41 61-42" id="ak"/><path fill="#3a414a" d="M67-125c0 53 21 87 73 88 37 1 54-22 65-47l45 17C233-25 199 4 140 4 58 4 20-42 15-125 8-235 124-281 211-232c18 10 29 29 36 50l-46 12c-8-25-30-41-62-41-52 0-71 34-72 86" id="al"/><path fill="#3a414a" d="M135-150c-39-12-60 13-60 57V0H25l-1-190h47c2 13-1 29 3 40 6-28 27-53 61-41v41" id="am"/><path fill="#3a414a" d="M185-48c-13 30-37 53-82 52C43 2 14-33 14-96s30-98 90-98c62 0 83 45 84 108H66c0 31 8 55 39 56 18 0 30-7 34-22zm-45-69c5-46-57-63-70-21-2 6-4 13-4 21h74" id="an"/><path fill="#3a414a" d="M133-34C117-15 103 5 69 4 32 3 11-16 11-54c-1-60 55-63 116-61 1-26-3-47-28-47-18 1-26 9-28 27l-52-2c7-38 36-58 82-57s74 22 75 68l1 82c-1 14 12 18 25 15v27c-30 8-71 5-69-32zm-48 3c29 0 43-24 42-57-32 0-66-3-65 30 0 17 8 27 23 27" id="ao"/><path fill="#3a414a" d="M199 0l-22-63H83L61 0H9l90-248h61L250 0h-51zm-33-102l-36-108c-10 38-24 72-36 108h72" id="ap"/><path fill="#3a414a" d="M190-63c-7 42-38 67-86 67-59 0-84-38-90-98-12-110 154-137 174-36l-49 2c-2-19-15-32-35-32-30 0-35 28-38 64-6 74 65 87 74 30" id="aq"/><path fill="#3a414a" d="M25-224v-37h50v37H25zM25 0v-190h50V0H25" id="ar"/><path fill="#3a414a" d="M128 0H69L1-190h53L99-40l48-150h52" id="as"/><path fill="#3a414a" d="M123 10C108 53 80 86 19 72V37c35 8 53-11 59-39L3-190h52l48 148c12-52 28-100 44-148h51" id="at"/><path fill="#3a414a" d="M67-93c0 74 22 123 53 168H70C40 30 18-18 18-93s22-123 52-168h50c-32 44-53 94-53 168" id="au"/><path fill="#3a414a" d="M102-93c0 74-22 123-52 168H0C30 29 54-18 53-93c0-74-22-123-53-168h50c30 45 52 94 52 168" id="av"/><g id="j"><use transform="matrix(0.06172839506172839,0,0,0.06172839506172839,0,0)" xlink:href="#ai"/><use transform="matrix(0.06172839506172839,0,0,0.06172839506172839,13.518518518518517,0)" xlink:href="#aj"/><use transform="matrix(0.06172839506172839,0,0,0.06172839506172839,20.864197530864196,0)" xlink:href="#ak"/><use transform="matrix(0.06172839506172839,0,0,0.06172839506172839,34.382716049382715,0)" xlink:href="#al"/><use transform="matrix(0.06172839506172839,0,0,0.06172839506172839,50.37037037037037,0)" xlink:href="#am"/><use transform="matrix(0.06172839506172839,0,0,0.06172839506172839,59.01234567901234,0)" xlink:href="#an"/><use transform="matrix(0.06172839506172839,0,0,0.06172839506172839,71.35802469135803,0)" xlink:href="#ao"/><use transform="matrix(0.06172839506172839,0,0,0.06172839506172839,83.70370370370371,0)" xlink:href="#aj"/><use transform="matrix(0.06172839506172839,0,0,0.06172839506172839,91.0493827160494,0)" xlink:href="#an"/><use transform="matrix(0.06172839506172839,0,0,0.06172839506172839,103.39506172839508,0)" xlink:href="#ap"/><use transform="matrix(0.06172839506172839,0,0,0.06172839506172839,119.38271604938274,0)" xlink:href="#aq"/><use transform="matrix(0.06172839506172839,0,0,0.06172839506172839,131.7283950617284,0)" xlink:href="#aj"/><use transform="matrix(0.06172839506172839,0,0,0.06172839506172839,139.07407407407408,0)" xlink:href="#ar"/><use transform="matrix(0.06172839506172839,0,0,0.06172839506172839,145.2469135802469,0)" xlink:href="#as"/><use transform="matrix(0.06172839506172839,0,0,0.06172839506172839,157.59259259259258,0)" xlink:href="#ar"/><use transform="matrix(0.06172839506172839,0,0,0.06172839506172839,163.76543209876542,0)" xlink:href="#aj"/><use transform="matrix(0.06172839506172839,0,0,0.06172839506172839,171.1111111111111,0)" xlink:href="#at"/><use transform="matrix(0.06172839506172839,0,0,0.06172839506172839,183.45679012345676,0)" xlink:href="#au"/><use transform="matrix(0.06172839506172839,0,0,0.06172839506172839,190.80246913580243,0)" xlink:href="#av"/></g><path fill="#3a414a" d="M33 0v-248h34V0H33" id="aw"/><path fill="#3a414a" d="M240 0l2-218c-23 76-54 145-80 218h-23L58-218 59 0H30v-248h44l77 211c21-75 51-140 76-211h43V0h-30" id="ax"/><g id="k"><use transform="matrix(0.06172839506172839,0,0,0.06172839506172839,0,0)" xlink:href="#ac"/><use transform="matrix(0.06172839506172839,0,0,0.06172839506172839,6.172839506172839,0)" xlink:href="#J"/><use transform="matrix(0.06172839506172839,0,0,0.06172839506172839,20.98765432098765,0)" xlink:href="#ag"/><use transform="matrix(0.06172839506172839,0,0,0.06172839506172839,35.80246913580247,0)" xlink:href="#aw"/><use transform="matrix(0.06172839506172839,0,0,0.06172839506172839,41.97530864197531,0)" xlink:href="#af"/><use transform="matrix(0.06172839506172839,0,0,0.06172839506172839,57.96296296296296,0)" xlink:href="#S"/><use transform="matrix(0.06172839506172839,0,0,0.06172839506172839,70.30864197530865,0)" xlink:href="#N"/><use transform="matrix(0.06172839506172839,0,0,0.06172839506172839,82.65432098765433,0)" xlink:href="#N"/><use transform="matrix(0.06172839506172839,0,0,0.06172839506172839,95.00000000000001,0)" xlink:href="#ae"/><use transform="matrix(0.06172839506172839,0,0,0.06172839506172839,107.3456790123457,0)" xlink:href="#V"/><use transform="matrix(0.06172839506172839,0,0,0.06172839506172839,118.45679012345681,0)" xlink:href="#P"/><use transform="matrix(0.06172839506172839,0,0,0.06172839506172839,124.62962962962965,0)" xlink:href="#M"/><use transform="matrix(0.06172839506172839,0,0,0.06172839506172839,129.50617283950618,0)" xlink:href="#S"/><use transform="matrix(0.06172839506172839,0,0,0.06172839506172839,141.85185185185185,0)" xlink:href="#N"/><use transform="matrix(0.06172839506172839,0,0,0.06172839506172839,154.19753086419752,0)" xlink:href="#ax"/><use transform="matrix(0.06172839506172839,0,0,0.06172839506172839,172.6543209876543,0)" xlink:href="#R"/><use transform="matrix(0.06172839506172839,0,0,0.06172839506172839,184.99999999999997,0)" xlink:href="#N"/><use transform="matrix(0.06172839506172839,0,0,0.06172839506172839,197.34567901234564,0)" xlink:href="#R"/><use transform="matrix(0.06172839506172839,0,0,0.06172839506172839,209.6913580246913,0)" xlink:href="#ah"/><use transform="matrix(0.06172839506172839,0,0,0.06172839506172839,222.03703703703698,0)" xlink:href="#ae"/><use transform="matrix(0.06172839506172839,0,0,0.06172839506172839,234.38271604938265,0)" xlink:href="#Q"/></g><g id="l"><use transform="matrix(0.06172839506172839,0,0,0.06172839506172839,0,0)" xlink:href="#ac"/><use transform="matrix(0.06172839506172839,0,0,0.06172839506172839,6.172839506172839,0)" xlink:href="#J"/><use transform="matrix(0.06172839506172839,0,0,0.06172839506172839,20.98765432098765,0)" xlink:href="#V"/><use transform="matrix(0.06172839506172839,0,0,0.06172839506172839,32.09876543209876,0)" xlink:href="#P"/><use transform="matrix(0.06172839506172839,0,0,0.06172839506172839,38.2716049382716,0)" xlink:href="#M"/><use transform="matrix(0.06172839506172839,0,0,0.06172839506172839,43.148148148148145,0)" xlink:href="#W"/><use transform="matrix(0.06172839506172839,0,0,0.06172839506172839,54.25925925925925,0)" xlink:href="#M"/><use transform="matrix(0.06172839506172839,0,0,0.06172839506172839,59.1358024691358,0)" xlink:href="#P"/><use transform="matrix(0.06172839506172839,0,0,0.06172839506172839,65.30864197530863,0)" xlink:href="#X"/><use transform="matrix(0.06172839506172839,0,0,0.06172839506172839,76.41975308641975,0)" xlink:href="#af"/><use transform="matrix(0.06172839506172839,0,0,0.06172839506172839,92.4074074074074,0)" xlink:href="#S"/><use transform="matrix(0.06172839506172839,0,0,0.06172839506172839,104.75308641975309,0)" xlink:href="#N"/><use transform="matrix(0.06172839506172839,0,0,0.06172839506172839,117.09876543209877,0)" xlink:href="#P"/><use transform="matrix(0.06172839506172839,0,0,0.06172839506172839,123.27160493827161,0)" xlink:href="#Q"/><use transform="matrix(0.06172839506172839,0,0,0.06172839506172839,130.6172839506173,0)" xlink:href="#S"/><use transform="matrix(0.06172839506172839,0,0,0.06172839506172839,142.96296296296296,0)" xlink:href="#T"/><use transform="matrix(0.06172839506172839,0,0,0.06172839506172839,147.8395061728395,0)" xlink:href="#T"/><use transform="matrix(0.06172839506172839,0,0,0.06172839506172839,152.71604938271602,0)" xlink:href="#ae"/><use transform="matrix(0.06172839506172839,0,0,0.06172839506172839,165.0617283950617,0)" xlink:href="#Q"/></g><path fill="#3a414a" d="M30-248c118-7 216 8 213 122C240-48 200 0 122 0H30v-248zM63-27c89 8 146-16 146-99s-60-101-146-95v194" id="ay"/><path fill="#3a414a" d="M160-131c35 5 61 23 61 61C221 17 115-2 30 0v-248c76 3 177-17 177 60 0 33-19 50-47 57zm-97-11c50-1 110 9 110-42 0-47-63-36-110-37v79zm0 115c55-2 124 14 124-45 0-56-70-42-124-44v89" id="az"/><path fill="#3a414a" d="M141 0L90-78 38 0H4l68-98-65-92h35l48 74 47-74h35l-64 92 68 98h-35" id="aA"/><g id="m"><use transform="matrix(0.06172839506172839,0,0,0.06172839506172839,0,0)" xlink:href="#ac"/><use transform="matrix(0.06172839506172839,0,0,0.06172839506172839,6.172839506172839,0)" xlink:href="#ax"/><use transform="matrix(0.06172839506172839,0,0,0.06172839506172839,24.629629629629626,0)" xlink:href="#X"/><use transform="matrix(0.06172839506172839,0,0,0.06172839506172839,35.74074074074073,0)" xlink:href="#ay"/><use transform="matrix(0.06172839506172839,0,0,0.06172839506172839,51.728395061728385,0)" xlink:href="#az"/><use transform="matrix(0.06172839506172839,0,0,0.06172839506172839,66.5432098765432,0)" xlink:href="#af"/><use transform="matrix(0.06172839506172839,0,0,0.06172839506172839,82.53086419753086,0)" xlink:href="#S"/><use transform="matrix(0.06172839506172839,0,0,0.06172839506172839,94.87654320987654,0)" xlink:href="#N"/><use transform="matrix(0.06172839506172839,0,0,0.06172839506172839,107.22222222222223,0)" xlink:href="#P"/><use transform="matrix(0.06172839506172839,0,0,0.06172839506172839,113.39506172839506,0)" xlink:href="#ae"/><use transform="matrix(0.06172839506172839,0,0,0.06172839506172839,125.74074074074075,0)" xlink:href="#aA"/><use transform="matrix(0.06172839506172839,0,0,0.06172839506172839,136.85185185185185,0)" xlink:href="#P"/></g><path fill="#3a414a" d="M24-248c120-7 223 5 221 122C244-46 201 0 124 0H24v-248zM76-40c74 7 117-18 117-86 0-67-45-88-117-82v168" id="aB"/><path fill="#3a414a" d="M25 0v-261h50V0H25" id="aC"/><path fill="#3a414a" d="M137-138c1-29-70-34-71-4 15 46 118 7 119 86 1 83-164 76-172 9l43-7c4 19 20 25 44 25 33 8 57-30 24-41C81-84 22-81 20-136c-2-80 154-74 161-7" id="aD"/><g id="n"><use transform="matrix(0.06172839506172839,0,0,0.06172839506172839,0,0)" xlink:href="#aq"/><use transform="matrix(0.06172839506172839,0,0,0.06172839506172839,12.345679012345679,0)" xlink:href="#am"/><use transform="matrix(0.06172839506172839,0,0,0.06172839506172839,20.98765432098765,0)" xlink:href="#an"/><use transform="matrix(0.06172839506172839,0,0,0.06172839506172839,33.33333333333333,0)" xlink:href="#ao"/><use transform="matrix(0.06172839506172839,0,0,0.06172839506172839,45.679012345679006,0)" xlink:href="#aj"/><use transform="matrix(0.06172839506172839,0,0,0.06172839506172839,53.02469135802468,0)" xlink:href="#an"/><use transform="matrix(0.06172839506172839,0,0,0.06172839506172839,65.37037037037037,0)" xlink:href="#ap"/><use transform="matrix(0.06172839506172839,0,0,0.06172839506172839,81.35802469135803,0)" xlink:href="#aq"/><use transform="matrix(0.06172839506172839,0,0,0.06172839506172839,93.70370370370371,0)" xlink:href="#aj"/><use transform="matrix(0.06172839506172839,0,0,0.06172839506172839,101.0493827160494,0)" xlink:href="#ar"/><use transform="matrix(0.06172839506172839,0,0,0.06172839506172839,107.22222222222223,0)" xlink:href="#as"/><use transform="matrix(0.06172839506172839,0,0,0.06172839506172839,119.56790123456791,0)" xlink:href="#ar"/><use transform="matrix(0.06172839506172839,0,0,0.06172839506172839,125.74074074074075,0)" xlink:href="#aj"/><use transform="matrix(0.06172839506172839,0,0,0.06172839506172839,133.08641975308643,0)" xlink:href="#at"/><use transform="matrix(0.06172839506172839,0,0,0.06172839506172839,145.4320987654321,0)" xlink:href="#au"/><use transform="matrix(0.06172839506172839,0,0,0.06172839506172839,152.77777777777777,0)" xlink:href="#ao"/><use transform="matrix(0.06172839506172839,0,0,0.06172839506172839,165.12345679012344,0)" xlink:href="#aq"/><use transform="matrix(0.06172839506172839,0,0,0.06172839506172839,177.4691358024691,0)" xlink:href="#aj"/><use transform="matrix(0.06172839506172839,0,0,0.06172839506172839,184.81481481481478,0)" xlink:href="#ar"/><use transform="matrix(0.06172839506172839,0,0,0.06172839506172839,190.98765432098762,0)" xlink:href="#as"/><use transform="matrix(0.06172839506172839,0,0,0.06172839506172839,203.3333333333333,0)" xlink:href="#ar"/><use transform="matrix(0.06172839506172839,0,0,0.06172839506172839,209.50617283950612,0)" xlink:href="#aj"/><use transform="matrix(0.06172839506172839,0,0,0.06172839506172839,216.8518518518518,0)" xlink:href="#at"/><use transform="matrix(0.06172839506172839,0,0,0.06172839506172839,229.19753086419746,0)" xlink:href="#aB"/><use transform="matrix(0.06172839506172839,0,0,0.06172839506172839,245.1851851851851,0)" xlink:href="#an"/><use transform="matrix(0.06172839506172839,0,0,0.06172839506172839,257.5308641975308,0)" xlink:href="#aj"/><use transform="matrix(0.06172839506172839,0,0,0.06172839506172839,264.87654320987644,0)" xlink:href="#ao"/><use transform="matrix(0.06172839506172839,0,0,0.06172839506172839,277.2222222222221,0)" xlink:href="#ar"/><use transform="matrix(0.06172839506172839,0,0,0.06172839506172839,283.395061728395,0)" xlink:href="#aC"/><use transform="matrix(0.06172839506172839,0,0,0.06172839506172839,289.56790123456784,0)" xlink:href="#aD"/><use transform="matrix(0.06172839506172839,0,0,0.06172839506172839,301.9135802469135,0)" xlink:href="#av"/></g><g id="o"><use transform="matrix(0.06172839506172839,0,0,0.06172839506172839,0,0)" xlink:href="#R"/><use transform="matrix(0.06172839506172839,0,0,0.06172839506172839,12.345679012345679,0)" xlink:href="#V"/><use transform="matrix(0.06172839506172839,0,0,0.06172839506172839,23.45679012345679,0)" xlink:href="#P"/><use transform="matrix(0.06172839506172839,0,0,0.06172839506172839,29.62962962962963,0)" xlink:href="#M"/><use transform="matrix(0.06172839506172839,0,0,0.06172839506172839,34.50617283950617,0)" xlink:href="#W"/><use transform="matrix(0.06172839506172839,0,0,0.06172839506172839,45.61728395061728,0)" xlink:href="#M"/><use transform="matrix(0.06172839506172839,0,0,0.06172839506172839,50.49382716049382,0)" xlink:href="#P"/><use transform="matrix(0.06172839506172839,0,0,0.06172839506172839,56.666666666666664,0)" xlink:href="#X"/></g><use transform="matrix(0.06172839506172839,0,0,0.06172839506172839,0,0)" xlink:href="#ac" id="p"/><g id="q"><use transform="matrix(0.06172839506172839,0,0,0.06172839506172839,0,0)" xlink:href="#J"/><use transform="matrix(0.06172839506172839,0,0,0.06172839506172839,14.814814814814813,0)" xlink:href="#V"/><use transform="matrix(0.06172839506172839,0,0,0.06172839506172839,25.925925925925924,0)" xlink:href="#P"/><use transform="matrix(0.06172839506172839,0,0,0.06172839506172839,32.098765432098766,0)" xlink:href="#M"/><use transform="matrix(0.06172839506172839,0,0,0.06172839506172839,36.97530864197531,0)" xlink:href="#W"/><use transform="matrix(0.06172839506172839,0,0,0.06172839506172839,48.08641975308642,0)" xlink:href="#M"/><use transform="matrix(0.06172839506172839,0,0,0.06172839506172839,52.96296296296296,0)" xlink:href="#P"/><use transform="matrix(0.06172839506172839,0,0,0.06172839506172839,59.135802469135804,0)" xlink:href="#X"/></g><g id="r"><use transform="matrix(0.06172839506172839,0,0,0.06172839506172839,0,0)" xlink:href="#ao"/><use transform="matrix(0.06172839506172839,0,0,0.06172839506172839,12.345679012345679,0)" xlink:href="#aq"/><use transform="matrix(0.06172839506172839,0,0,0.06172839506172839,24.691358024691358,0)" xlink:href="#aj"/><use transform="matrix(0.06172839506172839,0,0,0.06172839506172839,32.03703703703704,0)" xlink:href="#ar"/><use transform="matrix(0.06172839506172839,0,0,0.06172839506172839,38.20987654320988,0)" xlink:href="#as"/><use transform="matrix(0.06172839506172839,0,0,0.06172839506172839,50.55555555555556,0)" xlink:href="#ar"/><use transform="matrix(0.06172839506172839,0,0,0.06172839506172839,56.7283950617284,0)" xlink:href="#aj"/><use transform="matrix(0.06172839506172839,0,0,0.06172839506172839,64.07407407407408,0)" xlink:href="#at"/></g><path fill="#3a414a" d="M15-148v-39h180v39H15zm0 97v-39h180v39H15" id="aE"/><use transform="matrix(0.06172839506172839,0,0,0.06172839506172839,0,0)" xlink:href="#aE" id="s"/><g id="t"><use transform="matrix(0.06172839506172839,0,0,0.06172839506172839,0,0)" xlink:href="#aq"/><use transform="matrix(0.06172839506172839,0,0,0.06172839506172839,12.345679012345679,0)" xlink:href="#am"/><use transform="matrix(0.06172839506172839,0,0,0.06172839506172839,20.98765432098765,0)" xlink:href="#an"/><use transform="matrix(0.06172839506172839,0,0,0.06172839506172839,33.33333333333333,0)" xlink:href="#ao"/><use transform="matrix(0.06172839506172839,0,0,0.06172839506172839,45.679012345679006,0)" xlink:href="#aj"/><use transform="matrix(0.06172839506172839,0,0,0.06172839506172839,53.02469135802468,0)" xlink:href="#an"/><use transform="matrix(0.06172839506172839,0,0,0.06172839506172839,65.37037037037037,0)" xlink:href="#ap"/><use transform="matrix(0.06172839506172839,0,0,0.06172839506172839,81.35802469135803,0)" xlink:href="#aq"/><use transform="matrix(0.06172839506172839,0,0,0.06172839506172839,93.70370370370371,0)" xlink:href="#aj"/><use transform="matrix(0.06172839506172839,0,0,0.06172839506172839,101.0493827160494,0)" xlink:href="#ar"/><use transform="matrix(0.06172839506172839,0,0,0.06172839506172839,107.22222222222223,0)" xlink:href="#as"/><use transform="matrix(0.06172839506172839,0,0,0.06172839506172839,119.56790123456791,0)" xlink:href="#ar"/><use transform="matrix(0.06172839506172839,0,0,0.06172839506172839,125.74074074074075,0)" xlink:href="#aj"/><use transform="matrix(0.06172839506172839,0,0,0.06172839506172839,133.08641975308643,0)" xlink:href="#at"/><use transform="matrix(0.06172839506172839,0,0,0.06172839506172839,145.4320987654321,0)" xlink:href="#au"/><use transform="matrix(0.06172839506172839,0,0,0.06172839506172839,152.77777777777777,0)" xlink:href="#ao"/><use transform="matrix(0.06172839506172839,0,0,0.06172839506172839,165.12345679012344,0)" xlink:href="#aq"/><use transform="matrix(0.06172839506172839,0,0,0.06172839506172839,177.4691358024691,0)" xlink:href="#aj"/><use transform="matrix(0.06172839506172839,0,0,0.06172839506172839,184.81481481481478,0)" xlink:href="#ar"/><use transform="matrix(0.06172839506172839,0,0,0.06172839506172839,190.98765432098762,0)" xlink:href="#as"/><use transform="matrix(0.06172839506172839,0,0,0.06172839506172839,203.3333333333333,0)" xlink:href="#ar"/><use transform="matrix(0.06172839506172839,0,0,0.06172839506172839,209.50617283950612,0)" xlink:href="#aj"/><use transform="matrix(0.06172839506172839,0,0,0.06172839506172839,216.8518518518518,0)" xlink:href="#at"/><use transform="matrix(0.06172839506172839,0,0,0.06172839506172839,229.19753086419746,0)" xlink:href="#aB"/><use transform="matrix(0.06172839506172839,0,0,0.06172839506172839,245.1851851851851,0)" xlink:href="#an"/><use transform="matrix(0.06172839506172839,0,0,0.06172839506172839,257.5308641975308,0)" xlink:href="#aj"/><use transform="matrix(0.06172839506172839,0,0,0.06172839506172839,264.87654320987644,0)" xlink:href="#ao"/><use transform="matrix(0.06172839506172839,0,0,0.06172839506172839,277.2222222222221,0)" xlink:href="#ar"/><use transform="matrix(0.06172839506172839,0,0,0.06172839506172839,283.395061728395,0)" xlink:href="#aC"/><use transform="matrix(0.06172839506172839,0,0,0.06172839506172839,289.56790123456784,0)" xlink:href="#aD"/><use transform="matrix(0.06172839506172839,0,0,0.06172839506172839,301.9135802469135,0)" xlink:href="#av"/></g><g id="u"><use transform="matrix(0.06172839506172839,0,0,0.06172839506172839,0,0)" xlink:href="#U"/><use transform="matrix(0.06172839506172839,0,0,0.06172839506172839,6.172839506172839,0)" xlink:href="#ae"/><use transform="matrix(0.06172839506172839,0,0,0.06172839506172839,18.51851851851852,0)" xlink:href="#T"/><use transform="matrix(0.06172839506172839,0,0,0.06172839506172839,23.395061728395063,0)" xlink:href="#O"/><use transform="matrix(0.06172839506172839,0,0,0.06172839506172839,34.50617283950618,0)" xlink:href="#ae"/><use transform="matrix(0.06172839506172839,0,0,0.06172839506172839,46.851851851851855,0)" xlink:href="#ab"/></g><path fill="#3a414a" d="M88-194c31-1 46 15 58 34l-1-101h50l1 261h-48c-2-10 0-23-3-31C134-8 116 4 84 4 32 4 16-41 15-95c0-56 19-97 73-99zm17 164c33 0 40-30 41-66 1-37-9-64-41-64s-38 30-39 65c0 43 13 65 39 65" id="aF"/><path fill="#3a414a" d="M135-194c53 0 70 44 70 98 0 56-19 98-73 100-31 1-45-17-59-34 3 33 2 69 2 105H25l-1-265h48c2 10 0 23 3 31 11-24 29-35 60-35zM114-30c33 0 39-31 40-66 0-38-9-64-40-64-56 0-55 130 0 130" id="aG"/><g id="v"><use transform="matrix(0.06172839506172839,0,0,0.06172839506172839,0,0)" xlink:href="#aF"/><use transform="matrix(0.06172839506172839,0,0,0.06172839506172839,13.518518518518517,0)" xlink:href="#ar"/><use transform="matrix(0.06172839506172839,0,0,0.06172839506172839,19.691358024691358,0)" xlink:href="#aD"/><use transform="matrix(0.06172839506172839,0,0,0.06172839506172839,32.03703703703704,0)" xlink:href="#aG"/><use transform="matrix(0.06172839506172839,0,0,0.06172839506172839,45.55555555555556,0)" xlink:href="#aC"/><use transform="matrix(0.06172839506172839,0,0,0.06172839506172839,51.7283950617284,0)" xlink:href="#ao"/><use transform="matrix(0.06172839506172839,0,0,0.06172839506172839,64.07407407407408,0)" xlink:href="#at"/><use transform="matrix(0.06172839506172839,0,0,0.06172839506172839,76.41975308641976,0)" xlink:href="#ap"/><use transform="matrix(0.06172839506172839,0,0,0.06172839506172839,92.40740740740742,0)" xlink:href="#aq"/><use transform="matrix(0.06172839506172839,0,0,0.06172839506172839,104.7530864197531,0)" xlink:href="#aj"/><use transform="matrix(0.06172839506172839,0,0,0.06172839506172839,112.09876543209879,0)" xlink:href="#ar"/><use transform="matrix(0.06172839506172839,0,0,0.06172839506172839,118.27160493827162,0)" xlink:href="#as"/><use transform="matrix(0.06172839506172839,0,0,0.06172839506172839,130.6172839506173,0)" xlink:href="#ar"/><use transform="matrix(0.06172839506172839,0,0,0.06172839506172839,136.79012345679013,0)" xlink:href="#aj"/><use transform="matrix(0.06172839506172839,0,0,0.06172839506172839,144.1358024691358,0)" xlink:href="#at"/><use transform="matrix(0.06172839506172839,0,0,0.06172839506172839,156.48148148148147,0)" xlink:href="#au"/><use transform="matrix(0.06172839506172839,0,0,0.06172839506172839,163.82716049382714,0)" xlink:href="#ao"/><use transform="matrix(0.06172839506172839,0,0,0.06172839506172839,176.1728395061728,0)" xlink:href="#aq"/><use transform="matrix(0.06172839506172839,0,0,0.06172839506172839,188.51851851851848,0)" xlink:href="#aj"/><use transform="matrix(0.06172839506172839,0,0,0.06172839506172839,195.86419753086415,0)" xlink:href="#ar"/><use transform="matrix(0.06172839506172839,0,0,0.06172839506172839,202.03703703703698,0)" xlink:href="#as"/><use transform="matrix(0.06172839506172839,0,0,0.06172839506172839,214.38271604938265,0)" xlink:href="#ar"/><use transform="matrix(0.06172839506172839,0,0,0.06172839506172839,220.5555555555555,0)" xlink:href="#aj"/><use transform="matrix(0.06172839506172839,0,0,0.06172839506172839,227.90123456790116,0)" xlink:href="#at"/><use transform="matrix(0.06172839506172839,0,0,0.06172839506172839,240.24691358024683,0)" xlink:href="#av"/></g><path fill="#3a414a" d="M24 0v-248h195v40H76v63h132v40H76v65h150V0H24" id="aH"/><path fill="#3a414a" d="M110-194c64 0 96 36 96 99 0 64-35 99-97 99-61 0-95-36-95-99 0-62 34-99 96-99zm-1 164c35 0 45-28 45-65 0-40-10-65-43-65-34 0-45 26-45 65 0 36 10 65 43 65" id="aI"/><g id="w"><use transform="matrix(0.06172839506172839,0,0,0.06172839506172839,0,0)" xlink:href="#aF"/><use transform="matrix(0.06172839506172839,0,0,0.06172839506172839,13.518518518518517,0)" xlink:href="#ar"/><use transform="matrix(0.06172839506172839,0,0,0.06172839506172839,19.691358024691358,0)" xlink:href="#aD"/><use transform="matrix(0.06172839506172839,0,0,0.06172839506172839,32.03703703703704,0)" xlink:href="#aG"/><use transform="matrix(0.06172839506172839,0,0,0.06172839506172839,45.55555555555556,0)" xlink:href="#aC"/><use transform="matrix(0.06172839506172839,0,0,0.06172839506172839,51.7283950617284,0)" xlink:href="#ao"/><use transform="matrix(0.06172839506172839,0,0,0.06172839506172839,64.07407407407408,0)" xlink:href="#at"/><use transform="matrix(0.06172839506172839,0,0,0.06172839506172839,76.41975308641976,0)" xlink:href="#aH"/><use transform="matrix(0.06172839506172839,0,0,0.06172839506172839,91.23456790123457,0)" xlink:href="#am"/><use transform="matrix(0.06172839506172839,0,0,0.06172839506172839,99.87654320987654,0)" xlink:href="#am"/><use transform="matrix(0.06172839506172839,0,0,0.06172839506172839,108.51851851851852,0)" xlink:href="#aI"/><use transform="matrix(0.06172839506172839,0,0,0.06172839506172839,122.03703703703704,0)" xlink:href="#am"/><use transform="matrix(0.06172839506172839,0,0,0.06172839506172839,130.679012345679,0)" xlink:href="#au"/><use transform="matrix(0.06172839506172839,0,0,0.06172839506172839,138.02469135802468,0)" xlink:href="#an"/><use transform="matrix(0.06172839506172839,0,0,0.06172839506172839,150.37037037037035,0)" xlink:href="#am"/><use transform="matrix(0.06172839506172839,0,0,0.06172839506172839,159.01234567901233,0)" xlink:href="#am"/><use transform="matrix(0.06172839506172839,0,0,0.06172839506172839,167.6543209876543,0)" xlink:href="#aI"/><use transform="matrix(0.06172839506172839,0,0,0.06172839506172839,181.1728395061728,0)" xlink:href="#am"/><use transform="matrix(0.06172839506172839,0,0,0.06172839506172839,189.81481481481478,0)" xlink:href="#av"/></g></defs></g></svg>