<svg xmlns="http://www.w3.org/2000/svg" xmlns:xlink="http://www.w3.org/1999/xlink" xmlns:lucid="lucid" width="2420" height="2360"><g transform="translate(1001.3103046107226 1055.2951820234807)" lucid:page-tab-id="0_0"><path d="M-1806.87-1258.84h3677.74v2581.68h-3677.74z" fill="#fff"/><path d="M-781.06 925.2a.25.25 0 0 1 .25-.25h699a.25.25 0 0 1 .24.25.25.25 0 0 1-.25.25h-699a.25.25 0 0 1-.26-.25z" fill="none"/><path d="M-770.9 924.96h9.92m4.96 0h9.9m4.97 0h9.9m4.97 0h9.92m4.95 0h9.9m4.97 0h9.9m4.97 0h9.9m4.97 0h9.93m4.95 0h9.92m4.96 0h9.9m4.97 0h9.9m4.97 0h9.9m4.97 0h9.92m4.95 0h9.9m4.97 0h9.9m4.97 0h9.9m4.96 0h9.92m4.95 0h9.92m4.96 0h9.92m4.96 0h9.9m4.97 0h9.92m4.95 0h9.92m4.96 0h9.9m4.97 0h9.9m4.97 0h9.92m4.95 0h9.93m4.96 0h9.9m4.96 0h9.9m4.97 0h9.92m4.95 0h9.92m4.95 0h9.92m4.95 0h9.9m4.97 0h9.9m4.97 0h9.9m4.96 0h9.92m4.96 0h9.9m4.97 0h9.92m4.96 0h9.92m4.95 0h9.92m4.96 0h9.9m4.97 0h9.9m4.97 0h9.9m4.97 0h9.92m4.96 0h9.9m4.97 0h9.9m4.96 0h9.92m4.95 0h5.03l.03.02.04.02.03.03.02.03v.03l.03.03v.16l-.02.04v.03l-.03.03-.03.03-.04.03h-.03l-.04.02h-5.01m-4.95 0h-9.92m-4.96 0h-9.9m-4.97 0h-9.9m-4.97 0h-9.92m-4.96 0h-9.9m-4.97 0h-9.9m-4.96 0h-9.9m-4.97 0h-9.92m-4.95 0h-9.92m-4.96 0h-9.9m-4.97 0h-9.9m-4.97 0h-9.92m-4.95 0h-9.9m-4.97 0h-9.9m-4.97 0h-9.9m-4.97 0h-9.93m-4.95 0h-9.92m-4.95 0h-9.92m-4.96 0h-9.9m-4.97 0h-9.9m-4.97 0h-9.92m-4.94 0h-9.92m-4.96 0h-9.9m-4.97 0h-9.9m-4.96 0h-9.92m-4.95 0h-9.92m-4.96 0h-9.92m-4.96 0h-9.9m-4.97 0h-9.92m-4.95 0h-9.92m-4.95 0h-9.9m-4.97 0h-9.9m-4.97 0h-9.9m-4.97 0h-9.93m-4.96 0h-9.9m-4.96 0h-9.9m-4.97 0h-9.9m-4.97 0h-9.92m-4.95 0h-9.92m-4.95 0h-9.9m-4.97 0h-9.9m-4.97 0h-9.9m-4.96 0h-9.92m-4.96 0h-9.9m-4.97 0h-9.92m-4.96 0h-9.9m-4.97 0h-5.05l-.02-.02-.04-.02-.03-.02v-.03l-.03-.03-.02-.04v-.14l.02-.04.02-.04v-.03l.04-.03.04-.02h.03l.05-.02h4.99" stroke="#3a414a" stroke-width=".5" fill="none"/><path d="M-981.3-1029.3a6 6 0 0 1 6-6h228a6 6 0 0 1 6 6v8a14.48 14.48 0 0 1-4.25 10.25l-1.52 1.5a14.48 14.48 0 0 1-10.24 4.25h-218a6 6 0 0 1-6-6z" fill="#fff"/><path d="M-741.3-1035.3v20l-10 10h-230" stroke="#3a414a" fill="none"/><path d="M-981.3-1029.3a6 6 0 0 1 6-6h2368a6 6 0 0 1 6 6v2308a6 6 0 0 1-6 6h-2368a6 6 0 0 1-6-6z" stroke="#3a414a" fill="none"/><use xlink:href="#a" transform="matrix(1,0,0,1,-973.3103046107226,-1035.2951820234807) translate(0 18.6)"/><use xlink:href="#b" transform="matrix(1,0,0,1,-973.3103046107226,-1035.2951820234807) translate(25.950000000000003 18.6)"/><use xlink:href="#c" transform="matrix(1,0,0,1,-973.3103046107226,-1035.2951820234807) translate(89.80000000000001 18.6)"/><use xlink:href="#d" transform="matrix(1,0,0,1,-973.3103046107226,-1035.2951820234807) translate(154.65 18.6)"/><g fill="none"><path d="M-820.8-835.04a.25.25 0 0 1 .24.25v2109a.25.25 0 0 1-.25.26.25.25 0 0 1-.26-.25v-2109a.25.25 0 0 1 .25-.24z"/><path d="M-820.56-824.82v9.97m0 4.98v9.98m0 5v9.96m0 5v9.96m0 5v9.96m0 4.98v9.98m0 4.98v9.97m0 4.98v9.97m0 5v9.96m0 5v9.97m0 4.98v9.97m0 5v9.96m0 5v9.96m0 4.98v9.98m0 4.98v9.97m0 5v9.96m0 5v9.97m0 4.98v9.98m0 4.98v9.98m0 5v9.96m0 5v9.96m0 4.98v9.97m0 5v9.96m0 5v9.97m0 5v9.96m0 4.98v9.98m0 5v9.96m0 5v9.96m0 5v9.96m0 4.98v9.97m0 5v9.97m0 5v9.96m0 5v9.96m0 4.97v9.97m0 5v9.96m0 5v9.96m0 4.98v9.98m0 4.98v9.97m0 5v9.96m0 5v9.96m0 4.97v9.98m0 4.98v9.97m0 5v9.96m0 5v9.96m0 4.98v9.98m0 4.98v9.97m0 5v9.96m0 4.98v9.97m0 4.98v9.98m0 5v9.96m0 5V-67m0 5v9.96m0 4.98v9.98m0 4.98v9.97m0 4.98v9.97m0 5V7.8m0 5v9.97m0 4.98v9.97m0 5v9.96m0 5v9.96m0 4.98v9.98m0 4.98v9.97m0 5v9.96m0 5v9.97m0 4.98v9.98m0 4.98v9.98m0 5v9.96m0 5v9.96m0 4.98v9.97m0 5v9.96m0 5v9.97m0 5v9.96m0 4.98v9.98m0 5v9.96m0 5V292m0 5v9.96m0 4.98v9.97m0 5v9.97m0 5v9.96m0 5v9.96m0 4.97v9.97m0 5v9.96m0 5v9.96m0 4.98v9.98m0 4.98v9.97m0 5v9.96m0 5v9.96m0 4.97v9.98m0 4.98v9.97m0 5v9.96m0 5v9.96m0 4.98v9.98m0 4.98v9.97m0 5v9.96m0 4.98v9.97m0 4.98v9.98m0 5v9.96m0 5V636m0 5v9.96m0 4.98v9.98m0 4.98v9.97m0 4.98v9.97m0 5v9.96m0 5v9.97m0 4.98v9.97m0 5v9.96m0 5v9.96m0 4.98v9.98m0 4.98v9.97m0 5v9.96m0 5v9.97m0 4.98v9.98m0 4.98v9.98m0 5v9.96m0 5v9.96m0 4.98v9.97m0 5v9.96m0 5v9.97m0 5v9.96m0 4.98v9.98m0 5v9.96m0 5V995m0 5v9.96m0 4.98v9.97m0 5v9.97m0 5v9.96m0 5v9.96m0 4.97v9.97m0 5v9.96m0 5v9.96m0 4.98v9.98m0 4.98v9.97m0 5v9.96m0 5v9.96m0 4.97v9.98m0 4.98v9.97m0 5v9.96m0 5v9.96m0 4.98v9.98m0 4.98v9.97m0 5V1274.28l-.03.04v.03l-.03.03-.03.03-.04.03h-.03l-.04.02h-.13l-.02-.02-.04-.02-.03-.02v-.03l-.03-.03-.02-.04V1269.23m0-5v-9.96m0-4.98v-9.98m0-4.98v-9.97m0-5v-9.96m0-5v-9.97m0-4.98v-9.98m0-4.98v-9.98m0-5v-9.96m0-5v-9.96m0-4.98v-9.98m0-4.98v-9.97m0-5v-9.97m0-5v-9.96m0-4.98v-9.98m0-5v-9.96m0-5v-9.96m0-5v-9.96m0-4.98V1000m0-5v-9.97m0-5v-9.96m0-5v-9.96m0-4.97v-9.97m0-5v-9.96m0-5v-9.96m0-5v-9.96m0-4.98v-9.97m0-5v-9.96m0-5v-9.96m0-4.97v-9.98m0-4.98v-9.97m0-5v-9.96m0-5v-9.96m0-4.98v-9.98m0-4.98v-9.97m0-5v-9.96m0-4.98v-9.97m0-4.98v-9.98m0-5v-9.96m0-5v-9.96m0-5v-9.96m0-4.98v-9.98m0-4.98V641m0-4.98v-9.97m0-5v-9.96m0-5v-9.97m0-4.98v-9.97m0-5v-9.96m0-5v-9.96m0-4.98v-9.98m0-4.98v-9.97m0-5v-9.96m0-5v-9.97m0-4.98v-9.98m0-4.98v-9.98m0-5v-9.96m0-5v-9.96m0-4.98v-9.98m0-4.98v-9.97m0-5v-9.97m0-5v-9.96m0-4.98v-9.98m0-5v-9.96m0-5v-9.96m0-5v-9.96m0-4.98V297m0-5v-9.97m0-5v-9.96m0-5v-9.96m0-4.97v-9.97m0-5v-9.96m0-5v-9.96m0-5v-9.96m0-4.98v-9.97m0-5v-9.96m0-5v-9.96m0-4.97v-9.98m0-4.98v-9.97m0-5v-9.96m0-5V87.6m0-4.98v-9.98m0-4.98v-9.97m0-5v-9.96m0-4.98v-9.97m0-4.98V12.8m0-5v-9.96m0-5v-9.96m0-5v-9.96m0-4.98v-9.98m0-4.98V-62m0-4.98v-9.97m0-5v-9.96m0-5v-9.97m0-4.98v-9.97m0-5v-9.96m0-5v-9.96m0-4.98v-9.98m0-4.98v-9.97m0-5v-9.96m0-5v-9.97m0-4.98v-9.98m0-4.98v-9.98m0-5v-9.96m0-5v-9.96m0-4.98v-9.98m0-4.98v-9.97m0-5v-9.97m0-5v-9.96m0-4.98v-9.98m0-5v-9.96m0-5v-9.96m0-5v-9.96m0-4.98V-406m0-5v-9.97m0-5v-9.96m0-5v-9.96m0-4.97v-9.97m0-5v-9.96m0-5v-9.96m0-5v-9.96m0-4.98v-9.97m0-5v-9.96m0-5v-9.96m0-4.97v-9.98m0-4.98v-9.97m0-5v-9.96m0-5v-9.96m0-4.98v-9.98m0-4.98v-9.97m0-5v-9.96m0-4.98v-9.97m0-4.98v-9.98m0-5v-9.96m0-5v-9.96m0-5v-9.96m0-4.98v-9.98m0-4.98V-765m0-4.98v-9.97m0-5v-9.96m0-5v-9.97m0-4.98v-9.97m0-5v-5.04l.02-.04.02-.04v-.03l.04-.03.04-.02h.03l.05-.02H-820.74l.03.02.04.02.03.03.02.03v.03l.03.03v5.08" stroke="#3a414a" stroke-width=".5"/></g><path d="M-801.56-915.54c0 10.9-8.84 19.75-19.75 19.75-10.92 0-19.76-8.84-19.76-19.75 0-10.9 8.84-19.75 19.75-19.75 10.9 0 19.74 8.85 19.74 19.75z" stroke="#3a414a" fill="#fff"/><path d="M-821.3-895.8v49.3a20.7 20.7 0 0 0 3.2 11.08l36.8 58.13m-40-63.2l-40 63.2m0-98.75h80" stroke="#3a414a" fill="none"/><path d="M-861.3-929.3a6 6 0 0 1 6-6h68a6 6 0 0 1 6 6v168a6 6 0 0 1-6 6h-68a6 6 0 0 1-6-6z" fill="none"/><use xlink:href="#e" transform="matrix(1,0,0,1,-941.3103046107226,-777.2951820234807) translate(70.67901234567901 17.77777777777778)"/><path d="M-840.8-709.3a6 6 0 0 1 6-6h27.5a6 6 0 0 1 6 6v1948a6 6 0 0 1-6 6h-27.5a6 6 0 0 1-6-6z" stroke="#3a414a" fill="#fff"/><path d="M-781.3 670.7a6 6 0 0 1 6-6h88a6 6 0 0 1 6 6v8a14.48 14.48 0 0 1-4.25 10.25l-1.52 1.5a14.48 14.48 0 0 1-10.24 4.25h-78a6 6 0 0 1-6-6z" fill="#fff"/><path d="M-681.3 664.7v20l-10 10h-90" stroke="#3a414a" fill="none"/><path d="M-781.3 670.7a6 6 0 0 1 6-6h688a6 6 0 0 1 6 6v488a6 6 0 0 1-6 6h-688a6 6 0 0 1-6-6z" stroke="#3a414a" fill="none"/><use xlink:href="#f" transform="matrix(1,0,0,1,-773.3103046107226,664.7048179765193) translate(0 19.444444444444443)"/><use xlink:href="#g" transform="matrix(1,0,0,1,-769.3103046107226,702.7048179765193) translate(0 19.444444444444443)"/><use xlink:href="#h" transform="matrix(1,0,0,1,-769.3103046107226,702.7048179765193) translate(64.19753086419753 19.444444444444443)"/><use xlink:href="#i" transform="matrix(1,0,0,1,-769.3103046107226,702.7048179765193) translate(89.50617283950618 19.444444444444443)"/><path d="M-621.3-909.3a6 6 0 0 1 6-6h313.1a6 6 0 0 1 6 6v108a6 6 0 0 1-6 6h-313.1a6 6 0 0 1-6-6z" stroke="#3a414a" fill="#fff"/><use xlink:href="#j" transform="matrix(1,0,0,1,-616.3103046107226,-910.2951820234807) translate(25.469135802469168 59.02777777777778)"/><g fill="none"><path d="M-461.3-785.04a.25.25 0 0 1 .24.25v2069a.25.25 0 0 1-.25.26.25.25 0 0 1-.26-.25v-2069a.25.25 0 0 1 .25-.24z"/><path d="M-461.06-774.8v10m0 5v10m0 5v9.98m0 5v10m0 5v10m0 4.98v10m0 5v10m0 5v9.98m0 5v10m0 5v10m0 5v9.98m0 5v10m0 5v10m0 5v9.98m0 5v10m0 5v10m0 4.98v10m0 5v10m0 5v10m0 4.98v10m0 5v10m0 5v9.98m0 5v10m0 5v10m0 5v9.98m0 5v10m0 5v10m0 4.98v10m0 5v10m0 5v10m0 4.98v10m0 5v10m0 5v9.98m0 5v10m0 5v10m0 5v9.98m0 5v10m0 5v10m0 5v9.98m0 5v10m0 5v10m0 4.98v10m0 5v10m0 5v9.98m0 5v10m0 5v10m0 5v9.98m0 5v10m0 5v10m0 5v9.98m0 5v10m0 5v10m0 4.98v10m0 5v10m0 5v9.98m0 5v10m0 5v10m0 5v9.98m0 5v10m0 5v10m0 5v9.98m0 5v10m0 5v10m0 4.98v10m0 5v10m0 5v9.98m0 5v10m0 5v10m0 5v9.98m0 5v10m0 5v10m0 5v9.98m0 5v10m0 5v10m0 4.98v10m0 5v10m0 5v9.98m0 5v10m0 5v10m0 5v9.98m0 5v10m0 5v10m0 5v9.98m0 5v10m0 5v10m0 4.98v10m0 5v10m0 5v10m0 4.98v10m0 5v10m0 5v9.98m0 5v10m0 5v10m0 5v9.98m0 5v10m0 5v10m0 4.98v10m0 5v10m0 5v10m0 4.98v10m0 5v10m0 5v9.98m0 5v10m0 5v10m0 5v9.98m0 5v10m0 5v10m0 5v9.98m0 5v10m0 5v10m0 4.98v10m0 5v10m0 5v9.98m0 5v10m0 5v10m0 5v9.98m0 5v10m0 5v10m0 5v9.98m0 5v10m0 5v10m0 4.98v10m0 5v10m0 5v9.98m0 5v10m0 5v10m0 5v9.98m0 5v10m0 5v10m0 5v9.98m0 5v10m0 5v10m0 4.98v10m0 5v10m0 5v9.98m0 5v10m0 5v10m0 5v5.06l-.03.04v.03l-.03.03-.03.03-.04.03h-.03l-.04.02h-.13l-.02-.02-.04-.02-.03-.02v-.03l-.03-.03-.02-.04v-5.07m0-5v-10m0-4.98v-10m0-5v-10m0-5v-9.98m0-5v-10m0-5v-10m0-5v-9.98m0-5v-10m0-5v-10m0-4.98v-10m0-5v-10m0-5v-10m0-4.98v-10m0-5v-10m0-5v-9.98m0-5v-10m0-5v-10m0-5v-9.98m0-5v-10m0-5v-10m0-5v-9.98m0-5v-10m0-5v-10m0-4.98v-10m0-5v-10m0-5v-9.98m0-5v-10m0-5v-10m0-5v-9.98m0-5v-10m0-5v-10m0-5v-9.98m0-5v-10m0-5v-10m0-4.98v-10m0-5v-10m0-5v-9.98m0-5v-10m0-5v-10m0-5v-9.98m0-5v-10m0-5v-10m0-5v-9.98m0-5v-10m0-5v-10m0-4.98v-10m0-5v-10m0-5v-9.98m0-5v-10m0-5v-10m0-5v-9.98m0-5v-10m0-5v-10m0-5v-9.98m0-5v-10m0-5v-10m0-4.98v-10m0-5v-10m0-5v-9.98m0-5v-10m0-5v-10m0-5v-9.98m0-5v-10m0-5v-10m0-5v-9.98m0-5v-10m0-5v-10m0-4.98v-10m0-5v-10m0-5v-10m0-4.98v-10m0-5v-10m0-5v-9.98m0-5v-10m0-5v-10m0-5v-9.98m0-5v-10m0-5v-10m0-4.98v-10m0-5v-10m0-5v-10m0-4.98v-10m0-5v-10m0-5v-9.98m0-5v-10m0-5v-10m0-5v-9.98m0-5v-10m0-5v-10m0-5v-9.98m0-5v-10m0-5v-10m0-4.98v-10m0-5v-10m0-5v-9.98m0-5v-10m0-5v-10m0-5v-9.98m0-5v-10m0-5v-10m0-5v-9.98m0-5v-10m0-5v-10m0-4.98v-10m0-5v-10m0-5V-310m0-5v-10m0-5v-10m0-5V-355m0-5v-10m0-5v-10m0-5v-9.98m0-5v-10m0-5v-10m0-4.98v-10m0-5v-10m0-5v-9.98m0-5v-10m0-5v-10m0-5v-9.98m0-5v-10m0-5v-10m0-5v-9.98m0-5v-10m0-5v-10m0-4.98v-10m0-5v-10m0-5v-9.98m0-5v-10m0-5v-10m0-5v-9.98m0-5v-10m0-5v-10m0-5v-9.98m0-5v-10m0-5v-10m0-4.98v-10m0-5v-5.07l.02-.04.02-.04v-.03l.04-.03.04-.02h.03l.05-.02H-461.24l.03.02.04.02.03.03.02.03v.03l.03.03v5.08" stroke="#3a414a" stroke-width=".5"/></g><path d="M-481.8-709.3a6 6 0 0 1 6-6h28.5a6 6 0 0 1 6 6v1928a6 6 0 0 1-6 6h-28.5a6 6 0 0 1-6-6z" stroke="#3a414a" fill="#fff"/><path d="M-761.3-689.3a6 6 0 0 1 6-6h228a6 6 0 0 1 6 6v29a6 6 0 0 1-6 6h-228a6 6 0 0 1-6-6z" stroke="#000" stroke-opacity="0" fill="#fff" fill-opacity="0"/><use xlink:href="#k" transform="matrix(1,0,0,1,-756.3103046107226,-690.2951820234807) translate(20.401234567901255 19.71527777777778)"/><path d="M-800.3-659.82h301.6" stroke="#3a414a" fill="none"/><path d="M-800.3-659.32h-.5v-1h.5z" stroke="#3a414a" stroke-width=".05" fill="#3a414a"/><path d="M-483.93-659.82l-14.26 4.64v-9.28z" stroke="#3a414a" fill="#3a414a"/><path d="M-201.3-668.3a6 6 0 0 1 6-6h268a6 6 0 0 1 6 6v108a6 6 0 0 1-6 6h-268a6 6 0 0 1-6-6z" stroke="#3a414a" fill="#fff"/><use xlink:href="#l" transform="matrix(1,0,0,1,-196.3103046107226,-669.2951820234807) translate(14.13580246913584 59.02777777777778)"/><path d="M-440.3-603.03h4.95m4.96 0h9.92m4.96 0h9.92m4.96 0h9.9m4.97 0h9.92m4.96 0h9.92m4.96 0h9.92m4.96 0h9.9m4.97 0h9.89m4.94 0h9.88m4.95 0h9.88m4.94 0h9.88m4.94 0h9.9m4.93 0h9.88m4.94 0h9.87m4.94 0h9.9m4.94 0h4.94" stroke="#3a414a" fill="none"/><path d="M-440.3-602.53h-.5v-1h.5z" stroke="#3a414a" stroke-width=".05" fill="#3a414a"/><path d="M-220-592.85l17.2-10.18-17.2-10.18" stroke="#3a414a" fill="none"/><g fill="none"><path d="M-60.8-555.04a.25.25 0 0 1 .24.25v1829a.25.25 0 0 1-.25.26.25.25 0 0 1-.26-.25v-1829a.25.25 0 0 1 .25-.24z"/><path d="M-60.56-544.8v10m0 5v10m0 4.98v10m0 5v10m0 5v9.98m0 5v10m0 5v10m0 4.98v10m0 5v10m0 5v9.98m0 5v10m0 5v9.98m0 5v10m0 5v10m0 4.98v10m0 5v10m0 5v9.98m0 5v10m0 5v10m0 4.98v10m0 5v10m0 5v9.98m0 5v10m0 5v10m0 4.98v10m0 5v10m0 5v9.98m0 5v10m0 5v9.98m0 5v10m0 5v10m0 5v9.98m0 5v10m0 5v9.98m0 5v10m0 5v10m0 4.98v10m0 5v10m0 5v9.98m0 5v10m0 5v10m0 4.98v10m0 5v10m0 5v9.98m0 5v10m0 5v10m0 4.98v10m0 5v10m0 5v9.98m0 5v10m0 5v9.98m0 5v10m0 5v10m0 5v9.98m0 5v10m0 5v9.98m0 5v10m0 5v10m0 4.98v10m0 5v10m0 5v9.98m0 5v10m0 5v10m0 4.98v10m0 5v10m0 5v9.98m0 5v10m0 5v10m0 4.98v10m0 5v10m0 5v9.98m0 5v10m0 5v9.98m0 5v10m0 5v10m0 4.98v10m0 5v10m0 5v9.98m0 5v10m0 5v10m0 4.98v10m0 5v10m0 5v9.98m0 5v10m0 5v10m0 4.98v10m0 5v10m0 5v9.98m0 5v10m0 5v9.98m0 5v10m0 5v10m0 5v9.98m0 5v10m0 5v9.98m0 5v10m0 5v10m0 4.98v10m0 5v10m0 5v9.98m0 5v10m0 5v10m0 4.98v10m0 5v10m0 5v9.98m0 5v10m0 5v10m0 4.98v10m0 5v10m0 5v9.98m0 5v10m0 5v9.98m0 5v10m0 5v10m0 5v9.98m0 5v10m0 5v9.98m0 5v10m0 5v10m0 4.98v10m0 5v10m0 5v5.06l-.03.04v.03l-.03.03-.03.03-.04.03h-.03l-.04.02h-.13l-.02-.02-.04-.02-.03-.02v-.03l-.03-.03-.02-.04v-5.07m0-5v-9.98m0-5v-10m0-5v-10m0-4.98v-10m0-5v-10m0-5v-9.98m0-5v-10m0-5v-10m0-4.98v-10m0-5v-10m0-5v-9.98m0-5v-10m0-5v-10m0-4.98v-10m0-5v-10m0-5v-9.98m0-5v-10m0-5v-9.98m0-5v-10m0-5v-10m0-5v-9.98m0-5v-10m0-5v-9.98m0-5v-10m0-5v-10m0-4.98v-10m0-5v-10m0-5v-9.98m0-5v-10m0-5v-10m0-4.98v-10m0-5v-10m0-5v-9.98m0-5v-10m0-5v-10m0-4.98v-10m0-5v-10m0-5v-9.98m0-5v-10m0-5v-9.98m0-5v-10m0-5v-10m0-5v-9.98m0-5v-10m0-5v-9.98m0-5v-10m0-5v-10m0-4.98v-10m0-5v-10m0-5v-9.98m0-5v-10m0-5v-10m0-4.98v-10m0-5v-10m0-5v-9.98m0-5v-10m0-5v-9.98m0-5v-10m0-5v-10m0-5v-9.98m0-5v-10m0-5v-9.98m0-5v-10m0-5v-10m0-4.98v-10m0-5v-10m0-5v-9.98m0-5v-10m0-5v-10m0-4.98v-10m0-5v-10m0-5v-9.98m0-5v-10m0-5v-10m0-4.98v-10m0-5v-10m0-5v-9.98m0-5v-10m0-5v-9.98m0-5v-10m0-5v-10m0-5V39.9m0-5v-10m0-5V9.9m0-5v-10m0-5v-10m0-4.98v-10m0-5v-10m0-5v-9.98m0-5v-10m0-5v-10m0-4.98v-10m0-5v-10m0-5V-140m0-5v-10m0-5v-10m0-4.98v-10m0-5v-10m0-5v-9.98m0-5v-10m0-5v-9.98m0-5v-10m0-5v-10m0-5v-9.98m0-5v-10m0-5v-9.98m0-5v-10m0-5v-10m0-4.98v-10m0-5v-10m0-5v-9.98m0-5v-10m0-5v-10m0-4.98v-10m0-5v-10m0-5v-9.98m0-5v-10m0-5v-9.98m0-5v-10m0-5v-10m0-5v-9.98m0-5v-5.07l.02-.04.02-.04v-.03l.04-.03.04-.02h.03l.05-.02H-60.74l.03.02.04.02.03.03.02.03v.03l.03.03v5.08" stroke="#3a414a" stroke-width=".5"/></g><path d="M-80.8-484.3a6 6 0 0 1 6-6h27.5a6 6 0 0 1 6 6v1103a6 6 0 0 1-6 6h-27.5a6 6 0 0 1-6-6z" stroke="#3a414a" fill="#fff"/><g fill="none"><path d="M359.2-895.04a.25.25 0 0 1 .24.25v2179a.25.25 0 0 1-.25.26.25.25 0 0 1-.26-.25v-2179a.25.25 0 0 1 .25-.24z"/><path d="M359.44-884.78v10.02m0 5v10.03m0 5v10.03m0 5v10.02m0 5v10.03m0 5v10.03m0 5v10.03m0 5.02v10.02m0 5v10.02m0 5v10.03m0 5v10.02m0 5v10.03m0 5v10.02m0 5v10.03m0 5v10.03m0 5v10.03m0 5v10.02m0 5v10.03m0 5.02v10.02m0 5v10.03m0 5v10.02m0 5v10.02m0 5v10.03m0 5v10.03m0 5v10.02m0 5v10.03m0 5v10.03m0 5V-469m0 5v10m0 5.02v10.02m0 5v10.03m0 5v10.03m0 5v10.02m0 5v10.03m0 5v10.03m0 5v10.03m0 5.02v10.02m0 5v10.02m0 5v10.03m0 5v10.02m0 5v10.03m0 5v10.02m0 5v10.03m0 5v10.03m0 5v10.03m0 5v10.02m0 5v10.03m0 5.02v10.02m0 5v10.03m0 5v10.02m0 5v10.02m0 5v10.03m0 5v10.03m0 5v10.02m0 5v10.03m0 5v10.03m0 5v10.03m0 5v10m0 5.02v10.02m0 5v10.03m0 5V26.9m0 5v10.02m0 5v10.03m0 5V72m0 5v10.03m0 5.02v10.02m0 5v10.02m0 5v10.03m0 5v10.02m0 5v10.03m0 5v10.02m0 5v10.03m0 5v10.03m0 5v10.03m0 5v10.02m0 5v10.03m0 5.02v10.02m0 5v10.03m0 5v10.02m0 5v10.02m0 5v10.03m0 5v10.03m0 5v10.02m0 5v10.03m0 5v10.03m0 5v10.03m0 5v10m0 5.02v10.02m0 5v10.03m0 5v10.03m0 5v10.02m0 5v10.03m0 5v10.03m0 5v10.03m0 5.02v10.02m0 5v10.02m0 5v10.03m0 5v10.02m0 5v10.03m0 5v10.02m0 5V628m0 5v10.03m0 5v10.03m0 5v10.02m0 5v10.03m0 5.02v10.02m0 5v10.03m0 5v10.02m0 5v10.02m0 5v10.03m0 5v10.03m0 5v10.02m0 5v10.03m0 5v10.03m0 5v10.03m0 5v10m0 5.02v10.02m0 5v10.03m0 5v10.03m0 5v10.02m0 5v10.03m0 5v10.03m0 5v10.03m0 5.02v10.02m0 5v10.02m0 5v10.03m0 5v10.02m0 5v10.03m0 5v10.02m0 5v10.03m0 5v10.03m0 5v10.03m0 5v10.02m0 5v10.03m0 5.02v10.02m0 5v10.03m0 5V1169m0 5v10.02m0 5v10.03m0 5v10.03m0 5v10.02m0 5v10.03m0 5v10.03m0 5v10.03m0 5v5.08l-.03.04v.03l-.03.03-.03.03-.04.03h-.03l-.04.02h-.13l-.02-.02-.04-.02-.03-.02v-.03l-.03-.03-.02-.04v-5.07m0-5v-10.03m0-5v-10.03m0-5v-10.03m0-5v-10m0-5.02v-10.02m0-5v-10.03m0-5V1174m0-5v-10.02m0-5v-10.03m0-5v-10.03m0-5v-10.03m0-5.02v-10.02m0-5v-10.02m0-5v-10.03m0-5v-10.02m0-5v-10.03m0-5v-10.02m0-5v-10.03m0-5v-10.03m0-5v-10.03m0-5v-10.02m0-5v-10.03m0-5.02v-10.02m0-5v-10.03m0-5V903.5m0-5v-10.02m0-5v-10.03m0-5V858.4m0-5V843.4m0-5v-10.03m0-5v-10.03m0-5V798.3m0-5v-10m0-5.02v-10.02m0-5v-10.03m0-5V738.2m0-5v-10.02m0-5v-10.03m0-5V693.1m0-5v-10.03m0-5.02v-10.02m0-5v-10.02m0-5V633m0-5v-10.02m0-5v-10.03m0-5v-10.02m0-5V572.9m0-5v-10.03m0-5v-10.03m0-5v-10.02m0-5v-10.03m0-5.02v-10.02m0-5v-10.03m0-5V467.7m0-5v-10.02m0-5v-10.03m0-5V422.6m0-5V407.6m0-5v-10.03m0-5v-10.03m0-5V362.5m0-5v-10m0-5.02v-10.02m0-5v-10.03m0-5V302.4m0-5v-10.02m0-5v-10.03m0-5V257.3m0-5v-10.03m0-5.02v-10.02m0-5v-10.02m0-5V197.2m0-5v-10.02m0-5v-10.03m0-5v-10.02m0-5V137.1m0-5v-10.03m0-5v-10.03m0-5V92.02m0-5V76.98m0-5.02V61.96m0-5V46.92m0-5V31.9m0-5V16.88m0-5V1.84m0-5V-13.2m0-5V-28.2m0-5v-10.03m0-5v-10.03m0-5V-73.3m0-5v-10m0-5.02v-10.02m0-5v-10.03m0-5v-10.03m0-5v-10.02m0-5v-10.03m0-5v-10.03m0-5v-10.03m0-5.02v-10.02m0-5v-10.02m0-5v-10.03m0-5v-10.02m0-5v-10.03m0-5v-10.02m0-5v-10.03m0-5v-10.03m0-5v-10.03m0-5v-10.02m0-5v-10.03m0-5.02v-10.02m0-5v-10.03m0-5v-10.02m0-5v-10.02m0-5v-10.03m0-5V-449m0-5V-464m0-5v-10.03m0-5v-10.03m0-5v-10.03m0-5v-10m0-5.02v-10.02m0-5v-10.03m0-5v-10.03m0-5v-10.02m0-5v-10.03m0-5v-10.03m0-5v-10.03m0-5.02v-10.02m0-5v-10.02m0-5v-10.03m0-5v-10.02m0-5v-10.03m0-5v-10.02m0-5v-10.03m0-5v-10.03m0-5v-10.03m0-5v-10.02m0-5v-10.03m0-5.02v-10.02m0-5v-10.03m0-5v-10.02m0-5v-10.02m0-5v-10.03m0-5v-10.03m0-5v-5.09l.02-.04.02-.04v-.03l.04-.03.04-.02h.03l.05-.02H359.26l.03.02.04.02.03.03.02.03v.03l.03.03v5.08" stroke="#3a414a" stroke-width=".5"/></g><path d="M338.7-799.3a6 6 0 0 1 6-6h28a6 6 0 0 1 6 6v1398a6 6 0 0 1-6 6h-28a6 6 0 0 1-6-6zM179.2-969.3a6 6 0 0 1 6-6h348a6 6 0 0 1 6 6v108a6 6 0 0 1-6 6h-348a6 6 0 0 1-6-6z" stroke="#3a414a" fill="#fff"/><path d="M215.2-975.3v120m288-120v120" stroke="#3a414a" fill="none"/><use xlink:href="#m" transform="matrix(1,0,0,1,229.1896953892774,-970.2951820234807) translate(56.111111111111114 59.44444444444444)"/><g fill="none"><path d="M1158.7-855.04a.25.25 0 0 1 .24.25v2139a.25.25 0 0 1-.25.26.25.25 0 0 1-.26-.25v-2139a.25.25 0 0 1 .25-.24z"/><path d="M1158.94-844.82v9.97m0 5v9.96m0 5v9.97m0 4.98v9.97m0 5v9.96m0 5v9.96m0 5v9.96m0 4.98v9.98m0 4.98v9.97m0 5v9.97m0 5v9.96m0 5v9.96m0 4.97v9.98m0 4.98v9.97m0 5v9.96m0 5v9.96m0 5v9.96m0 4.98v9.98m0 4.98v9.97m0 4.98v9.97m0 5v9.96m0 5v9.97m0 4.98v9.98m0 4.98v9.98m0 5v9.96m0 5v9.96m0 5v9.96m0 4.98v9.98m0 4.98v9.97m0 5v9.96m0 5v9.96m0 4.98v9.97m0 4.98v9.98m0 5v9.96m0 5v9.96m0 5v9.96m0 5v9.96m0 4.98v9.98m0 4.98v9.97m0 5v9.96m0 5v9.97m0 5v9.96m0 4.98v10m0 4.97v9.98m0 4.98v9.97m0 5v9.96m0 5v9.96m0 5v9.96m0 4.98v9.98m0 4.98v9.97m0 4.98v9.97m0 5V-72m0 5v9.97m0 4.98v9.98m0 4.98v9.98m0 5v9.96m0 5V2.8m0 5v9.96m0 4.98v9.98m0 4.98v9.97m0 5v9.96m0 5v9.96m0 4.98v9.97m0 4.98v9.98m0 5v9.96m0 5v9.96m0 5v9.96m0 5v9.96m0 4.98v9.98m0 4.98v9.97m0 5v9.96m0 5v9.97m0 5v9.96m0 4.98v10m0 4.97v9.97m0 5V287m0 5v9.96m0 5v9.96m0 4.98v9.98m0 4.98v9.97m0 5v9.96m0 4.98v9.97m0 5v9.96m0 5v9.97m0 4.98v9.97m0 5v9.96m0 5v9.96m0 5v9.96m0 4.98v9.98m0 4.98v9.97m0 5v9.97m0 5v9.96m0 5v9.96m0 4.98v9.97m0 4.98v9.98m0 5v9.96m0 5v9.96m0 5v9.96m0 5v9.96m0 4.98V646m0 4.98v9.97m0 5v9.96m0 5v9.97m0 5v9.96m0 4.98v10m0 4.97v9.97m0 5v9.96m0 5v9.96m0 5v9.96m0 4.98v9.98m0 4.98v9.97m0 5v9.96m0 4.98v9.97m0 5v9.96m0 5v9.97m0 4.98v9.97m0 5v9.96m0 5v9.96m0 5v9.96m0 4.98v9.98m0 4.98v9.97m0 5v9.97m0 5v9.96m0 5v9.96m0 4.97v9.98m0 4.98v9.97m0 5v9.96m0 5v9.96m0 5v9.96m0 4.98v9.98m0 4.98v9.97m0 4.98v9.97m0 5v9.96m0 5v9.97m0 4.98v9.98m0 4.98v9.98m0 5v9.96m0 5v9.96m0 5v9.96m0 5v9.96m0 4.98v9.98m0 4.98v9.97m0 5V1284.28l-.03.04v.03l-.03.03-.03.03-.04.03h-.03l-.04.02h-.13l-.02-.02-.04-.02-.03-.02v-.03l-.03-.03-.02-.04V1279.23m0-5v-9.96m0-4.98v-9.98m0-4.98v-9.97m0-5v-9.96m0-5v-9.97m0-5v-9.96m0-5v-9.96m0-4.97v-9.98m0-4.98v-9.97m0-5v-9.96m0-5v-9.96m0-5v-9.96m0-4.98v-9.98m0-4.98v-9.97m0-4.98v-9.97m0-5v-9.96m0-5v-9.97m0-4.98v-9.98m0-4.98V995m0-5v-9.96m0-5v-9.96m0-5v-9.96m0-4.98v-9.98m0-4.98v-9.97m0-5v-9.96m0-5v-9.96m0-4.98v-9.97m0-4.98v-9.98m0-5v-9.96m0-5v-9.96m0-5v-9.96m0-5v-9.96m0-4.98v-9.98m0-4.98v-9.97m0-5v-9.96m0-5v-9.97m0-5v-9.96m0-4.98v-10m0-4.97v-9.97m0-5v-9.96m0-5v-9.96m0-5V651m0-4.98v-9.98m0-4.98v-9.97m0-5v-9.96m0-4.98v-9.97m0-5v-9.96m0-5v-9.97m0-4.98v-9.97m0-5v-9.96m0-5v-9.96m0-5v-9.96m0-5v-9.96m0-4.98v-9.98m0-4.98v-9.97m0-5v-9.96m0-5v-9.96m0-4.98v-9.97m0-4.98v-9.98m0-5v-9.96m0-5v-9.96m0-5v-9.96m0-5v-9.96m0-4.98v-9.98m0-4.98v-9.97m0-5V292m0-5v-9.97m0-5v-9.96m0-4.98v-10m0-4.97v-9.97m0-5v-9.96m0-5v-9.96m0-5v-9.96m0-4.98v-9.98m0-4.98v-9.97m0-5v-9.96m0-4.98v-9.97m0-5v-9.96m0-5v-9.97m0-4.98v-9.97m0-5v-9.96m0-5v-9.96m0-5V37.7m0-4.98v-9.98m0-4.98V7.8m0-5v-9.97m0-5v-9.96m0-5v-9.96m0-4.97v-9.98m0-4.98V-67m0-5v-9.96m0-5v-9.96m0-5v-9.96m0-4.98v-9.98m0-4.98v-9.97m0-4.98v-9.97m0-5v-9.96m0-5v-9.97m0-4.98v-9.98m0-4.98v-10m0-4.97v-9.97m0-5v-9.96m0-5v-9.96m0-5v-9.96m0-4.98v-9.98m0-4.98v-9.97m0-5v-9.96m0-4.98v-9.97m0-5v-9.96m0-5v-9.97m0-4.98v-9.97m0-5v-9.96m0-5v-9.96m0-5V-426m0-4.98v-9.98m0-4.98v-9.97m0-5v-9.97m0-5v-9.96m0-5v-9.96m0-4.97v-9.98m0-4.98v-9.97m0-5v-9.96m0-5v-9.96m0-5v-9.96m0-4.98v-9.98m0-4.98v-9.97m0-4.98v-9.97m0-5v-9.96m0-5v-9.97m0-4.98v-9.98m0-4.98v-9.98m0-5v-9.96m0-5v-9.96m0-5v-9.96m0-4.98v-9.98m0-4.98v-9.97m0-5v-9.96m0-5v-9.96m0-4.98v-9.97m0-4.98v-9.98m0-5v-9.96m0-5v-9.96m0-5v-5.04l.02-.04.02-.04v-.03l.04-.03.04-.02h.03l.05-.02H1158.76l.03.02.04.02.03.03.02.03v.03l.03.03v5.08" stroke="#3a414a" stroke-width=".5"/></g><path d="M1137.67 130.7a6 6 0 0 1 6-6h28.52a6 6 0 0 1 6 6v268a6 6 0 0 1-6 6h-28.53a6 6 0 0 1-6-6zM978.7-969.3a6 6 0 0 1 6-6h348a6 6 0 0 1 6 6v108a6 6 0 0 1-6 6h-348a6 6 0 0 1-6-6z" stroke="#3a414a" fill="#fff"/><path d="M1014.7-975.3v120m288-120v120" stroke="#3a414a" fill="none"/><use xlink:href="#n" transform="matrix(1,0,0,1,1028.6896953892774,-970.2951820234807) translate(58.48765432098766 59.44444444444444)"/><path d="M-440.3-324.88H-97.7" stroke="#3a414a" fill="none"/><path d="M-440.3-324.38h-.5v-1h.5z" stroke="#3a414a" stroke-width=".05" fill="#3a414a"/><path d="M-82.93-324.88l-14.26 4.63v-9.27z" stroke="#3a414a" fill="#3a414a"/><path d="M-40.3-194.42h362.1" stroke="#3a414a" fill="none"/><path d="M-40.3-193.92h-.5v-1h.5z" stroke="#3a414a" stroke-width=".05" fill="#3a414a"/><path d="M336.57-194.42l-14.26 4.64v-9.27z" stroke="#3a414a" fill="#3a414a"/><path d="M557.7-189.3a6 6 0 0 1 6-6h268a6 6 0 0 1 6 6v108a6 6 0 0 1-6 6h-268a6 6 0 0 1-6-6z" stroke="#3a414a" fill="#fff"/><use xlink:href="#o" transform="matrix(1,0,0,1,562.6896953892774,-190.29518202348072) translate(46.79012345679013 59.02777777777778)"/><use xlink:href="#p" transform="matrix(1,0,0,1,562.6896953892774,-190.29518202348072) translate(104.81481481481481 59.02777777777778)"/><use xlink:href="#q" transform="matrix(1,0,0,1,562.6896953892774,-190.29518202348072) translate(117.1604938271605 59.02777777777778)"/><g fill="none"><path d="M698.2-75.04a.25.25 0 0 1 .24.25v1359a.25.25 0 0 1-.25.26.25.25 0 0 1-.26-.25v-1359a.25.25 0 0 1 .25-.24z"/><path d="M698.44-64.84v9.96m0 4.98v9.95m0 4.98V-25m0 4.96v9.96m0 4.98v9.95m0 4.98v9.96m0 4.97v9.95m0 4.98v9.96m0 4.97v9.96m0 4.97v9.95m0 4.98v9.96m0 4.98v9.95m0 4.97v9.96m0 4.97v9.96m0 4.98v9.95m0 4.97v9.96m0 4.98v9.96m0 4.98V199m0 4.97v9.96m0 4.98v9.96m0 4.98v9.96m0 4.98v9.95m0 4.98v9.97m0 4.97v9.96m0 4.98v9.95m0 4.98v9.97m0 4.98v9.95m0 4.98v9.96m0 4.98v9.95m0 4.98v9.96m0 4.98v9.96m0 4.98v9.95m0 4.98V423m0 5v9.94m0 4.98v9.96m0 4.97v9.96m0 5v9.94m0 4.98v9.96m0 4.98v9.95m0 5v9.95m0 4.97v9.96m0 4.98v9.95m0 5v9.95m0 4.98v9.95m0 4.98v9.96m0 4.97v9.95m0 4.98v9.95m0 4.98v9.96m0 4.98v9.95m0 4.98v9.96m0 4.96v9.96m0 4.98v9.95m0 4.98v9.96m0 4.97v9.95m0 4.98v9.96m0 4.97v9.96m0 4.97v9.95m0 4.98v9.96m0 4.98v9.95m0 4.97v9.96m0 4.98v9.96m0 4.98v9.96m0 4.97v9.96m0 4.98v9.96m0 4.98v9.96m0 4.98v9.95m0 4.98v9.97m0 4.97v9.96m0 4.98v9.95m0 4.98v9.97m0 4.98v9.95m0 4.98v9.96m0 4.97v9.97m0 4.98v9.95m0 4.98v9.96m0 4.98v9.95m0 4.98v9.96m0 4.98v9.96m0 4.98v9.95m0 4.98v9.96m0 5v9.94m0 4.98v9.96m0 4.97v9.96m0 5v9.94m0 4.98v9.96m0 4.98v9.95m0 5v9.95m0 4.97v9.96m0 4.98v9.96m0 4.97v9.95m0 4.98V1284.3l-.03.04v.03l-.03.03-.03.03-.04.03h-.03l-.04.02h-.13l-.02-.02-.04-.02-.03-.02v-.03l-.03-.03-.02-.04v-5.04m0-4.98v-9.96m0-4.98v-9.96m0-4.98v-9.96m0-4.97v-9.96m0-5v-9.94m0-4.98v-9.96m0-4.98v-9.95m0-5v-9.95m0-4.97v-9.96m0-4.98v-9.95m0-5v-9.95m0-4.98v-9.95m0-4.98v-9.96m0-4.97v-9.95m0-4.98v-9.95m0-4.98v-9.96m0-4.98v-9.95m0-4.98v-9.96m0-4.96v-9.96m0-4.98v-9.95m0-4.98v-9.96m0-4.97v-9.95m0-4.98v-9.96m0-4.97v-9.96m0-4.97v-9.95m0-4.98v-9.96m0-4.98V876m0-4.97v-9.96m0-4.97v-9.96m0-4.98v-9.95m0-4.97v-9.96m0-4.98v-9.96m0-4.98v-9.96m0-4.98v-9.95m0-4.98v-9.97m0-4.97v-9.96m0-4.98v-9.95m0-4.98v-9.97m0-4.98v-9.95m0-4.98v-9.96m0-4.97v-9.97m0-4.98V652m0-4.98v-9.96m0-4.98v-9.95m0-4.98v-9.96m0-4.98v-9.96m0-4.98v-9.95m0-4.98v-9.96m0-5v-9.94m0-4.98v-9.96m0-4.97v-9.96m0-5v-9.94m0-4.98v-9.96m0-4.98v-9.95m0-5v-9.95m0-4.97v-9.96m0-4.98V428m0-5v-9.95m0-4.98v-9.95m0-4.98v-9.96m0-4.97v-9.95m0-4.98v-9.95m0-4.98v-9.96m0-4.98v-9.95m0-4.98v-9.96m0-4.97v-9.95m0-4.98v-9.96m0-4.97v-9.96m0-4.97v-9.95m0-4.98v-9.96m0-4.98v-9.95m0-4.97v-9.96m0-4.97v-9.96m0-4.98v-9.95m0-4.97v-9.96m0-4.98v-9.96m0-4.98v-9.96m0-4.97v-9.96m0-4.98v-9.96m0-4.98V84.5m0-4.98v-9.95m0-4.98v-9.97m0-4.97V39.7m0-4.98v-9.95m0-4.98V9.82m0-4.98V-5.1m0-4.98v-9.96m0-4.97v-9.97m0-4.98v-9.95m0-4.98v-9.96m0-4.98v-5.04l.02-.04.02-.04v-.03l.04-.03.04-.02h.03l.05-.02H698.26l.03.02.04.02.03.03.02.03v.03l.03.03V-69.8" stroke="#3a414a" stroke-width=".5"/></g><path d="M379.7-135.3h4.9m4.92 0h9.84m4.9 0h9.85m4.92 0h9.84m4.9 0h9.85m4.92 0h9.84m4.9 0H473.08m4.9 0h9.78m4.9 0h9.8m4.88 0h9.8m4.88 0h9.8m4.88 0h9.8m4.9 0h4.88" stroke="#3a414a" fill="none"/><path d="M379.7-134.8h-.5v-1h.5z" stroke="#3a414a" stroke-width=".05" fill="#3a414a"/><path d="M539-125.1l17.2-10.2-17.2-10.18M379.7 171.54h741.08" stroke="#3a414a" fill="none"/><path d="M379.7 172.04h-.5v-1h.5z" stroke="#3a414a" stroke-width=".05" fill="#3a414a"/><path d="M1135.55 171.54l-14.27 4.63v-9.27z" stroke="#3a414a" fill="#3a414a"/><path d="M1136.67 306.45h-5.05m-5.05 0h-10.1m-5.04 0h-10.1m-5.04 0h-10.1m-5.05 0h-10.1m-5.03 0h-10.1m-5.04 0h-10.1m-5.04 0h-10.1m-5.04 0h-10.1m-5.04 0h-10.1m-5.04 0h-10.1m-5.04 0h-10.1m-5.04 0h-10.1m-5.04 0h-10.1m-5.04 0h-10.1m-5.04 0h-10.1m-5.04 0h-10.1m-5.04 0h-10.1m-5.04 0h-10.1m-5.04 0h-10.1m-5.04 0h-10.1m-5.04 0h-10.1m-5.04 0h-10.1m-5.04 0h-10.1m-5.04 0h-10.1m-5.03 0h-10.09m-5.03 0h-10.07m-5.03 0h-10.08m-5.03 0H707.8m-5.04 0H692.7m-5.03 0H677.6m-5.04 0H662.5m-5.04 0h-10.08m-5.03 0h-10.08m-5.03 0h-10.07m-5.04 0h-10.07m-5.04 0h-10.07m-5.04 0h-10.06m-5.04 0h-10.07m-5.03 0h-10.08m-5.03 0h-10.1m-5.02 0H511.4m-5.03 0H496.3m-5.04 0H481.2m-5.05 0h-10.07m-5.03 0h-10.08m-5.03 0h-10.08m-5.03 0h-10.07m-5.04 0h-10.07m-5.04 0h-5.03" stroke="#3a414a" fill="none"/><path d="M1137.17 306.95h-.52v-1h.52z" stroke="#3a414a" stroke-width=".05" fill="#3a414a"/><path d="M380.8 306.45l14.27-4.64v9.28z" stroke="#3a414a" fill="#3a414a"/><path d="M337.7 527.92h-4.86m-4.84 0h-9.7m-4.84 0h-9.7m-4.84 0h-9.7m-4.84 0h-9.7m-4.84 0h-9.7m-4.83 0h-9.7m-4.83 0h-9.7m-4.84 0h-9.7m-4.84 0H202m-4.85 0h-9.7m-4.84 0h-9.68m-4.85 0h-9.7m-4.83 0h-9.67m-4.8 0h-9.63m-4.8 0h-9.62m-4.8 0h-9.63m-4.8 0h-9.62m-4.8 0h-9.63m-4.8 0H57.3m-4.8 0H42.9m-4.8 0h-9.63m-4.8 0h-9.63m-4.8 0H-.38m-4.8 0h-9.63m-4.82 0h-4.8" stroke="#3a414a" fill="none"/><path d="M338.2 528.42h-.52v-1h.5z" stroke="#3a414a" stroke-width=".05" fill="#3a414a"/><path d="M-39.2 527.92l14.28-4.64v9.27z" stroke="#3a414a" fill="#3a414a"/><path d="M-81.8 611.4h-5m-4.97 0h-9.96m-4.98 0h-9.96m-4.98 0h-9.96m-4.98 0h-9.96m-4.98 0h-9.96m-4.98 0h-9.95m-5 0h-9.95m-4.98 0h-9.96m-4.97 0h-9.96m-4.98 0h-9.96m-4.98 0h-9.96m-4.98 0H-266m-4.96 0h-9.9m-4.95 0h-9.9m-4.96 0h-9.9m-4.95 0h-9.92m-4.95 0h-9.9m-4.95 0h-9.9m-4.95 0h-9.9m-4.95 0h-9.9m-4.95 0h-9.9m-4.95 0h-9.9m-4.96 0h-4.94" stroke="#3a414a" fill="none"/><path d="M-81.3 611.9h-.52v-1h.5z" stroke="#3a414a" stroke-width=".05" fill="#3a414a"/><path d="M-439.2 611.4l14.27-4.64v9.27z" stroke="#3a414a" fill="#3a414a"/><path d="M-471.06 730.7a6 6 0 0 1 6-6h37.75a6 6 0 0 1 6 6v88a6 6 0 0 1-6 6h-37.76a6 6 0 0 1-6-6z" stroke="#3a414a" fill="#fff"/><path d="M-440.3 693.16h53.5a6 6 0 0 1 6 6v69.55a6 6 0 0 1-6 6h-17.63" stroke="#3a414a" fill="none"/><path d="M-440.3 693.66h-.5v-1h.5z" stroke="#3a414a" stroke-width=".05" fill="#3a414a"/><path d="M-419.2 774.7l14.27-4.63v9.27z" stroke="#3a414a" fill="#3a414a"/><path d="M-420.3 801.82h5.57m5.6 0H-398m5.6 0h5.57l.93.07.9.2.88.37.82.5.7.6.62.72.5.8.36.87.22.9.07.95v4.76m0 4.76v9.53m0 4.76v9.53m0 4.76v9.52m0 4.76v4.77l-.08.94-.22.92-.36.87-.5.8-.6.7-.72.62-.8.5-.88.35-.9.22-.95.07h-4.2m-4.17 0h-8.36m-4.18 0h-8.37m-4.18 0h-4.18" stroke="#3a414a" fill="none"/><path d="M-420.3 802.32h-.5v-1h.5z" stroke="#3a414a" stroke-width=".05" fill="#3a414a"/><path d="M-439.2 870.97l14.27-4.64v9.27z" stroke="#3a414a" fill="#3a414a"/><path d="M-761.3 944.7h200.54v36.67H-761.3z" fill="#fff" fill-opacity="0"/><use xlink:href="#r" transform="matrix(1,0,0,1,-756.3103046107226,949.7048179765193) translate(0 17.77777777777778)"/><path d="M-381.3 710.7a6 6 0 0 1 6-6h276.47a6 6 0 0 1 6 6v51.34a6 6 0 0 1-6 6H-375.3a6 6 0 0 1-6-6z" stroke="#000" stroke-opacity="0" fill="#fff" fill-opacity="0"/><use xlink:href="#s" transform="matrix(1,0,0,1,-376.3103046107208,709.704817976519) translate(38.72839506172842 31.27777777777778)"/><path d="M-461.8 970.7a6 6 0 0 1 6-6h37.74a6 6 0 0 1 6 6v88a6 6 0 0 1-6 6h-37.75a6 6 0 0 1-6-6z" stroke="#3a414a" fill="#fff"/><path d="M-440.3 938.14h62.74a6 6 0 0 1 6 6v64.57a6 6 0 0 1-6 6h-17.62" stroke="#3a414a" fill="none"/><path d="M-440.3 938.64h-.5v-1h.5z" stroke="#3a414a" stroke-width=".05" fill="#3a414a"/><path d="M-409.94 1014.7l14.26-4.63v9.27z" stroke="#3a414a" fill="#3a414a"/><path d="M-411.06 1042.85h5.58m5.6 0h11.15m5.6 0h5.57l.94.07.9.22.88.36.8.5.72.6.6.72.5.8.37.87.22.9.07.95v4.86m0 4.87v9.73m0 4.86v9.73m0 4.86v9.72m0 4.87v9.72m0 4.87v4.86l-.07.94-.22.9-.36.88-.5.8-.62.72-.7.6-.82.5-.87.37-.92.22-.94.08h-5.2m-5.22 0h-10.4m-5.22 0H-414m-5.22 0h-5.2" stroke="#3a414a" fill="none"/><path d="M-411.05 1043.35h-.5v-1h.5z" stroke="#3a414a" stroke-width=".05" fill="#3a414a"/><path d="M-439.2 1127.8l14.27-4.64v9.27z" stroke="#3a414a" fill="#3a414a"/><path d="M-401.3 950.7a6 6 0 0 1 6-6h276.47a6 6 0 0 1 6 6v51.34a6 6 0 0 1-6 6H-395.3a6 6 0 0 1-6-6z" stroke="#000" stroke-opacity="0" fill="#fff" fill-opacity="0"/><use xlink:href="#t" transform="matrix(1,0,0,1,-396.3103046107208,949.7048179765193) translate(40.919753086419774 31.27777777777778)"/><path d="M-397.87-369.3a6 6 0 0 1 6-6h228a6 6 0 0 1 6 6v29a6 6 0 0 1-6 6h-228a6 6 0 0 1-6-6z" stroke="#000" stroke-opacity="0" fill="#fff" fill-opacity="0"/><use xlink:href="#u" transform="matrix(1,0,0,1,-392.86640292890115,-370.2951820234807) translate(14.22839506172842 19.71527777777778)"/><path d="M558.7 229.04a6 6 0 0 1 6-6h268a6 6 0 0 1 6 6v51.33a6 6 0 0 1-6 6h-268a6 6 0 0 1-6-6z" stroke="#000" stroke-opacity="0" fill="#fff" fill-opacity="0"/><use xlink:href="#v" transform="matrix(1,0,0,1,563.6896953892774,228.03815130985276) translate(97.0679012345679 21.15277777777778)"/><use xlink:href="#w" transform="matrix(1,0,0,1,563.6896953892774,228.03815130985276) translate(159.96913580246914 21.15277777777778)"/><use xlink:href="#x" transform="matrix(1,0,0,1,563.6896953892774,228.03815130985276) translate(34.22839506172842 47.81944444444444)"/><path d="M8.7 450.7a6 6 0 0 1 6-6h268a6 6 0 0 1 6 6v51.34a6 6 0 0 1-6 6h-268a6 6 0 0 1-6-6z" stroke="#000" stroke-opacity="0" fill="#fff" fill-opacity="0"/><g><use xlink:href="#v" transform="matrix(1,0,0,1,13.689695389277404,449.7048179765195) translate(97.0679012345679 21.15277777777778)"/><use xlink:href="#w" transform="matrix(1,0,0,1,13.689695389277404,449.7048179765195) translate(159.96913580246914 21.15277777777778)"/><use xlink:href="#x" transform="matrix(1,0,0,1,13.689695389277404,449.7048179765195) translate(34.22839506172842 47.81944444444444)"/></g><path d="M-397.87 536.8a6 6 0 0 1 6-6h268a6 6 0 0 1 6 6v51.35a6 6 0 0 1-6 6h-268a6 6 0 0 1-6-6z" stroke="#000" stroke-opacity="0" fill="#fff" fill-opacity="0"/><g><use xlink:href="#v" transform="matrix(1,0,0,1,-392.86640292890115,535.8144072752318) translate(97.0679012345679 21.15277777777778)"/><use xlink:href="#w" transform="matrix(1,0,0,1,-392.86640292890115,535.8144072752318) translate(159.96913580246914 21.15277777777778)"/><use xlink:href="#x" transform="matrix(1,0,0,1,-392.86640292890115,535.8144072752318) translate(34.22839506172842 47.81944444444444)"/></g><path d="M28.7-231.2a6 6 0 0 1 6-6h228a6 6 0 0 1 6 6v29a6 6 0 0 1-6 6h-228a6 6 0 0 1-6-6z" stroke="#000" stroke-opacity="0" fill="#fff" fill-opacity="0"/><g><use xlink:href="#u" transform="matrix(1,0,0,1,33.689695389277404,-232.19542111597548) translate(14.22839506172842 19.71527777777778)"/></g><path d="M578.7 124.53a6 6 0 0 1 6-6h228a6 6 0 0 1 6 6v29a6 6 0 0 1-6 6h-228a6 6 0 0 1-6-6z" stroke="#000" stroke-opacity="0" fill="#fff" fill-opacity="0"/><g><use xlink:href="#u" transform="matrix(1,0,0,1,583.6943512711077,123.53093462206357) translate(14.22839506172842 19.71527777777778)"/></g><defs><path d="M137-138c1-29-70-34-71-4 15 46 118 7 119 86 1 83-164 76-172 9l43-7c4 19 20 25 44 25 33 8 57-30 24-41C81-84 22-81 20-136c-2-80 154-74 161-7" id="y"/><path d="M88-194c31-1 46 15 58 34l-1-101h50l1 261h-48c-2-10 0-23-3-31C134-8 116 4 84 4 32 4 16-41 15-95c0-56 19-97 73-99zm17 164c33 0 40-30 41-66 1-37-9-64-41-64s-38 30-39 65c0 43 13 65 39 65" id="z"/><g id="a"><use transform="matrix(0.05,0,0,0.05,0,0)" xlink:href="#y"/><use transform="matrix(0.05,0,0,0.05,10,0)" xlink:href="#z"/></g><path d="M30-248c118-7 216 8 213 122C240-48 200 0 122 0H30v-248zM63-27c89 8 146-16 146-99s-60-101-146-95v194" id="A"/><path d="M24-231v-30h32v30H24zM24 0v-190h32V0H24" id="B"/><path d="M135-143c-3-34-86-38-87 0 15 53 115 12 119 90S17 21 10-45l28-5c4 36 97 45 98 0-10-56-113-15-118-90-4-57 82-63 122-42 12 7 21 19 24 35" id="C"/><path d="M115-194c55 1 70 41 70 98S169 2 115 4C84 4 66-9 55-30l1 105H24l-1-265h31l2 30c10-21 28-34 59-34zm-8 174c40 0 45-34 45-75s-6-73-45-74c-42 0-51 32-51 76 0 43 10 73 51 73" id="D"/><path d="M24 0v-261h32V0H24" id="E"/><path d="M141-36C126-15 110 5 73 4 37 3 15-17 15-53c-1-64 63-63 125-63 3-35-9-54-41-54-24 1-41 7-42 31l-33-3c5-37 33-52 76-52 45 0 72 20 72 64v82c-1 20 7 32 28 27v20c-31 9-61-2-59-35zM48-53c0 20 12 33 32 33 41-3 63-29 60-74-43 2-92-5-92 41" id="F"/><path d="M179-190L93 31C79 59 56 82 12 73V49c39 6 53-20 64-50L1-190h34L92-34l54-156h33" id="G"/><g id="b"><use transform="matrix(0.05,0,0,0.05,0,0)" xlink:href="#A"/><use transform="matrix(0.05,0,0,0.05,12.950000000000001,0)" xlink:href="#B"/><use transform="matrix(0.05,0,0,0.05,16.900000000000002,0)" xlink:href="#C"/><use transform="matrix(0.05,0,0,0.05,25.900000000000002,0)" xlink:href="#D"/><use transform="matrix(0.05,0,0,0.05,35.900000000000006,0)" xlink:href="#E"/><use transform="matrix(0.05,0,0,0.05,39.85000000000001,0)" xlink:href="#F"/><use transform="matrix(0.05,0,0,0.05,49.85000000000001,0)" xlink:href="#G"/></g><path d="M212-179c-10-28-35-45-73-45-59 0-87 40-87 99 0 60 29 101 89 101 43 0 62-24 78-52l27 14C228-24 195 4 139 4 59 4 22-46 18-125c-6-104 99-153 187-111 19 9 31 26 39 46" id="H"/><path d="M84 4C-5 8 30-112 23-190h32v120c0 31 7 50 39 49 72-2 45-101 50-169h31l1 190h-30c-1-10 1-25-2-33-11 22-28 36-60 37" id="I"/><path d="M114-163C36-179 61-72 57 0H25l-1-190h30c1 12-1 29 2 39 6-27 23-49 58-41v29" id="J"/><path d="M100-194c63 0 86 42 84 106H49c0 40 14 67 53 68 26 1 43-12 49-29l28 8c-11 28-37 45-77 45C44 4 14-33 15-96c1-61 26-98 85-98zm52 81c6-60-76-77-97-28-3 7-6 17-6 28h103" id="K"/><path d="M117-194c89-4 53 116 60 194h-32v-121c0-31-8-49-39-48C34-167 62-67 57 0H25l-1-190h30c1 10-1 24 2 32 11-22 29-35 61-36" id="L"/><path d="M59-47c-2 24 18 29 38 22v24C64 9 27 4 27-40v-127H5v-23h24l9-43h21v43h35v23H59v120" id="M"/><g id="c"><use transform="matrix(0.05,0,0,0.05,0,0)" xlink:href="#H"/><use transform="matrix(0.05,0,0,0.05,12.950000000000001,0)" xlink:href="#I"/><use transform="matrix(0.05,0,0,0.05,22.950000000000003,0)" xlink:href="#J"/><use transform="matrix(0.05,0,0,0.05,28.900000000000002,0)" xlink:href="#J"/><use transform="matrix(0.05,0,0,0.05,34.85,0)" xlink:href="#K"/><use transform="matrix(0.05,0,0,0.05,44.85,0)" xlink:href="#L"/><use transform="matrix(0.05,0,0,0.05,54.85,0)" xlink:href="#M"/></g><path d="M127-220V0H93v-220H8v-28h204v28h-85" id="N"/><path d="M143 0L79-87 56-68V0H24v-261h32v163l83-92h37l-77 82L181 0h-38" id="O"/><g id="d"><use transform="matrix(0.05,0,0,0.05,0,0)" xlink:href="#N"/><use transform="matrix(0.05,0,0,0.05,8.950000000000001,0)" xlink:href="#F"/><use transform="matrix(0.05,0,0,0.05,18.950000000000003,0)" xlink:href="#C"/><use transform="matrix(0.05,0,0,0.05,27.950000000000003,0)" xlink:href="#O"/><use transform="matrix(0.05,0,0,0.05,36.95,0)" xlink:href="#C"/></g><path fill="#3a414a" d="M30 0v-248h187v28H63v79h144v27H63v87h162V0H30" id="P"/><path fill="#3a414a" d="M210-169c-67 3-38 105-44 169h-31v-121c0-29-5-50-35-48C34-165 62-65 56 0H25l-1-190h30c1 10-1 24 2 32 10-44 99-50 107 0 11-21 27-35 58-36 85-2 47 119 55 194h-31v-121c0-29-5-49-35-48" id="Q"/><path fill="#3a414a" d="M115-194c55 1 70 41 70 98S169 2 115 4C84 4 66-9 55-30l1 105H24l-1-265h31l2 30c10-21 28-34 59-34zm-8 174c40 0 45-34 45-75s-6-73-45-74c-42 0-51 32-51 76 0 43 10 73 51 73" id="R"/><path fill="#3a414a" d="M24 0v-261h32V0H24" id="S"/><path fill="#3a414a" d="M100-194c62-1 85 37 85 99 1 63-27 99-86 99S16-35 15-95c0-66 28-99 85-99zM99-20c44 1 53-31 53-75 0-43-8-75-51-75s-53 32-53 75 10 74 51 75" id="T"/><path fill="#3a414a" d="M179-190L93 31C79 59 56 82 12 73V49c39 6 53-20 64-50L1-190h34L92-34l54-156h33" id="U"/><path fill="#3a414a" d="M100-194c63 0 86 42 84 106H49c0 40 14 67 53 68 26 1 43-12 49-29l28 8c-11 28-37 45-77 45C44 4 14-33 15-96c1-61 26-98 85-98zm52 81c6-60-76-77-97-28-3 7-6 17-6 28h103" id="V"/><g id="e"><use transform="matrix(0.06172839506172839,0,0,0.06172839506172839,0,0)" xlink:href="#P"/><use transform="matrix(0.06172839506172839,0,0,0.06172839506172839,14.814814814814813,0)" xlink:href="#Q"/><use transform="matrix(0.06172839506172839,0,0,0.06172839506172839,33.2716049382716,0)" xlink:href="#R"/><use transform="matrix(0.06172839506172839,0,0,0.06172839506172839,45.61728395061728,0)" xlink:href="#S"/><use transform="matrix(0.06172839506172839,0,0,0.06172839506172839,50.49382716049382,0)" xlink:href="#T"/><use transform="matrix(0.06172839506172839,0,0,0.06172839506172839,62.8395061728395,0)" xlink:href="#U"/><use transform="matrix(0.06172839506172839,0,0,0.06172839506172839,73.9506172839506,0)" xlink:href="#V"/><use transform="matrix(0.06172839506172839,0,0,0.06172839506172839,86.29629629629629,0)" xlink:href="#V"/></g><path fill="#3a414a" d="M205 0l-28-72H64L36 0H1l101-248h38L239 0h-34zm-38-99l-47-123c-12 45-31 82-46 123h93" id="W"/><path fill="#3a414a" d="M59-47c-2 24 18 29 38 22v24C64 9 27 4 27-40v-127H5v-23h24l9-43h21v43h35v23H59v120" id="X"/><g id="f"><use transform="matrix(0.06172839506172839,0,0,0.06172839506172839,0,0)" xlink:href="#W"/><use transform="matrix(0.06172839506172839,0,0,0.06172839506172839,14.814814814814813,0)" xlink:href="#S"/><use transform="matrix(0.06172839506172839,0,0,0.06172839506172839,19.691358024691354,0)" xlink:href="#X"/></g><path fill="#3a414a" d="M26 75v-336h71v23H56V52h41v23H26" id="Y"/><path fill="#3a414a" d="M141-36C126-15 110 5 73 4 37 3 15-17 15-53c-1-64 63-63 125-63 3-35-9-54-41-54-24 1-41 7-42 31l-33-3c5-37 33-52 76-52 45 0 72 20 72 64v82c-1 20 7 32 28 27v20c-31 9-61-2-59-35zM48-53c0 20 12 33 32 33 41-3 63-29 60-74-43 2-92-5-92 41" id="Z"/><path fill="#3a414a" d="M135-143c-3-34-86-38-87 0 15 53 115 12 119 90S17 21 10-45l28-5c4 36 97 45 98 0-10-56-113-15-118-90-4-57 82-63 122-42 12 7 21 19 24 35" id="aa"/><path fill="#3a414a" d="M143 0L79-87 56-68V0H24v-261h32v163l83-92h37l-77 82L181 0h-38" id="ab"/><g id="g"><use transform="matrix(0.06172839506172839,0,0,0.06172839506172839,0,0)" xlink:href="#Y"/><use transform="matrix(0.06172839506172839,0,0,0.06172839506172839,6.172839506172839,0)" xlink:href="#X"/><use transform="matrix(0.06172839506172839,0,0,0.06172839506172839,12.345679012345679,0)" xlink:href="#Z"/><use transform="matrix(0.06172839506172839,0,0,0.06172839506172839,24.691358024691358,0)" xlink:href="#aa"/><use transform="matrix(0.06172839506172839,0,0,0.06172839506172839,35.80246913580247,0)" xlink:href="#ab"/><use transform="matrix(0.06172839506172839,0,0,0.06172839506172839,46.91358024691358,0)" xlink:href="#aa"/></g><path fill="#3a414a" d="M63-70H37l-4-178h34zM33 0v-35h34V0H33" id="ac"/><path fill="#3a414a" d="M18-150v-26h174v26H18zm0 90v-26h174v26H18" id="ad"/><g id="h"><use transform="matrix(0.06172839506172839,0,0,0.06172839506172839,0,0)" xlink:href="#ac"/><use transform="matrix(0.06172839506172839,0,0,0.06172839506172839,6.172839506172839,0)" xlink:href="#ad"/></g><path fill="#3a414a" d="M117-194c89-4 53 116 60 194h-32v-121c0-31-8-49-39-48C34-167 62-67 57 0H25l-1-190h30c1 10-1 24 2 32 11-22 29-35 61-36" id="ae"/><path fill="#3a414a" d="M84 4C-5 8 30-112 23-190h32v120c0 31 7 50 39 49 72-2 45-101 50-169h31l1 190h-30c-1-10 1-25-2-33-11 22-28 36-60 37" id="af"/><path fill="#3a414a" d="M3 75V52h41v-290H3v-23h71V75H3" id="ag"/><g id="i"><use transform="matrix(0.06172839506172839,0,0,0.06172839506172839,0,0)" xlink:href="#ae"/><use transform="matrix(0.06172839506172839,0,0,0.06172839506172839,12.345679012345679,0)" xlink:href="#af"/><use transform="matrix(0.06172839506172839,0,0,0.06172839506172839,24.691358024691358,0)" xlink:href="#S"/><use transform="matrix(0.06172839506172839,0,0,0.06172839506172839,29.5679012345679,0)" xlink:href="#S"/><use transform="matrix(0.06172839506172839,0,0,0.06172839506172839,34.44444444444444,0)" xlink:href="#ag"/></g><path fill="#3a414a" d="M33-154v-36h34v36H33zM33 0v-36h34V0H33" id="ah"/><path fill="#3a414a" d="M212-179c-10-28-35-45-73-45-59 0-87 40-87 99 0 60 29 101 89 101 43 0 62-24 78-52l27 14C228-24 195 4 139 4 59 4 22-46 18-125c-6-104 99-153 187-111 19 9 31 26 39 46" id="ai"/><path fill="#3a414a" d="M114-163C36-179 61-72 57 0H25l-1-190h30c1 12-1 29 2 39 6-27 23-49 58-41v29" id="aj"/><path fill="#3a414a" d="M127-220V0H93v-220H8v-28h204v28h-85" id="ak"/><path fill="#3a414a" d="M85-194c31 0 48 13 60 33l-1-100h32l1 261h-30c-2-10 0-23-3-31C134-8 116 4 85 4 32 4 16-35 15-94c0-66 23-100 70-100zm9 24c-40 0-46 34-46 75 0 40 6 74 45 74 42 0 51-32 51-76 0-42-9-74-50-73" id="al"/><path fill="#3a414a" d="M24-231v-30h32v30H24zM24 0v-190h32V0H24" id="am"/><path fill="#3a414a" d="M30-248c87 1 191-15 191 75 0 78-77 80-158 76V0H30v-248zm33 125c57 0 124 11 124-50 0-59-68-47-124-48v98" id="an"/><path fill="#3a414a" d="M177-190C167-65 218 103 67 71c-23-6-38-20-44-43l32-5c15 47 100 32 89-28v-30C133-14 115 1 83 1 29 1 15-40 15-95c0-56 16-97 71-98 29-1 48 16 59 35 1-10 0-23 2-32h30zM94-22c36 0 50-32 50-73 0-42-14-75-50-75-39 0-46 34-46 75s6 73 46 73" id="ao"/><g id="j"><use transform="matrix(0.06172839506172839,0,0,0.06172839506172839,0,0)" xlink:href="#ah"/><use transform="matrix(0.06172839506172839,0,0,0.06172839506172839,6.172839506172839,0)" xlink:href="#ai"/><use transform="matrix(0.06172839506172839,0,0,0.06172839506172839,22.160493827160494,0)" xlink:href="#af"/><use transform="matrix(0.06172839506172839,0,0,0.06172839506172839,34.50617283950617,0)" xlink:href="#aj"/><use transform="matrix(0.06172839506172839,0,0,0.06172839506172839,41.85185185185185,0)" xlink:href="#aj"/><use transform="matrix(0.06172839506172839,0,0,0.06172839506172839,49.197530864197525,0)" xlink:href="#V"/><use transform="matrix(0.06172839506172839,0,0,0.06172839506172839,61.5432098765432,0)" xlink:href="#ae"/><use transform="matrix(0.06172839506172839,0,0,0.06172839506172839,73.88888888888889,0)" xlink:href="#X"/><use transform="matrix(0.06172839506172839,0,0,0.06172839506172839,80.06172839506172,0)" xlink:href="#ak"/><use transform="matrix(0.06172839506172839,0,0,0.06172839506172839,91.1111111111111,0)" xlink:href="#Z"/><use transform="matrix(0.06172839506172839,0,0,0.06172839506172839,103.45679012345678,0)" xlink:href="#aa"/><use transform="matrix(0.06172839506172839,0,0,0.06172839506172839,114.5679012345679,0)" xlink:href="#ab"/><use transform="matrix(0.06172839506172839,0,0,0.06172839506172839,125.67901234567901,0)" xlink:href="#aa"/><use transform="matrix(0.06172839506172839,0,0,0.06172839506172839,136.79012345679013,0)" xlink:href="#W"/><use transform="matrix(0.06172839506172839,0,0,0.06172839506172839,151.60493827160494,0)" xlink:href="#ae"/><use transform="matrix(0.06172839506172839,0,0,0.06172839506172839,163.9506172839506,0)" xlink:href="#al"/><use transform="matrix(0.06172839506172839,0,0,0.06172839506172839,176.29629629629628,0)" xlink:href="#aj"/><use transform="matrix(0.06172839506172839,0,0,0.06172839506172839,183.64197530864195,0)" xlink:href="#T"/><use transform="matrix(0.06172839506172839,0,0,0.06172839506172839,195.98765432098762,0)" xlink:href="#am"/><use transform="matrix(0.06172839506172839,0,0,0.06172839506172839,200.86419753086415,0)" xlink:href="#al"/><use transform="matrix(0.06172839506172839,0,0,0.06172839506172839,213.20987654320982,0)" xlink:href="#an"/><use transform="matrix(0.06172839506172839,0,0,0.06172839506172839,228.02469135802463,0)" xlink:href="#Z"/><use transform="matrix(0.06172839506172839,0,0,0.06172839506172839,240.3703703703703,0)" xlink:href="#ao"/><use transform="matrix(0.06172839506172839,0,0,0.06172839506172839,252.71604938271597,0)" xlink:href="#V"/></g><path fill="#3a414a" d="M135-194c52 0 70 43 70 98 0 56-19 99-73 100-30 1-46-15-58-35L72 0H24l1-261h50v104c11-23 29-37 60-37zM114-30c31 0 40-27 40-66 0-37-7-63-39-63s-41 28-41 65c0 36 8 64 40 64" id="ap"/><path fill="#3a414a" d="M115-3C79 11 28 4 28-45v-112H4v-33h27l15-45h31v45h36v33H77v99c-1 23 16 31 38 25v30" id="aq"/><path fill="#3a414a" d="M135-194c87-1 58 113 63 194h-50c-7-57 23-157-34-157-59 0-34 97-39 157H25l-1-190h47c2 12-1 28 3 38 12-26 28-41 61-42" id="ar"/><path fill="#3a414a" d="M24-248c120-7 223 5 221 122C244-46 201 0 124 0H24v-248zM76-40c74 7 117-18 117-86 0-67-45-88-117-82v168" id="as"/><path fill="#3a414a" d="M25-224v-37h50v37H25zM25 0v-190h50V0H25" id="at"/><path fill="#3a414a" d="M137-138c1-29-70-34-71-4 15 46 118 7 119 86 1 83-164 76-172 9l43-7c4 19 20 25 44 25 33 8 57-30 24-41C81-84 22-81 20-136c-2-80 154-74 161-7" id="au"/><path fill="#3a414a" d="M135-194c53 0 70 44 70 98 0 56-19 98-73 100-31 1-45-17-59-34 3 33 2 69 2 105H25l-1-265h48c2 10 0 23 3 31 11-24 29-35 60-35zM114-30c33 0 39-31 40-66 0-38-9-64-40-64-56 0-55 130 0 130" id="av"/><path fill="#3a414a" d="M25 0v-261h50V0H25" id="aw"/><path fill="#3a414a" d="M133-34C117-15 103 5 69 4 32 3 11-16 11-54c-1-60 55-63 116-61 1-26-3-47-28-47-18 1-26 9-28 27l-52-2c7-38 36-58 82-57s74 22 75 68l1 82c-1 14 12 18 25 15v27c-30 8-71 5-69-32zm-48 3c29 0 43-24 42-57-32 0-66-3-65 30 0 17 8 27 23 27" id="ax"/><path fill="#3a414a" d="M123 10C108 53 80 86 19 72V37c35 8 53-11 59-39L3-190h52l48 148c12-52 28-100 44-148h51" id="ay"/><path fill="#3a414a" d="M136-208V0H84v-208H4v-40h212v40h-80" id="az"/><path fill="#3a414a" d="M147 0L96-86 75-71V0H25v-261h50v150l67-79h53l-66 74L201 0h-54" id="aA"/><path fill="#3a414a" d="M67-93c0 74 22 123 53 168H70C40 30 18-18 18-93s22-123 52-168h50c-32 44-53 94-53 168" id="aB"/><path fill="#3a414a" d="M102-93c0 74-22 123-52 168H0C30 29 54-18 53-93c0-74-22-123-53-168h50c30 45 52 94 52 168" id="aC"/><g id="k"><use transform="matrix(0.06172839506172839,0,0,0.06172839506172839,0,0)" xlink:href="#ap"/><use transform="matrix(0.06172839506172839,0,0,0.06172839506172839,13.518518518518517,0)" xlink:href="#aq"/><use transform="matrix(0.06172839506172839,0,0,0.06172839506172839,20.864197530864196,0)" xlink:href="#ar"/><use transform="matrix(0.06172839506172839,0,0,0.06172839506172839,34.382716049382715,0)" xlink:href="#as"/><use transform="matrix(0.06172839506172839,0,0,0.06172839506172839,50.37037037037037,0)" xlink:href="#at"/><use transform="matrix(0.06172839506172839,0,0,0.06172839506172839,56.54320987654321,0)" xlink:href="#au"/><use transform="matrix(0.06172839506172839,0,0,0.06172839506172839,68.88888888888889,0)" xlink:href="#av"/><use transform="matrix(0.06172839506172839,0,0,0.06172839506172839,82.4074074074074,0)" xlink:href="#aw"/><use transform="matrix(0.06172839506172839,0,0,0.06172839506172839,88.58024691358024,0)" xlink:href="#ax"/><use transform="matrix(0.06172839506172839,0,0,0.06172839506172839,100.92592592592592,0)" xlink:href="#ay"/><use transform="matrix(0.06172839506172839,0,0,0.06172839506172839,113.27160493827161,0)" xlink:href="#az"/><use transform="matrix(0.06172839506172839,0,0,0.06172839506172839,125.12345679012346,0)" xlink:href="#ax"/><use transform="matrix(0.06172839506172839,0,0,0.06172839506172839,137.46913580246914,0)" xlink:href="#au"/><use transform="matrix(0.06172839506172839,0,0,0.06172839506172839,149.8148148148148,0)" xlink:href="#aA"/><use transform="matrix(0.06172839506172839,0,0,0.06172839506172839,162.16049382716048,0)" xlink:href="#au"/><use transform="matrix(0.06172839506172839,0,0,0.06172839506172839,174.50617283950615,0)" xlink:href="#aB"/><use transform="matrix(0.06172839506172839,0,0,0.06172839506172839,181.85185185185182,0)" xlink:href="#aC"/></g><path fill="#3a414a" d="M33 0v-248h34V0H33" id="aD"/><path fill="#3a414a" d="M96-169c-40 0-48 33-48 73s9 75 48 75c24 0 41-14 43-38l32 2c-6 37-31 61-74 61-59 0-76-41-82-99-10-93 101-131 147-64 4 7 5 14 7 22l-32 3c-4-21-16-35-41-35" id="aE"/><path fill="#3a414a" d="M240 0l2-218c-23 76-54 145-80 218h-23L58-218 59 0H30v-248h44l77 211c21-75 51-140 76-211h43V0h-30" id="aF"/><g id="l"><use transform="matrix(0.06172839506172839,0,0,0.06172839506172839,0,0)" xlink:href="#ah"/><use transform="matrix(0.06172839506172839,0,0,0.06172839506172839,6.172839506172839,0)" xlink:href="#W"/><use transform="matrix(0.06172839506172839,0,0,0.06172839506172839,20.98765432098765,0)" xlink:href="#an"/><use transform="matrix(0.06172839506172839,0,0,0.06172839506172839,35.80246913580247,0)" xlink:href="#aD"/><use transform="matrix(0.06172839506172839,0,0,0.06172839506172839,41.97530864197531,0)" xlink:href="#ai"/><use transform="matrix(0.06172839506172839,0,0,0.06172839506172839,57.96296296296296,0)" xlink:href="#T"/><use transform="matrix(0.06172839506172839,0,0,0.06172839506172839,70.30864197530865,0)" xlink:href="#ae"/><use transform="matrix(0.06172839506172839,0,0,0.06172839506172839,82.65432098765433,0)" xlink:href="#ae"/><use transform="matrix(0.06172839506172839,0,0,0.06172839506172839,95.00000000000001,0)" xlink:href="#V"/><use transform="matrix(0.06172839506172839,0,0,0.06172839506172839,107.3456790123457,0)" xlink:href="#aE"/><use transform="matrix(0.06172839506172839,0,0,0.06172839506172839,118.45679012345681,0)" xlink:href="#X"/><use transform="matrix(0.06172839506172839,0,0,0.06172839506172839,124.62962962962965,0)" xlink:href="#am"/><use transform="matrix(0.06172839506172839,0,0,0.06172839506172839,129.50617283950618,0)" xlink:href="#T"/><use transform="matrix(0.06172839506172839,0,0,0.06172839506172839,141.85185185185185,0)" xlink:href="#ae"/><use transform="matrix(0.06172839506172839,0,0,0.06172839506172839,154.19753086419752,0)" xlink:href="#aF"/><use transform="matrix(0.06172839506172839,0,0,0.06172839506172839,172.6543209876543,0)" xlink:href="#Z"/><use transform="matrix(0.06172839506172839,0,0,0.06172839506172839,184.99999999999997,0)" xlink:href="#ae"/><use transform="matrix(0.06172839506172839,0,0,0.06172839506172839,197.34567901234564,0)" xlink:href="#Z"/><use transform="matrix(0.06172839506172839,0,0,0.06172839506172839,209.6913580246913,0)" xlink:href="#ao"/><use transform="matrix(0.06172839506172839,0,0,0.06172839506172839,222.03703703703698,0)" xlink:href="#V"/><use transform="matrix(0.06172839506172839,0,0,0.06172839506172839,234.38271604938265,0)" xlink:href="#aj"/></g><g id="m"><use transform="matrix(0.06172839506172839,0,0,0.06172839506172839,0,0)" xlink:href="#ah"/><use transform="matrix(0.06172839506172839,0,0,0.06172839506172839,6.172839506172839,0)" xlink:href="#ak"/><use transform="matrix(0.06172839506172839,0,0,0.06172839506172839,17.22222222222222,0)" xlink:href="#Z"/><use transform="matrix(0.06172839506172839,0,0,0.06172839506172839,29.5679012345679,0)" xlink:href="#aa"/><use transform="matrix(0.06172839506172839,0,0,0.06172839506172839,40.67901234567901,0)" xlink:href="#ab"/><use transform="matrix(0.06172839506172839,0,0,0.06172839506172839,51.79012345679013,0)" xlink:href="#ai"/><use transform="matrix(0.06172839506172839,0,0,0.06172839506172839,67.77777777777779,0)" xlink:href="#T"/><use transform="matrix(0.06172839506172839,0,0,0.06172839506172839,80.12345679012347,0)" xlink:href="#ae"/><use transform="matrix(0.06172839506172839,0,0,0.06172839506172839,92.46913580246915,0)" xlink:href="#X"/><use transform="matrix(0.06172839506172839,0,0,0.06172839506172839,98.64197530864199,0)" xlink:href="#aj"/><use transform="matrix(0.06172839506172839,0,0,0.06172839506172839,105.98765432098767,0)" xlink:href="#T"/><use transform="matrix(0.06172839506172839,0,0,0.06172839506172839,118.33333333333336,0)" xlink:href="#S"/><use transform="matrix(0.06172839506172839,0,0,0.06172839506172839,123.2098765432099,0)" xlink:href="#S"/><use transform="matrix(0.06172839506172839,0,0,0.06172839506172839,128.08641975308643,0)" xlink:href="#V"/><use transform="matrix(0.06172839506172839,0,0,0.06172839506172839,140.4320987654321,0)" xlink:href="#aj"/></g><path fill="#3a414a" d="M30-248c118-7 216 8 213 122C240-48 200 0 122 0H30v-248zM63-27c89 8 146-16 146-99s-60-101-146-95v194" id="aG"/><path fill="#3a414a" d="M160-131c35 5 61 23 61 61C221 17 115-2 30 0v-248c76 3 177-17 177 60 0 33-19 50-47 57zm-97-11c50-1 110 9 110-42 0-47-63-36-110-37v79zm0 115c55-2 124 14 124-45 0-56-70-42-124-44v89" id="aH"/><path fill="#3a414a" d="M141 0L90-78 38 0H4l68-98-65-92h35l48 74 47-74h35l-64 92 68 98h-35" id="aI"/><g id="n"><use transform="matrix(0.06172839506172839,0,0,0.06172839506172839,0,0)" xlink:href="#ah"/><use transform="matrix(0.06172839506172839,0,0,0.06172839506172839,6.172839506172839,0)" xlink:href="#aF"/><use transform="matrix(0.06172839506172839,0,0,0.06172839506172839,24.629629629629626,0)" xlink:href="#U"/><use transform="matrix(0.06172839506172839,0,0,0.06172839506172839,35.74074074074073,0)" xlink:href="#aG"/><use transform="matrix(0.06172839506172839,0,0,0.06172839506172839,51.728395061728385,0)" xlink:href="#aH"/><use transform="matrix(0.06172839506172839,0,0,0.06172839506172839,66.5432098765432,0)" xlink:href="#ai"/><use transform="matrix(0.06172839506172839,0,0,0.06172839506172839,82.53086419753086,0)" xlink:href="#T"/><use transform="matrix(0.06172839506172839,0,0,0.06172839506172839,94.87654320987654,0)" xlink:href="#ae"/><use transform="matrix(0.06172839506172839,0,0,0.06172839506172839,107.22222222222223,0)" xlink:href="#X"/><use transform="matrix(0.06172839506172839,0,0,0.06172839506172839,113.39506172839506,0)" xlink:href="#V"/><use transform="matrix(0.06172839506172839,0,0,0.06172839506172839,125.74074074074075,0)" xlink:href="#aI"/><use transform="matrix(0.06172839506172839,0,0,0.06172839506172839,136.85185185185185,0)" xlink:href="#X"/></g><g id="o"><use transform="matrix(0.06172839506172839,0,0,0.06172839506172839,0,0)" xlink:href="#X"/><use transform="matrix(0.06172839506172839,0,0,0.06172839506172839,6.172839506172839,0)" xlink:href="#Z"/><use transform="matrix(0.06172839506172839,0,0,0.06172839506172839,18.51851851851852,0)" xlink:href="#aa"/><use transform="matrix(0.06172839506172839,0,0,0.06172839506172839,29.62962962962963,0)" xlink:href="#ab"/><use transform="matrix(0.06172839506172839,0,0,0.06172839506172839,40.74074074074074,0)" xlink:href="#aa"/></g><use transform="matrix(0.06172839506172839,0,0,0.06172839506172839,0,0)" xlink:href="#ah" id="p"/><path fill="#3a414a" d="M30 0v-248h33v221h125V0H30" id="aJ"/><path fill="#3a414a" d="M18-100v-36l175-74v27L42-118l151 64v27" id="aK"/><path fill="#3a414a" d="M18-27v-27l151-64-151-65v-27l175 74v36" id="aL"/><g id="q"><use transform="matrix(0.06172839506172839,0,0,0.06172839506172839,0,0)" xlink:href="#aJ"/><use transform="matrix(0.06172839506172839,0,0,0.06172839506172839,12.345679012345679,0)" xlink:href="#am"/><use transform="matrix(0.06172839506172839,0,0,0.06172839506172839,17.22222222222222,0)" xlink:href="#aa"/><use transform="matrix(0.06172839506172839,0,0,0.06172839506172839,28.333333333333332,0)" xlink:href="#X"/><use transform="matrix(0.06172839506172839,0,0,0.06172839506172839,34.50617283950617,0)" xlink:href="#aK"/><use transform="matrix(0.06172839506172839,0,0,0.06172839506172839,47.46913580246913,0)" xlink:href="#ak"/><use transform="matrix(0.06172839506172839,0,0,0.06172839506172839,58.51851851851852,0)" xlink:href="#Z"/><use transform="matrix(0.06172839506172839,0,0,0.06172839506172839,70.8641975308642,0)" xlink:href="#aa"/><use transform="matrix(0.06172839506172839,0,0,0.06172839506172839,81.97530864197532,0)" xlink:href="#ab"/><use transform="matrix(0.06172839506172839,0,0,0.06172839506172839,93.08641975308643,0)" xlink:href="#aL"/></g><g id="r"><use transform="matrix(0.06172839506172839,0,0,0.06172839506172839,0,0)" xlink:href="#Y"/><use transform="matrix(0.06172839506172839,0,0,0.06172839506172839,6.172839506172839,0)" xlink:href="#V"/><use transform="matrix(0.06172839506172839,0,0,0.06172839506172839,18.51851851851852,0)" xlink:href="#S"/><use transform="matrix(0.06172839506172839,0,0,0.06172839506172839,23.395061728395063,0)" xlink:href="#aa"/><use transform="matrix(0.06172839506172839,0,0,0.06172839506172839,34.50617283950618,0)" xlink:href="#V"/><use transform="matrix(0.06172839506172839,0,0,0.06172839506172839,46.851851851851855,0)" xlink:href="#ag"/></g><path fill="#3a414a" d="M85 4C-2 5 27-109 22-190h50c7 57-23 150 33 157 60-5 35-97 40-157h50l1 190h-47c-2-12 1-28-3-38-12 25-28 42-61 42" id="aM"/><path fill="#3a414a" d="M88-194c31-1 46 15 58 34l-1-101h50l1 261h-48c-2-10 0-23-3-31C134-8 116 4 84 4 32 4 16-41 15-95c0-56 19-97 73-99zm17 164c33 0 40-30 41-66 1-37-9-64-41-64s-38 30-39 65c0 43 13 65 39 65" id="aN"/><path fill="#3a414a" d="M185-48c-13 30-37 53-82 52C43 2 14-33 14-96s30-98 90-98c62 0 83 45 84 108H66c0 31 8 55 39 56 18 0 30-7 34-22zm-45-69c5-46-57-63-70-21-2 6-4 13-4 21h74" id="aO"/><path fill="#3a414a" d="M24-248c93 1 206-16 204 79-1 75-69 88-152 82V0H24v-248zm52 121c47 0 100 7 100-41 0-47-54-39-100-39v80" id="aP"/><path fill="#3a414a" d="M195-6C206 82 75 100 31 46c-4-6-6-13-8-21l49-6c3 16 16 24 34 25 40 0 42-37 40-79-11 22-30 35-61 35-53 0-70-43-70-97 0-56 18-96 73-97 30 0 46 14 59 34l2-30h47zm-90-29c32 0 41-27 41-63 0-35-9-62-40-62-32 0-39 29-40 63 0 36 9 62 39 62" id="aQ"/><g id="s"><use transform="matrix(0.06172839506172839,0,0,0.06172839506172839,0,0)" xlink:href="#aM"/><use transform="matrix(0.06172839506172839,0,0,0.06172839506172839,13.518518518518517,0)" xlink:href="#av"/><use transform="matrix(0.06172839506172839,0,0,0.06172839506172839,27.037037037037035,0)" xlink:href="#aN"/><use transform="matrix(0.06172839506172839,0,0,0.06172839506172839,40.55555555555555,0)" xlink:href="#ax"/><use transform="matrix(0.06172839506172839,0,0,0.06172839506172839,52.90123456790123,0)" xlink:href="#aq"/><use transform="matrix(0.06172839506172839,0,0,0.06172839506172839,60.246913580246904,0)" xlink:href="#aO"/><use transform="matrix(0.06172839506172839,0,0,0.06172839506172839,72.59259259259258,0)" xlink:href="#az"/><use transform="matrix(0.06172839506172839,0,0,0.06172839506172839,84.44444444444443,0)" xlink:href="#ax"/><use transform="matrix(0.06172839506172839,0,0,0.06172839506172839,96.79012345679011,0)" xlink:href="#au"/><use transform="matrix(0.06172839506172839,0,0,0.06172839506172839,109.1358024691358,0)" xlink:href="#aA"/><use transform="matrix(0.06172839506172839,0,0,0.06172839506172839,121.48148148148148,0)" xlink:href="#au"/><use transform="matrix(0.06172839506172839,0,0,0.06172839506172839,133.82716049382717,0)" xlink:href="#aP"/><use transform="matrix(0.06172839506172839,0,0,0.06172839506172839,148.64197530864197,0)" xlink:href="#ax"/><use transform="matrix(0.06172839506172839,0,0,0.06172839506172839,160.98765432098764,0)" xlink:href="#aQ"/><use transform="matrix(0.06172839506172839,0,0,0.06172839506172839,174.50617283950615,0)" xlink:href="#aO"/><use transform="matrix(0.06172839506172839,0,0,0.06172839506172839,186.85185185185182,0)" xlink:href="#aB"/><use transform="matrix(0.06172839506172839,0,0,0.06172839506172839,194.1975308641975,0)" xlink:href="#aC"/></g><path fill="#3a414a" d="M24 0v-248h195v40H76v63h132v40H76v65h150V0H24" id="aR"/><path fill="#3a414a" d="M135-150c-39-12-60 13-60 57V0H25l-1-190h47c2 13-1 29 3 40 6-28 27-53 61-41v41" id="aS"/><path fill="#3a414a" d="M110-194c64 0 96 36 96 99 0 64-35 99-97 99-61 0-95-36-95-99 0-62 34-99 96-99zm-1 164c35 0 45-28 45-65 0-40-10-65-43-65-34 0-45 26-45 65 0 36 10 65 43 65" id="aT"/><g id="t"><use transform="matrix(0.06172839506172839,0,0,0.06172839506172839,0,0)" xlink:href="#aN"/><use transform="matrix(0.06172839506172839,0,0,0.06172839506172839,13.518518518518517,0)" xlink:href="#at"/><use transform="matrix(0.06172839506172839,0,0,0.06172839506172839,19.691358024691358,0)" xlink:href="#au"/><use transform="matrix(0.06172839506172839,0,0,0.06172839506172839,32.03703703703704,0)" xlink:href="#av"/><use transform="matrix(0.06172839506172839,0,0,0.06172839506172839,45.55555555555556,0)" xlink:href="#aw"/><use transform="matrix(0.06172839506172839,0,0,0.06172839506172839,51.7283950617284,0)" xlink:href="#ax"/><use transform="matrix(0.06172839506172839,0,0,0.06172839506172839,64.07407407407408,0)" xlink:href="#ay"/><use transform="matrix(0.06172839506172839,0,0,0.06172839506172839,76.41975308641976,0)" xlink:href="#aR"/><use transform="matrix(0.06172839506172839,0,0,0.06172839506172839,91.23456790123457,0)" xlink:href="#aS"/><use transform="matrix(0.06172839506172839,0,0,0.06172839506172839,99.87654320987654,0)" xlink:href="#aS"/><use transform="matrix(0.06172839506172839,0,0,0.06172839506172839,108.51851851851852,0)" xlink:href="#aT"/><use transform="matrix(0.06172839506172839,0,0,0.06172839506172839,122.03703703703704,0)" xlink:href="#aS"/><use transform="matrix(0.06172839506172839,0,0,0.06172839506172839,130.679012345679,0)" xlink:href="#aB"/><use transform="matrix(0.06172839506172839,0,0,0.06172839506172839,138.02469135802468,0)" xlink:href="#aO"/><use transform="matrix(0.06172839506172839,0,0,0.06172839506172839,150.37037037037035,0)" xlink:href="#aS"/><use transform="matrix(0.06172839506172839,0,0,0.06172839506172839,159.01234567901233,0)" xlink:href="#aS"/><use transform="matrix(0.06172839506172839,0,0,0.06172839506172839,167.6543209876543,0)" xlink:href="#aT"/><use transform="matrix(0.06172839506172839,0,0,0.06172839506172839,181.1728395061728,0)" xlink:href="#aS"/><use transform="matrix(0.06172839506172839,0,0,0.06172839506172839,189.81481481481478,0)" xlink:href="#aC"/></g><path fill="#3a414a" d="M76-208v77h127v40H76V0H24v-248h183v40H76" id="aU"/><path fill="#3a414a" d="M220-157c-53 9-28 100-34 157h-49v-107c1-27-5-49-29-50C55-147 81-57 75 0H25l-1-190h47c2 12-1 28 3 38 10-53 101-56 108 0 13-22 24-43 59-42 82 1 51 116 57 194h-49v-107c-1-25-5-48-29-50" id="aV"/><path fill="#3a414a" d="M199 0l-22-63H83L61 0H9l90-248h61L250 0h-51zm-33-102l-36-108c-10 38-24 72-36 108h72" id="aW"/><path fill="#3a414a" d="M24 0v-248h52V0H24" id="aX"/><g id="u"><use transform="matrix(0.06172839506172839,0,0,0.06172839506172839,0,0)" xlink:href="#aQ"/><use transform="matrix(0.06172839506172839,0,0,0.06172839506172839,13.518518518518517,0)" xlink:href="#aO"/><use transform="matrix(0.06172839506172839,0,0,0.06172839506172839,25.864197530864196,0)" xlink:href="#aq"/><use transform="matrix(0.06172839506172839,0,0,0.06172839506172839,33.20987654320987,0)" xlink:href="#az"/><use transform="matrix(0.06172839506172839,0,0,0.06172839506172839,45.06172839506172,0)" xlink:href="#ax"/><use transform="matrix(0.06172839506172839,0,0,0.06172839506172839,57.4074074074074,0)" xlink:href="#au"/><use transform="matrix(0.06172839506172839,0,0,0.06172839506172839,69.75308641975307,0)" xlink:href="#aA"/><use transform="matrix(0.06172839506172839,0,0,0.06172839506172839,82.09876543209876,0)" xlink:href="#au"/><use transform="matrix(0.06172839506172839,0,0,0.06172839506172839,94.44444444444444,0)" xlink:href="#aU"/><use transform="matrix(0.06172839506172839,0,0,0.06172839506172839,107.96296296296296,0)" xlink:href="#aS"/><use transform="matrix(0.06172839506172839,0,0,0.06172839506172839,116.60493827160494,0)" xlink:href="#aT"/><use transform="matrix(0.06172839506172839,0,0,0.06172839506172839,130.12345679012344,0)" xlink:href="#aV"/><use transform="matrix(0.06172839506172839,0,0,0.06172839506172839,149.87654320987653,0)" xlink:href="#aW"/><use transform="matrix(0.06172839506172839,0,0,0.06172839506172839,165.86419753086417,0)" xlink:href="#aP"/><use transform="matrix(0.06172839506172839,0,0,0.06172839506172839,180.67901234567898,0)" xlink:href="#aX"/><use transform="matrix(0.06172839506172839,0,0,0.06172839506172839,186.85185185185182,0)" xlink:href="#aB"/><use transform="matrix(0.06172839506172839,0,0,0.06172839506172839,194.1975308641975,0)" xlink:href="#aC"/></g><g id="v"><use transform="matrix(0.06172839506172839,0,0,0.06172839506172839,0,0)" xlink:href="#aq"/><use transform="matrix(0.06172839506172839,0,0,0.06172839506172839,7.345679012345679,0)" xlink:href="#ax"/><use transform="matrix(0.06172839506172839,0,0,0.06172839506172839,19.691358024691358,0)" xlink:href="#au"/><use transform="matrix(0.06172839506172839,0,0,0.06172839506172839,32.03703703703704,0)" xlink:href="#aA"/><use transform="matrix(0.06172839506172839,0,0,0.06172839506172839,44.382716049382715,0)" xlink:href="#au"/></g><path fill="#3a414a" d="M15-148v-39h180v39H15zm0 97v-39h180v39H15" id="aY"/><use transform="matrix(0.06172839506172839,0,0,0.06172839506172839,0,0)" xlink:href="#aY" id="w"/><g id="x"><use transform="matrix(0.06172839506172839,0,0,0.06172839506172839,0,0)" xlink:href="#aQ"/><use transform="matrix(0.06172839506172839,0,0,0.06172839506172839,13.518518518518517,0)" xlink:href="#aO"/><use transform="matrix(0.06172839506172839,0,0,0.06172839506172839,25.864197530864196,0)" xlink:href="#aq"/><use transform="matrix(0.06172839506172839,0,0,0.06172839506172839,33.20987654320987,0)" xlink:href="#az"/><use transform="matrix(0.06172839506172839,0,0,0.06172839506172839,45.06172839506172,0)" xlink:href="#ax"/><use transform="matrix(0.06172839506172839,0,0,0.06172839506172839,57.4074074074074,0)" xlink:href="#au"/><use transform="matrix(0.06172839506172839,0,0,0.06172839506172839,69.75308641975307,0)" xlink:href="#aA"/><use transform="matrix(0.06172839506172839,0,0,0.06172839506172839,82.09876543209876,0)" xlink:href="#au"/><use transform="matrix(0.06172839506172839,0,0,0.06172839506172839,94.44444444444444,0)" xlink:href="#aU"/><use transform="matrix(0.06172839506172839,0,0,0.06172839506172839,107.96296296296296,0)" xlink:href="#aS"/><use transform="matrix(0.06172839506172839,0,0,0.06172839506172839,116.60493827160494,0)" xlink:href="#aT"/><use transform="matrix(0.06172839506172839,0,0,0.06172839506172839,130.12345679012344,0)" xlink:href="#aV"/><use transform="matrix(0.06172839506172839,0,0,0.06172839506172839,149.87654320987653,0)" xlink:href="#aW"/><use transform="matrix(0.06172839506172839,0,0,0.06172839506172839,165.86419753086417,0)" xlink:href="#aP"/><use transform="matrix(0.06172839506172839,0,0,0.06172839506172839,180.67901234567898,0)" xlink:href="#aX"/><use transform="matrix(0.06172839506172839,0,0,0.06172839506172839,186.85185185185182,0)" xlink:href="#aB"/><use transform="matrix(0.06172839506172839,0,0,0.06172839506172839,194.1975308641975,0)" xlink:href="#aC"/></g></defs></g></svg>