<svg xmlns="http://www.w3.org/2000/svg" xmlns:xlink="http://www.w3.org/1999/xlink" xmlns:lucid="lucid" width="2420" height="2360"><g transform="translate(1107.0329069795152 706.9079509869641)" lucid:page-tab-id="0_0"><path d="M-1806.87-1258.84h3677.74v3840.5h-3677.74z" fill="#fff"/><path d="M-886.78 1273.6a.25.25 0 0 1 .25-.26h699a.25.25 0 0 1 .25.25.25.25 0 0 1-.25.24h-699a.25.25 0 0 1-.25-.25z" fill="none"/><path d="M-876.62 1273.34h9.92m4.95 0h9.92m4.96 0h9.9m4.97 0h9.9m4.97 0h9.92m4.94 0h9.92m4.96 0h9.9m4.97 0h9.9m4.96 0h9.92m4.95 0h9.92m4.96 0h9.92m4.96 0h9.9m4.97 0h9.9m4.97 0h9.92m4.96 0h9.9m4.97 0h9.9m4.97 0h9.9m4.97 0h9.93m4.95 0h9.92m4.96 0h9.9m4.97 0h9.9m4.97 0h9.92m4.95 0h9.92m4.95 0h9.9m4.97 0h9.9m4.97 0h9.9m4.96 0h9.92m4.95 0h9.92m4.96 0h9.92m4.96 0h9.92m4.95 0h9.92m4.95 0h9.92m4.96 0h9.9m4.97 0h9.9m4.97 0h9.92m4.95 0h9.93m4.96 0h9.9m4.96 0h9.9m4.97 0h9.92m4.95 0h9.92m4.96 0h9.9m4.97 0h9.9m4.97 0h9.9m4.97 0h9.9m4.96 0h9.92m4.96 0h9.9m4.97 0h5.05l.04.03.03.02h.04l.03.04.02.04v.07l.02.04v.07l-.03.04-.03.04-.03.03-.03.02-.02.02h-.04l-.03.02h-4.99m-4.95 0h-9.9m-4.97 0h-9.92m-4.95 0h-9.9m-4.97 0h-9.9m-4.97 0h-9.9m-4.97 0h-9.92m-4.96 0h-9.92m-4.95 0h-9.92m-4.96 0h-9.9m-4.97 0h-9.9m-4.97 0h-9.92m-4.94 0h-9.92m-4.96 0h-9.9m-4.97 0h-9.9m-4.96 0h-9.9m-4.97 0h-9.92m-4.95 0h-9.92m-4.96 0h-9.9m-4.97 0h-9.92m-4.95 0h-9.92m-4.95 0h-9.9m-4.97 0h-9.9m-4.97 0h-9.9m-4.97 0h-9.93m-4.95 0h-9.92m-4.96 0h-9.9m-4.97 0h-9.9m-4.97 0h-9.92m-4.95 0h-9.92m-4.95 0h-9.9m-4.97 0h-9.9m-4.97 0h-9.9m-4.96 0h-9.92m-4.96 0h-9.9m-4.97 0h-9.92m-4.96 0h-9.9m-4.97 0h-9.92m-4.95 0h-9.92m-4.96 0h-9.9m-4.97 0h-9.9m-4.97 0h-9.92m-4.95 0h-9.93m-4.96 0h-9.9m-4.96 0h-9.9m-4.97 0h-9.92m-4.95 0h-9.92m-4.96 0h-5.03l-.05-.02-.03-.03-.03-.03-.03-.03-.03-.03v-.03l-.02-.04v-.12l.02-.04.02-.04.03-.03h.02l.03-.03.04-.02H-881.6" stroke="#3a414a" stroke-width=".5" fill="none"/><path d="M-1087.03-680.9a6 6 0 0 1 6-6h188a6 6 0 0 1 6 6v8a14.48 14.48 0 0 1-4.25 10.24l-1.5 1.5a14.48 14.48 0 0 1-10.25 4.25h-178a6 6 0 0 1-6-6z" fill="#fff"/><path d="M-887.03-686.9v20l-10 10h-190" stroke="#3a414a" fill="none"/><path d="M-1087.03-680.9a6 6 0 0 1 6-6h2368a6 6 0 0 1 6 6v2308a6 6 0 0 1-6 6h-2368a6 6 0 0 1-6-6z" stroke="#3a414a" fill="none"/><use xlink:href="#a" transform="matrix(1,0,0,1,-1079.0329069795152,-686.9079509869641) translate(0 18.6)"/><use xlink:href="#b" transform="matrix(1,0,0,1,-1079.0329069795152,-686.9079509869641) translate(25.950000000000003 18.6)"/><use xlink:href="#c" transform="matrix(1,0,0,1,-1079.0329069795152,-686.9079509869641) translate(97.9 18.6)"/><g fill="none"><path d="M-926.53-486.66a.25.25 0 0 1 .25.25v2109a.25.25 0 0 1-.25.24.25.25 0 0 1-.25-.25v-2109a.25.25 0 0 1 .25-.26z"/><path d="M-926.28-476.44v9.97m0 5v9.96m0 4.98v9.97m0 5v9.96m0 5v9.96m0 5v9.96m0 5v9.96m0 5v9.96m0 4.98v9.97m0 4.98v9.97m0 5v9.96m0 5v9.97m0 4.98v9.97m0 5v9.96m0 5v9.96m0 4.98v9.98m0 4.98v9.97m0 5v9.96m0 5v9.97m0 4.98v9.98m0 4.98v9.98m0 5v9.96m0 5v9.96m0 4.98v9.98m0 4.98v9.97m0 5v9.97m0 5v9.96m0 4.98v10m0 4.97v9.97m0 5v9.96m0 5v9.96m0 4.98v9.98m0 4.98v9.97m0 5v9.96m0 5v9.96m0 4.97v9.98m0 4.98V72m0 5v9.96m0 5v9.96m0 4.98v9.98m0 4.98v9.97m0 5v9.96m0 4.98v9.97m0 4.98v9.98m0 5v9.96m0 5v9.96m0 5v9.96m0 4.98v9.97m0 5v9.96m0 4.98v9.97m0 5v9.96m0 5v9.96m0 5v9.96m0 5v9.96m0 5v9.96m0 4.98v9.97m0 4.98v9.97m0 5v9.96m0 5v9.97m0 4.98v9.97m0 5v9.96m0 5v9.96m0 4.98v9.98m0 4.98v9.97m0 5v9.96m0 5v9.97m0 4.98v9.98m0 4.98v9.98m0 5v9.96m0 5v9.96m0 4.98v9.98m0 4.98v9.97m0 5v9.97m0 5v9.96m0 4.98v10m0 4.97v9.97m0 5v9.96m0 5v9.96m0 4.98v9.98m0 4.98v9.97m0 5v9.96m0 5v9.96m0 4.97v9.98m0 4.98V775m0 5v9.96m0 5v9.96m0 4.98v9.98m0 4.98v9.97m0 5v9.96m0 4.98v9.97m0 4.98v9.98m0 5v9.96m0 5v9.96m0 5v9.96m0 4.98v9.97m0 5v9.96m0 4.98v9.97m0 5v9.96m0 5v9.96m0 5v9.96m0 5v9.96m0 5v9.96m0 4.98v9.97m0 4.98v9.97m0 5v9.96m0 5v9.97m0 4.98v9.97m0 5v9.96m0 5v9.96m0 4.98v9.98m0 4.98v9.97m0 5v9.96m0 5v9.97m0 4.98v9.98m0 4.98v9.98m0 5v9.96m0 5v9.96m0 4.98v9.98m0 4.98v9.97m0 5v9.97m0 5v9.96m0 4.98v10m0 4.97v9.97m0 5v9.96m0 5v9.96m0 4.98v9.98m0 4.98v9.97m0 5v9.96m0 5v9.96m0 4.97v9.98m0 4.98v9.97m0 5v9.96m0 5v9.96m0 4.98v9.98m0 4.98v9.97m0 5v9.96m0 4.98v9.97m0 4.98v9.98m0 5v9.96m0 5v9.96m0 5v5.04l-.03.04-.03.04-.03.03-.03.02h-.02l-.04.03h-.14l-.05-.02h-.03l-.03-.03-.03-.03-.03-.03v-.03l-.02-.04v-5.04m0-4.98v-9.97m0-5v-9.96m0-5v-9.97m0-4.98v-9.97m0-5v-9.96m0-5v-9.96m0-4.98v-9.98m0-4.98v-9.97m0-5V1483m0-5v-9.97m0-4.98v-9.98m0-4.98v-9.98m0-5v-9.96m0-5v-9.96m0-4.98v-9.98m0-4.98v-9.97m0-5v-9.97m0-5v-9.96m0-4.98v-10m0-4.97v-9.97m0-5v-9.96m0-5v-9.96m0-4.98v-9.98m0-4.98v-9.97m0-5v-9.96m0-5v-9.96m0-4.97v-9.98m0-4.98v-9.97m0-5v-9.96m0-5v-9.96m0-4.98v-9.98m0-4.98v-9.97m0-5v-9.96m0-4.98v-9.97m0-4.98v-9.97m0-5v-9.96m0-5v-9.96m0-5v-9.96m0-4.98v-9.97m0-5v-9.96m0-4.98v-9.97m0-5v-9.96m0-5v-9.96m0-5v-9.96m0-5v-9.96m0-5v-9.96m0-4.98v-9.97m0-4.98v-9.97m0-5v-9.96m0-5v-9.97m0-4.98v-9.97m0-5v-9.96m0-5v-9.96m0-4.98v-9.98m0-4.98v-9.97m0-5V780m0-5v-9.97m0-4.98v-9.98m0-4.98v-9.98m0-5v-9.96m0-5v-9.96m0-4.98v-9.98m0-4.98v-9.97m0-5v-9.97m0-5v-9.96m0-4.98v-10m0-4.97v-9.97m0-5v-9.96m0-5v-9.96m0-4.98v-9.98m0-4.98v-9.97m0-5v-9.96m0-5v-9.96m0-4.97v-9.98m0-4.98v-9.97m0-5v-9.96m0-5v-9.96m0-4.98v-9.98m0-4.98v-9.97m0-5v-9.96m0-4.98v-9.97m0-4.98v-9.97m0-5v-9.96m0-5v-9.96m0-5v-9.96m0-4.98v-9.97m0-5v-9.96m0-4.98v-9.97m0-5v-9.96m0-5v-9.96m0-5v-9.96m0-5v-9.96m0-5v-9.96m0-4.98v-9.97m0-4.98v-9.97m0-5v-9.96m0-5v-9.97m0-4.98v-9.97m0-5v-9.96m0-5v-9.96m0-4.98v-9.98m0-4.98v-9.97m0-5V77m0-5v-9.97m0-4.98v-9.98m0-4.98V32.1m0-5v-9.96m0-5V2.2m0-4.98v-9.98m0-4.98v-9.97m0-5v-9.97m0-5v-9.96m0-4.98v-10m0-4.97v-9.97m0-5v-9.96m0-5v-9.96m0-4.98v-9.98m0-4.98v-9.97m0-5v-9.96m0-5v-9.96m0-4.97v-9.98m0-4.98v-9.97m0-5v-9.96m0-5v-9.96m0-4.98v-9.98m0-4.98v-9.97m0-5v-9.96m0-4.98v-9.97m0-4.98v-9.97m0-5v-9.96m0-5v-9.96m0-5v-9.96m0-4.98v-9.97m0-5v-9.96m0-4.98v-9.97m0-5v-9.96m0-5v-9.96m0-5v-9.96m0-5v-9.96m0-5v-9.96m0-4.98v-5.07l.02-.02.03-.04.02-.03h.02l.03-.03.04-.02H-926.46l.04.02.03.02h.04l.03.04.02.04v.08l.02.04v4.98" stroke="#3a414a" stroke-width=".5"/></g><path d="M-907.28-567.16c0 10.9-8.85 19.75-19.75 19.75s-19.75-8.85-19.75-19.76c0-10.9 8.84-19.75 19.75-19.75 10.9 0 19.75 8.83 19.75 19.74z" stroke="#3a414a" fill="#fff"/><path d="M-927.03-547.4v49.3a20.7 20.7 0 0 0 3.2 11.06l36.8 58.13m-40-63.2l-40 63.2m0-98.76h80" stroke="#3a414a" fill="none"/><path d="M-967.03-580.9a6 6 0 0 1 6-6h68a6 6 0 0 1 6 6v168a6 6 0 0 1-6 6h-68a6 6 0 0 1-6-6z" fill="none"/><use xlink:href="#d" transform="matrix(1,0,0,1,-1047.0329069795152,-428.9079509869641) translate(70.67901234567901 17.77777777777778)"/><path d="M-946.53-360.9a6 6 0 0 1 6-6h27.5a6 6 0 0 1 6 6v1948a6 6 0 0 1-6 6h-27.5a6 6 0 0 1-6-6z" stroke="#3a414a" fill="#fff"/><path d="M-887.03 1019.1a6 6 0 0 1 6-6h88a6 6 0 0 1 6 6v8a14.48 14.48 0 0 1-4.25 10.24l-1.5 1.5a14.48 14.48 0 0 1-10.25 4.25h-78a6 6 0 0 1-6-6z" fill="#fff"/><path d="M-787.03 1013.1v20l-10 10h-90" stroke="#3a414a" fill="none"/><path d="M-887.03 1019.1a6 6 0 0 1 6-6h688a6 6 0 0 1 6 6v488a6 6 0 0 1-6 6h-688a6 6 0 0 1-6-6z" stroke="#3a414a" fill="none"/><use xlink:href="#e" transform="matrix(1,0,0,1,-879.0329069795152,1013.0920490130359) translate(0 19.444444444444443)"/><use xlink:href="#f" transform="matrix(1,0,0,1,-875.0329069795152,1051.0920490130359) translate(0 19.444444444444443)"/><use xlink:href="#g" transform="matrix(1,0,0,1,-875.0329069795152,1051.0920490130359) translate(124.62962962962963 19.444444444444443)"/><use xlink:href="#h" transform="matrix(1,0,0,1,-875.0329069795152,1051.0920490130359) translate(149.93827160493828 19.444444444444443)"/><path d="M-727.03-560.9a6 6 0 0 1 6-6h313.12a6 6 0 0 1 6 6v108a6 6 0 0 1-6 6h-313.13a6 6 0 0 1-6-6z" stroke="#3a414a" fill="#fff"/><use xlink:href="#i" transform="matrix(1,0,0,1,-722.0329069795152,-561.9079509869641) translate(0.7160493827161076 59.02777777777778)"/><g fill="none"><path d="M-567.03-436.66a.25.25 0 0 1 .25.25v2069a.25.25 0 0 1-.25.24.25.25 0 0 1-.25-.25v-2069a.25.25 0 0 1 .25-.26z"/><path d="M-566.78-426.4v9.98m0 5v10m0 5v10m0 5v9.98m0 5v10m0 5v10m0 4.98v10m0 5v10m0 5v9.98m0 5v10m0 5v10m0 5v9.98m0 5v10m0 5v10m0 5v9.98m0 5v10m0 5v10m0 4.98v10m0 5v10m0 5v9.98m0 5v10m0 5v10m0 5v9.98m0 5v10m0 5v10m0 5v9.98m0 5v10m0 5v10m0 4.98v10m0 5v10m0 5v9.98m0 5v10m0 5v10m0 5v9.98m0 5v10m0 5v10m0 5v9.98m0 5v10m0 5v10m0 4.98v10m0 5v10m0 5v9.98m0 5v10m0 5v10m0 5v9.98m0 5v10m0 5v10m0 5v9.98m0 5v10m0 5v10m0 4.98v10m0 5v10m0 5v10m0 4.98v10m0 5v10m0 5v9.98m0 5v10m0 5v10m0 5v9.98m0 5v10m0 5v10m0 4.98v10m0 5v10m0 5v10m0 4.98v10m0 5v10m0 5v9.98m0 5v10m0 5v10m0 5v9.98m0 5v10m0 5v10m0 5v9.98m0 5v10m0 5v10m0 4.98v10m0 5v10m0 5V738m0 5v10m0 5v10m0 5V783m0 5v10m0 5v10m0 5v9.98m0 5v10m0 5v10m0 4.98v10m0 5v10m0 5v9.98m0 5v10m0 5v10m0 5v9.98m0 5v10m0 5v10m0 5v9.98m0 5v10m0 5v10m0 4.98v10m0 5v10m0 5v9.98m0 5v10m0 5v10m0 5v9.98m0 5v10m0 5v10m0 5v9.98m0 5v10m0 5v10m0 4.98v10m0 5v10m0 5v9.98m0 5v10m0 5v10m0 5v9.98m0 5v10m0 5v10m0 5v9.98m0 5v10m0 5v10m0 4.98v10m0 5v10m0 5v10m0 4.98v10m0 5v10m0 5v9.98m0 5v10m0 5v10m0 5v9.98m0 5v10m0 5v10m0 4.98v10m0 5v10m0 5v10m0 4.98v10m0 5v10m0 5v9.98m0 5v10m0 5v5.07l-.03.04-.03.04-.03.03-.03.02h-.02l-.04.03h-.14l-.05-.02h-.03l-.03-.03-.03-.03-.03-.03v-.03l-.02-.04v-5.04m0-5v-10m0-5v-10m0-5v-9.98m0-5v-10m0-5v-10m0-5v-9.98m0-5v-10m0-5v-10m0-5v-9.98m0-5v-10m0-5v-10m0-4.98v-10m0-5v-10m0-5v-9.98m0-5v-10m0-5v-10m0-5v-9.98m0-5v-10m0-5v-10m0-5v-9.98m0-5v-10m0-5v-10m0-4.98v-10m0-5v-10m0-5v-9.98m0-5v-10m0-5v-10m0-5v-9.98m0-5v-10m0-5v-10m0-5v-9.98m0-5v-10m0-5v-10m0-4.98v-10m0-5v-10m0-5v-10m0-4.98v-10m0-5v-10m0-5v-9.98m0-5v-10m0-5v-10m0-5v-9.98m0-5v-10m0-5v-10m0-4.98v-10m0-5v-10m0-5v-10m0-4.98v-10m0-5v-10m0-5v-9.98m0-5v-10m0-5v-10m0-5V833m0-5v-10m0-5v-10m0-5V788m0-5v-10m0-5v-10m0-4.98v-10m0-5v-10m0-5v-9.98m0-5v-10m0-5v-10m0-5v-9.98m0-5v-10m0-5v-10m0-5v-9.98m0-5v-10m0-5v-10m0-4.98v-10m0-5v-10m0-5v-9.98m0-5v-10m0-5v-10m0-5v-9.98m0-5v-10m0-5v-10m0-5v-9.98m0-5v-10m0-5v-10m0-4.98v-10m0-5v-10m0-5v-9.98m0-5v-10m0-5v-10m0-5v-9.98m0-5v-10m0-5v-10m0-5v-9.98m0-5v-10m0-5v-10m0-4.98v-10m0-5v-10m0-5v-9.98m0-5v-10m0-5v-10m0-5v-9.98m0-5v-10m0-5v-10m0-5v-9.98m0-5v-10m0-5v-10m0-4.98v-10m0-5v-10m0-5v-10m0-4.98v-10m0-5v-10m0-5V8.4m0-5v-10m0-5v-10m0-5v-9.98m0-5v-10m0-5v-10m0-4.98v-10m0-5v-10m0-5v-10m0-4.98v-10m0-5v-10m0-5v-9.98m0-5v-10m0-5v-10m0-5v-9.98m0-5v-10m0-5v-10m0-5v-9.98m0-5v-10m0-5v-10m0-4.98v-10m0-5v-10m0-5v-9.98m0-5v-10m0-5v-10m0-5v-9.98m0-5v-10m0-5v-10m0-5v-9.98m0-5v-10m0-5v-5.07l.02-.02.03-.04.02-.03h.02l.03-.03.04-.02H-566.96l.04.02.03.02h.04l.03.04.02.04v.08l.02.04v5" stroke="#3a414a" stroke-width=".5"/></g><path d="M-587.53-360.9a6 6 0 0 1 6-6h28.5a6 6 0 0 1 6 6v1928a6 6 0 0 1-6 6h-28.5a6 6 0 0 1-6-6z" stroke="#3a414a" fill="#fff"/><path d="M-867.03-360.9a6 6 0 0 1 6-6h228a6 6 0 0 1 6 6v29a6 6 0 0 1-6 6h-228a6 6 0 0 1-6-6z" stroke="#000" stroke-opacity="0" fill="#fff" fill-opacity="0"/><use xlink:href="#j" transform="matrix(1,0,0,1,-862.0329069795152,-361.9079509869641) translate(-6.203703703703653 19.944444444444443)"/><path d="M-906.03-311.43h301.61" stroke="#3a414a" fill="none"/><path d="M-906.02-310.93h-.5v-1h.5z" stroke="#3a414a" stroke-width=".05" fill="#3a414a"/><path d="M-589.65-311.43l-14.27 4.63v-9.27z" stroke="#3a414a" fill="#3a414a"/><path d="M-307.03-319.9a6 6 0 0 1 6-6h268a6 6 0 0 1 6 6v108a6 6 0 0 1-6 6h-268a6 6 0 0 1-6-6z" stroke="#3a414a" fill="#fff"/><use xlink:href="#k" transform="matrix(1,0,0,1,-302.03290697951525,-320.9079509869641) translate(14.13580246913584 59.02777777777778)"/><path d="M-546.03-254.64h4.95m4.96 0h9.92m4.96 0h9.92m4.95 0h9.92m4.96 0h9.93m4.95 0h9.92m4.96 0h9.92m4.95 0h9.92m4.96 0h9.91m4.95 0h9.88m4.94 0h9.9m4.93 0h9.88m4.94 0h9.88m4.94 0h9.9m4.93 0h9.88m4.94 0h9.88m4.94 0h4.94" stroke="#3a414a" fill="none"/><path d="M-546.02-254.14h-.5v-1h.5z" stroke="#3a414a" stroke-width=".05" fill="#3a414a"/><path d="M-325.73-244.46l17.2-10.18-17.2-10.2" stroke="#3a414a" fill="none"/><g fill="none"><path d="M-166.53-206.66a.25.25 0 0 1 .25.25v1829a.25.25 0 0 1-.25.24.25.25 0 0 1-.25-.25v-1829a.25.25 0 0 1 .25-.26z"/><path d="M-166.28-196.4v9.98m0 5v10m0 5v9.98m0 5v10m0 5v10m0 5v9.98m0 5v10m0 5v9.98m0 5v10m0 5v10m0 4.98v10m0 5v10m0 5v9.98m0 5v10m0 5v10m0 4.98v10m0 5v10m0 5v9.98m0 5v10m0 5v9.98m0 5v10m0 5v10m0 5v9.98m0 5v10m0 5v9.98m0 5v10m0 5v10m0 4.98v10m0 5v10m0 5v9.98m0 5v10m0 5v10m0 4.98v10m0 5v10m0 5v9.98m0 5v10m0 5v10m0 4.98v10m0 5v10m0 5v9.98m0 5v10m0 5v9.98m0 5v10m0 5v10m0 5v9.98m0 5v10m0 5v9.98m0 5v10m0 5v10m0 4.98v10m0 5v10m0 5v9.98m0 5v10m0 5v10m0 4.98v10m0 5v10m0 5v9.98m0 5v10m0 5v10m0 4.98v10m0 5v10m0 5v9.98m0 5v10m0 5v9.98m0 5v10m0 5v10m0 5v9.98m0 5v10m0 5V833m0 5v10m0 5v10m0 4.98v10m0 5v10m0 5v9.98m0 5v10m0 5v10m0 4.98v10m0 5v10m0 5v9.98m0 5v10m0 5v9.98m0 5v10m0 5v10m0 5v9.98m0 5v10m0 5v9.98m0 5v10m0 5v10m0 4.98v10m0 5v10m0 5v9.98m0 5v10m0 5v10m0 4.98v10m0 5v10m0 5v9.98m0 5v10m0 5v10m0 4.98v10m0 5v10m0 5v9.98m0 5v10m0 5v9.98m0 5v10m0 5v10m0 5v9.98m0 5v10m0 5v9.98m0 5v10m0 5v10m0 4.98v10m0 5v10m0 5v9.98m0 5v10m0 5v10m0 4.98v10m0 5v10m0 5v9.98m0 5v10m0 5v10m0 4.98v10m0 5v5.07l-.03.04-.03.04-.03.03-.03.02h-.02l-.04.03h-.14l-.05-.02h-.03l-.03-.03-.03-.03-.03-.03v-.03l-.02-.04v-5.04m0-5v-10m0-5v-10m0-5v-9.98m0-5v-10m0-5v-9.98m0-5v-10m0-5v-10m0-5v-9.98m0-5v-10m0-5v-9.98m0-5v-10m0-5v-10m0-4.98v-10m0-5v-10m0-5v-9.98m0-5v-10m0-5v-10m0-4.98v-10m0-5v-10m0-5v-9.98m0-5v-10m0-5v-10m0-4.98v-10m0-5v-10m0-5v-9.98m0-5v-10m0-5v-9.98m0-5v-10m0-5v-10m0-5v-9.98m0-5v-10m0-5v-9.98m0-5v-10m0-5v-10m0-4.98v-10m0-5v-10m0-5v-9.98m0-5v-10m0-5v-10m0-4.98v-10m0-5v-10m0-5v-9.98m0-5v-10m0-5v-10m0-4.98v-10m0-5v-10m0-5V913m0-5v-10m0-5V883m0-5v-10m0-5v-10m0-4.98v-10m0-5v-10m0-5v-9.98m0-5v-10m0-5v-10m0-4.98v-10m0-5v-10m0-5v-9.98m0-5v-10m0-5v-10m0-4.98v-10m0-5v-10m0-5v-9.98m0-5v-10m0-5v-9.98m0-5v-10m0-5v-10m0-5v-9.98m0-5v-10m0-5v-9.98m0-5v-10m0-5v-10m0-4.98v-10m0-5v-10m0-5v-9.98m0-5v-10m0-5v-10m0-4.98v-10m0-5v-10m0-5v-9.98m0-5v-10m0-5v-10m0-4.98v-10m0-5v-10m0-5v-9.98m0-5v-10m0-5v-9.98m0-5v-10m0-5v-10m0-5v-9.98m0-5v-10m0-5v-9.98m0-5v-10m0-5v-10m0-4.98v-10m0-5v-10m0-5v-9.98m0-5v-10m0-5v-10m0-4.98v-10m0-5v-10m0-5v-9.98m0-5v-10m0-5v-10m0-4.98v-10m0-5v-10m0-5V-1.5m0-5v-10m0-5v-9.98m0-5v-10m0-5v-10m0-4.98v-10m0-5v-10m0-5v-9.98m0-5v-10m0-5v-10m0-4.98v-10m0-5v-10m0-5v-9.98m0-5v-10m0-5v-5.07l.02-.02.03-.04.02-.03h.02l.03-.03.04-.02H-166.46l.04.02.03.02h.04l.03.04.02.04v.08l.02.04v5" stroke="#3a414a" stroke-width=".5"/></g><path d="M-186.53-135.9a6 6 0 0 1 6-6h27.5a6 6 0 0 1 6 6v1103a6 6 0 0 1-6 6h-27.5a6 6 0 0 1-6-6z" stroke="#3a414a" fill="#fff"/><g fill="none"><path d="M253.47-546.66a.25.25 0 0 1 .25.25v2179a.25.25 0 0 1-.25.24.25.25 0 0 1-.25-.25v-2179a.25.25 0 0 1 .25-.26z"/><path d="M253.72-536.4v10.03m0 5v10.03m0 5v10.02m0 5v10.03m0 5.02v10.02m0 5v10.03m0 5v10.02m0 5v10.02m0 5v10.03m0 5v10.03m0 5v10.02m0 5v10.03m0 5v10.03m0 5V-331m0 5v10m0 5.02v10.02m0 5v10.03m0 5v10.03m0 5v10.02m0 5v10.03m0 5v10.03m0 5v10.03m0 5.02v10.02m0 5v10.02m0 5v10.03m0 5v10.02m0 5v10.03m0 5v10.02m0 5v10.03m0 5v10.03m0 5v10.03m0 5v10.02m0 5v10.03m0 5.02v10.02m0 5v10.03m0 5V-.4m0 5v10.02m0 5v10.03m0 5V44.7m0 5V59.7m0 5v10.03m0 5v10.03m0 5v10.03m0 5v10m0 5.02v10.02m0 5v10.03m0 5v10.03m0 5v10.02m0 5v10.03m0 5V210m0 5v10.03m0 5.02v10.02m0 5v10.02m0 5v10.03m0 5v10.02m0 5v10.03m0 5v10.02m0 5v10.03m0 5v10.03m0 5v10.03m0 5v10.02m0 5v10.03m0 5.02v10.02m0 5v10.03m0 5v10.02m0 5v10.02m0 5v10.03m0 5v10.03m0 5v10.02m0 5v10.03m0 5v10.03m0 5v10.03m0 5v10m0 5.02v10.02m0 5v10.03m0 5v10.03m0 5v10.02m0 5v10.03m0 5v10.03m0 5v10.03m0 5.02v10.02m0 5v10.02m0 5v10.03m0 5v10.02m0 5v10.03m0 5v10.02m0 5V766m0 5v10.03m0 5v10.03m0 5v10.02m0 5v10.03m0 5.02v10.02m0 5v10.03m0 5v10.02m0 5v10.02m0 5v10.03m0 5v10.03m0 5v10.02m0 5v10.03m0 5v10.03m0 5v10.03m0 5v10m0 5.02v10.02m0 5v10.03m0 5v10.03m0 5v10.02m0 5v10.03m0 5v10.03m0 5v10.03m0 5.02v10.02m0 5v10.02m0 5v10.03m0 5v10.02m0 5v10.03m0 5v10.02m0 5v10.03m0 5v10.03m0 5v10.03m0 5v10.02m0 5v10.03m0 5.02v10.02m0 5v10.03m0 5V1307m0 5v10.02m0 5v10.03m0 5v10.03m0 5v10.02m0 5v10.03m0 5v10.03m0 5v10.03m0 5v10m0 5.02v10.02m0 5v10.03m0 5v10.03m0 5v10.02m0 5v10.03m0 5v10.03m0 5v10.03m0 5.02v10.02m0 5v10.02m0 5v10.03m0 5v10.02m0 5v10.03m0 5v10.02m0 5v5.09l-.03.04-.03.04-.03.03-.03.02h-.02l-.04.03h-.14l-.05-.02h-.03l-.03-.03-.03-.03-.03-.03v-.03l-.02-.04v-5.06m0-5v-10.03m0-5v-10.02m0-5v-10.03m0-5v-10.03m0-5v-10.03m0-5v-10.02m0-5v-10.03m0-5.02v-10.02m0-5v-10.03m0-5v-10.02m0-5v-10.02m0-5v-10.03m0-5v-10.03m0-5v-10.02m0-5v-10.03m0-5v-10.03m0-5v-10.03m0-5v-10m0-5.02v-10.02m0-5v-10.03m0-5V1312m0-5v-10.02m0-5v-10.03m0-5v-10.03m0-5v-10.03m0-5.02v-10m0-5.02v-10.02m0-5v-10.03m0-5v-10.02m0-5v-10.03m0-5v-10.02m0-5v-10.03m0-5v-10.03m0-5v-10.03m0-5v-10.02m0-5v-10.03m0-5.02v-10.02m0-5v-10.03m0-5v-10.02m0-5v-10.02m0-5v-10.03m0-5V996.4m0-5V981.4m0-5v-10.03m0-5v-10.03m0-5V936.3m0-5v-10m0-5.02v-10.02m0-5v-10.03m0-5V876.2m0-5v-10.02m0-5v-10.03m0-5V831.1m0-5v-10.03m0-5.02v-10m0-5.02v-10.02m0-5V771m0-5v-10.02m0-5v-10.03m0-5v-10.02m0-5V710.9m0-5v-10.03m0-5v-10.03m0-5v-10.02m0-5v-10.03m0-5.02v-10.02m0-5v-10.03m0-5V605.7m0-5v-10.02m0-5v-10.03m0-5V560.6m0-5V545.6m0-5v-10.03m0-5v-10.03m0-5V500.5m0-5v-10m0-5.02v-10.02m0-5v-10.03m0-5V440.4m0-5v-10.02m0-5v-10.03m0-5V395.3m0-5v-10.03m0-5.02v-10m0-5.02v-10.02m0-5V335.2m0-5v-10.02m0-5v-10.03m0-5v-10.02m0-5V275.1m0-5v-10.03m0-5v-10.03m0-5v-10.02m0-5v-10.03m0-5.02v-10.02m0-5v-10.03m0-5V169.9m0-5v-10.02m0-5v-10.03m0-5V124.8m0-5V109.8m0-5V94.76m0-5V79.73m0-5V64.7m0-5v-10m0-5.02V34.66m0-5V19.62m0-5V4.6m0-5v-10.02m0-5v-10.03m0-5V-40.5m0-5v-10.03m0-5.02v-10m0-5.02v-10.02m0-5v-10.03m0-5v-10.02m0-5v-10.03m0-5v-10.02m0-5v-10.03m0-5v-10.03m0-5v-10.03m0-5v-10.02m0-5v-10.03m0-5.02v-10.02m0-5v-10.03m0-5v-10.02m0-5v-10.02m0-5v-10.03m0-5V-311m0-5V-326m0-5v-10.03m0-5v-10.03m0-5v-10.03m0-5v-10m0-5.02v-10.02m0-5v-10.03m0-5v-10.03m0-5v-10.02m0-5v-10.03m0-5v-10.03m0-5v-10.03m0-5.02v-10m0-5.02v-10.02m0-5v-10.03m0-5v-5.09l.02-.02.03-.04.02-.03h.02l.03-.03.04-.02H253.54l.04.02.03.02h.04l.03.04.02.04v.08l.02.04v5" stroke="#3a414a" stroke-width=".5"/></g><path d="M232.97-450.9a6 6 0 0 1 6-6h28a6 6 0 0 1 6 6v1398a6 6 0 0 1-6 6h-28a6 6 0 0 1-6-6zM73.47-620.9a6 6 0 0 1 6-6h348a6 6 0 0 1 6 6v108a6 6 0 0 1-6 6h-348a6 6 0 0 1-6-6z" stroke="#3a414a" fill="#fff"/><path d="M109.47-626.9v120m288-120v120" stroke="#3a414a" fill="none"/><use xlink:href="#l" transform="matrix(1,0,0,1,123.46709302048475,-621.9079509869641) translate(56.111111111111114 59.44444444444444)"/><g fill="none"><path d="M1052.97-506.66a.25.25 0 0 1 .25.25v2139a.25.25 0 0 1-.25.24.25.25 0 0 1-.25-.25v-2139a.25.25 0 0 1 .25-.26z"/><path d="M1053.22-496.44v9.98m0 4.98v9.97m0 4.98v9.97m0 5v9.96m0 5v9.97m0 4.98v9.98m0 4.98v9.98m0 5v9.96m0 5v9.96m0 5v9.96m0 4.98v9.98m0 4.98v9.97m0 5v9.96m0 5v9.96m0 4.98v9.97m0 4.98v9.98m0 5v9.96m0 5v9.96m0 5v9.96m0 5v9.96m0 4.98v9.98m0 4.98v9.97m0 5v9.96m0 5v9.97m0 5v9.96m0 4.98v10m0 4.97v9.97m0 5v9.96m0 5v9.96m0 5v9.96m0 4.98v9.98m0 4.98v9.97m0 5v9.96m0 4.98v9.97m0 5v9.96m0 5v9.97m0 4.98v9.98m0 4.98V67m0 5v9.96m0 5v9.96m0 5v9.96m0 4.98v9.98m0 4.98v9.97m0 5v9.96m0 5v9.96m0 4.98v9.97m0 4.98v9.98m0 5v9.96m0 5v9.96m0 5v9.96m0 5v9.96m0 4.98v9.98m0 4.98v9.97m0 5v9.96m0 5v9.97m0 5v9.96m0 4.98v10m0 4.97v9.97m0 5v9.96m0 5v9.96m0 5V411m0 4.98v9.98m0 4.98v9.97m0 5v9.96m0 4.98v9.97m0 5v9.96m0 5v9.97m0 4.98v9.97m0 5v9.96m0 5v9.96m0 5v9.96m0 4.98v9.98m0 4.98v9.97m0 5v9.97m0 5v9.96m0 5v9.96m0 4.97v9.98m0 4.98v9.97m0 5v9.96m0 5v9.96m0 5v9.96m0 5v9.96m0 4.98v9.98m0 4.98v9.97m0 5V770m0 5v9.97m0 5v9.96m0 4.98v10m0 4.97v9.97m0 5v9.96m0 5v9.96m0 5v9.96m0 4.98v9.98m0 4.98v9.97m0 5v9.96m0 4.98v9.97m0 5v9.96m0 5v9.97m0 4.98v9.97m0 5v9.96m0 5v9.96m0 5v9.96m0 4.98v9.98m0 4.98v9.97m0 5v9.97m0 5v9.96m0 5v9.96m0 4.97v9.98m0 4.98v9.97m0 5v9.96m0 5v9.96m0 5v9.96m0 4.98v9.98m0 4.98v9.97m0 4.98v9.97m0 5v9.96m0 5v9.97m0 4.98v9.98m0 4.98v9.98m0 5v9.96m0 5v9.96m0 5v9.96m0 4.98v9.98m0 4.98v9.97m0 5v9.96m0 5v9.96m0 4.98v9.97m0 4.98v9.98m0 5v9.97m0 4.98v9.97m0 5v9.96m0 5v9.96m0 5v9.96m0 4.98v9.98m0 4.98v9.97m0 5v9.97m0 5v9.96m0 5v9.96m0 4.97v9.98m0 4.98v9.97m0 5v9.96m0 5v9.96m0 5v5.04l-.03.04-.03.04-.03.03-.03.02h-.02l-.04.03h-.14l-.05-.02h-.03l-.03-.03-.03-.03-.03-.03v-.03l-.02-.04v-5.04m0-4.98v-9.97m0-5v-9.96m0-5v-9.97m0-4.98v-9.98m0-4.98v-9.98m0-5v-9.96m0-5v-9.96m0-5v-9.96m0-4.98v-9.98m0-4.98v-9.97m0-5v-9.96m0-5v-9.96m0-4.98v-9.97m0-4.98v-9.98m0-5v-9.97m0-4.98v-9.97m0-5v-9.96m0-5v-9.96m0-5v-9.96m0-4.98v-9.98m0-4.98v-9.97m0-5v-9.97m0-5v-9.96m0-5v-9.96m0-4.97v-9.98m0-4.98v-9.97m0-5v-9.96m0-5v-9.96m0-5v-9.96m0-4.98v-9.98m0-4.98v-9.97m0-4.98v-9.97m0-5V1134m0-5v-9.97m0-4.98v-9.98m0-4.98v-9.98m0-5v-9.96m0-5v-9.96m0-5v-9.96m0-4.98v-9.98m0-4.98v-9.97m0-5v-9.96m0-5v-9.96m0-4.98v-9.97m0-4.98v-9.98m0-5v-9.96m0-5v-9.96m0-5v-9.96m0-5v-9.96m0-4.98v-9.98m0-4.98v-9.97m0-5v-9.96m0-5v-9.97m0-5v-9.96m0-4.98v-10m0-4.97v-9.97m0-5V775m0-5v-9.96m0-5v-9.96m0-4.98v-9.98m0-4.98v-9.97m0-5v-9.96m0-4.98v-9.97m0-5v-9.96m0-5v-9.97m0-4.98v-9.98m0-4.98v-9.98m0-5v-9.96m0-5v-9.96m0-5v-9.96m0-4.98v-9.98m0-4.98v-9.97m0-5v-9.96m0-5v-9.96m0-4.98v-9.97m0-4.98v-9.98m0-5v-9.96m0-5v-9.96m0-5v-9.96m0-5v-9.96m0-4.98V416m0-4.98v-9.97m0-5v-9.96m0-5v-9.97m0-5v-9.96m0-4.98v-10m0-4.97v-9.97m0-5v-9.96m0-5v-9.96m0-5v-9.96m0-4.98v-9.98m0-4.98v-9.97m0-5v-9.96m0-4.98v-9.97m0-5v-9.96m0-5v-9.97m0-4.98v-9.97m0-5v-9.96m0-5v-9.96m0-5v-9.96m0-4.98v-9.98m0-4.98v-9.97m0-5v-9.97m0-5v-9.96m0-5v-9.96m0-4.97v-9.98m0-4.98V27.1m0-5v-9.96m0-5V-2.8m0-5v-9.96m0-5v-9.96m0-4.98v-9.98m0-4.98v-9.97m0-5v-9.96m0-5v-9.97m0-5v-9.96m0-4.98v-10m0-4.97v-9.97m0-5v-9.96m0-5v-9.96m0-5v-9.96m0-4.98v-9.98m0-4.98v-9.97m0-5v-9.96m0-4.98v-9.97m0-5v-9.96m0-5v-9.97m0-4.98v-9.97m0-5v-9.96m0-5v-9.96m0-5v-9.96m0-4.98v-9.98m0-4.98v-9.97m0-5v-9.97m0-5v-9.96m0-5v-9.96m0-4.97v-9.98m0-4.98v-9.97m0-5v-9.96m0-5v-9.96m0-5v-9.96m0-4.98v-9.98m0-4.98v-5.07l.02-.02.03-.04.02-.03h.02l.03-.03.04-.02H1053.04l.04.02.03.02h.04l.03.04.02.04v.08l.02.04v4.98" stroke="#3a414a" stroke-width=".5"/></g><path d="M1031.94 479.1a6 6 0 0 1 6-6h28.53a6 6 0 0 1 6 6v268a6 6 0 0 1-6 6h-28.53a6 6 0 0 1-6-6zM872.97-620.9a6 6 0 0 1 6-6h348a6 6 0 0 1 6 6v108a6 6 0 0 1-6 6h-348a6 6 0 0 1-6-6z" stroke="#3a414a" fill="#fff"/><path d="M908.97-626.9v120m288-120v120" stroke="#3a414a" fill="none"/><use xlink:href="#m" transform="matrix(1,0,0,1,922.9670930204848,-621.9079509869641) translate(58.48765432098766 59.44444444444444)"/><path d="M-487.03-20.9a6 6 0 0 1 6-6h228a6 6 0 0 1 6 6v29a6 6 0 0 1-6 6h-228a6 6 0 0 1-6-6z" stroke="#000" stroke-opacity="0" fill="#fff" fill-opacity="0"/><use xlink:href="#n" transform="matrix(1,0,0,1,-482.03290697951525,-21.907950986964124) translate(-32.19135802469134 19.944444444444443)"/><path d="M-546.03 23.5h342.61" stroke="#3a414a" fill="none"/><path d="M-546.02 24h-.5v-1h.5z" stroke="#3a414a" stroke-width=".05" fill="#3a414a"/><path d="M-188.65 23.5l-14.27 4.64v-9.27z" stroke="#3a414a" fill="#3a414a"/><path d="M-146.03 153.97h362.1" stroke="#3a414a" fill="none"/><path d="M-146.02 154.47h-.5v-1h.5z" stroke="#3a414a" stroke-width=".05" fill="#3a414a"/><path d="M230.85 153.97l-14.27 4.63v-9.27z" stroke="#3a414a" fill="#3a414a"/><path d="M451.97 159.1a6 6 0 0 1 6-6h268a6 6 0 0 1 6 6v108a6 6 0 0 1-6 6h-268a6 6 0 0 1-6-6z" stroke="#3a414a" fill="#fff"/><use xlink:href="#o" transform="matrix(1,0,0,1,456.96709302048475,158.09204901303588) translate(11.018518518518505 59.02777777777778)"/><use xlink:href="#p" transform="matrix(1,0,0,1,456.96709302048475,158.09204901303588) translate(129.4753086419753 59.02777777777778)"/><use xlink:href="#q" transform="matrix(1,0,0,1,456.96709302048475,158.09204901303588) translate(141.820987654321 59.02777777777778)"/><g fill="none"><path d="M592.47 273.34a.25.25 0 0 1 .25.25v1359a.25.25 0 0 1-.25.24.25.25 0 0 1-.25-.25v-1359a.25.25 0 0 1 .25-.26z"/><path d="M592.72 283.55v9.95m0 4.98v9.96m0 4.98v9.95m0 4.98v9.96m0 4.98v9.96m0 4.98v9.95m0 4.98v9.96m0 5v9.94m0 4.98v9.96m0 4.97v9.96m0 5v9.94m0 4.98v9.96m0 4.98v9.95m0 5v9.95m0 4.97v9.96m0 4.98v9.95m0 5v9.95m0 4.98v9.95m0 4.98v9.96m0 4.97v9.95m0 4.98v9.95m0 4.98v9.96m0 4.98v9.95m0 4.98V637m0 4.97v9.95m0 4.98v9.96m0 4.97v9.96m0 4.97v9.95m0 4.98v9.96m0 4.98v9.95m0 4.97v9.96m0 4.97v9.96m0 4.98v9.95m0 4.97v9.96m0 4.98v9.96m0 4.98v9.96m0 4.97v9.96m0 4.98v9.96m0 4.98V861m0 4.98v9.95m0 4.98v9.97m0 4.97v9.96m0 4.98v9.95m0 4.98v9.97m0 4.98v9.95m0 4.98v9.96m0 4.97v9.97m0 4.98v9.95m0 4.98v9.96m0 4.98v9.95m0 4.98v9.96m0 4.98v9.96m0 4.98v9.96m0 4.97v9.96m0 5v9.94m0 4.98v9.96m0 4.98v9.95m0 5v9.95m0 4.97v9.96m0 4.98v9.95m0 5v9.95m0 4.98v9.95m0 4.98v9.96m0 4.97v9.95m0 4.98v9.95m0 4.98v9.96m0 4.98v9.95m0 4.98v9.96m0 4.96v9.96m0 4.98v9.95m0 4.98v9.96m0 4.97v9.95m0 4.98v9.96m0 4.97v9.96m0 4.97v9.95m0 4.98v9.96m0 4.98v9.95m0 4.97v9.96m0 4.97v9.96m0 4.98v9.95m0 4.97v9.96m0 4.98v9.96m0 4.98v9.96m0 4.98v9.95m0 4.98v9.97m0 4.97v9.96m0 4.98v9.95m0 4.98v9.97m0 4.98v9.95m0 4.98v9.96m0 4.97v5.07l-.03.04-.03.04-.03.03-.03.02h-.02l-.04.03h-.14l-.05-.02h-.03l-.03-.03-.03-.03-.03-.03v-.03l-.02-.04v-5.04m0-4.96v-9.96m0-4.98v-9.95m0-4.98v-9.96m0-4.97v-9.95m0-4.98v-9.96m0-4.97V1538m0-4.97v-9.95m0-4.98v-9.96m0-4.98v-9.95m0-4.97v-9.96m0-4.98v-9.96m0-4.98v-9.96m0-4.97v-9.96m0-4.98v-9.96m0-4.98v-9.96m0-4.98v-9.95m0-4.98v-9.97m0-4.97v-9.96m0-4.98v-9.95m0-4.98v-9.97m0-4.98V1314m0-4.98v-9.96m0-4.97v-9.97m0-4.98v-9.95m0-4.98v-9.96m0-4.98v-9.95m0-4.98v-9.96m0-4.98v-9.96m0-4.98v-9.95m0-4.98v-9.96m0-5v-9.94m0-4.98v-9.96m0-4.97v-9.96m0-5v-9.94m0-4.98v-9.96m0-4.98V1090m0-5v-9.95m0-4.97v-9.96m0-4.98v-9.96m0-4.97v-9.95m0-4.98v-9.95m0-4.98v-9.96m0-4.98v-9.95m0-4.98v-9.96m0-4.96v-9.96m0-4.98v-9.95m0-4.98v-9.96m0-4.97v-9.95m0-4.98v-9.96m0-4.97v-9.96m0-4.97v-9.95m0-4.98v-9.96m0-4.98v-9.95m0-4.97v-9.96m0-4.97v-9.96m0-4.98v-9.95m0-4.97v-9.96m0-4.98v-9.96m0-4.98v-9.96m0-4.97v-9.96m0-4.98v-9.96m0-4.98v-9.96m0-4.98v-9.95m0-4.98v-9.97m0-4.97v-9.96m0-4.98v-9.95m0-4.98v-9.97m0-4.98v-9.95m0-4.98v-9.96m0-4.98v-9.95m0-4.98v-9.96m0-4.98v-9.96m0-4.98v-9.95m0-4.98v-9.96m0-5v-9.94m0-4.98v-9.96m0-4.97v-9.96m0-5v-9.94m0-4.98v-9.96m0-4.98v-9.95m0-5v-9.95m0-4.97v-9.96m0-4.98v-9.95m0-5v-9.95m0-4.98v-9.95m0-4.98v-9.96m0-4.97v-9.95m0-4.98v-9.95m0-4.98v-9.96m0-4.98v-9.95m0-4.98v-5.07l.02-.02.03-.04.02-.03h.02l.03-.03.04-.02H592.54l.04.02.03.02h.04l.03.04.02.04v.08l.02.04v4.97" stroke="#3a414a" stroke-width=".5"/></g><path d="M273.97 213.1h4.9m4.93 0h9.83m4.92 0h9.83m4.92 0h9.83m4.92 0h9.83m4.92 0h9.83m4.92 0h9.82m4.88 0h9.8m4.9 0h9.77m4.9 0h9.8m4.88 0h9.8m4.88 0h9.8m4.88 0h4.9" stroke="#3a414a" fill="none"/><path d="M273.98 213.6h-.5v-1h.5z" stroke="#3a414a" stroke-width=".05" fill="#3a414a"/><path d="M433.27 223.27l17.2-10.18-17.2-10.2M273.97 519.92h741.1" stroke="#3a414a" fill="none"/><path d="M273.98 520.42h-.5v-1h.5z" stroke="#3a414a" stroke-width=".05" fill="#3a414a"/><path d="M1029.83 519.92l-14.27 4.64v-9.27z" stroke="#3a414a" fill="#3a414a"/><path d="M412.97 582.42a6 6 0 0 1 6-6h449a6 6 0 0 1 6 6v51.34a6 6 0 0 1-6 6h-449a6 6 0 0 1-6-6z" stroke="#000" stroke-opacity="0" fill="#fff" fill-opacity="0"/><use xlink:href="#r" transform="matrix(1,0,0,1,417.96709302048475,581.4253823463694) translate(12.691358024691368 31.27777777777778)"/><use xlink:href="#s" transform="matrix(1,0,0,1,417.96709302048475,581.4253823463694) translate(124.79012345679014 31.27777777777778)"/><use xlink:href="#t" transform="matrix(1,0,0,1,417.96709302048475,581.4253823463694) translate(143.92592592592595 31.27777777777778)"/><path d="M1030.94 654.84h-5.04m-5.05 0h-10.1m-5.04 0h-10.08m-5.05 0h-10.1m-5.04 0h-10.1m-5.04 0h-10.1m-5.05 0h-10.1m-5.04 0h-10.08m-5.05 0h-10.1m-5.03 0h-10.1m-5.04 0h-10.1m-5.04 0h-10.1m-5.04 0h-10.1m-5.04 0h-10.1m-5.04 0h-10.1m-5.04 0h-10.1m-5.04 0h-10.1m-5.04 0h-10.1m-5.04 0h-10.1m-5.04 0h-10.1m-5.04 0h-10.1m-5.04 0h-10.1m-5.04 0h-10.1m-5.04 0h-10.1m-5.04 0h-10.1m-5.04 0h-10.08m-5.04 0H632.3m-5.02 0H617.2m-5.03 0H602.1m-5.04 0H587m-5.05 0h-10.07m-5.04 0h-10.07m-5.04 0h-10.07m-5.04 0h-10.07m-5.03 0h-10.08m-5.03 0h-10.06m-5.04 0h-10.07m-5.04 0H466.1m-5.04 0H451m-5.03 0H435.9m-5.04 0H420.8m-5.04 0h-10.08m-5.03 0h-10.07m-5.04 0h-10.07m-5.04 0h-10.07m-5.04 0h-10.07m-5.04 0h-10.06m-5.03 0h-10.07m-5.03 0h-10.08m-5.03 0h-5.05" stroke="#3a414a" fill="none"/><path d="M1031.44 655.34h-.5v-1h.5z" stroke="#3a414a" stroke-width=".05" fill="#3a414a"/><path d="M275.1 654.84l14.25-4.64v9.27z" stroke="#3a414a" fill="#3a414a"/><path d="M231.97 876.3h-4.85m-4.84 0h-9.7m-4.84 0h-9.7m-4.84 0h-9.7m-4.84 0h-9.7m-4.84 0h-9.7m-4.84 0h-9.7m-4.84 0h-9.7m-4.83 0h-9.7m-4.83 0h-9.7m-4.84 0h-9.7m-4.84 0h-9.7m-4.85 0h-9.7m-4.84 0H38.18m-4.82 0h-9.62m-4.8 0H9.3m-4.8 0h-9.62m-4.8 0h-9.63m-4.8 0h-9.62m-4.8 0h-9.63m-4.8 0h-9.63m-4.8 0h-9.62m-4.8 0h-9.63m-4.8 0h-9.62m-4.8 0h-9.63m-4.8 0h-4.82" stroke="#3a414a" fill="none"/><path d="M232.47 876.8h-.52v-1h.52z" stroke="#3a414a" stroke-width=".05" fill="#3a414a"/><path d="M-144.9 876.3l14.25-4.63v9.27z" stroke="#3a414a" fill="#3a414a"/><path d="M-187.53 959.78h-4.98m-5 0h-9.95m-4.98 0h-9.96m-4.97 0h-9.95m-4.98 0h-9.96m-4.98 0h-9.96m-4.98 0h-9.96m-4.98 0h-9.95m-4.98 0H-312m-5 0h-9.95m-4.98 0h-9.96m-4.97 0h-9.95m-4.98 0h-9.93m-4.95 0h-9.9m-4.96 0h-9.9m-4.95 0h-9.9m-4.94 0h-9.9m-4.95 0h-9.9m-4.94 0h-9.9m-4.95 0h-9.9m-4.94 0h-9.9m-4.95 0h-9.9m-4.95 0h-9.9m-4.95 0h-4.95" stroke="#3a414a" fill="none"/><path d="M-187.03 960.28h-.52v-1h.52z" stroke="#3a414a" stroke-width=".05" fill="#3a414a"/><path d="M-544.9 959.78l14.25-4.63v9.27z" stroke="#3a414a" fill="#3a414a"/><path d="M-576.78 1079.1a6 6 0 0 1 6-6h37.75a6 6 0 0 1 6 6v88a6 6 0 0 1-6 6h-37.75a6 6 0 0 1-6-6z" stroke="#3a414a" fill="#fff"/><path d="M-546.03 1041.55h53.5a6 6 0 0 1 6 6v69.54a6 6 0 0 1-6 6h-17.62" stroke="#3a414a" fill="none"/><path d="M-546.02 1042.05h-.5v-1h.5z" stroke="#3a414a" stroke-width=".05" fill="#3a414a"/><path d="M-524.9 1123.1l14.25-4.64v9.27z" stroke="#3a414a" fill="#3a414a"/><path d="M-526.03 1150.2h5.58m5.58 0h11.17m5.58 0h5.6l.93.08.92.22.87.36.8.5.7.6.62.72.5.8.35.87.22.92.07.94v4.77m0 4.76v9.53m0 4.76v9.52m0 4.77v9.53m0 4.76v4.76l-.08.93-.23.9-.36.88-.48.8-.6.72-.73.6-.8.5-.88.36-.9.22-.95.08h-4.18m-4.2 0h-8.35m-4.18 0h-8.36m-4.17 0h-4.18" stroke="#3a414a" fill="none"/><path d="M-526.02 1150.7h-.5v-1h.5z" stroke="#3a414a" stroke-width=".05" fill="#3a414a"/><path d="M-544.9 1219.36l14.25-4.64v9.27z" stroke="#3a414a" fill="#3a414a"/><path d="M-867.03 1293.1h200.55v36.66h-200.55z" fill="#fff" fill-opacity="0"/><use xlink:href="#u" transform="matrix(1,0,0,1,-862.0329069795152,1298.0920490130359) translate(0 17.77777777777778)"/><path d="M-487.03 1059.1a6 6 0 0 1 6-6h276.47a6 6 0 0 1 6 6v51.33a6 6 0 0 1-6 6h-276.47a6 6 0 0 1-6-6z" stroke="#000" stroke-opacity="0" fill="#fff" fill-opacity="0"/><use xlink:href="#v" transform="matrix(1,0,0,1,-482.03290697951525,1058.0920490130356) translate(9.777777777777828 31.27777777777778)"/><path d="M-567.53 1319.1a6 6 0 0 1 6-6h37.75a6 6 0 0 1 6 6v88a6 6 0 0 1-6 6h-37.75a6 6 0 0 1-6-6z" stroke="#3a414a" fill="#fff"/><path d="M-546.03 1286.53h62.75a6 6 0 0 1 6 6v64.56a6 6 0 0 1-6 6h-17.62" stroke="#3a414a" fill="none"/><path d="M-546.02 1287.03h-.5v-1h.5z" stroke="#3a414a" stroke-width=".05" fill="#3a414a"/><path d="M-515.66 1363.1l14.26-4.64v9.27z" stroke="#3a414a" fill="#3a414a"/><path d="M-516.78 1391.23h5.58m5.58 0h11.17m5.58 0h5.6l.93.08.9.23.88.36.8.48.72.6.6.73.5.8.36.88.22.92.08.93v4.87m0 4.86v9.73m0 4.85v9.73m0 4.86v9.73m0 4.86v9.73m0 4.86v4.87l-.08.92-.22.92-.36.87-.5.8-.6.73-.72.6-.8.5-.87.36-.9.2-.95.1h-5.2m-5.22 0h-10.4m-5.22 0h-10.4m-5.22 0h-5.2" stroke="#3a414a" fill="none"/><path d="M-516.77 1391.73h-.5v-1h.5z" stroke="#3a414a" stroke-width=".05" fill="#3a414a"/><path d="M-544.9 1476.2l14.25-4.65v9.27z" stroke="#3a414a" fill="#3a414a"/><path d="M-507.03 1299.1a6 6 0 0 1 6-6h276.47a6 6 0 0 1 6 6v51.33a6 6 0 0 1-6 6h-276.47a6 6 0 0 1-6-6z" stroke="#000" stroke-opacity="0" fill="#fff" fill-opacity="0"/><use xlink:href="#w" transform="matrix(1,0,0,1,-502.03290697951525,1298.0920490130359) translate(40.919753086419774 31.27777777777778)"/><path d="M-87.03 117.8a6 6 0 0 1 6-6h228a6 6 0 0 1 6 6v29a6 6 0 0 1-6 6h-228a6 6 0 0 1-6-6z" stroke="#000" stroke-opacity="0" fill="#fff" fill-opacity="0"/><g><use xlink:href="#n" transform="matrix(1,0,0,1,-82.03290697951525,116.80056547672405) translate(-32.19135802469134 19.944444444444443)"/></g><path d="M512.97 478.43a6 6 0 0 1 6-6h228a6 6 0 0 1 6 6v29a6 6 0 0 1-6 6h-228a6 6 0 0 1-6-6z" stroke="#000" stroke-opacity="0" fill="#fff" fill-opacity="0"/><g><use xlink:href="#n" transform="matrix(1,0,0,1,517.9670930204848,477.4278902489252) translate(-32.19135802469134 19.944444444444443)"/></g><path d="M-139.54 800.16a6 6 0 0 1 6-6h353a6 6 0 0 1 6 6v51.33a6 6 0 0 1-6 6h-353a6 6 0 0 1-6-6z" stroke="#000" stroke-opacity="0" fill="#fff" fill-opacity="0"/><g><use xlink:href="#r" transform="matrix(1,0,0,1,-134.53863058737443,799.1581395548865) translate(115.46913580246914 21.15277777777778)"/><use xlink:href="#x" transform="matrix(1,0,0,1,-134.53863058737443,799.1581395548865) translate(227.5679012345679 21.15277777777778)"/><use xlink:href="#t" transform="matrix(1,0,0,1,-134.53863058737443,799.1581395548865) translate(30.80864197530866 47.81944444444444)"/></g><path d="M-507.53 885.2a6 6 0 0 1 6-6h282.34a6 6 0 0 1 6 6v51.33a6 6 0 0 1-6 6h-282.33a6 6 0 0 1-6-6z" stroke="#000" stroke-opacity="0" fill="#fff" fill-opacity="0"/><g><use xlink:href="#r" transform="matrix(1,0,0,1,-502.53290697951525,884.2016383117484) translate(79.96913580246914 18.111111111111114)"/><use xlink:href="#x" transform="matrix(1,0,0,1,-502.53290697951525,884.2016383117484) translate(192.0679012345679 18.111111111111114)"/><use xlink:href="#t" transform="matrix(1,0,0,1,-502.53290697951525,884.2016383117484) translate(-4.69135802469134 44.777777777777786)"/></g><defs><path d="M137-138c1-29-70-34-71-4 15 46 118 7 119 86 1 83-164 76-172 9l43-7c4 19 20 25 44 25 33 8 57-30 24-41C81-84 22-81 20-136c-2-80 154-74 161-7" id="y"/><path d="M88-194c31-1 46 15 58 34l-1-101h50l1 261h-48c-2-10 0-23-3-31C134-8 116 4 84 4 32 4 16-41 15-95c0-56 19-97 73-99zm17 164c33 0 40-30 41-66 1-37-9-64-41-64s-38 30-39 65c0 43 13 65 39 65" id="z"/><g id="a"><use transform="matrix(0.05,0,0,0.05,0,0)" xlink:href="#y"/><use transform="matrix(0.05,0,0,0.05,10,0)" xlink:href="#z"/></g><path d="M233-177c-1 41-23 64-60 70L243 0h-38l-65-103H63V0H30v-248c88 3 205-21 203 71zM63-129c60-2 137 13 137-47 0-61-80-42-137-45v92" id="A"/><path d="M100-194c63 0 86 42 84 106H49c0 40 14 67 53 68 26 1 43-12 49-29l28 8c-11 28-37 45-77 45C44 4 14-33 15-96c1-61 26-98 85-98zm52 81c6-60-76-77-97-28-3 7-6 17-6 28h103" id="B"/><path d="M145-31C134-9 116 4 85 4 32 4 16-35 15-94c0-59 17-99 70-100 32-1 48 14 60 33 0-11-1-24 2-32h30l-1 268h-32zM93-21c41 0 51-33 51-76s-8-73-50-73c-40 0-46 35-46 75s5 74 45 74" id="C"/><path d="M84 4C-5 8 30-112 23-190h32v120c0 31 7 50 39 49 72-2 45-101 50-169h31l1 190h-30c-1-10 1-25-2-33-11 22-28 36-60 37" id="D"/><path d="M135-143c-3-34-86-38-87 0 15 53 115 12 119 90S17 21 10-45l28-5c4 36 97 45 98 0-10-56-113-15-118-90-4-57 82-63 122-42 12 7 21 19 24 35" id="E"/><path d="M59-47c-2 24 18 29 38 22v24C64 9 27 4 27-40v-127H5v-23h24l9-43h21v43h35v23H59v120" id="F"/><g id="b"><use transform="matrix(0.05,0,0,0.05,0,0)" xlink:href="#A"/><use transform="matrix(0.05,0,0,0.05,12.950000000000001,0)" xlink:href="#B"/><use transform="matrix(0.05,0,0,0.05,22.950000000000003,0)" xlink:href="#C"/><use transform="matrix(0.05,0,0,0.05,32.95,0)" xlink:href="#D"/><use transform="matrix(0.05,0,0,0.05,42.95,0)" xlink:href="#B"/><use transform="matrix(0.05,0,0,0.05,52.95,0)" xlink:href="#E"/><use transform="matrix(0.05,0,0,0.05,61.95,0)" xlink:href="#F"/></g><path d="M30 0v-248h187v28H63v79h144v27H63v87h162V0H30" id="G"/><path d="M141 0L90-78 38 0H4l68-98-65-92h35l48 74 47-74h35l-64 92 68 98h-35" id="H"/><path d="M117-194c89-4 53 116 60 194h-32v-121c0-31-8-49-39-48C34-167 62-67 57 0H25l-1-190h30c1 10-1 24 2 32 11-22 29-35 61-36" id="I"/><path d="M24-231v-30h32v30H24zM24 0v-190h32V0H24" id="J"/><path d="M100-194c62-1 85 37 85 99 1 63-27 99-86 99S16-35 15-95c0-66 28-99 85-99zM99-20c44 1 53-31 53-75 0-43-8-75-51-75s-53 32-53 75 10 74 51 75" id="K"/><g id="c"><use transform="matrix(0.05,0,0,0.05,0,0)" xlink:href="#G"/><use transform="matrix(0.05,0,0,0.05,12,0)" xlink:href="#H"/><use transform="matrix(0.05,0,0,0.05,21,0)" xlink:href="#F"/><use transform="matrix(0.05,0,0,0.05,26,0)" xlink:href="#B"/><use transform="matrix(0.05,0,0,0.05,36,0)" xlink:href="#I"/><use transform="matrix(0.05,0,0,0.05,46,0)" xlink:href="#E"/><use transform="matrix(0.05,0,0,0.05,55,0)" xlink:href="#J"/><use transform="matrix(0.05,0,0,0.05,58.95,0)" xlink:href="#K"/><use transform="matrix(0.05,0,0,0.05,68.95,0)" xlink:href="#I"/></g><path fill="#3a414a" d="M30 0v-248h187v28H63v79h144v27H63v87h162V0H30" id="L"/><path fill="#3a414a" d="M210-169c-67 3-38 105-44 169h-31v-121c0-29-5-50-35-48C34-165 62-65 56 0H25l-1-190h30c1 10-1 24 2 32 10-44 99-50 107 0 11-21 27-35 58-36 85-2 47 119 55 194h-31v-121c0-29-5-49-35-48" id="M"/><path fill="#3a414a" d="M115-194c55 1 70 41 70 98S169 2 115 4C84 4 66-9 55-30l1 105H24l-1-265h31l2 30c10-21 28-34 59-34zm-8 174c40 0 45-34 45-75s-6-73-45-74c-42 0-51 32-51 76 0 43 10 73 51 73" id="N"/><path fill="#3a414a" d="M24 0v-261h32V0H24" id="O"/><path fill="#3a414a" d="M100-194c62-1 85 37 85 99 1 63-27 99-86 99S16-35 15-95c0-66 28-99 85-99zM99-20c44 1 53-31 53-75 0-43-8-75-51-75s-53 32-53 75 10 74 51 75" id="P"/><path fill="#3a414a" d="M179-190L93 31C79 59 56 82 12 73V49c39 6 53-20 64-50L1-190h34L92-34l54-156h33" id="Q"/><path fill="#3a414a" d="M100-194c63 0 86 42 84 106H49c0 40 14 67 53 68 26 1 43-12 49-29l28 8c-11 28-37 45-77 45C44 4 14-33 15-96c1-61 26-98 85-98zm52 81c6-60-76-77-97-28-3 7-6 17-6 28h103" id="R"/><g id="d"><use transform="matrix(0.06172839506172839,0,0,0.06172839506172839,0,0)" xlink:href="#L"/><use transform="matrix(0.06172839506172839,0,0,0.06172839506172839,14.814814814814813,0)" xlink:href="#M"/><use transform="matrix(0.06172839506172839,0,0,0.06172839506172839,33.2716049382716,0)" xlink:href="#N"/><use transform="matrix(0.06172839506172839,0,0,0.06172839506172839,45.61728395061728,0)" xlink:href="#O"/><use transform="matrix(0.06172839506172839,0,0,0.06172839506172839,50.49382716049382,0)" xlink:href="#P"/><use transform="matrix(0.06172839506172839,0,0,0.06172839506172839,62.8395061728395,0)" xlink:href="#Q"/><use transform="matrix(0.06172839506172839,0,0,0.06172839506172839,73.9506172839506,0)" xlink:href="#R"/><use transform="matrix(0.06172839506172839,0,0,0.06172839506172839,86.29629629629629,0)" xlink:href="#R"/></g><path fill="#3a414a" d="M205 0l-28-72H64L36 0H1l101-248h38L239 0h-34zm-38-99l-47-123c-12 45-31 82-46 123h93" id="S"/><path fill="#3a414a" d="M59-47c-2 24 18 29 38 22v24C64 9 27 4 27-40v-127H5v-23h24l9-43h21v43h35v23H59v120" id="T"/><g id="e"><use transform="matrix(0.06172839506172839,0,0,0.06172839506172839,0,0)" xlink:href="#S"/><use transform="matrix(0.06172839506172839,0,0,0.06172839506172839,14.814814814814813,0)" xlink:href="#O"/><use transform="matrix(0.06172839506172839,0,0,0.06172839506172839,19.691358024691354,0)" xlink:href="#T"/></g><path fill="#3a414a" d="M26 75v-336h71v23H56V52h41v23H26" id="U"/><path fill="#3a414a" d="M141-36C126-15 110 5 73 4 37 3 15-17 15-53c-1-64 63-63 125-63 3-35-9-54-41-54-24 1-41 7-42 31l-33-3c5-37 33-52 76-52 45 0 72 20 72 64v82c-1 20 7 32 28 27v20c-31 9-61-2-59-35zM48-53c0 20 12 33 32 33 41-3 63-29 60-74-43 2-92-5-92 41" id="V"/><path fill="#3a414a" d="M135-143c-3-34-86-38-87 0 15 53 115 12 119 90S17 21 10-45l28-5c4 36 97 45 98 0-10-56-113-15-118-90-4-57 82-63 122-42 12 7 21 19 24 35" id="W"/><path fill="#3a414a" d="M143 0L79-87 56-68V0H24v-261h32v163l83-92h37l-77 82L181 0h-38" id="X"/><path fill="#3a414a" d="M232-93c-1 65-40 97-104 97C67 4 28-28 28-90v-158h33c8 89-33 224 67 224 102 0 64-133 71-224h33v155" id="Y"/><path fill="#3a414a" d="M85-194c31 0 48 13 60 33l-1-100h32l1 261h-30c-2-10 0-23-3-31C134-8 116 4 85 4 32 4 16-35 15-94c0-66 23-100 70-100zm9 24c-40 0-46 34-46 75 0 40 6 74 45 74 42 0 51-32 51-76 0-42-9-74-50-73" id="Z"/><g id="f"><use transform="matrix(0.06172839506172839,0,0,0.06172839506172839,0,0)" xlink:href="#U"/><use transform="matrix(0.06172839506172839,0,0,0.06172839506172839,6.172839506172839,0)" xlink:href="#T"/><use transform="matrix(0.06172839506172839,0,0,0.06172839506172839,12.345679012345679,0)" xlink:href="#V"/><use transform="matrix(0.06172839506172839,0,0,0.06172839506172839,24.691358024691358,0)" xlink:href="#W"/><use transform="matrix(0.06172839506172839,0,0,0.06172839506172839,35.80246913580247,0)" xlink:href="#X"/><use transform="matrix(0.06172839506172839,0,0,0.06172839506172839,46.91358024691358,0)" xlink:href="#Y"/><use transform="matrix(0.06172839506172839,0,0,0.06172839506172839,62.901234567901234,0)" xlink:href="#N"/><use transform="matrix(0.06172839506172839,0,0,0.06172839506172839,75.24691358024691,0)" xlink:href="#Z"/><use transform="matrix(0.06172839506172839,0,0,0.06172839506172839,87.5925925925926,0)" xlink:href="#V"/><use transform="matrix(0.06172839506172839,0,0,0.06172839506172839,99.93827160493828,0)" xlink:href="#T"/><use transform="matrix(0.06172839506172839,0,0,0.06172839506172839,106.11111111111111,0)" xlink:href="#R"/></g><path fill="#3a414a" d="M63-70H37l-4-178h34zM33 0v-35h34V0H33" id="aa"/><path fill="#3a414a" d="M18-150v-26h174v26H18zm0 90v-26h174v26H18" id="ab"/><g id="g"><use transform="matrix(0.06172839506172839,0,0,0.06172839506172839,0,0)" xlink:href="#aa"/><use transform="matrix(0.06172839506172839,0,0,0.06172839506172839,6.172839506172839,0)" xlink:href="#ab"/></g><path fill="#3a414a" d="M117-194c89-4 53 116 60 194h-32v-121c0-31-8-49-39-48C34-167 62-67 57 0H25l-1-190h30c1 10-1 24 2 32 11-22 29-35 61-36" id="ac"/><path fill="#3a414a" d="M84 4C-5 8 30-112 23-190h32v120c0 31 7 50 39 49 72-2 45-101 50-169h31l1 190h-30c-1-10 1-25-2-33-11 22-28 36-60 37" id="ad"/><path fill="#3a414a" d="M3 75V52h41v-290H3v-23h71V75H3" id="ae"/><g id="h"><use transform="matrix(0.06172839506172839,0,0,0.06172839506172839,0,0)" xlink:href="#ac"/><use transform="matrix(0.06172839506172839,0,0,0.06172839506172839,12.345679012345679,0)" xlink:href="#ad"/><use transform="matrix(0.06172839506172839,0,0,0.06172839506172839,24.691358024691358,0)" xlink:href="#O"/><use transform="matrix(0.06172839506172839,0,0,0.06172839506172839,29.5679012345679,0)" xlink:href="#O"/><use transform="matrix(0.06172839506172839,0,0,0.06172839506172839,34.44444444444444,0)" xlink:href="#ae"/></g><path fill="#3a414a" d="M33-154v-36h34v36H33zM33 0v-36h34V0H33" id="af"/><path fill="#3a414a" d="M233-177c-1 41-23 64-60 70L243 0h-38l-65-103H63V0H30v-248c88 3 205-21 203 71zM63-129c60-2 137 13 137-47 0-61-80-42-137-45v92" id="ag"/><path fill="#3a414a" d="M145-31C134-9 116 4 85 4 32 4 16-35 15-94c0-59 17-99 70-100 32-1 48 14 60 33 0-11-1-24 2-32h30l-1 268h-32zM93-21c41 0 51-33 51-76s-8-73-50-73c-40 0-46 35-46 75s5 74 45 74" id="ah"/><path fill="#3a414a" d="M141 0L90-78 38 0H4l68-98-65-92h35l48 74 47-74h35l-64 92 68 98h-35" id="ai"/><path fill="#3a414a" d="M24-231v-30h32v30H24zM24 0v-190h32V0H24" id="aj"/><path fill="#3a414a" d="M114-163C36-179 61-72 57 0H25l-1-190h30c1 12-1 29 2 39 6-27 23-49 58-41v29" id="ak"/><path fill="#3a414a" d="M30-248c87 1 191-15 191 75 0 78-77 80-158 76V0H30v-248zm33 125c57 0 124 11 124-50 0-59-68-47-124-48v98" id="al"/><path fill="#3a414a" d="M177-190C167-65 218 103 67 71c-23-6-38-20-44-43l32-5c15 47 100 32 89-28v-30C133-14 115 1 83 1 29 1 15-40 15-95c0-56 16-97 71-98 29-1 48 16 59 35 1-10 0-23 2-32h30zM94-22c36 0 50-32 50-73 0-42-14-75-50-75-39 0-46 34-46 75s6 73 46 73" id="am"/><g id="i"><use transform="matrix(0.06172839506172839,0,0,0.06172839506172839,0,0)" xlink:href="#af"/><use transform="matrix(0.06172839506172839,0,0,0.06172839506172839,6.172839506172839,0)" xlink:href="#ag"/><use transform="matrix(0.06172839506172839,0,0,0.06172839506172839,22.160493827160494,0)" xlink:href="#R"/><use transform="matrix(0.06172839506172839,0,0,0.06172839506172839,34.50617283950617,0)" xlink:href="#ah"/><use transform="matrix(0.06172839506172839,0,0,0.06172839506172839,46.85185185185185,0)" xlink:href="#ad"/><use transform="matrix(0.06172839506172839,0,0,0.06172839506172839,59.197530864197525,0)" xlink:href="#R"/><use transform="matrix(0.06172839506172839,0,0,0.06172839506172839,71.5432098765432,0)" xlink:href="#W"/><use transform="matrix(0.06172839506172839,0,0,0.06172839506172839,82.65432098765432,0)" xlink:href="#T"/><use transform="matrix(0.06172839506172839,0,0,0.06172839506172839,88.82716049382715,0)" xlink:href="#L"/><use transform="matrix(0.06172839506172839,0,0,0.06172839506172839,103.64197530864196,0)" xlink:href="#ai"/><use transform="matrix(0.06172839506172839,0,0,0.06172839506172839,114.75308641975307,0)" xlink:href="#T"/><use transform="matrix(0.06172839506172839,0,0,0.06172839506172839,120.92592592592591,0)" xlink:href="#R"/><use transform="matrix(0.06172839506172839,0,0,0.06172839506172839,133.2716049382716,0)" xlink:href="#ac"/><use transform="matrix(0.06172839506172839,0,0,0.06172839506172839,145.61728395061726,0)" xlink:href="#W"/><use transform="matrix(0.06172839506172839,0,0,0.06172839506172839,156.72839506172838,0)" xlink:href="#aj"/><use transform="matrix(0.06172839506172839,0,0,0.06172839506172839,161.6049382716049,0)" xlink:href="#P"/><use transform="matrix(0.06172839506172839,0,0,0.06172839506172839,173.95061728395058,0)" xlink:href="#ac"/><use transform="matrix(0.06172839506172839,0,0,0.06172839506172839,186.29629629629625,0)" xlink:href="#S"/><use transform="matrix(0.06172839506172839,0,0,0.06172839506172839,201.11111111111106,0)" xlink:href="#ac"/><use transform="matrix(0.06172839506172839,0,0,0.06172839506172839,213.45679012345673,0)" xlink:href="#Z"/><use transform="matrix(0.06172839506172839,0,0,0.06172839506172839,225.8024691358024,0)" xlink:href="#ak"/><use transform="matrix(0.06172839506172839,0,0,0.06172839506172839,233.14814814814807,0)" xlink:href="#P"/><use transform="matrix(0.06172839506172839,0,0,0.06172839506172839,245.49382716049374,0)" xlink:href="#aj"/><use transform="matrix(0.06172839506172839,0,0,0.06172839506172839,250.37037037037027,0)" xlink:href="#Z"/><use transform="matrix(0.06172839506172839,0,0,0.06172839506172839,262.71604938271594,0)" xlink:href="#al"/><use transform="matrix(0.06172839506172839,0,0,0.06172839506172839,277.5308641975308,0)" xlink:href="#V"/><use transform="matrix(0.06172839506172839,0,0,0.06172839506172839,289.87654320987644,0)" xlink:href="#am"/><use transform="matrix(0.06172839506172839,0,0,0.06172839506172839,302.2222222222221,0)" xlink:href="#R"/></g><path fill="#3a414a" d="M135-194c52 0 70 43 70 98 0 56-19 99-73 100-30 1-46-15-58-35L72 0H24l1-261h50v104c11-23 29-37 60-37zM114-30c31 0 40-27 40-66 0-37-7-63-39-63s-41 28-41 65c0 36 8 64 40 64" id="an"/><path fill="#3a414a" d="M115-3C79 11 28 4 28-45v-112H4v-33h27l15-45h31v45h36v33H77v99c-1 23 16 31 38 25v30" id="ao"/><path fill="#3a414a" d="M135-194c87-1 58 113 63 194h-50c-7-57 23-157-34-157-59 0-34 97-39 157H25l-1-190h47c2 12-1 28 3 38 12-26 28-41 61-42" id="ap"/><path fill="#3a414a" d="M240-174c0 40-23 61-54 70L253 0h-59l-57-94H76V0H24v-248c93 4 217-23 216 74zM76-134c48-2 112 12 112-38 0-48-66-32-112-35v73" id="aq"/><path fill="#3a414a" d="M185-48c-13 30-37 53-82 52C43 2 14-33 14-96s30-98 90-98c62 0 83 45 84 108H66c0 31 8 55 39 56 18 0 30-7 34-22zm-45-69c5-46-57-63-70-21-2 6-4 13-4 21h74" id="ar"/><path fill="#3a414a" d="M84 4C32 4 15-41 15-95c0-55 18-99 73-99 29 0 47 12 58 34l2-30h48l-1 265h-49V-32C136-9 114 4 84 4zm21-34c32 0 41-29 41-66 0-36-9-64-40-64-33 0-39 30-40 65 0 43 13 65 39 65" id="as"/><path fill="#3a414a" d="M85 4C-2 5 27-109 22-190h50c7 57-23 150 33 157 60-5 35-97 40-157h50l1 190h-47c-2-12 1-28-3-38-12 25-28 42-61 42" id="at"/><path fill="#3a414a" d="M137-138c1-29-70-34-71-4 15 46 118 7 119 86 1 83-164 76-172 9l43-7c4 19 20 25 44 25 33 8 57-30 24-41C81-84 22-81 20-136c-2-80 154-74 161-7" id="au"/><path fill="#3a414a" d="M24 0v-248h195v40H76v63h132v40H76v65h150V0H24" id="av"/><path fill="#3a414a" d="M144 0l-44-69L55 0H2l70-98-66-92h53l41 62 40-62h54l-67 91 71 99h-54" id="aw"/><path fill="#3a414a" d="M25-224v-37h50v37H25zM25 0v-190h50V0H25" id="ax"/><path fill="#3a414a" d="M110-194c64 0 96 36 96 99 0 64-35 99-97 99-61 0-95-36-95-99 0-62 34-99 96-99zm-1 164c35 0 45-28 45-65 0-40-10-65-43-65-34 0-45 26-45 65 0 36 10 65 43 65" id="ay"/><path fill="#3a414a" d="M67-93c0 74 22 123 53 168H70C40 30 18-18 18-93s22-123 52-168h50c-32 44-53 94-53 168" id="az"/><path fill="#3a414a" d="M102-93c0 74-22 123-52 168H0C30 29 54-18 53-93c0-74-22-123-53-168h50c30 45 52 94 52 168" id="aA"/><g id="j"><use transform="matrix(0.06172839506172839,0,0,0.06172839506172839,0,0)" xlink:href="#an"/><use transform="matrix(0.06172839506172839,0,0,0.06172839506172839,13.518518518518517,0)" xlink:href="#ao"/><use transform="matrix(0.06172839506172839,0,0,0.06172839506172839,20.864197530864196,0)" xlink:href="#ap"/><use transform="matrix(0.06172839506172839,0,0,0.06172839506172839,34.382716049382715,0)" xlink:href="#aq"/><use transform="matrix(0.06172839506172839,0,0,0.06172839506172839,50.37037037037037,0)" xlink:href="#ar"/><use transform="matrix(0.06172839506172839,0,0,0.06172839506172839,62.716049382716044,0)" xlink:href="#as"/><use transform="matrix(0.06172839506172839,0,0,0.06172839506172839,76.23456790123456,0)" xlink:href="#at"/><use transform="matrix(0.06172839506172839,0,0,0.06172839506172839,89.75308641975307,0)" xlink:href="#ar"/><use transform="matrix(0.06172839506172839,0,0,0.06172839506172839,102.09876543209876,0)" xlink:href="#au"/><use transform="matrix(0.06172839506172839,0,0,0.06172839506172839,114.44444444444444,0)" xlink:href="#ao"/><use transform="matrix(0.06172839506172839,0,0,0.06172839506172839,121.79012345679013,0)" xlink:href="#av"/><use transform="matrix(0.06172839506172839,0,0,0.06172839506172839,136.60493827160494,0)" xlink:href="#aw"/><use transform="matrix(0.06172839506172839,0,0,0.06172839506172839,148.9506172839506,0)" xlink:href="#ao"/><use transform="matrix(0.06172839506172839,0,0,0.06172839506172839,156.29629629629628,0)" xlink:href="#ar"/><use transform="matrix(0.06172839506172839,0,0,0.06172839506172839,168.64197530864195,0)" xlink:href="#ap"/><use transform="matrix(0.06172839506172839,0,0,0.06172839506172839,182.16049382716045,0)" xlink:href="#au"/><use transform="matrix(0.06172839506172839,0,0,0.06172839506172839,194.50617283950612,0)" xlink:href="#ax"/><use transform="matrix(0.06172839506172839,0,0,0.06172839506172839,200.67901234567896,0)" xlink:href="#ay"/><use transform="matrix(0.06172839506172839,0,0,0.06172839506172839,214.19753086419746,0)" xlink:href="#ap"/><use transform="matrix(0.06172839506172839,0,0,0.06172839506172839,227.71604938271597,0)" xlink:href="#az"/><use transform="matrix(0.06172839506172839,0,0,0.06172839506172839,235.06172839506164,0)" xlink:href="#aA"/></g><path fill="#3a414a" d="M33 0v-248h34V0H33" id="aB"/><path fill="#3a414a" d="M212-179c-10-28-35-45-73-45-59 0-87 40-87 99 0 60 29 101 89 101 43 0 62-24 78-52l27 14C228-24 195 4 139 4 59 4 22-46 18-125c-6-104 99-153 187-111 19 9 31 26 39 46" id="aC"/><path fill="#3a414a" d="M96-169c-40 0-48 33-48 73s9 75 48 75c24 0 41-14 43-38l32 2c-6 37-31 61-74 61-59 0-76-41-82-99-10-93 101-131 147-64 4 7 5 14 7 22l-32 3c-4-21-16-35-41-35" id="aD"/><path fill="#3a414a" d="M240 0l2-218c-23 76-54 145-80 218h-23L58-218 59 0H30v-248h44l77 211c21-75 51-140 76-211h43V0h-30" id="aE"/><g id="k"><use transform="matrix(0.06172839506172839,0,0,0.06172839506172839,0,0)" xlink:href="#af"/><use transform="matrix(0.06172839506172839,0,0,0.06172839506172839,6.172839506172839,0)" xlink:href="#S"/><use transform="matrix(0.06172839506172839,0,0,0.06172839506172839,20.98765432098765,0)" xlink:href="#al"/><use transform="matrix(0.06172839506172839,0,0,0.06172839506172839,35.80246913580247,0)" xlink:href="#aB"/><use transform="matrix(0.06172839506172839,0,0,0.06172839506172839,41.97530864197531,0)" xlink:href="#aC"/><use transform="matrix(0.06172839506172839,0,0,0.06172839506172839,57.96296296296296,0)" xlink:href="#P"/><use transform="matrix(0.06172839506172839,0,0,0.06172839506172839,70.30864197530865,0)" xlink:href="#ac"/><use transform="matrix(0.06172839506172839,0,0,0.06172839506172839,82.65432098765433,0)" xlink:href="#ac"/><use transform="matrix(0.06172839506172839,0,0,0.06172839506172839,95.00000000000001,0)" xlink:href="#R"/><use transform="matrix(0.06172839506172839,0,0,0.06172839506172839,107.3456790123457,0)" xlink:href="#aD"/><use transform="matrix(0.06172839506172839,0,0,0.06172839506172839,118.45679012345681,0)" xlink:href="#T"/><use transform="matrix(0.06172839506172839,0,0,0.06172839506172839,124.62962962962965,0)" xlink:href="#aj"/><use transform="matrix(0.06172839506172839,0,0,0.06172839506172839,129.50617283950618,0)" xlink:href="#P"/><use transform="matrix(0.06172839506172839,0,0,0.06172839506172839,141.85185185185185,0)" xlink:href="#ac"/><use transform="matrix(0.06172839506172839,0,0,0.06172839506172839,154.19753086419752,0)" xlink:href="#aE"/><use transform="matrix(0.06172839506172839,0,0,0.06172839506172839,172.6543209876543,0)" xlink:href="#V"/><use transform="matrix(0.06172839506172839,0,0,0.06172839506172839,184.99999999999997,0)" xlink:href="#ac"/><use transform="matrix(0.06172839506172839,0,0,0.06172839506172839,197.34567901234564,0)" xlink:href="#V"/><use transform="matrix(0.06172839506172839,0,0,0.06172839506172839,209.6913580246913,0)" xlink:href="#am"/><use transform="matrix(0.06172839506172839,0,0,0.06172839506172839,222.03703703703698,0)" xlink:href="#R"/><use transform="matrix(0.06172839506172839,0,0,0.06172839506172839,234.38271604938265,0)" xlink:href="#ak"/></g><path fill="#3a414a" d="M127-220V0H93v-220H8v-28h204v28h-85" id="aF"/><g id="l"><use transform="matrix(0.06172839506172839,0,0,0.06172839506172839,0,0)" xlink:href="#af"/><use transform="matrix(0.06172839506172839,0,0,0.06172839506172839,6.172839506172839,0)" xlink:href="#aF"/><use transform="matrix(0.06172839506172839,0,0,0.06172839506172839,17.22222222222222,0)" xlink:href="#V"/><use transform="matrix(0.06172839506172839,0,0,0.06172839506172839,29.5679012345679,0)" xlink:href="#W"/><use transform="matrix(0.06172839506172839,0,0,0.06172839506172839,40.67901234567901,0)" xlink:href="#X"/><use transform="matrix(0.06172839506172839,0,0,0.06172839506172839,51.79012345679013,0)" xlink:href="#aC"/><use transform="matrix(0.06172839506172839,0,0,0.06172839506172839,67.77777777777779,0)" xlink:href="#P"/><use transform="matrix(0.06172839506172839,0,0,0.06172839506172839,80.12345679012347,0)" xlink:href="#ac"/><use transform="matrix(0.06172839506172839,0,0,0.06172839506172839,92.46913580246915,0)" xlink:href="#T"/><use transform="matrix(0.06172839506172839,0,0,0.06172839506172839,98.64197530864199,0)" xlink:href="#ak"/><use transform="matrix(0.06172839506172839,0,0,0.06172839506172839,105.98765432098767,0)" xlink:href="#P"/><use transform="matrix(0.06172839506172839,0,0,0.06172839506172839,118.33333333333336,0)" xlink:href="#O"/><use transform="matrix(0.06172839506172839,0,0,0.06172839506172839,123.2098765432099,0)" xlink:href="#O"/><use transform="matrix(0.06172839506172839,0,0,0.06172839506172839,128.08641975308643,0)" xlink:href="#R"/><use transform="matrix(0.06172839506172839,0,0,0.06172839506172839,140.4320987654321,0)" xlink:href="#ak"/></g><path fill="#3a414a" d="M30-248c118-7 216 8 213 122C240-48 200 0 122 0H30v-248zM63-27c89 8 146-16 146-99s-60-101-146-95v194" id="aG"/><path fill="#3a414a" d="M160-131c35 5 61 23 61 61C221 17 115-2 30 0v-248c76 3 177-17 177 60 0 33-19 50-47 57zm-97-11c50-1 110 9 110-42 0-47-63-36-110-37v79zm0 115c55-2 124 14 124-45 0-56-70-42-124-44v89" id="aH"/><g id="m"><use transform="matrix(0.06172839506172839,0,0,0.06172839506172839,0,0)" xlink:href="#af"/><use transform="matrix(0.06172839506172839,0,0,0.06172839506172839,6.172839506172839,0)" xlink:href="#aE"/><use transform="matrix(0.06172839506172839,0,0,0.06172839506172839,24.629629629629626,0)" xlink:href="#Q"/><use transform="matrix(0.06172839506172839,0,0,0.06172839506172839,35.74074074074073,0)" xlink:href="#aG"/><use transform="matrix(0.06172839506172839,0,0,0.06172839506172839,51.728395061728385,0)" xlink:href="#aH"/><use transform="matrix(0.06172839506172839,0,0,0.06172839506172839,66.5432098765432,0)" xlink:href="#aC"/><use transform="matrix(0.06172839506172839,0,0,0.06172839506172839,82.53086419753086,0)" xlink:href="#P"/><use transform="matrix(0.06172839506172839,0,0,0.06172839506172839,94.87654320987654,0)" xlink:href="#ac"/><use transform="matrix(0.06172839506172839,0,0,0.06172839506172839,107.22222222222223,0)" xlink:href="#T"/><use transform="matrix(0.06172839506172839,0,0,0.06172839506172839,113.39506172839506,0)" xlink:href="#R"/><use transform="matrix(0.06172839506172839,0,0,0.06172839506172839,125.74074074074075,0)" xlink:href="#ai"/><use transform="matrix(0.06172839506172839,0,0,0.06172839506172839,136.85185185185185,0)" xlink:href="#T"/></g><path fill="#3a414a" d="M135-150c-39-12-60 13-60 57V0H25l-1-190h47c2 13-1 29 3 40 6-28 27-53 61-41v41" id="aI"/><path fill="#3a414a" d="M24-248c120-7 223 5 221 122C244-46 201 0 124 0H24v-248zM76-40c74 7 117-18 117-86 0-67-45-88-117-82v168" id="aJ"/><path fill="#3a414a" d="M133-34C117-15 103 5 69 4 32 3 11-16 11-54c-1-60 55-63 116-61 1-26-3-47-28-47-18 1-26 9-28 27l-52-2c7-38 36-58 82-57s74 22 75 68l1 82c-1 14 12 18 25 15v27c-30 8-71 5-69-32zm-48 3c29 0 43-24 42-57-32 0-66-3-65 30 0 17 8 27 23 27" id="aK"/><path fill="#3a414a" d="M25 0v-261h50V0H25" id="aL"/><g id="n"><use transform="matrix(0.06172839506172839,0,0,0.06172839506172839,0,0)" xlink:href="#aI"/><use transform="matrix(0.06172839506172839,0,0,0.06172839506172839,8.641975308641975,0)" xlink:href="#ar"/><use transform="matrix(0.06172839506172839,0,0,0.06172839506172839,20.98765432098765,0)" xlink:href="#as"/><use transform="matrix(0.06172839506172839,0,0,0.06172839506172839,34.50617283950617,0)" xlink:href="#at"/><use transform="matrix(0.06172839506172839,0,0,0.06172839506172839,48.02469135802469,0)" xlink:href="#ar"/><use transform="matrix(0.06172839506172839,0,0,0.06172839506172839,60.37037037037037,0)" xlink:href="#au"/><use transform="matrix(0.06172839506172839,0,0,0.06172839506172839,72.71604938271605,0)" xlink:href="#ao"/><use transform="matrix(0.06172839506172839,0,0,0.06172839506172839,80.06172839506173,0)" xlink:href="#av"/><use transform="matrix(0.06172839506172839,0,0,0.06172839506172839,94.87654320987654,0)" xlink:href="#aw"/><use transform="matrix(0.06172839506172839,0,0,0.06172839506172839,107.22222222222223,0)" xlink:href="#ao"/><use transform="matrix(0.06172839506172839,0,0,0.06172839506172839,114.56790123456791,0)" xlink:href="#ar"/><use transform="matrix(0.06172839506172839,0,0,0.06172839506172839,126.9135802469136,0)" xlink:href="#ap"/><use transform="matrix(0.06172839506172839,0,0,0.06172839506172839,140.4320987654321,0)" xlink:href="#au"/><use transform="matrix(0.06172839506172839,0,0,0.06172839506172839,152.77777777777777,0)" xlink:href="#ax"/><use transform="matrix(0.06172839506172839,0,0,0.06172839506172839,158.9506172839506,0)" xlink:href="#ay"/><use transform="matrix(0.06172839506172839,0,0,0.06172839506172839,172.4691358024691,0)" xlink:href="#ap"/><use transform="matrix(0.06172839506172839,0,0,0.06172839506172839,185.98765432098762,0)" xlink:href="#az"/><use transform="matrix(0.06172839506172839,0,0,0.06172839506172839,193.3333333333333,0)" xlink:href="#aI"/><use transform="matrix(0.06172839506172839,0,0,0.06172839506172839,201.97530864197526,0)" xlink:href="#ar"/><use transform="matrix(0.06172839506172839,0,0,0.06172839506172839,214.32098765432093,0)" xlink:href="#aJ"/><use transform="matrix(0.06172839506172839,0,0,0.06172839506172839,230.30864197530857,0)" xlink:href="#ar"/><use transform="matrix(0.06172839506172839,0,0,0.06172839506172839,242.65432098765424,0)" xlink:href="#ao"/><use transform="matrix(0.06172839506172839,0,0,0.06172839506172839,249.99999999999991,0)" xlink:href="#aK"/><use transform="matrix(0.06172839506172839,0,0,0.06172839506172839,262.3456790123456,0)" xlink:href="#ax"/><use transform="matrix(0.06172839506172839,0,0,0.06172839506172839,268.5185185185185,0)" xlink:href="#aL"/><use transform="matrix(0.06172839506172839,0,0,0.06172839506172839,274.69135802469134,0)" xlink:href="#au"/><use transform="matrix(0.06172839506172839,0,0,0.06172839506172839,287.037037037037,0)" xlink:href="#aA"/></g><g id="o"><use transform="matrix(0.06172839506172839,0,0,0.06172839506172839,0,0)" xlink:href="#T"/><use transform="matrix(0.06172839506172839,0,0,0.06172839506172839,6.172839506172839,0)" xlink:href="#V"/><use transform="matrix(0.06172839506172839,0,0,0.06172839506172839,18.51851851851852,0)" xlink:href="#W"/><use transform="matrix(0.06172839506172839,0,0,0.06172839506172839,29.62962962962963,0)" xlink:href="#X"/><use transform="matrix(0.06172839506172839,0,0,0.06172839506172839,40.74074074074074,0)" xlink:href="#Y"/><use transform="matrix(0.06172839506172839,0,0,0.06172839506172839,56.72839506172839,0)" xlink:href="#N"/><use transform="matrix(0.06172839506172839,0,0,0.06172839506172839,69.07407407407408,0)" xlink:href="#Z"/><use transform="matrix(0.06172839506172839,0,0,0.06172839506172839,81.41975308641976,0)" xlink:href="#V"/><use transform="matrix(0.06172839506172839,0,0,0.06172839506172839,93.76543209876544,0)" xlink:href="#T"/><use transform="matrix(0.06172839506172839,0,0,0.06172839506172839,99.93827160493828,0)" xlink:href="#R"/></g><use transform="matrix(0.06172839506172839,0,0,0.06172839506172839,0,0)" xlink:href="#af" id="p"/><g id="q"><use transform="matrix(0.06172839506172839,0,0,0.06172839506172839,0,0)" xlink:href="#aF"/><use transform="matrix(0.06172839506172839,0,0,0.06172839506172839,11.049382716049381,0)" xlink:href="#V"/><use transform="matrix(0.06172839506172839,0,0,0.06172839506172839,23.39506172839506,0)" xlink:href="#W"/><use transform="matrix(0.06172839506172839,0,0,0.06172839506172839,34.50617283950617,0)" xlink:href="#X"/><use transform="matrix(0.06172839506172839,0,0,0.06172839506172839,45.61728395061728,0)" xlink:href="#Y"/><use transform="matrix(0.06172839506172839,0,0,0.06172839506172839,61.60493827160493,0)" xlink:href="#N"/><use transform="matrix(0.06172839506172839,0,0,0.06172839506172839,73.9506172839506,0)" xlink:href="#Z"/><use transform="matrix(0.06172839506172839,0,0,0.06172839506172839,86.29629629629629,0)" xlink:href="#V"/><use transform="matrix(0.06172839506172839,0,0,0.06172839506172839,98.64197530864197,0)" xlink:href="#T"/><use transform="matrix(0.06172839506172839,0,0,0.06172839506172839,104.81481481481481,0)" xlink:href="#R"/></g><path fill="#3a414a" d="M147 0L96-86 75-71V0H25v-261h50v150l67-79h53l-66 74L201 0h-54" id="aM"/><path fill="#3a414a" d="M238-95c0 69-44 99-111 99C63 4 22-25 22-93v-155h51v151c-1 38 19 59 55 60 90 1 49-130 58-211h52v153" id="aN"/><path fill="#3a414a" d="M135-194c53 0 70 44 70 98 0 56-19 98-73 100-31 1-45-17-59-34 3 33 2 69 2 105H25l-1-265h48c2 10 0 23 3 31 11-24 29-35 60-35zM114-30c33 0 39-31 40-66 0-38-9-64-40-64-56 0-55 130 0 130" id="aO"/><g id="r"><use transform="matrix(0.06172839506172839,0,0,0.06172839506172839,0,0)" xlink:href="#ao"/><use transform="matrix(0.06172839506172839,0,0,0.06172839506172839,7.345679012345679,0)" xlink:href="#aK"/><use transform="matrix(0.06172839506172839,0,0,0.06172839506172839,19.691358024691358,0)" xlink:href="#au"/><use transform="matrix(0.06172839506172839,0,0,0.06172839506172839,32.03703703703704,0)" xlink:href="#aM"/><use transform="matrix(0.06172839506172839,0,0,0.06172839506172839,44.382716049382715,0)" xlink:href="#aN"/><use transform="matrix(0.06172839506172839,0,0,0.06172839506172839,60.37037037037037,0)" xlink:href="#aO"/><use transform="matrix(0.06172839506172839,0,0,0.06172839506172839,73.88888888888889,0)" xlink:href="#aK"/><use transform="matrix(0.06172839506172839,0,0,0.06172839506172839,86.23456790123457,0)" xlink:href="#ao"/><use transform="matrix(0.06172839506172839,0,0,0.06172839506172839,93.58024691358025,0)" xlink:href="#ar"/></g><path fill="#3a414a" d="M15-148v-39h180v39H15zm0 97v-39h180v39H15" id="aP"/><use transform="matrix(0.06172839506172839,0,0,0.06172839506172839,0,0)" xlink:href="#aP" id="s"/><g id="t"><use transform="matrix(0.06172839506172839,0,0,0.06172839506172839,0,0)" xlink:href="#aI"/><use transform="matrix(0.06172839506172839,0,0,0.06172839506172839,8.641975308641975,0)" xlink:href="#ar"/><use transform="matrix(0.06172839506172839,0,0,0.06172839506172839,20.98765432098765,0)" xlink:href="#as"/><use transform="matrix(0.06172839506172839,0,0,0.06172839506172839,34.50617283950617,0)" xlink:href="#at"/><use transform="matrix(0.06172839506172839,0,0,0.06172839506172839,48.02469135802469,0)" xlink:href="#ar"/><use transform="matrix(0.06172839506172839,0,0,0.06172839506172839,60.37037037037037,0)" xlink:href="#au"/><use transform="matrix(0.06172839506172839,0,0,0.06172839506172839,72.71604938271605,0)" xlink:href="#ao"/><use transform="matrix(0.06172839506172839,0,0,0.06172839506172839,80.06172839506173,0)" xlink:href="#av"/><use transform="matrix(0.06172839506172839,0,0,0.06172839506172839,94.87654320987654,0)" xlink:href="#aw"/><use transform="matrix(0.06172839506172839,0,0,0.06172839506172839,107.22222222222223,0)" xlink:href="#ao"/><use transform="matrix(0.06172839506172839,0,0,0.06172839506172839,114.56790123456791,0)" xlink:href="#ar"/><use transform="matrix(0.06172839506172839,0,0,0.06172839506172839,126.9135802469136,0)" xlink:href="#ap"/><use transform="matrix(0.06172839506172839,0,0,0.06172839506172839,140.4320987654321,0)" xlink:href="#au"/><use transform="matrix(0.06172839506172839,0,0,0.06172839506172839,152.77777777777777,0)" xlink:href="#ax"/><use transform="matrix(0.06172839506172839,0,0,0.06172839506172839,158.9506172839506,0)" xlink:href="#ay"/><use transform="matrix(0.06172839506172839,0,0,0.06172839506172839,172.4691358024691,0)" xlink:href="#ap"/><use transform="matrix(0.06172839506172839,0,0,0.06172839506172839,185.98765432098762,0)" xlink:href="#az"/><use transform="matrix(0.06172839506172839,0,0,0.06172839506172839,193.3333333333333,0)" xlink:href="#aI"/><use transform="matrix(0.06172839506172839,0,0,0.06172839506172839,201.97530864197526,0)" xlink:href="#ar"/><use transform="matrix(0.06172839506172839,0,0,0.06172839506172839,214.32098765432093,0)" xlink:href="#aJ"/><use transform="matrix(0.06172839506172839,0,0,0.06172839506172839,230.30864197530857,0)" xlink:href="#ar"/><use transform="matrix(0.06172839506172839,0,0,0.06172839506172839,242.65432098765424,0)" xlink:href="#ao"/><use transform="matrix(0.06172839506172839,0,0,0.06172839506172839,249.99999999999991,0)" xlink:href="#aK"/><use transform="matrix(0.06172839506172839,0,0,0.06172839506172839,262.3456790123456,0)" xlink:href="#ax"/><use transform="matrix(0.06172839506172839,0,0,0.06172839506172839,268.5185185185185,0)" xlink:href="#aL"/><use transform="matrix(0.06172839506172839,0,0,0.06172839506172839,274.69135802469134,0)" xlink:href="#au"/><use transform="matrix(0.06172839506172839,0,0,0.06172839506172839,287.037037037037,0)" xlink:href="#aA"/></g><g id="u"><use transform="matrix(0.06172839506172839,0,0,0.06172839506172839,0,0)" xlink:href="#U"/><use transform="matrix(0.06172839506172839,0,0,0.06172839506172839,6.172839506172839,0)" xlink:href="#R"/><use transform="matrix(0.06172839506172839,0,0,0.06172839506172839,18.51851851851852,0)" xlink:href="#O"/><use transform="matrix(0.06172839506172839,0,0,0.06172839506172839,23.395061728395063,0)" xlink:href="#W"/><use transform="matrix(0.06172839506172839,0,0,0.06172839506172839,34.50617283950618,0)" xlink:href="#R"/><use transform="matrix(0.06172839506172839,0,0,0.06172839506172839,46.851851851851855,0)" xlink:href="#ae"/></g><path fill="#3a414a" d="M88-194c31-1 46 15 58 34l-1-101h50l1 261h-48c-2-10 0-23-3-31C134-8 116 4 84 4 32 4 16-41 15-95c0-56 19-97 73-99zm17 164c33 0 40-30 41-66 1-37-9-64-41-64s-38 30-39 65c0 43 13 65 39 65" id="aQ"/><path fill="#3a414a" d="M123 10C108 53 80 86 19 72V37c35 8 53-11 59-39L3-190h52l48 148c12-52 28-100 44-148h51" id="aR"/><path fill="#3a414a" d="M136-208V0H84v-208H4v-40h212v40h-80" id="aS"/><g id="v"><use transform="matrix(0.06172839506172839,0,0,0.06172839506172839,0,0)" xlink:href="#aQ"/><use transform="matrix(0.06172839506172839,0,0,0.06172839506172839,13.518518518518517,0)" xlink:href="#ax"/><use transform="matrix(0.06172839506172839,0,0,0.06172839506172839,19.691358024691358,0)" xlink:href="#au"/><use transform="matrix(0.06172839506172839,0,0,0.06172839506172839,32.03703703703704,0)" xlink:href="#aO"/><use transform="matrix(0.06172839506172839,0,0,0.06172839506172839,45.55555555555556,0)" xlink:href="#aL"/><use transform="matrix(0.06172839506172839,0,0,0.06172839506172839,51.7283950617284,0)" xlink:href="#aK"/><use transform="matrix(0.06172839506172839,0,0,0.06172839506172839,64.07407407407408,0)" xlink:href="#aR"/><use transform="matrix(0.06172839506172839,0,0,0.06172839506172839,76.41975308641976,0)" xlink:href="#aS"/><use transform="matrix(0.06172839506172839,0,0,0.06172839506172839,88.27160493827161,0)" xlink:href="#aK"/><use transform="matrix(0.06172839506172839,0,0,0.06172839506172839,100.61728395061729,0)" xlink:href="#au"/><use transform="matrix(0.06172839506172839,0,0,0.06172839506172839,112.96296296296298,0)" xlink:href="#aM"/><use transform="matrix(0.06172839506172839,0,0,0.06172839506172839,125.30864197530866,0)" xlink:href="#az"/><use transform="matrix(0.06172839506172839,0,0,0.06172839506172839,132.65432098765433,0)" xlink:href="#ao"/><use transform="matrix(0.06172839506172839,0,0,0.06172839506172839,140,0)" xlink:href="#aK"/><use transform="matrix(0.06172839506172839,0,0,0.06172839506172839,152.34567901234567,0)" xlink:href="#au"/><use transform="matrix(0.06172839506172839,0,0,0.06172839506172839,164.69135802469134,0)" xlink:href="#aM"/><use transform="matrix(0.06172839506172839,0,0,0.06172839506172839,177.037037037037,0)" xlink:href="#aN"/><use transform="matrix(0.06172839506172839,0,0,0.06172839506172839,193.02469135802465,0)" xlink:href="#aO"/><use transform="matrix(0.06172839506172839,0,0,0.06172839506172839,206.54320987654316,0)" xlink:href="#aQ"/><use transform="matrix(0.06172839506172839,0,0,0.06172839506172839,220.06172839506166,0)" xlink:href="#aK"/><use transform="matrix(0.06172839506172839,0,0,0.06172839506172839,232.40740740740733,0)" xlink:href="#ao"/><use transform="matrix(0.06172839506172839,0,0,0.06172839506172839,239.753086419753,0)" xlink:href="#ar"/><use transform="matrix(0.06172839506172839,0,0,0.06172839506172839,252.09876543209867,0)" xlink:href="#aA"/></g><g id="w"><use transform="matrix(0.06172839506172839,0,0,0.06172839506172839,0,0)" xlink:href="#aQ"/><use transform="matrix(0.06172839506172839,0,0,0.06172839506172839,13.518518518518517,0)" xlink:href="#ax"/><use transform="matrix(0.06172839506172839,0,0,0.06172839506172839,19.691358024691358,0)" xlink:href="#au"/><use transform="matrix(0.06172839506172839,0,0,0.06172839506172839,32.03703703703704,0)" xlink:href="#aO"/><use transform="matrix(0.06172839506172839,0,0,0.06172839506172839,45.55555555555556,0)" xlink:href="#aL"/><use transform="matrix(0.06172839506172839,0,0,0.06172839506172839,51.7283950617284,0)" xlink:href="#aK"/><use transform="matrix(0.06172839506172839,0,0,0.06172839506172839,64.07407407407408,0)" xlink:href="#aR"/><use transform="matrix(0.06172839506172839,0,0,0.06172839506172839,76.41975308641976,0)" xlink:href="#av"/><use transform="matrix(0.06172839506172839,0,0,0.06172839506172839,91.23456790123457,0)" xlink:href="#aI"/><use transform="matrix(0.06172839506172839,0,0,0.06172839506172839,99.87654320987654,0)" xlink:href="#aI"/><use transform="matrix(0.06172839506172839,0,0,0.06172839506172839,108.51851851851852,0)" xlink:href="#ay"/><use transform="matrix(0.06172839506172839,0,0,0.06172839506172839,122.03703703703704,0)" xlink:href="#aI"/><use transform="matrix(0.06172839506172839,0,0,0.06172839506172839,130.679012345679,0)" xlink:href="#az"/><use transform="matrix(0.06172839506172839,0,0,0.06172839506172839,138.02469135802468,0)" xlink:href="#ar"/><use transform="matrix(0.06172839506172839,0,0,0.06172839506172839,150.37037037037035,0)" xlink:href="#aI"/><use transform="matrix(0.06172839506172839,0,0,0.06172839506172839,159.01234567901233,0)" xlink:href="#aI"/><use transform="matrix(0.06172839506172839,0,0,0.06172839506172839,167.6543209876543,0)" xlink:href="#ay"/><use transform="matrix(0.06172839506172839,0,0,0.06172839506172839,181.1728395061728,0)" xlink:href="#aI"/><use transform="matrix(0.06172839506172839,0,0,0.06172839506172839,189.81481481481478,0)" xlink:href="#aA"/></g><use transform="matrix(0.06172839506172839,0,0,0.06172839506172839,0,0)" xlink:href="#aP" id="x"/></defs></g></svg>