<svg xmlns="http://www.w3.org/2000/svg" xmlns:xlink="http://www.w3.org/1999/xlink" xmlns:lucid="lucid" width="2420" height="2360"><g transform="translate(-140 -160)" lucid:page-tab-id="0_0"><path d="M0 0h3677.73v2581.67H0z" fill="#fff"/><path d="M360.25 2140.5a.25.25 0 0 1 .25-.25h699a.25.25 0 0 1 .25.25.25.25 0 0 1-.25.25h-699a.25.25 0 0 1-.25-.25z" fill="none"/><path d="M370.42 2140.25h9.9m4.97 0h9.9m4.96 0h9.9m4.97 0h9.92m4.95 0h9.92m4.96 0h9.9m4.97 0h9.9m4.97 0h9.92m4.95 0h9.9m4.97 0h9.9m4.97 0h9.9m4.97 0h9.93m4.95 0h9.92m4.96 0h9.9m4.97 0h9.9m4.97 0h9.9m4.97 0h9.92m4.95 0h9.9m4.97 0h9.9m4.97 0h9.9m4.96 0h9.92m4.95 0h9.92m4.96 0h9.92m4.96 0h9.9m4.97 0h9.92m4.95 0h9.92m4.96 0h9.9m4.97 0h9.9m4.97 0h9.9m4.97 0h9.93m4.96 0h9.9m4.96 0h9.9m4.97 0h9.9m4.97 0h9.92m4.95 0H886m4.95 0h9.9m4.97 0h9.9m4.97 0h9.9m4.96 0h9.92m4.96 0h9.9m4.97 0h9.92m4.96 0h9.92m4.95 0h9.92m4.96 0h9.9m4.97 0h9.9m4.97 0h9.9m4.97 0h5.04l.03.03.05.02.03.02.02.03.02.04.02.02v.16l-.02.03-.02.05-.02.03-.03.02-.04.02-.02.02h-5.04m-4.95 0h-9.93m-4.96 0h-9.9m-4.96 0h-9.9m-4.97 0h-9.92m-4.95 0h-9.92m-4.96 0h-9.9m-4.97 0h-9.9m-4.97 0h-9.92m-4.95 0h-9.9m-4.97 0h-9.9m-4.97 0h-9.9m-4.97 0h-9.93m-4.95 0h-9.92m-4.96 0h-9.9m-4.97 0h-9.9m-4.97 0h-9.9m-4.97 0h-9.92m-4.95 0h-9.9m-4.97 0h-9.9m-4.97 0h-9.9m-4.96 0h-9.92m-4.95 0h-9.92m-4.96 0h-9.92m-4.96 0h-9.9m-4.97 0h-9.92m-4.95 0h-9.92m-4.96 0H653m-4.97 0h-9.9m-4.97 0h-9.9m-4.97 0h-9.93m-4.96 0h-9.9m-4.96 0h-9.9m-4.97 0h-9.9m-4.97 0h-9.92m-4.95 0H534m-4.95 0h-9.9m-4.97 0h-9.9m-4.97 0h-9.9m-4.96 0h-9.92m-4.96 0h-9.9m-4.97 0h-9.92m-4.96 0h-9.92m-4.95 0h-9.92m-4.96 0h-9.9m-4.97 0h-9.9m-4.97 0h-9.9m-4.97 0h-5.04l-.03-.02-.05-.02-.03-.02-.02-.03-.02-.04-.02-.02v-.16l.02-.03.02-.05.02-.03.03-.02.04-.02.02-.02h5.04" stroke="#3a414a" stroke-width=".5" fill="none"/><path d="M160 186a6 6 0 0 1 6-6h153a6 6 0 0 1 6 6v8a14.48 14.48 0 0 1-4.24 10.24l-1.52 1.52A14.48 14.48 0 0 1 309 210H166a6 6 0 0 1-6-6z" fill="#fff"/><path d="M325 180v20l-10 10H160" stroke="#3a414a" fill="none"/><path d="M160 186a6 6 0 0 1 6-6h2368a6 6 0 0 1 6 6v2308a6 6 0 0 1-6 6H166a6 6 0 0 1-6-6z" stroke="#3a414a" fill="none"/><use xlink:href="#a" transform="matrix(1,0,0,1,168,180) translate(0 18.6)"/><use xlink:href="#b" transform="matrix(1,0,0,1,168,180) translate(25.950000000000003 18.6)"/><use xlink:href="#c" transform="matrix(1,0,0,1,168,180) translate(88.9 18.6)"/><g fill="none"><path d="M320.5 380.25a.25.25 0 0 1 .25.25v2109a.25.25 0 0 1-.25.25.25.25 0 0 1-.25-.25v-2109a.25.25 0 0 1 .25-.25z"/><path d="M320.75 390.47v9.97m0 5v9.96m0 5v9.96m0 4.98v9.98m0 4.98v9.97m0 5v9.96m0 5v9.96m0 4.97v9.98m0 4.98v9.97m0 5v9.96m0 5V550m0 4.98v9.98m0 4.98v9.97m0 5v9.96m0 4.98v9.97m0 4.98v9.98m0 5v9.96m0 5v9.96m0 5v9.96m0 4.98v9.98m0 4.98v9.97m0 4.98v9.97m0 5v9.96m0 5v9.97m0 4.98v9.97m0 5v9.96m0 5v9.96m0 4.98v9.97m0 4.98v9.97m0 5v9.96m0 5v9.97m0 4.98v9.97m0 5v9.96m0 5v9.96m0 5V909m0 4.98v9.97m0 5v9.96m0 5v9.97m0 5v9.96m0 4.98v9.98m0 5v9.96m0 5v9.96m0 4.98v9.98m0 4.98v9.97m0 5v9.97m0 5v9.96m0 4.98v10m0 4.97v9.97m0 5v9.96m0 5v9.96m0 4.98v9.98m0 4.98v9.97m0 5v9.96m0 5v9.96m0 4.97v9.98m0 4.98v9.97m0 5v9.96m0 5v9.96m0 4.98v9.98m0 4.98v9.97m0 5v9.96m0 4.98v9.97m0 4.98v9.98m0 5v9.96m0 5v9.96m0 5v9.96m0 4.98v9.98m0 4.98v9.97m0 4.98v9.97m0 5v9.96m0 5v9.97m0 4.98v9.97m0 5v9.96m0 5v9.96m0 4.98v9.97m0 4.98v9.97m0 5v9.96m0 5v9.97m0 4.98v9.97m0 5v9.96m0 5v9.96m0 5v9.96m0 4.98v9.97m0 5v9.96m0 5v9.97m0 5v9.96m0 4.98v9.98m0 5v9.96m0 5v9.96m0 4.98v9.98m0 4.98v9.97m0 5v9.97m0 5v9.96m0 4.98v10m0 4.97v9.97m0 5v9.96m0 5v9.96m0 4.98v9.98m0 4.98v9.97m0 5v9.96m0 5v9.96m0 4.97v9.98m0 4.98v9.97m0 5v9.96m0 5v9.96m0 4.98v9.98m0 4.98v9.97m0 5v9.96m0 4.98v9.97m0 4.98v9.98m0 5v9.96m0 5v9.96m0 5v9.96m0 4.98v9.98m0 4.98v9.97m0 4.98v9.97m0 5v9.96m0 5v9.97m0 4.98v9.97m0 5v9.96m0 5v9.96m0 4.98v9.97m0 4.98v9.97m0 5v9.96m0 5v9.97m0 4.98v9.97m0 5v9.96m0 5v9.96m0 5v9.96m0 4.98v9.97m0 5v9.96m0 5v9.97m0 5v9.96m0 4.98v9.98m0 5v9.96m0 5v9.96m0 4.98v9.98m0 4.98v9.97m0 5v9.97m0 5v9.96m0 4.98v5.08l-.03.03-.02.05-.02.03-.03.02-.04.02-.02.02h-.16l-.03-.02-.05-.02-.03-.02-.02-.03-.02-.04-.02-.02v-5.08m0-4.97v-9.97m0-5v-9.96m0-5v-9.96m0-4.98v-9.98m0-4.98v-9.97m0-5v-9.96m0-5v-9.96m0-4.97v-9.98m0-4.98v-9.97m0-5v-9.96m0-5V2320m0-4.98v-9.98m0-4.98v-9.97m0-5v-9.96m0-4.98v-9.97m0-4.98v-9.98m0-5v-9.96m0-5v-9.96m0-5v-9.96m0-4.98v-9.98m0-4.98v-9.97m0-4.98v-9.97m0-5v-9.96m0-5v-9.97m0-4.98v-9.97m0-5v-9.96m0-5v-9.96m0-4.98v-9.97m0-4.98v-9.97m0-5v-9.96m0-5v-9.97m0-4.98v-9.97m0-5v-9.96m0-5v-9.96m0-5V1961m0-4.98v-9.97m0-5v-9.96m0-5v-9.97m0-5v-9.96m0-4.98v-9.98m0-5v-9.96m0-5v-9.96m0-4.98v-9.98m0-4.98v-9.97m0-5v-9.97m0-5v-9.96m0-4.98v-10m0-4.97v-9.97m0-5v-9.96m0-5v-9.96m0-4.98v-9.98m0-4.98v-9.97m0-5v-9.96m0-5v-9.96m0-4.97v-9.98m0-4.98v-9.97m0-5v-9.96m0-5V1617m0-4.98v-9.98m0-4.98v-9.97m0-5v-9.96m0-4.98v-9.97m0-4.98v-9.98m0-5v-9.96m0-5v-9.96m0-5v-9.96m0-4.98v-9.98m0-4.98v-9.97m0-4.98v-9.97m0-5v-9.96m0-5v-9.97m0-4.98v-9.97m0-5v-9.96m0-5v-9.96m0-4.98v-9.97m0-4.98v-9.97m0-5v-9.96m0-5v-9.97m0-4.98v-9.97m0-5v-9.96m0-5v-9.96m0-5V1258m0-4.98v-9.97m0-5v-9.96m0-5v-9.97m0-5v-9.96m0-4.98v-9.98m0-5v-9.96m0-5v-9.96m0-4.98v-9.98m0-4.98v-9.97m0-5v-9.97m0-5v-9.96m0-4.98v-10m0-4.97v-9.97m0-5v-9.96m0-5v-9.96m0-4.98v-9.98m0-4.98v-9.97m0-5v-9.96m0-5v-9.96m0-4.97v-9.98m0-4.98v-9.97m0-5v-9.96m0-5V914m0-4.98v-9.98m0-4.98v-9.97m0-5v-9.96m0-4.98v-9.97m0-4.98v-9.98m0-5v-9.96m0-5v-9.96m0-5v-9.96m0-4.98v-9.98m0-4.98v-9.97m0-4.98v-9.97m0-5v-9.96m0-5v-9.97m0-4.98v-9.97m0-5v-9.96m0-5v-9.96m0-4.98v-9.97m0-4.98v-9.97m0-5v-9.96m0-5v-9.97m0-4.98v-9.97m0-5v-9.96m0-5v-9.96m0-5V555m0-4.98v-9.97m0-5v-9.96m0-5v-9.97m0-5v-9.96m0-4.98v-9.98m0-5v-9.96m0-5v-9.96m0-4.98v-9.98m0-4.98v-9.97m0-5v-9.97m0-5v-9.96m0-4.98v-5.08l.02-.03.02-.05.02-.03.03-.02.04-.02.02-.02h.16l.03.02.05.02.03.02.02.03.02.04.02.02v5.08" stroke="#3a414a" stroke-width=".5"/></g><path d="M339.75 299.75c0 10.9-8.84 19.75-19.75 19.75-10.9 0-19.75-8.84-19.75-19.75 0-10.9 8.84-19.75 19.75-19.75 10.9 0 19.75 8.84 19.75 19.75z" stroke="#3a414a" fill="#fff"/><path d="M320 319.5v49.3a20.7 20.7 0 0 0 3.2 11.07L360 438m-40-63.2L280 438m0-98.75h80" stroke="#3a414a" fill="none"/><path d="M280 286a6 6 0 0 1 6-6h68a6 6 0 0 1 6 6v168a6 6 0 0 1-6 6h-68a6 6 0 0 1-6-6z" fill="none"/><use xlink:href="#d" transform="matrix(1,0,0,1,200,438) translate(70.67901234567901 17.77777777777778)"/><path d="M300.5 506a6 6 0 0 1 6-6H334a6 6 0 0 1 6 6v1948a6 6 0 0 1-6 6h-27.5a6 6 0 0 1-6-6z" stroke="#3a414a" fill="#fff"/><path d="M360 1886a6 6 0 0 1 6-6h88a6 6 0 0 1 6 6v8a14.48 14.48 0 0 1-4.24 10.24l-1.52 1.52A14.48 14.48 0 0 1 444 1910h-78a6 6 0 0 1-6-6z" fill="#fff"/><path d="M460 1880v20l-10 10h-90" stroke="#3a414a" fill="none"/><path d="M360 1886a6 6 0 0 1 6-6h688a6 6 0 0 1 6 6v488a6 6 0 0 1-6 6H366a6 6 0 0 1-6-6z" stroke="#3a414a" fill="none"/><use xlink:href="#e" transform="matrix(1,0,0,1,368,1880) translate(0 19.444444444444443)"/><use xlink:href="#f" transform="matrix(1,0,0,1,372,1918) translate(0 19.444444444444443)"/><use xlink:href="#g" transform="matrix(1,0,0,1,372,1918) translate(124.62962962962963 19.444444444444443)"/><use xlink:href="#h" transform="matrix(1,0,0,1,372,1918) translate(149.93827160493828 19.444444444444443)"/><path d="M540 306a6 6 0 0 1 6-6h273.13a6 6 0 0 1 6 6v108a6 6 0 0 1-6 6H546a6 6 0 0 1-6-6z" stroke="#3a414a" fill="#fff"/><use xlink:href="#i" transform="matrix(1,0,0,1,545,305) translate(12.197530864197574 59.02777777777778)"/><g fill="none"><path d="M680 430.25a.25.25 0 0 1 .25.25v2069a.25.25 0 0 1-.25.25.25.25 0 0 1-.25-.25v-2069a.25.25 0 0 1 .25-.25z"/><path d="M680.25 440.5v10m0 5v9.98m0 5v10m0 5v10m0 5v9.98m0 5v10m0 5v10m0 4.98v10m0 5v10m0 5v10m0 4.98v10m0 5v10m0 5v9.98m0 5v10m0 5v10m0 5v9.98m0 5v10m0 5v10m0 5v9.98m0 5v10m0 5v10m0 4.98v10m0 5v10m0 5v9.98m0 5v10m0 5v10m0 5v9.98m0 5v10m0 5v10m0 5v9.98m0 5v10m0 5v10m0 4.98v10m0 5v10m0 5v9.98m0 5v10m0 5v10m0 5v9.98m0 5v10m0 5v10m0 5v9.98m0 5v10m0 5v10m0 4.98v10m0 5v10m0 5v9.98m0 5v10m0 5v10m0 5v9.98m0 5v10m0 5v10m0 5v9.98m0 5v10m0 5v10m0 4.98v10m0 5v10m0 5v10m0 4.98v10m0 5v10m0 5v9.98m0 5v10m0 5v10m0 5v9.98m0 5v10m0 5v10m0 4.98v10m0 5v10m0 5v9.98m0 5v10m0 5v10m0 5v9.98m0 5v10m0 5v10m0 5v9.98m0 5v10m0 5v10m0 4.98v10m0 5v10m0 5v9.98m0 5v10m0 5v10m0 5v9.98m0 5v10m0 5v10m0 5v9.98m0 5v10m0 5v10m0 4.98v10m0 5v10m0 5v9.98m0 5v10m0 5v10m0 5v9.98m0 5v10m0 5v10m0 5v9.98m0 5v10m0 5v10m0 4.98v10m0 5v10m0 5v10m0 4.98v10m0 5v10m0 5v9.98m0 5v10m0 5v10m0 5v9.98m0 5v10m0 5v10m0 4.98v10m0 5v10m0 5v10m0 4.98v10m0 5v10m0 5v9.98m0 5v10m0 5v10m0 5v9.98m0 5v10m0 5v10m0 5v9.98m0 5v10m0 5v10m0 4.98v10m0 5v10m0 5v9.98m0 5v10m0 5v10m0 5v9.98m0 5v10m0 5v10m0 5v9.98m0 5v10m0 5v10m0 4.98v10m0 5v10m0 5v9.98m0 5v5.08l-.03.03-.02.05-.02.03-.03.02-.04.02-.02.02h-.16l-.03-.02-.05-.02-.03-.02-.02-.03-.02-.04-.02-.02v-5.08m0-5v-10m0-5v-9.98m0-5v-10m0-5v-10m0-5v-9.98m0-5v-10m0-5v-10m0-4.98v-10m0-5v-10m0-5v-10m0-4.98v-10m0-5v-10m0-5v-9.98m0-5v-10m0-5v-10m0-5v-9.98m0-5v-10m0-5v-10m0-5v-9.98m0-5v-10m0-5v-10m0-4.98v-10m0-5v-10m0-5v-9.98m0-5v-10m0-5v-10m0-5v-9.98m0-5v-10m0-5v-10m0-5v-9.98m0-5v-10m0-5v-10m0-4.98v-10m0-5v-10m0-5v-9.98m0-5v-10m0-5v-10m0-5v-9.98m0-5v-10m0-5v-10m0-5v-9.98m0-5v-10m0-5v-10m0-4.98v-10m0-5v-10m0-5v-9.98m0-5v-10m0-5v-10m0-5v-9.98m0-5v-10m0-5v-10m0-5v-9.98m0-5v-10m0-5v-10m0-4.98v-10m0-5v-10m0-5v-10m0-4.98v-10m0-5v-10m0-5v-9.98m0-5v-10m0-5v-10m0-5v-9.98m0-5v-10m0-5v-10m0-4.98v-10m0-5v-10m0-5v-10m0-4.98v-10m0-5v-10m0-5v-9.98m0-5v-10m0-5v-10m0-5v-9.98m0-5v-10m0-5v-10m0-4.98v-10m0-5v-10m0-5v-10m0-4.98v-10m0-5v-10m0-5v-9.98m0-5v-10m0-5v-10m0-5v-9.98m0-5v-10m0-5v-10m0-5v-9.98m0-5v-10m0-5v-10m0-4.98v-10m0-5v-10m0-5v-9.98m0-5v-10m0-5v-10m0-5v-9.98m0-5v-10m0-5v-10m0-5v-9.98m0-5v-10m0-5v-10m0-4.98v-10m0-5v-10m0-5v-9.98m0-5v-10m0-5v-10m0-5v-9.98m0-5v-10m0-5v-10m0-5v-9.98m0-5v-10m0-5v-10m0-4.98v-10m0-5v-10m0-5v-9.98m0-5v-10m0-5v-10m0-5v-9.98m0-5v-10m0-5v-10m0-5v-9.98m0-5v-10m0-5v-10m0-4.98v-10m0-5v-10m0-5v-10m0-4.98v-10m0-5v-10m0-5v-9.98m0-5v-10m0-5v-10m0-5v-9.98m0-5v-10m0-5v-10m0-4.98v-10m0-5v-10m0-5v-10m0-4.98v-5.08l.02-.03.02-.05.02-.03.03-.02.04-.02.02-.02h.16l.03.02.05.02.03.02.02.03.02.04.02.02v5.08" stroke="#3a414a" stroke-width=".5"/></g><path d="M659.5 506a6 6 0 0 1 6-6H694a6 6 0 0 1 6 6v1928a6 6 0 0 1-6 6h-28.5a6 6 0 0 1-6-6z" stroke="#3a414a" fill="#fff"/><path d="M380 506a6 6 0 0 1 6-6h228a6 6 0 0 1 6 6v29a6 6 0 0 1-6 6H386a6 6 0 0 1-6-6z" stroke="#000" stroke-opacity="0" fill="#fff" fill-opacity="0"/><use xlink:href="#j" transform="matrix(1,0,0,1,385,505) translate(28.487654320987673 19.71527777777778)"/><path d="M341 555.48h301.62" stroke="#3a414a" fill="none"/><path d="M341 555.98h-.5v-1h.5z" stroke="#3a414a" stroke-width=".05" fill="#3a414a"/><path d="M657.38 555.48l-14.26 4.63v-9.26z" stroke="#3a414a" fill="#3a414a"/><path d="M940 547a6 6 0 0 1 6-6h268a6 6 0 0 1 6 6v108a6 6 0 0 1-6 6H946a6 6 0 0 1-6-6z" stroke="#3a414a" fill="#fff"/><use xlink:href="#k" transform="matrix(1,0,0,1,945,546) translate(14.13580246913584 59.02777777777778)"/><path d="M701 612.26h4.96m4.96 0h9.9m4.97 0h9.9m4.97 0h9.9m4.97 0h9.92m4.96 0h9.9m4.97 0h9.9m4.97 0h9.9m4.97 0h9.9m4.94 0h9.88m4.95 0h9.9m4.93 0h9.88m4.95 0h9.9m4.93 0h9.88m4.94 0h9.88m4.95 0h9.88m4.95 0h4.94" stroke="#3a414a" fill="none"/><path d="M701 612.76h-.5v-1h.5z" stroke="#3a414a" stroke-width=".05" fill="#3a414a"/><path d="M921.3 622.45l17.22-10.2-17.22-10.17" stroke="#3a414a" fill="none"/><g fill="none"><path d="M1080.5 660.25a.25.25 0 0 1 .25.25v1829a.25.25 0 0 1-.25.25.25.25 0 0 1-.25-.25v-1829a.25.25 0 0 1 .25-.25z"/><path d="M1080.75 670.5v10m0 5v9.98m0 5v10m0 5v9.98m0 5v10m0 5v10m0 5v9.98m0 5v10m0 5v9.98m0 5v10m0 5v10m0 4.98v10m0 5v10m0 5v9.98m0 5v10m0 5v10m0 4.98v10m0 5v10m0 5v9.98m0 5v10m0 5v9.98m0 5v10m0 5v10m0 5v9.98m0 5v10m0 5v9.98m0 5v10m0 5v10m0 4.98v10m0 5v10m0 5v9.98m0 5v10m0 5v10m0 4.98v10m0 5v10m0 5v9.98m0 5v10m0 5v10m0 4.98v10m0 5v10m0 5v9.98m0 5v10m0 5v9.98m0 5v10m0 5v10m0 5v9.98m0 5v10m0 5v9.98m0 5v10m0 5v10m0 4.98v10m0 5v10m0 5v9.98m0 5v10m0 5v10m0 4.98v10m0 5v10m0 5v9.98m0 5v10m0 5v9.98m0 5v10m0 5v10m0 5v9.98m0 5v10m0 5v9.98m0 5v10m0 5v10m0 4.98v10m0 5v10m0 5v9.98m0 5v10m0 5v10m0 4.98v10m0 5v10m0 5v9.98m0 5v10m0 5v10m0 4.98v10m0 5v10m0 5v9.98m0 5v10m0 5v9.98m0 5v10m0 5v10m0 5v9.98m0 5v10m0 5v9.98m0 5v10m0 5v10m0 4.98v10m0 5v10m0 5v9.98m0 5v10m0 5v10m0 4.98v10m0 5v10m0 5v9.98m0 5v10m0 5v10m0 4.98v10m0 5v10m0 5v9.98m0 5v10m0 5v9.98m0 5v10m0 5v10m0 5v9.98m0 5v10m0 5v9.98m0 5v10m0 5v10m0 4.98v10m0 5v10m0 5v9.98m0 5v10m0 5v10m0 4.98v10m0 5v10m0 5v9.98m0 5v10m0 5v10m0 4.98v5.08l-.03.03-.02.05-.02.03-.03.02-.04.02-.02.02h-.16l-.03-.02-.05-.02-.03-.02-.02-.03-.02-.04-.02-.02v-5.08m0-5v-10m0-5v-9.98m0-5v-10m0-5v-9.98m0-5v-10m0-5v-10m0-5v-9.98m0-5v-10m0-5v-9.98m0-5v-10m0-5v-10m0-4.98v-10m0-5v-10m0-5v-9.98m0-5v-10m0-5v-10m0-4.98v-10m0-5v-10m0-5v-9.98m0-5v-10m0-5v-10m0-4.98v-10m0-5v-10m0-5v-9.98m0-5v-10m0-5v-9.98m0-5v-10m0-5v-10m0-5v-9.98m0-5v-10m0-5v-9.98m0-5v-10m0-5v-10m0-4.98v-10m0-5v-10m0-5v-9.98m0-5v-10m0-5v-10m0-4.98v-10m0-5v-10m0-5v-9.98m0-5v-10m0-5v-10m0-4.98v-10m0-5v-10m0-5v-9.98m0-5v-10m0-5v-9.98m0-5v-10m0-5v-10m0-5v-9.98m0-5v-10m0-5v-9.98m0-5v-10m0-5v-10m0-4.98v-10m0-5v-10m0-5V1615m0-5v-10m0-5v-10m0-4.98v-10m0-5v-10m0-5v-9.98m0-5v-10m0-5v-9.98m0-5v-10m0-5v-10m0-5v-9.98m0-5v-10m0-5v-9.98m0-5v-10m0-5v-10m0-4.98v-10m0-5v-10m0-5v-9.98m0-5v-10m0-5v-10m0-4.98v-10m0-5v-10m0-5v-9.98m0-5v-10m0-5v-10m0-4.98v-10m0-5v-10m0-5v-9.98m0-5v-10m0-5v-9.98m0-5v-10m0-5v-10m0-5v-9.98m0-5v-10m0-5v-9.98m0-5v-10m0-5v-10m0-4.98v-10m0-5v-10m0-5v-9.98m0-5v-10m0-5v-10m0-4.98v-10m0-5v-10m0-5v-9.98m0-5v-10m0-5v-10m0-4.98v-10m0-5v-10m0-5v-9.98m0-5v-10m0-5v-9.98m0-5v-10m0-5v-10m0-5v-9.98m0-5v-10m0-5v-9.98m0-5v-10m0-5v-10m0-4.98v-10m0-5v-10m0-5v-9.98m0-5v-10m0-5v-10m0-4.98v-5.08l.02-.03.02-.05.02-.03.03-.02.04-.02.02-.02h.16l.03.02.05.02.03.02.02.03.02.04.02.02v5.08" stroke="#3a414a" stroke-width=".5"/></g><path d="M1060.5 731a6 6 0 0 1 6-6h27.5a6 6 0 0 1 6 6v1103a6 6 0 0 1-6 6h-27.5a6 6 0 0 1-6-6z" stroke="#3a414a" fill="#fff"/><g fill="none"><path d="M1500.5 320.25a.25.25 0 0 1 .25.25v2179a.25.25 0 0 1-.25.25.25.25 0 0 1-.25-.25v-2179a.25.25 0 0 1 .25-.25z"/><path d="M1500.75 330.52v10.02m0 5v10.02m0 5v10.03m0 5v10.02m0 5v10.03m0 5v10.03m0 5v10.02m0 5v10.03m0 5v10.03m0 5v10.03m0 5v10m0 5.02v10.02m0 5v10.03m0 5v10.03m0 5v10.02m0 5v10.03m0 5V581m0 5v10.03m0 5.02v10m0 5.02v10.02m0 5v10.03m0 5v10.02m0 5v10.02m0 5v10.03m0 5v10.03m0 5v10.03m0 5v10.02m0 5v10.03m0 5v10.03m0 5.02v10.02m0 5v10.02m0 5v10.03m0 5v10.02m0 5v10.03m0 5v10.03m0 5v10.02m0 5v10.03m0 5v10.03m0 5v10.03m0 5v10m0 5.02v10.02m0 5v10.03m0 5v10.03m0 5v10.02m0 5v10.03m0 5v10.03m0 5v10.03m0 5.02v10m0 5.02v10.02m0 5v10.03m0 5v10.02m0 5v10.02m0 5v10.03m0 5V1137m0 5v10.03m0 5v10.02m0 5v10.03m0 5v10.03m0 5.02v10.02m0 5v10.02m0 5v10.03m0 5v10.02m0 5v10.03m0 5v10.03m0 5v10.02m0 5v10.03m0 5v10.03m0 5v10.03m0 5v10m0 5.02v10.02m0 5v10.03m0 5v10.02m0 5v10.02m0 5v10.03m0 5v10.03m0 5v10.03m0 5.02v10m0 5.02v10.02m0 5v10.03m0 5v10.02m0 5v10.02m0 5v10.03m0 5v10.03m0 5v10.03m0 5v10.02m0 5v10.03m0 5v10.03m0 5.02v10.02m0 5v10.02m0 5V1678m0 5v10.02m0 5v10.03m0 5v10.03m0 5v10.02m0 5v10.03m0 5v10.03m0 5v10.02m0 5v10.03m0 5.02v10.02m0 5v10.03m0 5v10.03m0 5v10.02m0 5v10.03m0 5v10.03m0 5v10.03m0 5v10.03m0 5v10.03m0 5v10.03m0 5v10.02m0 5v10.02m0 5v10.03m0 5v10.03m0 5v10.03m0 5v10.02m0 5v10.03m0 5v10.03m0 5.02v10.02m0 5v10.02m0 5v10.03m0 5v10.02m0 5v10.03m0 5v10.03m0 5v10.02m0 5v10.03m0 5v10.03m0 5V2219m0 5v10m0 5.02v10.02m0 5v10.03m0 5v10.02m0 5v10.02m0 5v10.03m0 5v10.03m0 5v10.03m0 5.02v10m0 5.02v10.02m0 5v10.03m0 5v10.02m0 5v10.02m0 5v10.03m0 5v10.03m0 5v10.03m0 5v10.02m0 5v10.03m0 5v5.1l-.03.03-.02.05-.02.03-.03.02-.04.02-.02.02h-.16l-.03-.02-.05-.02-.03-.02-.02-.03-.02-.04-.02-.02v-5.08m0-5.02v-10.02m0-5v-10.02m0-5v-10.03m0-5v-10.02m0-5v-10.03m0-5v-10.03m0-5v-10.02m0-5v-10.03m0-5v-10.03m0-5v-10.02m0-5v-10.03m0-5.02v-10.02m0-5v-10.03m0-5v-10.03m0-5v-10.02m0-5v-10.03m0-5V2239m0-5v-10.03m0-5v-10.03m0-5v-10.03m0-5v-10.03m0-5v-10.02m0-5v-10.02m0-5v-10.03m0-5v-10.03m0-5v-10.03m0-5v-10.02m0-5v-10.03m0-5v-10.03m0-5.02v-10.02m0-5v-10.02m0-5v-10.03m0-5v-10.02m0-5v-10.03m0-5v-10.02m0-5v-10.03m0-5v-10.03m0-5v-10.03m0-5v-10.03m0-5v-10m0-5.02v-10.02m0-5v-10.03m0-5v-10.02m0-5v-10.02m0-5v-10.03m0-5v-10.03m0-5v-10.03m0-5.02v-10m0-5.02v-10.02m0-5v-10.03m0-5v-10.02m0-5v-10.02m0-5v-10.03m0-5V1683m0-5v-10.03m0-5v-10.02m0-5v-10.03m0-5v-10.03m0-5.02v-10.02m0-5v-10.02m0-5v-10.03m0-5v-10.02m0-5v-10.03m0-5v-10.03m0-5v-10.02m0-5v-10.03m0-5v-10.03m0-5v-10.03m0-5v-10m0-5.02v-10.02m0-5v-10.03m0-5v-10.02m0-5v-10.02m0-5v-10.03m0-5v-10.03m0-5v-10.03m0-5.02v-10m0-5.02v-10.02m0-5v-10.03m0-5v-10.02m0-5v-10.02m0-5v-10.03m0-5v-10.03m0-5v-10.03m0-5v-10.02m0-5v-10.03m0-5v-10.03m0-5.02v-10.02m0-5v-10.02m0-5V1142m0-5v-10.02m0-5v-10.03m0-5v-10.03m0-5v-10.02m0-5v-10.03m0-5v-10.03m0-5v-10.02m0-5v-10.03m0-5.02v-10.02m0-5v-10.03m0-5V976.7m0-5v-10.02m0-5v-10.03m0-5V931.6m0-5v-10.03m0-5v-10.03m0-5v-10.03m0-5V871.5m0-5v-10.02m0-5v-10.02m0-5v-10.03m0-5V811.4m0-5v-10.03m0-5v-10.02m0-5V766.3m0-5v-10.03m0-5.02v-10.02m0-5v-10.02m0-5V706.2m0-5v-10.02m0-5v-10.03m0-5v-10.02m0-5V646.1m0-5v-10.03m0-5v-10.03m0-5V601m0-5v-10.03m0-5.02v-10.02m0-5v-10.03m0-5V540.9m0-5v-10.02m0-5v-10.03m0-5V495.8m0-5v-10.03m0-5.02v-10m0-5.02v-10.02m0-5V435.7m0-5v-10.02m0-5v-10.02m0-5v-10.03m0-5V375.6m0-5v-10.03m0-5v-10.02m0-5V330.5m0-5v-5.1l.02-.03.02-.05.02-.03.03-.02.04-.02.02-.02h.16l.03.02.05.02.03.02.02.03.02.04.02.02v5.08" stroke="#3a414a" stroke-width=".5"/></g><path d="M1480 416a6 6 0 0 1 6-6h28a6 6 0 0 1 6 6v1398a6 6 0 0 1-6 6h-28a6 6 0 0 1-6-6zM1320.5 246a6 6 0 0 1 6-6h348a6 6 0 0 1 6 6v108a6 6 0 0 1-6 6h-348a6 6 0 0 1-6-6z" stroke="#3a414a" fill="#fff"/><path d="M1356.5 240v120m288-120v120" stroke="#3a414a" fill="none"/><use xlink:href="#l" transform="matrix(1,0,0,1,1370.4999999999995,245) translate(56.111111111111114 59.44444444444444)"/><g fill="none"><path d="M2300 360.25a.25.25 0 0 1 .25.25v2139a.25.25 0 0 1-.25.25.25.25 0 0 1-.25-.25v-2139a.25.25 0 0 1 .25-.25z"/><path d="M2300.25 370.47v9.97m0 5v9.96m0 5v9.96m0 5v9.96m0 4.98v9.98m0 4.98v9.97m0 5v9.96m0 4.98v9.97m0 5v9.96m0 5v9.97m0 4.98v9.97m0 5v9.96m0 5v9.96m0 5v9.96m0 5v9.96m0 4.98v9.98m0 4.98v9.97m0 5v9.96m0 5v9.96m0 4.97v9.98m0 4.98v9.98m0 5v9.96m0 5v9.96m0 5v9.96m0 4.98v9.98m0 4.98v9.98m0 4.98v9.97m0 5v9.96m0 5v9.97m0 5v9.96m0 4.98v9.98m0 5v9.96m0 5v9.96m0 5v9.96m0 5V889m0 4.98v9.98m0 4.98v9.97m0 5v9.96m0 4.98v9.97m0 5v9.96m0 5v9.97m0 4.98v9.97m0 5v9.96m0 5v9.96m0 5v9.96m0 4.98v9.98m0 4.98v9.97m0 5v9.97m0 5v9.96m0 5v9.96m0 4.97v9.98m0 4.98v9.97m0 5v9.96m0 5v9.96m0 5v9.96m0 4.98v9.98m0 4.98v9.97m0 4.98v9.97m0 5v9.96m0 5v9.97m0 4.98v9.98m0 4.98v10m0 4.97v9.97m0 5v9.96m0 5v9.96m0 4.98v9.98m0 4.98v9.98m0 4.98v9.97m0 5v9.96m0 4.98v9.97m0 4.98v9.98m0 5v9.97m0 4.98v9.97m0 5v9.96m0 5v9.96m0 4.98v9.98m0 4.98v9.98m0 4.98v9.97m0 5v9.97m0 5v9.96m0 4.98v10m0 4.97v9.98m0 4.98v9.97m0 5v9.96m0 5v9.96m0 5v9.96m0 4.98v9.98m0 4.98v9.97m0 4.98v9.97m0 5v9.96m0 5v9.97m0 4.98v9.98m0 4.98v9.98m0 5v9.96m0 5v9.96m0 5v9.96m0 4.98v9.98m0 4.98v9.97m0 5v9.96m0 5v9.96m0 4.98v9.97m0 4.98v9.98m0 5v9.96m0 5v9.96m0 5v9.96m0 5v9.96m0 4.98v9.98m0 4.98v9.97m0 5v9.96m0 5v9.97m0 5v9.96m0 5v9.96m0 4.97v9.97m0 5v9.96m0 5v9.96m0 5v9.96m0 5v9.96m0 4.98v9.97m0 5v9.96m0 4.98v9.97m0 5v9.96m0 5v9.97m0 4.98v9.97m0 5v9.96m0 5v9.96m0 5v9.96m0 5v9.96m0 4.98v9.97m0 5v9.97m0 5v9.96m0 5v9.96m0 4.98v9.97m0 4.98v9.98m0 5v9.96m0 5v9.96m0 5v9.96m0 5v9.96m0 4.98v9.98m0 4.98v9.97m0 5v9.96m0 5v9.97m0 5v9.96m0 4.98v5.08l-.03.03-.02.05-.02.03-.03.02-.04.02-.02.02h-.16l-.03-.02-.05-.02-.03-.02-.02-.03-.02-.04-.02-.02v-5.08m0-4.97v-9.97m0-5v-9.96m0-5v-9.96m0-5v-9.96m0-4.98v-9.98m0-4.98v-9.97m0-5v-9.96m0-4.98v-9.97m0-5v-9.96m0-5v-9.97m0-4.98v-9.97m0-5v-9.96m0-5v-9.96m0-5v-9.96m0-5v-9.96m0-4.98v-9.97m0-5v-9.97m0-5v-9.96m0-5v-9.96m0-4.98v-9.97m0-4.98v-9.97m0-5v-9.96m0-5v-9.96m0-5v-9.96m0-5v-9.96m0-4.98v-9.97m0-4.98v-9.97m0-5v-9.96m0-5v-9.97m0-5v-9.96m0-4.98v-9.98m0-5v-9.96m0-5v-9.96m0-5v-9.96m0-5V1971m0-4.98v-9.98m0-4.98v-9.97m0-5v-9.96m0-4.98v-9.97m0-5v-9.96m0-5v-9.97m0-4.98v-9.97m0-5v-9.96m0-5v-9.96m0-5v-9.96m0-4.98v-9.98m0-4.98v-9.97m0-5v-9.97m0-5v-9.96m0-5v-9.96m0-4.97v-9.98m0-4.98v-9.97m0-5v-9.96m0-5v-9.96m0-5v-9.96m0-4.98v-9.98m0-4.98v-9.97m0-4.98v-9.97m0-5V1612m0-5v-9.97m0-4.98v-9.98m0-4.98v-10m0-4.97v-9.97m0-5v-9.96m0-5v-9.96m0-4.98v-9.98m0-4.98v-9.98m0-4.98v-9.97m0-5v-9.96m0-4.98v-9.97m0-4.98v-9.98m0-5v-9.97m0-4.98v-9.97m0-5v-9.96m0-5v-9.96m0-4.98v-9.98m0-4.98v-9.98m0-4.98v-9.97m0-5v-9.97m0-5v-9.96m0-4.98v-10m0-4.97v-9.98m0-4.98V1253m0-5v-9.96m0-5v-9.96m0-5v-9.96m0-4.98v-9.98m0-4.98v-9.97m0-4.98v-9.97m0-5v-9.96m0-5v-9.97m0-4.98v-9.98m0-4.98v-9.98m0-5v-9.96m0-5v-9.96m0-5v-9.96m0-4.98v-9.98m0-4.98v-9.97m0-5v-9.96m0-5v-9.96m0-4.98v-9.97m0-4.98v-9.98m0-5v-9.96m0-5v-9.96m0-5v-9.96m0-5v-9.96m0-4.98V894m0-4.98v-9.97m0-5v-9.96m0-5v-9.97m0-5v-9.96m0-5v-9.96m0-4.97v-9.97m0-5v-9.96m0-5v-9.96m0-5v-9.96m0-5v-9.96m0-4.98v-9.98m0-4.98v-9.97m0-4.98v-9.97m0-5v-9.96m0-5v-9.97m0-4.98v-9.98m0-4.98v-9.98m0-5v-9.96m0-5v-9.96m0-4.98v-9.98m0-4.98v-9.98m0-4.98v-9.97m0-5v-9.96m0-5v-9.96m0-4.98v-9.97m0-4.98v-9.98m0-5v-9.96m0-5v-9.96m0-5v-9.96m0-5v-9.96m0-4.98v-9.98m0-4.98v-9.97m0-5v-9.96m0-5v-9.97m0-5v-9.96m0-4.98v-5.08l.02-.03.02-.05.02-.03.03-.02.04-.02.02-.02h.16l.03.02.05.02.03.02.02.03.02.04.02.02v5.08" stroke="#3a414a" stroke-width=".5"/></g><path d="M2278.98 1346a6 6 0 0 1 6-6h28.52a6 6 0 0 1 6 6v268a6 6 0 0 1-6 6h-28.52a6 6 0 0 1-6-6zM2120 246a6 6 0 0 1 6-6h348a6 6 0 0 1 6 6v108a6 6 0 0 1-6 6h-348a6 6 0 0 1-6-6z" stroke="#3a414a" fill="#fff"/><path d="M2156 240v120m288-120v120" stroke="#3a414a" fill="none"/><use xlink:href="#m" transform="matrix(1,0,0,1,2170,245) translate(58.48765432098766 59.44444444444444)"/><path d="M760 846a6 6 0 0 1 6-6h228a6 6 0 0 1 6 6v29a6 6 0 0 1-6 6H766a6 6 0 0 1-6-6z" stroke="#000" stroke-opacity="0" fill="#fff" fill-opacity="0"/><use xlink:href="#n" transform="matrix(1,0,0,1,765,845) translate(-11.635802469135754 19.944444444444443)"/><path d="M701 890.4h342.62" stroke="#3a414a" fill="none"/><path d="M701 890.9h-.5v-1h.5z" stroke="#3a414a" stroke-width=".05" fill="#3a414a"/><path d="M1058.38 890.4l-14.27 4.65.02-9.27z" stroke="#3a414a" fill="#3a414a"/><path d="M1160 985a6 6 0 0 1 6-6h228a6 6 0 0 1 6 6v29a6 6 0 0 1-6 6h-228a6 6 0 0 1-6-6z" stroke="#000" stroke-opacity="0" fill="#fff" fill-opacity="0"/><use xlink:href="#n" transform="matrix(1,0,0,1,1165,984) translate(-11.635802469135754 19.944444444444443)"/><path d="M1101 1020.88h362.12" stroke="#3a414a" fill="none"/><path d="M1101 1021.38h-.5v-1h.5z" stroke="#3a414a" stroke-width=".05" fill="#3a414a"/><path d="M1477.88 1020.88l-14.27 4.63.02-9.26z" stroke="#3a414a" fill="#3a414a"/><path d="M1699 1026a6 6 0 0 1 6-6h268a6 6 0 0 1 6 6v108a6 6 0 0 1-6 6h-268a6 6 0 0 1-6-6z" stroke="#3a414a" fill="#fff"/><use xlink:href="#o" transform="matrix(1,0,0,1,1704,1025) translate(11.018518518518505 59.02777777777778)"/><use xlink:href="#p" transform="matrix(1,0,0,1,1704,1025) translate(129.4753086419753 59.02777777777778)"/><use xlink:href="#q" transform="matrix(1,0,0,1,1704,1025) translate(141.820987654321 59.02777777777778)"/><path d="M1521 1080h4.9m4.9 0h9.82m4.9 0h9.82m4.9 0h9.8m4.92 0h9.8m4.9 0h9.82m4.9 0h9.82m4.9 0h9.82m4.9 0h9.8m4.92 0h9.8m4.9 0h9.82m4.9 0h9.82m4.9 0h4.9" stroke="#3a414a" fill="none"/><path d="M1521 1080.5h-.5v-1h.5z" stroke="#3a414a" stroke-width=".05" fill="#3a414a"/><path d="M1680.3 1090.18l17.22-10.18-17.22-10.18" stroke="#3a414a" fill="none"/><path d="M1739 1349.8a6 6 0 0 1 6-6h228a6 6 0 0 1 6 6v29a6 6 0 0 1-6 6h-228a6 6 0 0 1-6-6z" stroke="#000" stroke-opacity="0" fill="#fff" fill-opacity="0"/><use xlink:href="#n" transform="matrix(1,0,0,1,1744,1348.8052039902238) translate(-11.635802469135754 19.944444444444443)"/><path d="M1521 1386.83h741.1" stroke="#3a414a" fill="none"/><path d="M1521 1387.33h-.5v-1h.5z" stroke="#3a414a" stroke-width=".05" fill="#3a414a"/><path d="M2276.86 1386.83l-14.27 4.64v-9.27z" stroke="#3a414a" fill="#3a414a"/><path d="M1689.5 1449.33a6 6 0 0 1 6-6h327a6 6 0 0 1 6 6v51.34a6 6 0 0 1-6 6h-327a6 6 0 0 1-6-6z" stroke="#000" stroke-opacity="0" fill="#fff" fill-opacity="0"/><use xlink:href="#r" transform="matrix(1,0,0,1,1694.5116082977916,1448.3333333333335) translate(95.20987654320987 21.15277777777778)"/><use xlink:href="#s" transform="matrix(1,0,0,1,1694.5116082977916,1448.3333333333335) translate(220.82716049382717 21.15277777777778)"/><use xlink:href="#t" transform="matrix(1,0,0,1,1694.5116082977916,1448.3333333333335) translate(50.79629629629632 47.81944444444444)"/><path d="M2277.98 1521.74h-5.05m-5.05 0h-10.1m-5.04 0h-10.1m-5.03 0h-10.1m-5.03 0h-10.1m-5.04 0h-10.1m-5.04 0h-10.1m-5.05 0h-10.1m-5.04 0h-10.1m-5.03 0h-10.1m-5.04 0h-10.1m-5.04 0h-10.1m-5.05 0h-10.1m-5.04 0h-10.08m-5.05 0h-10.1m-5.04 0h-10.1m-5.04 0h-10.1m-5.05 0h-10.1m-5.04 0h-10.08m-5.05 0h-10.1m-5.04 0h-10.1m-5.04 0H1955m-5.05 0h-10.1m-5.04 0h-10.08m-5.05 0h-10.1m-5.03 0h-10.1m-5.03 0h-10.08m-5.03 0h-10.07m-5.03 0h-10.07m-5.04 0H1834m-5.04 0h-10.07m-5.03 0h-10.07m-5.03 0h-10.08m-5.04 0h-10.08m-5.03 0h-10.07m-5.04 0h-10.07m-5.04 0h-10.07m-5.04 0h-10.07m-5.04 0h-10.06m-5.03 0h-10.07m-5.03 0h-10.08m-5.03 0h-10.08m-5.04 0h-10.07m-5.03 0h-10.07m-5.04 0h-10.07m-5.05 0h-10.07m-5.03 0h-10.08m-5.03 0h-10.07m-5.04 0h-10.07m-5.04 0h-5.04" stroke="#3a414a" fill="none"/><path d="M2278.48 1522.24h-.52v-1h.52z" stroke="#3a414a" stroke-width=".05" fill="#3a414a"/><path d="M1522.12 1521.74l14.27-4.63-.02 9.28z" stroke="#3a414a" fill="#3a414a"/><path d="M1135.76 1666a6 6 0 0 1 6-6h276.48a6 6 0 0 1 6 6v51.33a6 6 0 0 1-6 6h-276.48a6 6 0 0 1-6-6z" stroke="#000" stroke-opacity="0" fill="#fff" fill-opacity="0"/><use xlink:href="#r" transform="matrix(1,0,0,1,1140.7615931903442,1665) translate(70.20987654320987 21.15277777777778)"/><use xlink:href="#s" transform="matrix(1,0,0,1,1140.7615931903442,1665) translate(195.82716049382717 21.15277777777778)"/><use xlink:href="#t" transform="matrix(1,0,0,1,1140.7615931903442,1665) translate(25.79629629629632 47.81944444444444)"/><path d="M1479 1743.2h-4.85m-4.84 0h-9.68m-4.85 0h-9.7m-4.84 0h-9.7m-4.84 0h-9.7m-4.85 0h-9.7m-4.84 0h-9.68m-4.84 0h-9.7m-4.84 0h-9.7m-4.84 0h-9.7m-4.84 0h-9.7m-4.84 0h-9.7m-4.84 0h-9.7m-4.83 0H1285.2m-4.82 0h-9.62m-4.8 0h-9.62m-4.8 0h-9.63m-4.8 0h-9.6m-4.82 0h-9.62m-4.8 0h-9.63m-4.8 0h-9.62m-4.8 0h-9.62m-4.8 0h-9.63m-4.8 0h-9.62m-4.8 0h-9.63m-4.8 0h-4.82" stroke="#3a414a" fill="none"/><path d="M1479.5 1743.7h-.5v-1h.5z" stroke="#3a414a" stroke-width=".05" fill="#3a414a"/><path d="M1102.12 1743.2l14.27-4.62-.02 9.27z" stroke="#3a414a" fill="#3a414a"/><path d="M720 1746a6 6 0 0 1 6-6h276.48a6 6 0 0 1 6 6v51.33a6 6 0 0 1-6 6H726a6 6 0 0 1-6-6z" stroke="#000" stroke-opacity="0" fill="#fff" fill-opacity="0"/><use xlink:href="#r" transform="matrix(1,0,0,1,725,1745) translate(70.20987654320987 21.15277777777778)"/><use xlink:href="#s" transform="matrix(1,0,0,1,725,1745) translate(195.82716049382717 21.15277777777778)"/><use xlink:href="#t" transform="matrix(1,0,0,1,725,1745) translate(25.79629629629632 47.81944444444444)"/><path d="M1059.5 1826.7h-4.98m-4.98 0h-9.96m-4.98 0h-9.95m-4.98 0h-9.96m-4.97 0h-9.96m-4.98 0h-9.97m-4.98 0h-9.95m-4.98 0h-9.96m-4.98 0h-9.96m-4.98 0h-9.96m-4.98 0h-9.95m-4.98 0h-9.96m-4.97 0h-9.93m-4.95 0h-9.9m-4.95 0h-9.9m-4.95 0h-9.9m-4.96 0h-9.9m-4.96 0h-9.9m-4.95 0h-9.9m-4.96 0h-9.9m-4.95 0h-9.9m-4.96 0h-9.9m-4.95 0h-9.9m-4.96 0h-4.96" stroke="#3a414a" fill="none"/><path d="M1060 1827.2h-.5v-1h.5z" stroke="#3a414a" stroke-width=".05" fill="#3a414a"/><path d="M702.12 1826.7l14.26-4.64v9.27z" stroke="#3a414a" fill="#3a414a"/><path d="M670.25 1946a6 6 0 0 1 6-6H714a6 6 0 0 1 6 6v88a6 6 0 0 1-6 6h-37.75a6 6 0 0 1-6-6z" stroke="#3a414a" fill="#fff"/><path d="M701 1908.46h53.5a6 6 0 0 1 6 6V1984a6 6 0 0 1-6 6h-17.62" stroke="#3a414a" fill="none"/><path d="M701 1908.96h-.5v-1h.5z" stroke="#3a414a" stroke-width=".05" fill="#3a414a"/><path d="M722.12 1990l14.26-4.63v9.27z" stroke="#3a414a" fill="#3a414a"/><path d="M721 2017.12h5.58m5.6 0h11.15m5.6 0h5.57l.94.07.9.2.88.37.8.5.72.6.6.72.5.8.37.86.23.92.07.94v4.76m0 4.76v9.52m0 4.77v9.52m0 4.76v9.54m0 4.76v4.76l-.07.94-.22.92-.35.87-.5.8-.6.7-.72.62-.8.5-.88.35-.9.22-.95.06h-4.18m-4.18 0h-8.36m-4.18 0h-8.36m-4.18 0h-4.18" stroke="#3a414a" fill="none"/><path d="M721 2017.62h-.5v-1h.5z" stroke="#3a414a" stroke-width=".05" fill="#3a414a"/><path d="M702.12 2086.26l14.26-4.63v9.27z" stroke="#3a414a" fill="#3a414a"/><path d="M380 2160h200.56v36.67H380z" fill="#fff" fill-opacity="0"/><use xlink:href="#u" transform="matrix(1,0,0,1,385,2165) translate(0 17.77777777777778)"/><path d="M760 1926a6 6 0 0 1 6-6h276.48a6 6 0 0 1 6 6v51.33a6 6 0 0 1-6 6H766a6 6 0 0 1-6-6z" stroke="#000" stroke-opacity="0" fill="#fff" fill-opacity="0"/><g><use xlink:href="#v" transform="matrix(1,0,0,1,765,1925) translate(9.777777777777828 31.27777777777778)"/></g><path d="M679.5 2186a6 6 0 0 1 6-6h37.75a6 6 0 0 1 6 6v88a6 6 0 0 1-6 6H685.5a6 6 0 0 1-6-6z" stroke="#3a414a" fill="#fff"/><path d="M701 2153.43h62.75a6 6 0 0 1 6 6V2224a6 6 0 0 1-6 6h-17.62" stroke="#3a414a" fill="none"/><path d="M701 2153.93h-.5v-1h.5z" stroke="#3a414a" stroke-width=".05" fill="#3a414a"/><path d="M731.37 2230l14.26-4.64v9.28z" stroke="#3a414a" fill="#3a414a"/><path d="M730.25 2258.14h5.58m5.6 0h11.15m5.6 0h5.57l.94.08.9.22.87.36.8.5.72.6.6.72.5.8.36.87.22.9.07.94v4.87m0 4.87v9.73m0 4.86v9.73m0 4.85v9.73m0 4.86v9.73m0 4.86v4.86l-.07.93-.22.92-.36.87-.5.8-.6.72-.72.6-.8.5-.88.36-.9.22-.95.07h-5.2m-5.2 0H742.9m-5.2 0H727.3m-5.2 0h-5.22" stroke="#3a414a" fill="none"/><path d="M730.26 2258.64h-.5v-1h.5z" stroke="#3a414a" stroke-width=".05" fill="#3a414a"/><path d="M702.12 2343.1l14.26-4.64v9.27z" stroke="#3a414a" fill="#3a414a"/><path d="M740 2166a6 6 0 0 1 6-6h276.48a6 6 0 0 1 6 6v51.33a6 6 0 0 1-6 6H746a6 6 0 0 1-6-6z" stroke="#000" stroke-opacity="0" fill="#fff" fill-opacity="0"/><g><use xlink:href="#w" transform="matrix(1,0,0,1,745,2165) translate(40.919753086419774 31.27777777777778)"/></g><defs><path d="M137-138c1-29-70-34-71-4 15 46 118 7 119 86 1 83-164 76-172 9l43-7c4 19 20 25 44 25 33 8 57-30 24-41C81-84 22-81 20-136c-2-80 154-74 161-7" id="x"/><path d="M88-194c31-1 46 15 58 34l-1-101h50l1 261h-48c-2-10 0-23-3-31C134-8 116 4 84 4 32 4 16-41 15-95c0-56 19-97 73-99zm17 164c33 0 40-30 41-66 1-37-9-64-41-64s-38 30-39 65c0 43 13 65 39 65" id="y"/><g id="a"><use transform="matrix(0.05,0,0,0.05,0,0)" xlink:href="#x"/><use transform="matrix(0.05,0,0,0.05,10,0)" xlink:href="#y"/></g><path d="M232-93c-1 65-40 97-104 97C67 4 28-28 28-90v-158h33c8 89-33 224 67 224 102 0 64-133 71-224h33v155" id="z"/><path d="M115-194c55 1 70 41 70 98S169 2 115 4C84 4 66-9 55-30l1 105H24l-1-265h31l2 30c10-21 28-34 59-34zm-8 174c40 0 45-34 45-75s-6-73-45-74c-42 0-51 32-51 76 0 43 10 73 51 73" id="A"/><path d="M85-194c31 0 48 13 60 33l-1-100h32l1 261h-30c-2-10 0-23-3-31C134-8 116 4 85 4 32 4 16-35 15-94c0-66 23-100 70-100zm9 24c-40 0-46 34-46 75 0 40 6 74 45 74 42 0 51-32 51-76 0-42-9-74-50-73" id="B"/><path d="M141-36C126-15 110 5 73 4 37 3 15-17 15-53c-1-64 63-63 125-63 3-35-9-54-41-54-24 1-41 7-42 31l-33-3c5-37 33-52 76-52 45 0 72 20 72 64v82c-1 20 7 32 28 27v20c-31 9-61-2-59-35zM48-53c0 20 12 33 32 33 41-3 63-29 60-74-43 2-92-5-92 41" id="C"/><path d="M59-47c-2 24 18 29 38 22v24C64 9 27 4 27-40v-127H5v-23h24l9-43h21v43h35v23H59v120" id="D"/><path d="M100-194c63 0 86 42 84 106H49c0 40 14 67 53 68 26 1 43-12 49-29l28 8c-11 28-37 45-77 45C44 4 14-33 15-96c1-61 26-98 85-98zm52 81c6-60-76-77-97-28-3 7-6 17-6 28h103" id="E"/><g id="b"><use transform="matrix(0.05,0,0,0.05,0,0)" xlink:href="#z"/><use transform="matrix(0.05,0,0,0.05,12.950000000000001,0)" xlink:href="#A"/><use transform="matrix(0.05,0,0,0.05,22.950000000000003,0)" xlink:href="#B"/><use transform="matrix(0.05,0,0,0.05,32.95,0)" xlink:href="#C"/><use transform="matrix(0.05,0,0,0.05,42.95,0)" xlink:href="#D"/><use transform="matrix(0.05,0,0,0.05,47.95,0)" xlink:href="#E"/></g><path d="M127-220V0H93v-220H8v-28h204v28h-85" id="F"/><path d="M135-143c-3-34-86-38-87 0 15 53 115 12 119 90S17 21 10-45l28-5c4 36 97 45 98 0-10-56-113-15-118-90-4-57 82-63 122-42 12 7 21 19 24 35" id="G"/><path d="M143 0L79-87 56-68V0H24v-261h32v163l83-92h37l-77 82L181 0h-38" id="H"/><g id="c"><use transform="matrix(0.05,0,0,0.05,0,0)" xlink:href="#F"/><use transform="matrix(0.05,0,0,0.05,8.950000000000001,0)" xlink:href="#C"/><use transform="matrix(0.05,0,0,0.05,18.950000000000003,0)" xlink:href="#G"/><use transform="matrix(0.05,0,0,0.05,27.950000000000003,0)" xlink:href="#H"/></g><path fill="#3a414a" d="M30 0v-248h187v28H63v79h144v27H63v87h162V0H30" id="I"/><path fill="#3a414a" d="M210-169c-67 3-38 105-44 169h-31v-121c0-29-5-50-35-48C34-165 62-65 56 0H25l-1-190h30c1 10-1 24 2 32 10-44 99-50 107 0 11-21 27-35 58-36 85-2 47 119 55 194h-31v-121c0-29-5-49-35-48" id="J"/><path fill="#3a414a" d="M115-194c55 1 70 41 70 98S169 2 115 4C84 4 66-9 55-30l1 105H24l-1-265h31l2 30c10-21 28-34 59-34zm-8 174c40 0 45-34 45-75s-6-73-45-74c-42 0-51 32-51 76 0 43 10 73 51 73" id="K"/><path fill="#3a414a" d="M24 0v-261h32V0H24" id="L"/><path fill="#3a414a" d="M100-194c62-1 85 37 85 99 1 63-27 99-86 99S16-35 15-95c0-66 28-99 85-99zM99-20c44 1 53-31 53-75 0-43-8-75-51-75s-53 32-53 75 10 74 51 75" id="M"/><path fill="#3a414a" d="M179-190L93 31C79 59 56 82 12 73V49c39 6 53-20 64-50L1-190h34L92-34l54-156h33" id="N"/><path fill="#3a414a" d="M100-194c63 0 86 42 84 106H49c0 40 14 67 53 68 26 1 43-12 49-29l28 8c-11 28-37 45-77 45C44 4 14-33 15-96c1-61 26-98 85-98zm52 81c6-60-76-77-97-28-3 7-6 17-6 28h103" id="O"/><g id="d"><use transform="matrix(0.06172839506172839,0,0,0.06172839506172839,0,0)" xlink:href="#I"/><use transform="matrix(0.06172839506172839,0,0,0.06172839506172839,14.814814814814813,0)" xlink:href="#J"/><use transform="matrix(0.06172839506172839,0,0,0.06172839506172839,33.2716049382716,0)" xlink:href="#K"/><use transform="matrix(0.06172839506172839,0,0,0.06172839506172839,45.61728395061728,0)" xlink:href="#L"/><use transform="matrix(0.06172839506172839,0,0,0.06172839506172839,50.49382716049382,0)" xlink:href="#M"/><use transform="matrix(0.06172839506172839,0,0,0.06172839506172839,62.8395061728395,0)" xlink:href="#N"/><use transform="matrix(0.06172839506172839,0,0,0.06172839506172839,73.9506172839506,0)" xlink:href="#O"/><use transform="matrix(0.06172839506172839,0,0,0.06172839506172839,86.29629629629629,0)" xlink:href="#O"/></g><path fill="#3a414a" d="M205 0l-28-72H64L36 0H1l101-248h38L239 0h-34zm-38-99l-47-123c-12 45-31 82-46 123h93" id="P"/><path fill="#3a414a" d="M59-47c-2 24 18 29 38 22v24C64 9 27 4 27-40v-127H5v-23h24l9-43h21v43h35v23H59v120" id="Q"/><g id="e"><use transform="matrix(0.06172839506172839,0,0,0.06172839506172839,0,0)" xlink:href="#P"/><use transform="matrix(0.06172839506172839,0,0,0.06172839506172839,14.814814814814813,0)" xlink:href="#L"/><use transform="matrix(0.06172839506172839,0,0,0.06172839506172839,19.691358024691354,0)" xlink:href="#Q"/></g><path fill="#3a414a" d="M26 75v-336h71v23H56V52h41v23H26" id="R"/><path fill="#3a414a" d="M141-36C126-15 110 5 73 4 37 3 15-17 15-53c-1-64 63-63 125-63 3-35-9-54-41-54-24 1-41 7-42 31l-33-3c5-37 33-52 76-52 45 0 72 20 72 64v82c-1 20 7 32 28 27v20c-31 9-61-2-59-35zM48-53c0 20 12 33 32 33 41-3 63-29 60-74-43 2-92-5-92 41" id="S"/><path fill="#3a414a" d="M135-143c-3-34-86-38-87 0 15 53 115 12 119 90S17 21 10-45l28-5c4 36 97 45 98 0-10-56-113-15-118-90-4-57 82-63 122-42 12 7 21 19 24 35" id="T"/><path fill="#3a414a" d="M143 0L79-87 56-68V0H24v-261h32v163l83-92h37l-77 82L181 0h-38" id="U"/><path fill="#3a414a" d="M232-93c-1 65-40 97-104 97C67 4 28-28 28-90v-158h33c8 89-33 224 67 224 102 0 64-133 71-224h33v155" id="V"/><path fill="#3a414a" d="M85-194c31 0 48 13 60 33l-1-100h32l1 261h-30c-2-10 0-23-3-31C134-8 116 4 85 4 32 4 16-35 15-94c0-66 23-100 70-100zm9 24c-40 0-46 34-46 75 0 40 6 74 45 74 42 0 51-32 51-76 0-42-9-74-50-73" id="W"/><g id="f"><use transform="matrix(0.06172839506172839,0,0,0.06172839506172839,0,0)" xlink:href="#R"/><use transform="matrix(0.06172839506172839,0,0,0.06172839506172839,6.172839506172839,0)" xlink:href="#Q"/><use transform="matrix(0.06172839506172839,0,0,0.06172839506172839,12.345679012345679,0)" xlink:href="#S"/><use transform="matrix(0.06172839506172839,0,0,0.06172839506172839,24.691358024691358,0)" xlink:href="#T"/><use transform="matrix(0.06172839506172839,0,0,0.06172839506172839,35.80246913580247,0)" xlink:href="#U"/><use transform="matrix(0.06172839506172839,0,0,0.06172839506172839,46.91358024691358,0)" xlink:href="#V"/><use transform="matrix(0.06172839506172839,0,0,0.06172839506172839,62.901234567901234,0)" xlink:href="#K"/><use transform="matrix(0.06172839506172839,0,0,0.06172839506172839,75.24691358024691,0)" xlink:href="#W"/><use transform="matrix(0.06172839506172839,0,0,0.06172839506172839,87.5925925925926,0)" xlink:href="#S"/><use transform="matrix(0.06172839506172839,0,0,0.06172839506172839,99.93827160493828,0)" xlink:href="#Q"/><use transform="matrix(0.06172839506172839,0,0,0.06172839506172839,106.11111111111111,0)" xlink:href="#O"/></g><path fill="#3a414a" d="M63-70H37l-4-178h34zM33 0v-35h34V0H33" id="X"/><path fill="#3a414a" d="M18-150v-26h174v26H18zm0 90v-26h174v26H18" id="Y"/><g id="g"><use transform="matrix(0.06172839506172839,0,0,0.06172839506172839,0,0)" xlink:href="#X"/><use transform="matrix(0.06172839506172839,0,0,0.06172839506172839,6.172839506172839,0)" xlink:href="#Y"/></g><path fill="#3a414a" d="M117-194c89-4 53 116 60 194h-32v-121c0-31-8-49-39-48C34-167 62-67 57 0H25l-1-190h30c1 10-1 24 2 32 11-22 29-35 61-36" id="Z"/><path fill="#3a414a" d="M84 4C-5 8 30-112 23-190h32v120c0 31 7 50 39 49 72-2 45-101 50-169h31l1 190h-30c-1-10 1-25-2-33-11 22-28 36-60 37" id="aa"/><path fill="#3a414a" d="M3 75V52h41v-290H3v-23h71V75H3" id="ab"/><g id="h"><use transform="matrix(0.06172839506172839,0,0,0.06172839506172839,0,0)" xlink:href="#Z"/><use transform="matrix(0.06172839506172839,0,0,0.06172839506172839,12.345679012345679,0)" xlink:href="#aa"/><use transform="matrix(0.06172839506172839,0,0,0.06172839506172839,24.691358024691358,0)" xlink:href="#L"/><use transform="matrix(0.06172839506172839,0,0,0.06172839506172839,29.5679012345679,0)" xlink:href="#L"/><use transform="matrix(0.06172839506172839,0,0,0.06172839506172839,34.44444444444444,0)" xlink:href="#ab"/></g><path fill="#3a414a" d="M33-154v-36h34v36H33zM33 0v-36h34V0H33" id="ac"/><path fill="#3a414a" d="M127-220V0H93v-220H8v-28h204v28h-85" id="ad"/><path fill="#3a414a" d="M114-163C36-179 61-72 57 0H25l-1-190h30c1 12-1 29 2 39 6-27 23-49 58-41v29" id="ae"/><path fill="#3a414a" d="M24-231v-30h32v30H24zM24 0v-190h32V0H24" id="af"/><path fill="#3a414a" d="M30-248c87 1 191-15 191 75 0 78-77 80-158 76V0H30v-248zm33 125c57 0 124 11 124-50 0-59-68-47-124-48v98" id="ag"/><path fill="#3a414a" d="M177-190C167-65 218 103 67 71c-23-6-38-20-44-43l32-5c15 47 100 32 89-28v-30C133-14 115 1 83 1 29 1 15-40 15-95c0-56 16-97 71-98 29-1 48 16 59 35 1-10 0-23 2-32h30zM94-22c36 0 50-32 50-73 0-42-14-75-50-75-39 0-46 34-46 75s6 73 46 73" id="ah"/><g id="i"><use transform="matrix(0.06172839506172839,0,0,0.06172839506172839,0,0)" xlink:href="#ac"/><use transform="matrix(0.06172839506172839,0,0,0.06172839506172839,6.172839506172839,0)" xlink:href="#V"/><use transform="matrix(0.06172839506172839,0,0,0.06172839506172839,22.160493827160494,0)" xlink:href="#K"/><use transform="matrix(0.06172839506172839,0,0,0.06172839506172839,34.50617283950617,0)" xlink:href="#W"/><use transform="matrix(0.06172839506172839,0,0,0.06172839506172839,46.85185185185185,0)" xlink:href="#S"/><use transform="matrix(0.06172839506172839,0,0,0.06172839506172839,59.197530864197525,0)" xlink:href="#Q"/><use transform="matrix(0.06172839506172839,0,0,0.06172839506172839,65.37037037037037,0)" xlink:href="#O"/><use transform="matrix(0.06172839506172839,0,0,0.06172839506172839,77.71604938271605,0)" xlink:href="#ad"/><use transform="matrix(0.06172839506172839,0,0,0.06172839506172839,88.76543209876543,0)" xlink:href="#S"/><use transform="matrix(0.06172839506172839,0,0,0.06172839506172839,101.11111111111111,0)" xlink:href="#T"/><use transform="matrix(0.06172839506172839,0,0,0.06172839506172839,112.22222222222223,0)" xlink:href="#U"/><use transform="matrix(0.06172839506172839,0,0,0.06172839506172839,123.33333333333334,0)" xlink:href="#P"/><use transform="matrix(0.06172839506172839,0,0,0.06172839506172839,138.14814814814815,0)" xlink:href="#Z"/><use transform="matrix(0.06172839506172839,0,0,0.06172839506172839,150.49382716049382,0)" xlink:href="#W"/><use transform="matrix(0.06172839506172839,0,0,0.06172839506172839,162.8395061728395,0)" xlink:href="#ae"/><use transform="matrix(0.06172839506172839,0,0,0.06172839506172839,170.18518518518516,0)" xlink:href="#M"/><use transform="matrix(0.06172839506172839,0,0,0.06172839506172839,182.53086419753083,0)" xlink:href="#af"/><use transform="matrix(0.06172839506172839,0,0,0.06172839506172839,187.40740740740736,0)" xlink:href="#W"/><use transform="matrix(0.06172839506172839,0,0,0.06172839506172839,199.75308641975303,0)" xlink:href="#ag"/><use transform="matrix(0.06172839506172839,0,0,0.06172839506172839,214.56790123456784,0)" xlink:href="#S"/><use transform="matrix(0.06172839506172839,0,0,0.06172839506172839,226.9135802469135,0)" xlink:href="#ah"/><use transform="matrix(0.06172839506172839,0,0,0.06172839506172839,239.25925925925918,0)" xlink:href="#O"/></g><path fill="#3a414a" d="M135-194c52 0 70 43 70 98 0 56-19 99-73 100-30 1-46-15-58-35L72 0H24l1-261h50v104c11-23 29-37 60-37zM114-30c31 0 40-27 40-66 0-37-7-63-39-63s-41 28-41 65c0 36 8 64 40 64" id="ai"/><path fill="#3a414a" d="M115-3C79 11 28 4 28-45v-112H4v-33h27l15-45h31v45h36v33H77v99c-1 23 16 31 38 25v30" id="aj"/><path fill="#3a414a" d="M135-194c87-1 58 113 63 194h-50c-7-57 23-157-34-157-59 0-34 97-39 157H25l-1-190h47c2 12-1 28 3 38 12-26 28-41 61-42" id="ak"/><path fill="#3a414a" d="M238-95c0 69-44 99-111 99C63 4 22-25 22-93v-155h51v151c-1 38 19 59 55 60 90 1 49-130 58-211h52v153" id="al"/><path fill="#3a414a" d="M135-194c53 0 70 44 70 98 0 56-19 98-73 100-31 1-45-17-59-34 3 33 2 69 2 105H25l-1-265h48c2 10 0 23 3 31 11-24 29-35 60-35zM114-30c33 0 39-31 40-66 0-38-9-64-40-64-56 0-55 130 0 130" id="am"/><path fill="#3a414a" d="M88-194c31-1 46 15 58 34l-1-101h50l1 261h-48c-2-10 0-23-3-31C134-8 116 4 84 4 32 4 16-41 15-95c0-56 19-97 73-99zm17 164c33 0 40-30 41-66 1-37-9-64-41-64s-38 30-39 65c0 43 13 65 39 65" id="an"/><path fill="#3a414a" d="M133-34C117-15 103 5 69 4 32 3 11-16 11-54c-1-60 55-63 116-61 1-26-3-47-28-47-18 1-26 9-28 27l-52-2c7-38 36-58 82-57s74 22 75 68l1 82c-1 14 12 18 25 15v27c-30 8-71 5-69-32zm-48 3c29 0 43-24 42-57-32 0-66-3-65 30 0 17 8 27 23 27" id="ao"/><path fill="#3a414a" d="M185-48c-13 30-37 53-82 52C43 2 14-33 14-96s30-98 90-98c62 0 83 45 84 108H66c0 31 8 55 39 56 18 0 30-7 34-22zm-45-69c5-46-57-63-70-21-2 6-4 13-4 21h74" id="ap"/><path fill="#3a414a" d="M136-208V0H84v-208H4v-40h212v40h-80" id="aq"/><path fill="#3a414a" d="M137-138c1-29-70-34-71-4 15 46 118 7 119 86 1 83-164 76-172 9l43-7c4 19 20 25 44 25 33 8 57-30 24-41C81-84 22-81 20-136c-2-80 154-74 161-7" id="ar"/><path fill="#3a414a" d="M147 0L96-86 75-71V0H25v-261h50v150l67-79h53l-66 74L201 0h-54" id="as"/><path fill="#3a414a" d="M67-93c0 74 22 123 53 168H70C40 30 18-18 18-93s22-123 52-168h50c-32 44-53 94-53 168" id="at"/><path fill="#3a414a" d="M102-93c0 74-22 123-52 168H0C30 29 54-18 53-93c0-74-22-123-53-168h50c30 45 52 94 52 168" id="au"/><g id="j"><use transform="matrix(0.06172839506172839,0,0,0.06172839506172839,0,0)" xlink:href="#ai"/><use transform="matrix(0.06172839506172839,0,0,0.06172839506172839,13.518518518518517,0)" xlink:href="#aj"/><use transform="matrix(0.06172839506172839,0,0,0.06172839506172839,20.864197530864196,0)" xlink:href="#ak"/><use transform="matrix(0.06172839506172839,0,0,0.06172839506172839,34.382716049382715,0)" xlink:href="#al"/><use transform="matrix(0.06172839506172839,0,0,0.06172839506172839,50.37037037037037,0)" xlink:href="#am"/><use transform="matrix(0.06172839506172839,0,0,0.06172839506172839,63.888888888888886,0)" xlink:href="#an"/><use transform="matrix(0.06172839506172839,0,0,0.06172839506172839,77.4074074074074,0)" xlink:href="#ao"/><use transform="matrix(0.06172839506172839,0,0,0.06172839506172839,89.75308641975309,0)" xlink:href="#aj"/><use transform="matrix(0.06172839506172839,0,0,0.06172839506172839,97.09876543209877,0)" xlink:href="#ap"/><use transform="matrix(0.06172839506172839,0,0,0.06172839506172839,109.44444444444446,0)" xlink:href="#aq"/><use transform="matrix(0.06172839506172839,0,0,0.06172839506172839,121.2962962962963,0)" xlink:href="#ao"/><use transform="matrix(0.06172839506172839,0,0,0.06172839506172839,133.64197530864197,0)" xlink:href="#ar"/><use transform="matrix(0.06172839506172839,0,0,0.06172839506172839,145.98765432098764,0)" xlink:href="#as"/><use transform="matrix(0.06172839506172839,0,0,0.06172839506172839,158.33333333333331,0)" xlink:href="#at"/><use transform="matrix(0.06172839506172839,0,0,0.06172839506172839,165.67901234567898,0)" xlink:href="#au"/></g><path fill="#3a414a" d="M33 0v-248h34V0H33" id="av"/><path fill="#3a414a" d="M212-179c-10-28-35-45-73-45-59 0-87 40-87 99 0 60 29 101 89 101 43 0 62-24 78-52l27 14C228-24 195 4 139 4 59 4 22-46 18-125c-6-104 99-153 187-111 19 9 31 26 39 46" id="aw"/><path fill="#3a414a" d="M96-169c-40 0-48 33-48 73s9 75 48 75c24 0 41-14 43-38l32 2c-6 37-31 61-74 61-59 0-76-41-82-99-10-93 101-131 147-64 4 7 5 14 7 22l-32 3c-4-21-16-35-41-35" id="ax"/><path fill="#3a414a" d="M240 0l2-218c-23 76-54 145-80 218h-23L58-218 59 0H30v-248h44l77 211c21-75 51-140 76-211h43V0h-30" id="ay"/><g id="k"><use transform="matrix(0.06172839506172839,0,0,0.06172839506172839,0,0)" xlink:href="#ac"/><use transform="matrix(0.06172839506172839,0,0,0.06172839506172839,6.172839506172839,0)" xlink:href="#P"/><use transform="matrix(0.06172839506172839,0,0,0.06172839506172839,20.98765432098765,0)" xlink:href="#ag"/><use transform="matrix(0.06172839506172839,0,0,0.06172839506172839,35.80246913580247,0)" xlink:href="#av"/><use transform="matrix(0.06172839506172839,0,0,0.06172839506172839,41.97530864197531,0)" xlink:href="#aw"/><use transform="matrix(0.06172839506172839,0,0,0.06172839506172839,57.96296296296296,0)" xlink:href="#M"/><use transform="matrix(0.06172839506172839,0,0,0.06172839506172839,70.30864197530865,0)" xlink:href="#Z"/><use transform="matrix(0.06172839506172839,0,0,0.06172839506172839,82.65432098765433,0)" xlink:href="#Z"/><use transform="matrix(0.06172839506172839,0,0,0.06172839506172839,95.00000000000001,0)" xlink:href="#O"/><use transform="matrix(0.06172839506172839,0,0,0.06172839506172839,107.3456790123457,0)" xlink:href="#ax"/><use transform="matrix(0.06172839506172839,0,0,0.06172839506172839,118.45679012345681,0)" xlink:href="#Q"/><use transform="matrix(0.06172839506172839,0,0,0.06172839506172839,124.62962962962965,0)" xlink:href="#af"/><use transform="matrix(0.06172839506172839,0,0,0.06172839506172839,129.50617283950618,0)" xlink:href="#M"/><use transform="matrix(0.06172839506172839,0,0,0.06172839506172839,141.85185185185185,0)" xlink:href="#Z"/><use transform="matrix(0.06172839506172839,0,0,0.06172839506172839,154.19753086419752,0)" xlink:href="#ay"/><use transform="matrix(0.06172839506172839,0,0,0.06172839506172839,172.6543209876543,0)" xlink:href="#S"/><use transform="matrix(0.06172839506172839,0,0,0.06172839506172839,184.99999999999997,0)" xlink:href="#Z"/><use transform="matrix(0.06172839506172839,0,0,0.06172839506172839,197.34567901234564,0)" xlink:href="#S"/><use transform="matrix(0.06172839506172839,0,0,0.06172839506172839,209.6913580246913,0)" xlink:href="#ah"/><use transform="matrix(0.06172839506172839,0,0,0.06172839506172839,222.03703703703698,0)" xlink:href="#O"/><use transform="matrix(0.06172839506172839,0,0,0.06172839506172839,234.38271604938265,0)" xlink:href="#ae"/></g><g id="l"><use transform="matrix(0.06172839506172839,0,0,0.06172839506172839,0,0)" xlink:href="#ac"/><use transform="matrix(0.06172839506172839,0,0,0.06172839506172839,6.172839506172839,0)" xlink:href="#ad"/><use transform="matrix(0.06172839506172839,0,0,0.06172839506172839,17.22222222222222,0)" xlink:href="#S"/><use transform="matrix(0.06172839506172839,0,0,0.06172839506172839,29.5679012345679,0)" xlink:href="#T"/><use transform="matrix(0.06172839506172839,0,0,0.06172839506172839,40.67901234567901,0)" xlink:href="#U"/><use transform="matrix(0.06172839506172839,0,0,0.06172839506172839,51.79012345679013,0)" xlink:href="#aw"/><use transform="matrix(0.06172839506172839,0,0,0.06172839506172839,67.77777777777779,0)" xlink:href="#M"/><use transform="matrix(0.06172839506172839,0,0,0.06172839506172839,80.12345679012347,0)" xlink:href="#Z"/><use transform="matrix(0.06172839506172839,0,0,0.06172839506172839,92.46913580246915,0)" xlink:href="#Q"/><use transform="matrix(0.06172839506172839,0,0,0.06172839506172839,98.64197530864199,0)" xlink:href="#ae"/><use transform="matrix(0.06172839506172839,0,0,0.06172839506172839,105.98765432098767,0)" xlink:href="#M"/><use transform="matrix(0.06172839506172839,0,0,0.06172839506172839,118.33333333333336,0)" xlink:href="#L"/><use transform="matrix(0.06172839506172839,0,0,0.06172839506172839,123.2098765432099,0)" xlink:href="#L"/><use transform="matrix(0.06172839506172839,0,0,0.06172839506172839,128.08641975308643,0)" xlink:href="#O"/><use transform="matrix(0.06172839506172839,0,0,0.06172839506172839,140.4320987654321,0)" xlink:href="#ae"/></g><path fill="#3a414a" d="M30-248c118-7 216 8 213 122C240-48 200 0 122 0H30v-248zM63-27c89 8 146-16 146-99s-60-101-146-95v194" id="az"/><path fill="#3a414a" d="M160-131c35 5 61 23 61 61C221 17 115-2 30 0v-248c76 3 177-17 177 60 0 33-19 50-47 57zm-97-11c50-1 110 9 110-42 0-47-63-36-110-37v79zm0 115c55-2 124 14 124-45 0-56-70-42-124-44v89" id="aA"/><path fill="#3a414a" d="M141 0L90-78 38 0H4l68-98-65-92h35l48 74 47-74h35l-64 92 68 98h-35" id="aB"/><g id="m"><use transform="matrix(0.06172839506172839,0,0,0.06172839506172839,0,0)" xlink:href="#ac"/><use transform="matrix(0.06172839506172839,0,0,0.06172839506172839,6.172839506172839,0)" xlink:href="#ay"/><use transform="matrix(0.06172839506172839,0,0,0.06172839506172839,24.629629629629626,0)" xlink:href="#N"/><use transform="matrix(0.06172839506172839,0,0,0.06172839506172839,35.74074074074073,0)" xlink:href="#az"/><use transform="matrix(0.06172839506172839,0,0,0.06172839506172839,51.728395061728385,0)" xlink:href="#aA"/><use transform="matrix(0.06172839506172839,0,0,0.06172839506172839,66.5432098765432,0)" xlink:href="#aw"/><use transform="matrix(0.06172839506172839,0,0,0.06172839506172839,82.53086419753086,0)" xlink:href="#M"/><use transform="matrix(0.06172839506172839,0,0,0.06172839506172839,94.87654320987654,0)" xlink:href="#Z"/><use transform="matrix(0.06172839506172839,0,0,0.06172839506172839,107.22222222222223,0)" xlink:href="#Q"/><use transform="matrix(0.06172839506172839,0,0,0.06172839506172839,113.39506172839506,0)" xlink:href="#O"/><use transform="matrix(0.06172839506172839,0,0,0.06172839506172839,125.74074074074075,0)" xlink:href="#aB"/><use transform="matrix(0.06172839506172839,0,0,0.06172839506172839,136.85185185185185,0)" xlink:href="#Q"/></g><path fill="#3a414a" d="M85 4C-2 5 27-109 22-190h50c7 57-23 150 33 157 60-5 35-97 40-157h50l1 190h-47c-2-12 1-28-3-38-12 25-28 42-61 42" id="aC"/><path fill="#3a414a" d="M24-248c120-7 223 5 221 122C244-46 201 0 124 0H24v-248zM76-40c74 7 117-18 117-86 0-67-45-88-117-82v168" id="aD"/><path fill="#3a414a" d="M25-224v-37h50v37H25zM25 0v-190h50V0H25" id="aE"/><path fill="#3a414a" d="M25 0v-261h50V0H25" id="aF"/><g id="n"><use transform="matrix(0.06172839506172839,0,0,0.06172839506172839,0,0)" xlink:href="#aC"/><use transform="matrix(0.06172839506172839,0,0,0.06172839506172839,13.518518518518517,0)" xlink:href="#am"/><use transform="matrix(0.06172839506172839,0,0,0.06172839506172839,27.037037037037035,0)" xlink:href="#an"/><use transform="matrix(0.06172839506172839,0,0,0.06172839506172839,40.55555555555555,0)" xlink:href="#ao"/><use transform="matrix(0.06172839506172839,0,0,0.06172839506172839,52.90123456790123,0)" xlink:href="#aj"/><use transform="matrix(0.06172839506172839,0,0,0.06172839506172839,60.246913580246904,0)" xlink:href="#ap"/><use transform="matrix(0.06172839506172839,0,0,0.06172839506172839,72.59259259259258,0)" xlink:href="#aq"/><use transform="matrix(0.06172839506172839,0,0,0.06172839506172839,84.44444444444443,0)" xlink:href="#ao"/><use transform="matrix(0.06172839506172839,0,0,0.06172839506172839,96.79012345679011,0)" xlink:href="#ar"/><use transform="matrix(0.06172839506172839,0,0,0.06172839506172839,109.1358024691358,0)" xlink:href="#as"/><use transform="matrix(0.06172839506172839,0,0,0.06172839506172839,121.48148148148148,0)" xlink:href="#at"/><use transform="matrix(0.06172839506172839,0,0,0.06172839506172839,128.82716049382717,0)" xlink:href="#aj"/><use transform="matrix(0.06172839506172839,0,0,0.06172839506172839,136.17283950617283,0)" xlink:href="#ao"/><use transform="matrix(0.06172839506172839,0,0,0.06172839506172839,148.5185185185185,0)" xlink:href="#ar"/><use transform="matrix(0.06172839506172839,0,0,0.06172839506172839,160.86419753086417,0)" xlink:href="#as"/><use transform="matrix(0.06172839506172839,0,0,0.06172839506172839,173.20987654320984,0)" xlink:href="#aD"/><use transform="matrix(0.06172839506172839,0,0,0.06172839506172839,189.1975308641975,0)" xlink:href="#ap"/><use transform="matrix(0.06172839506172839,0,0,0.06172839506172839,201.54320987654316,0)" xlink:href="#aj"/><use transform="matrix(0.06172839506172839,0,0,0.06172839506172839,208.88888888888883,0)" xlink:href="#ao"/><use transform="matrix(0.06172839506172839,0,0,0.06172839506172839,221.2345679012345,0)" xlink:href="#aE"/><use transform="matrix(0.06172839506172839,0,0,0.06172839506172839,227.40740740740733,0)" xlink:href="#aF"/><use transform="matrix(0.06172839506172839,0,0,0.06172839506172839,233.58024691358017,0)" xlink:href="#ar"/><use transform="matrix(0.06172839506172839,0,0,0.06172839506172839,245.92592592592584,0)" xlink:href="#au"/></g><g id="o"><use transform="matrix(0.06172839506172839,0,0,0.06172839506172839,0,0)" xlink:href="#Q"/><use transform="matrix(0.06172839506172839,0,0,0.06172839506172839,6.172839506172839,0)" xlink:href="#S"/><use transform="matrix(0.06172839506172839,0,0,0.06172839506172839,18.51851851851852,0)" xlink:href="#T"/><use transform="matrix(0.06172839506172839,0,0,0.06172839506172839,29.62962962962963,0)" xlink:href="#U"/><use transform="matrix(0.06172839506172839,0,0,0.06172839506172839,40.74074074074074,0)" xlink:href="#V"/><use transform="matrix(0.06172839506172839,0,0,0.06172839506172839,56.72839506172839,0)" xlink:href="#K"/><use transform="matrix(0.06172839506172839,0,0,0.06172839506172839,69.07407407407408,0)" xlink:href="#W"/><use transform="matrix(0.06172839506172839,0,0,0.06172839506172839,81.41975308641976,0)" xlink:href="#S"/><use transform="matrix(0.06172839506172839,0,0,0.06172839506172839,93.76543209876544,0)" xlink:href="#Q"/><use transform="matrix(0.06172839506172839,0,0,0.06172839506172839,99.93827160493828,0)" xlink:href="#O"/></g><use transform="matrix(0.06172839506172839,0,0,0.06172839506172839,0,0)" xlink:href="#ac" id="p"/><g id="q"><use transform="matrix(0.06172839506172839,0,0,0.06172839506172839,0,0)" xlink:href="#ad"/><use transform="matrix(0.06172839506172839,0,0,0.06172839506172839,11.049382716049381,0)" xlink:href="#S"/><use transform="matrix(0.06172839506172839,0,0,0.06172839506172839,23.39506172839506,0)" xlink:href="#T"/><use transform="matrix(0.06172839506172839,0,0,0.06172839506172839,34.50617283950617,0)" xlink:href="#U"/><use transform="matrix(0.06172839506172839,0,0,0.06172839506172839,45.61728395061728,0)" xlink:href="#V"/><use transform="matrix(0.06172839506172839,0,0,0.06172839506172839,61.60493827160493,0)" xlink:href="#K"/><use transform="matrix(0.06172839506172839,0,0,0.06172839506172839,73.9506172839506,0)" xlink:href="#W"/><use transform="matrix(0.06172839506172839,0,0,0.06172839506172839,86.29629629629629,0)" xlink:href="#S"/><use transform="matrix(0.06172839506172839,0,0,0.06172839506172839,98.64197530864197,0)" xlink:href="#Q"/><use transform="matrix(0.06172839506172839,0,0,0.06172839506172839,104.81481481481481,0)" xlink:href="#O"/></g><g id="r"><use transform="matrix(0.06172839506172839,0,0,0.06172839506172839,0,0)" xlink:href="#aj"/><use transform="matrix(0.06172839506172839,0,0,0.06172839506172839,7.345679012345679,0)" xlink:href="#ao"/><use transform="matrix(0.06172839506172839,0,0,0.06172839506172839,19.691358024691358,0)" xlink:href="#ar"/><use transform="matrix(0.06172839506172839,0,0,0.06172839506172839,32.03703703703704,0)" xlink:href="#as"/><use transform="matrix(0.06172839506172839,0,0,0.06172839506172839,44.382716049382715,0)" xlink:href="#al"/><use transform="matrix(0.06172839506172839,0,0,0.06172839506172839,60.37037037037037,0)" xlink:href="#am"/><use transform="matrix(0.06172839506172839,0,0,0.06172839506172839,73.88888888888889,0)" xlink:href="#an"/><use transform="matrix(0.06172839506172839,0,0,0.06172839506172839,87.4074074074074,0)" xlink:href="#ao"/><use transform="matrix(0.06172839506172839,0,0,0.06172839506172839,99.75308641975309,0)" xlink:href="#aj"/><use transform="matrix(0.06172839506172839,0,0,0.06172839506172839,107.09876543209877,0)" xlink:href="#ap"/></g><path fill="#3a414a" d="M15-148v-39h180v39H15zm0 97v-39h180v39H15" id="aG"/><use transform="matrix(0.06172839506172839,0,0,0.06172839506172839,0,0)" xlink:href="#aG" id="s"/><path fill="#3a414a" d="M110-194c64 0 96 36 96 99 0 64-35 99-97 99-61 0-95-36-95-99 0-62 34-99 96-99zm-1 164c35 0 45-28 45-65 0-40-10-65-43-65-34 0-45 26-45 65 0 36 10 65 43 65" id="aH"/><g id="t"><use transform="matrix(0.06172839506172839,0,0,0.06172839506172839,0,0)" xlink:href="#am"/><use transform="matrix(0.06172839506172839,0,0,0.06172839506172839,13.518518518518517,0)" xlink:href="#aH"/><use transform="matrix(0.06172839506172839,0,0,0.06172839506172839,27.037037037037035,0)" xlink:href="#ar"/><use transform="matrix(0.06172839506172839,0,0,0.06172839506172839,39.382716049382715,0)" xlink:href="#aj"/><use transform="matrix(0.06172839506172839,0,0,0.06172839506172839,46.72839506172839,0)" xlink:href="#aq"/><use transform="matrix(0.06172839506172839,0,0,0.06172839506172839,58.58024691358025,0)" xlink:href="#ao"/><use transform="matrix(0.06172839506172839,0,0,0.06172839506172839,70.92592592592592,0)" xlink:href="#ar"/><use transform="matrix(0.06172839506172839,0,0,0.06172839506172839,83.27160493827161,0)" xlink:href="#as"/><use transform="matrix(0.06172839506172839,0,0,0.06172839506172839,95.61728395061729,0)" xlink:href="#at"/><use transform="matrix(0.06172839506172839,0,0,0.06172839506172839,102.96296296296298,0)" xlink:href="#aj"/><use transform="matrix(0.06172839506172839,0,0,0.06172839506172839,110.30864197530866,0)" xlink:href="#ao"/><use transform="matrix(0.06172839506172839,0,0,0.06172839506172839,122.65432098765434,0)" xlink:href="#ar"/><use transform="matrix(0.06172839506172839,0,0,0.06172839506172839,135.00000000000003,0)" xlink:href="#as"/><use transform="matrix(0.06172839506172839,0,0,0.06172839506172839,147.3456790123457,0)" xlink:href="#aD"/><use transform="matrix(0.06172839506172839,0,0,0.06172839506172839,163.33333333333334,0)" xlink:href="#ap"/><use transform="matrix(0.06172839506172839,0,0,0.06172839506172839,175.679012345679,0)" xlink:href="#aj"/><use transform="matrix(0.06172839506172839,0,0,0.06172839506172839,183.02469135802468,0)" xlink:href="#ao"/><use transform="matrix(0.06172839506172839,0,0,0.06172839506172839,195.37037037037035,0)" xlink:href="#aE"/><use transform="matrix(0.06172839506172839,0,0,0.06172839506172839,201.5432098765432,0)" xlink:href="#aF"/><use transform="matrix(0.06172839506172839,0,0,0.06172839506172839,207.71604938271602,0)" xlink:href="#ar"/><use transform="matrix(0.06172839506172839,0,0,0.06172839506172839,220.0617283950617,0)" xlink:href="#au"/></g><g id="u"><use transform="matrix(0.06172839506172839,0,0,0.06172839506172839,0,0)" xlink:href="#R"/><use transform="matrix(0.06172839506172839,0,0,0.06172839506172839,6.172839506172839,0)" xlink:href="#O"/><use transform="matrix(0.06172839506172839,0,0,0.06172839506172839,18.51851851851852,0)" xlink:href="#L"/><use transform="matrix(0.06172839506172839,0,0,0.06172839506172839,23.395061728395063,0)" xlink:href="#T"/><use transform="matrix(0.06172839506172839,0,0,0.06172839506172839,34.50617283950618,0)" xlink:href="#O"/><use transform="matrix(0.06172839506172839,0,0,0.06172839506172839,46.851851851851855,0)" xlink:href="#ab"/></g><path fill="#3a414a" d="M123 10C108 53 80 86 19 72V37c35 8 53-11 59-39L3-190h52l48 148c12-52 28-100 44-148h51" id="aI"/><g id="v"><use transform="matrix(0.06172839506172839,0,0,0.06172839506172839,0,0)" xlink:href="#an"/><use transform="matrix(0.06172839506172839,0,0,0.06172839506172839,13.518518518518517,0)" xlink:href="#aE"/><use transform="matrix(0.06172839506172839,0,0,0.06172839506172839,19.691358024691358,0)" xlink:href="#ar"/><use transform="matrix(0.06172839506172839,0,0,0.06172839506172839,32.03703703703704,0)" xlink:href="#am"/><use transform="matrix(0.06172839506172839,0,0,0.06172839506172839,45.55555555555556,0)" xlink:href="#aF"/><use transform="matrix(0.06172839506172839,0,0,0.06172839506172839,51.7283950617284,0)" xlink:href="#ao"/><use transform="matrix(0.06172839506172839,0,0,0.06172839506172839,64.07407407407408,0)" xlink:href="#aI"/><use transform="matrix(0.06172839506172839,0,0,0.06172839506172839,76.41975308641976,0)" xlink:href="#aq"/><use transform="matrix(0.06172839506172839,0,0,0.06172839506172839,88.27160493827161,0)" xlink:href="#ao"/><use transform="matrix(0.06172839506172839,0,0,0.06172839506172839,100.61728395061729,0)" xlink:href="#ar"/><use transform="matrix(0.06172839506172839,0,0,0.06172839506172839,112.96296296296298,0)" xlink:href="#as"/><use transform="matrix(0.06172839506172839,0,0,0.06172839506172839,125.30864197530866,0)" xlink:href="#at"/><use transform="matrix(0.06172839506172839,0,0,0.06172839506172839,132.65432098765433,0)" xlink:href="#aj"/><use transform="matrix(0.06172839506172839,0,0,0.06172839506172839,140,0)" xlink:href="#ao"/><use transform="matrix(0.06172839506172839,0,0,0.06172839506172839,152.34567901234567,0)" xlink:href="#ar"/><use transform="matrix(0.06172839506172839,0,0,0.06172839506172839,164.69135802469134,0)" xlink:href="#as"/><use transform="matrix(0.06172839506172839,0,0,0.06172839506172839,177.037037037037,0)" xlink:href="#al"/><use transform="matrix(0.06172839506172839,0,0,0.06172839506172839,193.02469135802465,0)" xlink:href="#am"/><use transform="matrix(0.06172839506172839,0,0,0.06172839506172839,206.54320987654316,0)" xlink:href="#an"/><use transform="matrix(0.06172839506172839,0,0,0.06172839506172839,220.06172839506166,0)" xlink:href="#ao"/><use transform="matrix(0.06172839506172839,0,0,0.06172839506172839,232.40740740740733,0)" xlink:href="#aj"/><use transform="matrix(0.06172839506172839,0,0,0.06172839506172839,239.753086419753,0)" xlink:href="#ap"/><use transform="matrix(0.06172839506172839,0,0,0.06172839506172839,252.09876543209867,0)" xlink:href="#au"/></g><path fill="#3a414a" d="M24 0v-248h195v40H76v63h132v40H76v65h150V0H24" id="aJ"/><path fill="#3a414a" d="M135-150c-39-12-60 13-60 57V0H25l-1-190h47c2 13-1 29 3 40 6-28 27-53 61-41v41" id="aK"/><g id="w"><use transform="matrix(0.06172839506172839,0,0,0.06172839506172839,0,0)" xlink:href="#an"/><use transform="matrix(0.06172839506172839,0,0,0.06172839506172839,13.518518518518517,0)" xlink:href="#aE"/><use transform="matrix(0.06172839506172839,0,0,0.06172839506172839,19.691358024691358,0)" xlink:href="#ar"/><use transform="matrix(0.06172839506172839,0,0,0.06172839506172839,32.03703703703704,0)" xlink:href="#am"/><use transform="matrix(0.06172839506172839,0,0,0.06172839506172839,45.55555555555556,0)" xlink:href="#aF"/><use transform="matrix(0.06172839506172839,0,0,0.06172839506172839,51.7283950617284,0)" xlink:href="#ao"/><use transform="matrix(0.06172839506172839,0,0,0.06172839506172839,64.07407407407408,0)" xlink:href="#aI"/><use transform="matrix(0.06172839506172839,0,0,0.06172839506172839,76.41975308641976,0)" xlink:href="#aJ"/><use transform="matrix(0.06172839506172839,0,0,0.06172839506172839,91.23456790123457,0)" xlink:href="#aK"/><use transform="matrix(0.06172839506172839,0,0,0.06172839506172839,99.87654320987654,0)" xlink:href="#aK"/><use transform="matrix(0.06172839506172839,0,0,0.06172839506172839,108.51851851851852,0)" xlink:href="#aH"/><use transform="matrix(0.06172839506172839,0,0,0.06172839506172839,122.03703703703704,0)" xlink:href="#aK"/><use transform="matrix(0.06172839506172839,0,0,0.06172839506172839,130.679012345679,0)" xlink:href="#at"/><use transform="matrix(0.06172839506172839,0,0,0.06172839506172839,138.02469135802468,0)" xlink:href="#ap"/><use transform="matrix(0.06172839506172839,0,0,0.06172839506172839,150.37037037037035,0)" xlink:href="#aK"/><use transform="matrix(0.06172839506172839,0,0,0.06172839506172839,159.01234567901233,0)" xlink:href="#aK"/><use transform="matrix(0.06172839506172839,0,0,0.06172839506172839,167.6543209876543,0)" xlink:href="#aH"/><use transform="matrix(0.06172839506172839,0,0,0.06172839506172839,181.1728395061728,0)" xlink:href="#aK"/><use transform="matrix(0.06172839506172839,0,0,0.06172839506172839,189.81481481481478,0)" xlink:href="#au"/></g></defs></g></svg>